<svg width="470" height="591" viewBox="0 0 470 591" fill="none" xmlns="http://www.w3.org/2000/svg">
<path d="M342.326 478.498C342.236 480.391 340.908 482.769 339.626 484.018C334.202 489.297 311.49 520.367 307.083 522.256C305.615 522.239 305.866 522.467 304.878 521.766C303.123 518.325 299.56 485.458 298.784 479.382C298.295 476.153 296.692 469.919 299.419 467.645C301.941 466.682 311.992 470.04 315.67 470.965C317.627 463.594 318.947 456.19 321.314 448.943C323.679 441.709 333.054 444.262 332.272 450.732C331.382 458.095 328.879 466.732 326.872 473.945C330.943 474.999 339.014 476.585 342.326 478.498Z" fill="#2D2D2D"/>
<path d="M288.344 249.242C286.035 258.701 280.676 252.257 279.493 257.212C278.573 261.062 274.34 264.106 271.077 261.238C267.988 258.522 267.787 254.172 267.473 250.283C261.15 248.491 252.511 249.362 255.299 240.018C258.232 236.14 260.817 237.017 265.082 237.703C264.293 234.523 263.961 233.016 265.621 230.058C267.09 227.44 269.868 226.722 272.311 228.469C276.185 231.238 276.84 237.191 277.725 241.551C279.865 242.293 284.078 243.813 285.724 245.178L285.918 245.342C287.375 246.559 287.627 247.435 288.344 249.242Z" fill="#2D2D2D"/>
<path d="M230.193 144.086C230.178 152.113 224.037 153.337 219.911 148.761C215.114 143.442 207.323 135.325 203.501 129.654C203.489 128.77 203.495 127.368 203.831 126.546C208.765 114.482 220.032 131.56 224.062 135.846C226.01 137.917 228.91 141.723 230.193 144.086Z" fill="#2D2D2D"/>
<path d="M262.852 197.241C262.538 201.244 258.779 204.617 255.731 202.874C250.188 199.705 242.577 182.664 240.4 177.391C240.811 172.953 245.37 169.373 248.846 172.226C253.368 175.938 261.748 191.803 262.852 197.241Z" fill="#2D2D2D"/>
<path d="M167.982 254.684C168.002 255.752 168.057 256.92 167.878 257.973C167.641 259.37 166.773 260.5 165.614 261.258C161.977 263.639 143.216 272.214 139.633 271.358C137.591 270.87 136.602 269.44 135.538 267.762C134.859 258.475 147.73 257.601 154.535 253.691C159.448 250.868 164.47 249.531 167.982 254.684Z" fill="#2D2D2D"/>
<path d="M235.969 338.157C236.456 344.212 231.107 347.317 225.915 349.579C219.101 352.546 209.948 361.233 204.538 353.14C204.35 351.106 204.126 348.35 206.188 347.117C213.328 342.838 221.15 338.767 228.518 334.882C231.662 333.226 234.216 335.712 235.969 338.157Z" fill="#2D2D2D"/>
<path d="M331.365 291.507C331.143 294.022 329.88 296.475 327.294 297.189C320.341 299.098 317.805 288.751 314.745 284.43C312.426 281.16 307.951 276.668 306.953 273C307.622 269.147 310.636 264.712 314.84 267.47C321.315 271.718 329.001 284.277 331.365 291.507Z" fill="#2D2D2D"/>
<path d="M118.156 356.544C118.113 357.212 118.032 357.88 117.914 358.536C116.201 367.87 106.168 361.47 101.842 358.233C96.428 354.178 92.889 349.609 89.6811 343.757C89.6002 343.163 89.5865 341.478 89.8823 340.959C96.3533 329.637 102.616 344.001 106.912 347.683C111.434 351.559 115.681 351.036 118.156 356.544Z" fill="#2D2D2D"/>
<path d="M227.666 239.906C227.8 241.976 227.565 245.698 224.995 246.379C216.324 248.674 206.437 250.052 197.49 250.94C196.136 251.074 194.21 248.216 193.556 247.247C193.068 241.671 196.129 239.954 201.152 239.083C208.394 237.829 216.011 235.944 223.371 236.174C225.198 236.231 226.763 238.574 227.666 239.906Z" fill="#2D2D2D"/>
<path d="M179.184 361.723C179.013 363.661 178.259 366.255 176.165 366.961C170.865 368.475 164.389 369.135 158.8 369.256C151.785 369.409 147.593 371.24 144.351 364.192C144.945 356.547 152.029 358.087 157.829 357.647C163.033 357.257 168.207 356.771 173.403 356.51C176.795 356.34 178.203 358.93 179.184 361.723Z" fill="#2D2D2D"/>
<path d="M343.035 388.249C342.851 393.516 340.855 410.308 339.581 415.397C335.578 419.95 331.656 419.551 328.695 414.181C328.213 408.345 330.903 398.023 331.194 391.619C331.518 384.48 338.463 380.625 343.035 388.249Z" fill="#2D2D2D"/>
<path d="M343.699 342.847C344.022 347.566 345.74 356.111 339.207 357C337.67 357.22 336.109 356.809 334.877 355.862C331.667 353.368 332.049 341.506 331.531 336.659C331.082 332.911 329.72 327.818 331.989 325.017C333.008 323.759 334.483 322.962 336.091 322.792C344.009 322.041 343.261 337.48 343.699 342.847Z" fill="#2D2D2D"/>
<path d="M115.273 286.058C114.906 291.296 110.368 294.164 107.493 298.144C104.58 302.183 102.603 308.313 98.3001 311.069C94.7425 313.351 91.9026 309.869 90.4115 307.043C90.3509 301.763 96.9688 293.417 99.9659 289.159C103.852 283.643 110.925 276.646 115.273 286.058Z" fill="#2D2D2D"/>
<path d="M275.45 292.709C275.676 297.781 261.653 331.287 253.008 315.798C252.769 310.593 257.509 306.871 259.592 302.417C262.461 296.283 267.411 280.453 275.45 292.709Z" fill="#2D2D2D"/>
<path d="M187.418 100.888C184.669 115.245 168.05 99.4773 166.62 94.4026C168.046 80.7408 185.173 94.7285 187.418 100.888Z" fill="#2D2D2D"/>
</svg>
