<svg width="600" height="600" viewBox="0 0 600 600" fill="none" xmlns="http://www.w3.org/2000/svg">
<path d="M150.508 138.105C152.215 137.985 155.04 137.873 156.703 137.992C172.73 139.14 176.04 157.945 182.96 169.253C186.493 175.024 187.958 174.283 191.404 178.223L191.737 178.607C193.443 178.72 199.869 176.298 201.813 175.643C212.261 172.126 225.42 168.519 235.048 163.102L234.856 162.972C232.305 161.197 229.854 158.522 230.918 155.246C233.926 145.912 249.155 148.955 245.374 158.897C241.478 169.139 224.333 173.858 215.328 177.98C222.651 179.863 221.019 182.391 220.987 189.411C224.693 194.426 229.144 198.873 233.268 203.54C236.882 207.63 240.234 211.939 243.76 216.105C249.632 223.042 257.402 231.015 259.479 240.109C259.999 242.385 260.064 244.817 258.738 246.846C257.462 248.799 255.232 249.666 253.042 250.152C236.46 253.827 213.957 249.598 199.633 240.57C203.858 251.913 206.979 262.809 209.559 274.596C209.648 275.001 211.057 276.998 211.43 277.749L211.042 278.163C210.982 278.346 213.659 293.228 213.893 295.109C218.357 296.708 223.565 298.437 227.58 300.854C233.299 304.302 238.534 309.573 243.47 314.14C251.673 321.734 260.309 329.292 269.813 335.205C283.388 343.654 301.55 345.192 312.63 357.286C319.743 365.049 323.285 373.51 322.966 383.996C324.264 383.814 325.365 383.58 326.493 384.286C328.91 388.706 314.399 391.507 310.746 389.257C299.089 382.08 281.487 395.087 272.66 401.571C282.656 398.987 294.167 389.919 304.614 387.959C305.317 387.828 305.476 388.118 305.833 388.469C305.332 390.376 288.235 399.33 285.376 400.841C278.968 404.228 274.436 406.466 267.132 405.127C249.311 413.108 251.826 398.342 239.606 395.325C224.4 391.575 194.121 414.696 180.949 422.506C183.579 430.03 186.184 434.852 189.101 441.933C192.672 450.658 195.808 459.71 199.804 468.259C206.058 481.642 213.409 495.4 220.927 508.112C226.551 517.619 234.267 526.668 240.443 535.832C242.23 530.372 245.918 525.028 249.711 520.765C247.62 517.475 246.269 513.385 244.624 509.779C240.052 499.876 236.991 489.47 233.286 479.272C225.216 457.059 215.882 435.309 206.552 413.641C206.302 413.058 206.77 412.61 207.108 412.276C211.064 411.956 217.473 429.713 219.252 433.478C223.974 427.982 238.058 413.878 239.287 407.949C239.946 404.767 238.456 398.717 239.494 396.558C239.704 396.119 239.901 396.198 240.326 396.083C243.028 397.217 243.44 402.874 243.335 405.508C243.011 413.685 235.65 420.417 230.62 426.204C227.44 429.866 224.161 433.619 220.655 436.906L252.384 517.463C253.886 515.878 256.387 513.816 257.769 512.328C267.764 501.552 281.806 491.577 278.239 516.209C276.722 526.95 271.546 536.495 265.825 545.541C261.475 552.42 256.776 562.926 247.955 553.873C244.545 549.508 241.169 543.532 237.853 538.824C230.369 527.615 221.607 516.555 215.144 504.722C207.142 490.074 199.288 475.191 192.644 459.895C190.894 461.708 186.07 465.801 184.042 467.591C171.219 478.915 158.798 488.456 149.346 503.055C146.788 507.031 144.666 511.273 143.018 515.703C141.248 520.463 135.425 542.647 126.024 535.557C121.796 532.37 119.874 520.633 119.858 515.527C119.83 506.744 119.197 493.633 124.687 486.274C127.196 483.391 133.004 483.086 136.661 482.955C140.538 476.612 143.998 470.052 147.977 463.753C151.585 458.046 170.601 429.344 176.199 428.849C177.041 428.773 177.257 428.919 177.925 429.353C178.026 430.689 175.034 433.399 174.071 434.413C161.496 447.64 151.56 463.003 143.457 479.313C141.862 482.524 139.671 485.597 138.067 488.893L137.907 489.23C138.598 496.607 140.503 501.368 142.393 508.329C149.582 492.851 165.148 479.055 178.189 468.617C183.239 464.574 185.981 461.175 191.73 457.648C189.713 452.946 187.816 447.587 185.718 443.011C182.517 436.027 180.215 431.559 177.957 424.162C168.013 429.283 159.666 427.994 150.292 422.161C143.474 425.02 129.042 425.887 122.065 422.632C119.747 421.551 115.752 418.589 113.301 417.113C101.404 421.528 92.7694 408.227 81.0208 407.788C77.3947 407.65 70.8782 411.778 69.1166 410.571C68.9818 410.213 68.7823 409.642 68.8491 409.267C69.5074 405.576 71.0839 400.633 72.7787 397.372C80.6264 382.273 92.3012 369.561 103.52 356.928C105.551 354.643 107.725 352.159 109.987 350.108C105.788 345.248 102.066 339.995 98.8743 334.422C97.8993 332.688 94.7329 326.038 93.5871 325.129L92.4249 325.917C89.9622 326.392 75.0975 318.482 72.1532 316.742C70.5773 306.602 72.1245 293.254 72.9864 283.039C73.8017 273.375 73.6101 258.088 76.3722 248.833C81.8018 248.892 90.2569 250.995 95.6385 252.541C97.0532 250.038 98.5629 247.977 100.221 245.644C95.7448 245.026 91.3386 244.749 86.8013 244.027C80.1498 242.967 74.2957 241.312 67.826 239.549C66.7119 243.729 66.0726 251.672 65.7281 256.036C63.9357 278.749 65.356 301.463 65.0446 324.371C74.724 325.912 84.0011 328.75 92.954 332.711C94.6063 333.444 98.359 334.147 98.5391 336.019C96.8786 337.68 94.3283 336.98 92.2775 336.306C87.9395 334.876 83.9276 332.644 79.5996 331.112C74.4987 329.304 68.9135 328.601 64.0257 326.366C63.3427 325.906 62.8195 324.479 62.7597 323.729C61.7387 310.859 61.9289 296.527 61.2633 283.74C60.8645 276.083 61.8858 240.742 66.0785 236.356C68.475 236.071 74.6238 237.585 77.2558 238.251C85.6652 240.378 94.6646 240.672 103.03 242.402C108.631 234.491 119.64 226.37 128.479 222.451C131.713 221.018 138.407 218.406 141.96 219.688C142.782 219.984 142.841 220.023 143.805 220.239C146.806 219.179 144.305 209.265 143.742 206.576C135.252 211.458 124.228 212.197 114.525 211.254C113.268 211.132 112.314 210.581 111.56 209.558C111.547 207.672 114.604 202.941 115.467 200.894C122.115 185.127 117.204 166.443 123.217 150.415C124.755 146.314 126.963 144.423 130.886 143.158C132.734 143.945 134.964 145.149 136.793 146.077C140.401 139.826 143.695 138.783 150.508 138.105Z" fill="black"/>
<path d="M211.498 298.57C211.6 298.585 211.702 298.597 211.804 298.611C226.162 301.881 234.6 311.353 244.771 321.006C257.596 333.179 271.403 342.006 288.132 347.845C294.794 350.168 302.329 353.889 307.491 358.784C312.249 363.299 315.589 368.783 316.986 375.258C317.751 378.63 318.706 381.662 320.417 384.639C318.727 384.891 314.388 385.605 313.195 384.381L313.351 383.065L312.861 382.752C311.502 382.84 311.288 383.048 310.034 383.698C309.284 383.458 307.31 382.816 306.612 382.705C296.511 381.076 284.467 388.67 276.57 393.738C275.309 391.805 273.877 390.589 271.761 389.604C264.008 385.998 255.209 386.15 247.145 388.617C246.196 388.91 242.706 391.436 242.014 391.342C233.811 390.24 228.014 391.919 220.288 394.38C219.195 394.729 214.199 393.952 212.411 394.146C203.247 395.13 193.568 395.335 184.715 398.106C174.682 401.479 163.763 408.539 158.452 417.891C157.562 419.458 158.362 420.182 158.606 421.541C154.771 421.579 146.374 413.247 143.224 410.807C133.575 403.336 124.785 405.955 115.283 411.879L114.379 412.427C113.577 412.151 111.908 408.858 111.257 407.862C105.356 398.833 95.1724 385.887 82.7435 390.923C80.3458 391.896 77.2585 394.717 78.4822 397.567C80.5928 398.719 81.5918 395.496 83.1967 394.884C94.4113 390.601 104.226 406.919 111.264 413.751C110.513 414.111 109.404 414.527 108.607 414.858C99.8909 412.805 92.5122 405.867 83.5494 404.335C79.1962 403.591 76.7373 404.555 72.8678 406.122C77.894 389.93 89.62 377.323 100.56 364.758C103.933 360.882 108.623 355.436 112.516 352.216C115.92 357.088 118.692 360.647 123.565 364.301C128.222 367.79 133.5 369.721 138.536 365.514C141.002 363.451 140.979 360.639 141.101 357.732C152.063 360.352 163.818 367.872 174.941 370.726C179.063 371.449 186.705 374.959 186.878 368.065C187.402 347.297 187.199 326.402 187.957 305.669C190.316 304.852 193.453 303.794 195.856 303.284C202.344 301.91 205.811 302.074 211.498 298.57Z" fill="white"/>
<path d="M218.903 315.988C221.102 316.097 223.61 317.421 225.475 318.566C229.311 320.928 232.77 323.852 235.737 327.241C243.494 336.036 253.151 353.778 256.416 365.406C256.93 367.24 257.127 368.392 256.132 369.971C255.326 369.581 255.449 369.774 255 368.907C246.82 353.11 239.19 335.816 225.628 323.808C223.441 321.868 219.983 320.225 218.014 318.162C217.925 317.295 218.417 316.765 218.903 315.988Z" fill="black"/>
<path d="M205.081 335.852C206.664 335.995 207.529 336.76 208.307 338.116C213.197 346.65 221.63 366.977 219.906 376.41C219.163 376.138 219.206 376.12 218.618 375.569C216.412 368.474 214.25 361.656 211.666 354.687C210.109 350.488 204.87 339.862 205.081 335.852Z" fill="black"/>
<path d="M140.541 375.801C142.895 376.316 143.678 378.543 144.18 380.708C146.328 389.975 146.991 399.657 147.826 409.117C147.682 409.378 147.537 409.642 147.393 409.902C143.115 407.849 138.307 379.592 140.541 375.801Z" fill="black"/>
<path d="M124.986 262.469C132.465 264.172 140.103 266.683 147.381 268.305C158.034 270.679 165.675 271.725 176.114 275.335C174.384 285.539 175.658 296.025 174.627 306.244C172.882 323.555 169.942 339.68 169.926 357.179C165.988 355.55 162.158 354.2 158.141 352.773C150.734 350.177 143.059 348.422 135.26 347.537C150.346 345.677 137.489 334.767 127.939 337.635C122.394 334.046 113.669 315.159 111.363 308.45C110.261 305.277 109.481 302.004 109.036 298.679C107.875 290.191 108.629 284.866 113.521 277.743C117.136 272.478 121.134 267.546 124.986 262.469Z" fill="white"/>
<path d="M133.155 315.822C133.461 315.808 133.767 315.796 134.073 315.79C138.003 315.723 143.398 319.104 143.363 323.554C143.346 325.675 141.294 328.804 138.842 327.998C138.392 327.849 137.903 328.376 137.495 328.663C135.127 329.073 130.328 329.665 128.752 327.447C128.478 326.521 128.619 326.393 128.902 325.467C129.846 324.31 130.98 324.345 131.555 323.858C132.925 322.701 130.184 319.93 130.884 318.271C131.456 316.918 131.942 316.646 133.155 315.822Z" fill="black"/>
<path d="M135.729 321.266C137.95 321.758 138.904 322.698 138.912 324.98C137.554 324.283 136.385 322.616 135.729 321.266Z" fill="white"/>
<path d="M144.882 278.378C142.85 277.23 141.13 276.547 140.005 274.516C140.128 272.85 141.795 272.836 143.264 272.542C141.761 271.292 140.065 270.294 141.467 268.165C142.495 267.775 143.724 267.971 144.64 268.523C148.788 271.019 151.173 271.723 148.498 276.451C148.702 277.923 149.426 280.052 149.014 281.06C148.014 282.165 147.341 282.339 145.861 282.774C144.569 282.724 143.368 282.299 141.8 282.221C140.431 281.803 139.089 281.534 138.392 280.241C138.791 277.784 143.063 278.248 144.882 278.378Z" fill="black"/>
<path d="M138.868 294.79C143.744 294.743 146.993 298.364 143.258 302.629C145.427 303.444 149.468 303.957 150.414 306.124L150.074 306.822C149.265 307.352 149.137 307.247 148.169 307.191C145.793 306.954 141.873 306.06 139.462 305.565C138.707 305.843 138.594 305.893 137.806 306.019C134.754 304.296 133.081 296.263 138.868 294.79Z" fill="black"/>
<path d="M141.8 282.219C143.368 282.297 144.569 282.722 145.861 282.772L144.484 283.369C150.1 286.081 149.519 295.648 142.548 292.663C141.143 292.061 140.069 289.92 138.84 289.572C137.628 291.452 138.948 293.398 136.801 294.218L136.331 293.931C134.372 289.991 137.243 285.71 139.658 282.797C140.718 282.657 140.81 282.698 141.8 282.219Z" fill="black"/>
<path d="M141.8 282.219C143.367 282.297 144.569 282.722 145.861 282.772L144.484 283.369C143.122 282.902 141.148 282.891 139.658 282.797C140.718 282.657 140.81 282.698 141.8 282.219Z" fill="#BFBDBD"/>
<path d="M141.76 287.067C144.797 286.923 145.274 288.073 145.166 290.835C143.22 290.206 142.073 289.087 141.76 287.067Z" fill="white"/>
<path d="M159.375 282.629C162.34 282.92 162.443 285.326 163.25 287.862C166.939 284.978 169.338 285.819 170.691 290.198C171.545 292.962 171.095 295.612 167.965 296.175C167.462 295.641 167.572 295.759 167.196 295.12C168.026 292.16 167.959 291.59 166.786 289.026C165.789 289.892 164.153 291.464 162.889 291.644C157.809 292.37 156.812 285.828 159.375 282.629Z" fill="black"/>
<path d="M157.558 319.661C158.015 319.655 157.99 319.65 158.506 319.676C160.134 319.77 161.643 320.558 162.652 321.841C163.517 322.925 163.913 324.311 163.751 325.688C163.419 328.354 161.415 329.713 158.835 329.276C157.079 329.151 154.745 330.413 153.722 328.629C154.054 327.199 155.197 326.279 156.332 325.488C155.408 323.06 154.296 320.845 157.558 319.661Z" fill="black"/>
<path d="M152.961 331.941C156.219 332.12 164.704 334.347 166.266 337.379C166.368 338.311 166.095 338.577 165.616 339.392C162.355 339.274 153.708 336.743 152.194 333.667C152.248 332.475 152.095 333.061 152.961 331.941Z" fill="black"/>
<path d="M159.304 302.723C166.953 301.49 167.656 309.444 164.056 310.882L163.336 310.554C162.771 309.702 162.914 309.119 162.932 308.064L162.942 307.625C162.283 306.807 162.229 306.778 161.45 306.157C159.825 306.658 161.471 309.672 158.883 309.971C156.18 308.612 156.062 304.334 159.304 302.723Z" fill="black"/>
<path d="M160.949 293.902C165.338 293.808 165.563 295.557 167.164 299.14L163.628 301.724C159.467 303.611 155.913 296.465 160.949 293.902Z" fill="black"/>
<path d="M157.821 312.645C161.044 312.797 167.132 313.641 163.596 318.193C161.511 317.716 157.546 316.582 156.876 314.388C157.198 313.058 156.886 313.611 157.821 312.645Z" fill="black"/>
<path d="M135.819 309.055C137.929 309.093 141.466 309.579 142.089 311.996C141.964 313.186 141.92 313.13 141.142 314.094C139.511 314.064 137.907 313.663 136.455 312.919C135.466 312.397 135.111 312.028 134.781 310.979C134.988 309.723 134.884 310.145 135.819 309.055Z" fill="black"/>
<path d="M145.373 311.25C146.341 311.446 146.407 311.581 147.201 312.146C148.096 314.089 146.709 314.871 145.224 315.838C144.196 315.976 143.87 315.864 143.353 315.064C143.447 313.506 144.392 312.416 145.373 311.25Z" fill="black"/>
<path d="M166.7 315.797L168.169 316.148C168.967 316.878 168.742 316.447 168.945 317.443C168.538 318.466 168.303 318.539 167.418 319.175L165.917 319.04C165.193 318.483 165.422 318.847 165.283 317.868C165.801 316.775 165.875 316.708 166.7 315.797Z" fill="black"/>
<path d="M175.557 218.08C178.591 217.695 199.46 221.885 204.132 222.856C202.02 227.651 201.294 231.393 200.759 236.534C200.684 237.26 200.261 237.628 199.663 237.936C196.576 237.115 191.643 222.474 188.48 223.087C187.979 224.308 188.457 225.707 188.613 226.945C189.298 233.395 192.979 238.177 195.464 243.925C200.743 256.132 203.538 269.739 206.327 282.708C207.183 286.69 207.272 290.794 208.152 294.757C201.791 295.865 194.575 298.762 188.046 300.04C187.901 294.617 188.321 291.058 189.832 285.844C190.438 283.754 190.709 280.6 190.944 278.375C191.092 275.349 193.402 259.284 192.231 257.67C188.565 252.618 130.624 247.177 120.296 245.718C115.701 245.062 111.146 244.152 106.651 242.993C117.151 231.584 127.115 224.14 142.707 221.936L143.33 222.418C148.259 226.169 158.569 226.19 163.623 222.79C169.387 218.912 168.414 219.088 175.557 218.08Z" fill="white"/>
<path d="M104.07 246.273C108.75 247.359 113.911 248.4 118.659 249.121C122.938 249.771 127.128 250.029 131.423 250.901C126.707 255.508 122.854 260.587 118.838 265.802C114.937 270.869 110.306 276.012 107.586 281.824C103.041 291.537 105.689 303.584 109.268 313.179C112.411 320.983 119.558 337.926 127.447 342.227C128.143 342.549 129.003 342.411 129.613 342.027C132.537 340.182 134.844 341.453 137.548 342.672C134.752 343.214 129.772 342.569 128.68 345.42C128.989 347.354 129.838 347.772 131.341 349.003C134.388 351.751 139.874 360.593 132.814 362.685C131.02 363.215 127.083 361.111 125.713 359.72C120.555 354.481 115.073 349.287 110.073 343.899C104.08 336.748 99.743 328.604 95.4493 320.415C81.506 293.834 85.6433 269.426 104.07 246.273Z" fill="white"/>
<path d="M210.758 182.202C211.582 181.458 211.877 181.177 212.805 180.593C213.915 180.47 215.708 181.368 216.912 181.727C217.072 183.781 217.372 189.657 218.244 191.174C221.063 196.146 225.666 199.854 229.254 204.254C236.942 213.681 245.599 222.643 252.418 232.703C254.315 235.503 256.683 240.393 256.121 243.775C255.726 246.152 250.86 246.063 248.994 246.442C239.957 247.465 230.557 247.571 221.74 245.073C214.984 243.213 210.327 240.34 203.9 238.06C204.775 233.092 205.784 228.427 207.607 223.705C210.469 224.443 224.593 230.043 226.37 227.367C225.739 225.334 223.293 224.429 221.524 223.591C219.224 217.956 212.909 206.959 209.363 201.759C204.616 194.798 201.234 193.755 198.496 184.854C200.082 186.613 202.926 190.488 205.49 188.913C206.67 186.915 206.096 182.297 205.607 180.074C206.786 180.663 209.294 181.549 210.758 182.202Z" fill="white"/>
<path d="M135.329 251.066C137.853 251.485 140.842 251.732 143.406 251.98C158.795 253.468 173.603 256.363 188.772 259.283C188.329 261.886 187.793 267.078 187.117 269.366C183.367 282.041 184.832 294.328 184.637 307.116L183.965 369.89C171.478 367.634 155.591 359.311 142.522 355.394L140.476 354.747C139.785 353.258 138.926 351.641 138.179 350.162C144.211 351.585 151.035 353.789 156.936 355.772C161.858 357.43 166.231 359.862 171.421 360.793C174.696 359.666 173.471 348.609 173.866 345.108C175.639 329.387 178.044 313.816 178.972 298.004C179.517 288.724 180.451 281.503 177.793 272.351C172.527 269.933 158.856 267.454 152.9 266.058C144.258 264.031 135.586 261.91 126.952 259.787C129.843 256.423 131.958 253.946 135.329 251.066Z" fill="white"/>
<path d="M157.265 164.395C160.437 163.759 165.859 167.136 168.446 168.715C171.302 173.247 171.815 180.657 172.068 185.85C170.313 186.545 168.42 187.21 166.641 187.869C162.07 182.226 152.909 191.798 157.569 195.872C158.557 196.736 160.969 196.374 162.14 196.097C164.872 195.449 166.103 192.78 167.37 190.541L172.173 189.089C171.21 194.527 170.241 197.455 166.324 201.417C154.647 210.887 137.24 198.149 130.795 187.871C136.392 181.538 137.068 176.797 137.296 168.543C142.364 169.692 144.327 167.793 149.02 166.529C151.775 165.788 154.473 165.248 157.265 164.395Z" fill="white"/>
<path d="M141.606 176.425C144.833 176.325 147.015 176.868 147.94 180.174C147.444 182.966 142.826 181.514 140.766 181.1C139.865 181.44 140.031 181.576 139.374 182.603C138.824 184.084 138.455 185.939 136.599 185.621C135.112 183.947 135.665 181.405 136.706 179.604C137.895 177.546 139.381 176.966 141.606 176.425Z" fill="black"/>
<path d="M162.084 167.227C164.596 167.139 167.289 167.726 168.217 170.36C167.833 173.382 164.199 172.227 162.258 171.757C161.536 173.213 160.786 175.546 158.786 174.749C157.135 172.013 159.713 168.63 162.084 167.227Z" fill="black"/>
<path d="M156.111 180.066C157.24 180.049 157.25 179.976 158.238 180.603C159.328 182.317 158.678 182.978 157.218 184.021C156.097 184.053 155.469 184.201 154.538 183.601C153.442 181.904 154.816 181.07 156.111 180.066Z" fill="black"/>
<path d="M195.995 182.941L196.11 183.139C195.089 192.433 200.65 195.546 205.685 202.382C210.349 208.712 213.427 214.905 216.654 222.001C208.416 219.262 200.638 218.121 192.119 216.827C184.381 215.271 178.401 213.076 171.071 215.87C169.992 212.229 168.65 208.769 167.57 204.969C169.12 203.681 169.881 202.81 171.108 201.301C172.183 199.977 174.113 195.527 175.177 194.842C179.589 195.498 183.407 192.472 186.203 189.257C187.755 187.472 188.691 184.975 190.414 183.249C192.687 183.448 193.242 183.485 195.49 183.043L195.995 182.941Z" fill="white"/>
<path d="M273.582 504.75C275.575 505.488 275.261 508.327 275.05 510.179C273.551 522.797 267.717 534.293 261.078 544.939C256.711 551.944 255.546 557.065 249.067 548.162C247.084 545.101 243.696 540.565 242.048 537.551C242.518 537.519 243.704 537.478 244.035 537.187C248.337 533.402 250.705 527.098 253.814 522.495C254.435 521.575 257.63 518.622 258.52 517.646C262.524 513.249 267.744 506.61 273.582 504.75Z" fill="white"/>
<path d="M78.7635 251.887C82.9304 253.149 89.5225 255.171 93.6832 255.514C89.6318 263.533 85.6254 271.474 84.2997 280.487C82.3316 293.869 85.696 306.838 90.8669 319.084L92.6608 322.834C88.5208 320.3 78.9457 316.515 74.0778 314.435C74.4358 304.225 75.1409 294.665 75.8848 284.516C76.6814 273.649 76.3392 262.654 78.7635 251.887Z" fill="white"/>
<path d="M133.6 486.984L134.191 486.999C134.343 488.098 133.247 489.094 133.104 490.462C132.887 492.533 134.402 491.438 134.552 492.899C135.319 500.358 135.696 505.808 140.36 512.039C137.28 519.369 136.36 524.552 131.32 530.604L129.542 532.339C129.486 532.266 129.43 532.192 129.374 532.119L129.102 531.747C122.733 523.166 122.812 500.54 126.857 490.614C127.813 488.271 131.394 487.544 133.6 486.984Z" fill="white"/>
<path d="M212.034 398.234L212.262 398.39L212.027 398.741C203.77 402.614 194.965 409.297 187.081 414.028C177.307 419.894 173.469 424.35 161.476 422.642L161.028 422.425C160.731 421.578 160.998 420.154 161.099 419.202C163.575 415.587 165.951 413.677 169.311 410.984C182.676 400.268 196.254 401.53 212.034 398.234Z" fill="white"/>
<path d="M147.212 205.832C153.181 208.168 158.413 209.063 164.558 206.712C164.888 210.632 165.404 212.097 166.835 215.805L164.516 217.225C158.278 221.281 156.209 221.166 149.13 220.821C149.512 214.583 148.777 211.814 147.212 205.832Z" fill="white"/>
<path d="M128.856 409.989C138.227 409.479 142.076 415.169 148.711 420.758C144.754 420.802 141.357 420.638 137.396 420.416C127.201 419.956 125.82 420.088 117.164 414.832C121.637 412.239 123.698 410.803 128.856 409.989Z" fill="white"/>
<path d="M254.621 391.245C262.064 391.063 267.944 391.954 274.762 395.098C271.231 397.45 268.068 399.516 264.287 401.44C255.94 405.132 254.781 400.954 249.12 395.622C247.967 394.535 246.697 393.68 245.348 392.859C248.773 391.875 251.085 391.512 254.621 391.245Z" fill="white"/>
<path d="M162.57 189.457L163.18 189.865C163.793 191.525 161.755 192.453 160.529 193.2C159.823 192.838 160.108 193.086 159.748 192.357C160.128 190.822 161.258 190.259 162.57 189.457Z" fill="white"/>
<path d="M371.253 378.959C379.122 378.645 387.217 378.754 395.106 378.748C407.49 378.736 419.871 378.856 432.252 379.102C436.793 379.228 441.275 379.589 445.86 379.685L478.186 380.673C485.326 380.928 492.519 381.054 499.611 381.95C504.416 382.559 506.877 384.675 507.396 389.509C508.339 397.811 507.867 406.114 508.348 414.484C510.398 450.308 508.808 486.264 506.839 522.045C506.728 524.072 505.781 526.249 504.609 527.866C491.168 528.968 479.326 528.903 465.814 528.979L372.343 529.97C361.544 529.984 350.763 530.506 339.978 530.186C334.945 530.04 329.218 527.992 328.916 522.086C328.025 504.804 330.677 487.275 331.509 470.002C331.857 462.768 331.805 455.33 331.983 448.07C332.394 434.318 332.657 420.56 332.783 406.803C332.792 401.787 332.215 385.129 334.594 381.61C337.579 379.627 344.054 379.852 347.769 379.674C355.591 379.261 363.419 379.023 371.253 378.959Z" fill="black"/>
<path d="M336.785 383.333C353.602 384.194 370.184 383.459 386.982 383.289C395.048 383.389 403.225 384.127 411.293 383.98C423.797 383.755 436.236 384.839 448.682 385.226L480.688 386.245C485.558 386.383 498.147 385.882 501.75 388.202C503.253 391.724 502.644 407.4 502.755 412.047C502.934 419.406 503.64 427.492 503.689 434.767C503.786 464.559 503.118 494.345 501.686 524.102C500.982 524.556 500.581 524.271 499.482 524.116C495.8 523.583 488.704 523.633 484.761 523.615L457.667 523.753C419.675 523.864 381.715 524.456 343.74 525.229C334.96 525.408 333.642 525.027 333.882 516.171C334.008 511.507 334.767 507.977 335.695 503.392C336.237 486.326 336.164 469.144 336.539 452.052L337.271 401.397C337.307 398.523 337.444 395.652 337.682 392.787C337.872 390.619 338.218 388.117 338.171 385.961C338.136 384.505 337.354 385.164 336.442 383.942L336.785 383.333Z" fill="white"/>
<path d="M455.927 398.233C463.213 397.647 464.886 399.668 465.979 406.371C469.857 404.564 486.434 396.021 489.111 399.574C489.946 402.774 486.193 419.851 482.537 421.532C475.608 421.193 484.058 407.118 483.495 403.887L482.505 403.515L481.89 404.039C481.614 405.211 482.191 406.535 481.547 407.608C477.381 414.528 471.167 421.568 466.187 427.89C466.62 432.431 466.233 440.324 466.125 445.029L465.437 472.629C465.19 479.734 465.545 486.856 465.111 493.925C464.666 501.223 462.841 505.134 455.358 507.126C452.672 507.841 447.363 508.119 444.914 506.74C443.268 504.024 444.853 487.582 445.154 483.557C445.898 473.634 446.534 463.705 447.064 453.771C440.965 462.211 434.443 470.338 427.526 478.125C426.252 485.552 426.363 499.008 424.951 504.613C417.231 513.393 399.841 508.562 406.676 502.673C406.62 495.563 407.549 488.107 408.015 480.911C404.751 477.51 402.501 472.796 399.527 468.92C394.105 474.926 395.358 478.128 395.309 485.725C395.273 490.594 395.93 496.741 394.23 501.413C393.832 502.14 392.883 503.174 392.64 503.904C391.925 506.054 391.819 507.885 389.142 508.008C387.12 508.102 385.289 507.815 383.408 507.583C382.324 508.304 382.075 508.588 380.836 508.761C377.584 507.762 378.677 500.303 378.75 497.362C373.57 497.186 369.202 492.891 365.329 489.616C365.314 495.75 366.1 502.169 365.511 508.125C365.136 511.916 359.862 511.954 357.237 510.809C351.841 508.456 354.814 507.314 353.675 504.616C352.134 500.965 352.582 498.279 352.711 494.479C349.995 499.77 347.18 505.011 344.619 510.381C344.106 511.453 343.591 512.505 342.938 513.498L342.355 513.574C341.757 513.273 341.092 512.962 340.887 512.265C340.222 510.006 344.042 503.52 345.135 501.413C346.31 499.037 351.281 489.32 351.674 487.415C352.641 482.742 352.43 472.489 352.562 467.315C352.843 456.226 353.106 445.119 353.147 434.031C353.162 429.531 352.195 421.957 353.323 417.967C354.668 416.089 359.159 416.488 360.677 417.639C362.323 418.89 363.806 423.724 363.973 425.713C364.679 434.183 364.269 442.849 364.201 451.348C364.137 461.822 363.979 473.441 364.931 483.771C369.504 487.175 373.415 490.691 378.554 493.117C378.768 490.286 378.677 486.873 378.738 483.985L379.148 466.518C379.526 450.241 380.089 434.051 380.036 417.762C380.03 416.514 379.219 406.984 379.544 406.606C380.484 405.513 381.779 405.112 383.177 404.968C385.661 404.719 389.364 405.235 391.269 406.963C392.268 407.871 392.813 409.099 393.085 410.403C393.583 412.787 393.56 415.418 393.703 417.853C394.066 423.932 394.272 429.958 394.368 436.043L395.01 467.734C401.414 460.234 405.413 468.05 408.653 473.619C408.665 471.955 408.879 470.429 409.005 468.785C410.104 456.741 411.023 444.733 411.721 432.662C412.266 423.211 410.821 410.986 413.271 402.041C415.28 401.807 417.363 401.578 419.391 401.704C421.395 401.83 423.51 402.416 424.849 404.022C429.434 409.533 429.015 460.615 428.022 469.995C431.045 466.448 447.542 447.484 447.943 443.414C449.215 430.453 449.845 415.784 450.176 402.659C450.278 398.637 452.634 398.819 455.927 398.233Z" fill="black"/>
<path d="M477.882 405.738L478.272 405.92C474.211 409.954 469.978 415.603 466.48 420.19C465.75 419.461 465.932 411.981 465.923 410.294C469.945 409.201 474.062 407.411 477.882 405.738Z" fill="white"/>
<path d="M412.122 154.819C422.177 154.413 432.58 154.919 442.6 155.047C456.507 155.225 455.077 159.236 455.402 170.83C455.616 178.428 456.337 185.689 455.845 193.353C447.135 197.483 421.898 197.429 410.675 199.796C417.644 202.488 424.963 206.264 431.827 209.323C436.629 211.344 441.138 213.545 445.749 215.92C454.113 220.226 450.852 228.14 448.594 235.53L452.979 237.662C460.274 231.047 470.37 230.779 478.421 236.311C491.584 245.354 483.252 263.134 469.544 265.228C465.205 285.692 452.429 293.411 432.111 294.249C430.172 294.331 426.393 293.733 425.112 294.791L425.095 295.304C428.889 298.025 453.917 293.13 458.537 298.564C458.622 298.646 458.704 298.726 458.789 298.808C460.796 304.477 459.817 313.081 459.976 318.958C460.061 322.119 460.605 332.558 458.294 334.031C451.658 338.271 438.05 334.573 430.854 334.383C422.833 334.172 415.743 334.096 408.141 333.636C404.496 341.449 397.972 359.048 390.68 362.561C386.994 364.333 384.647 363.053 381.223 361.699C377.385 360.598 373.594 359.341 369.855 357.935C358.359 353.687 346.975 348.697 336.032 343.131C327.513 338.757 314.221 335.25 316.787 322.755C318.155 316.099 321.36 309.545 324.006 303.278L336.384 274.069C330.606 273.656 307.125 273.359 303.226 270.842C300.984 269.397 299.921 243.56 300.076 239.503C306.258 236.801 319.685 238.211 326.59 238.326C334.69 238.46 343.163 238.774 351.275 239.123C352.257 236.539 353.256 233.961 354.275 231.391C344.988 231.537 337.664 232.07 328.266 230.958C312.978 229.148 312.762 229.822 313.181 213.706C313.318 208.418 313.755 202.725 314.08 197.505C323.751 193.478 358.093 193.06 368.136 195.831C370.781 190.484 372.756 187.924 379.072 189.607C386.467 191.577 395.848 194.136 402.943 196.847C400.843 189.071 397.561 192.302 392.886 189.756C388.289 185.431 393.126 173.144 392.663 167.804C392.408 164.86 390.612 158.377 393.442 156.864C397.093 154.914 407.883 155.011 412.122 154.819Z" fill="black"/>
<path d="M374.373 207.812C377.865 209.538 381.369 211.392 384.888 213.036C389.35 215.078 394.075 216.647 398.563 218.618C407.391 222.496 416.218 226.406 425.136 230.076C427.33 230.979 429.489 231.662 431.64 232.713C411.536 231.407 404.106 238.435 402.905 258.561C402.791 260.516 403.38 264.938 402.715 266.582C401.3 270.07 396.908 272.617 394.661 275.513C393.662 276.783 393.598 278.698 395.203 279.469C397.544 280.594 401.414 279.907 403.781 279.122C408.059 285.447 407.651 286.033 414.1 290.915C413.385 292.669 412.676 294.237 411.876 295.953C409.849 295.939 405.952 295.625 404.323 296.821C402.935 297.837 403.526 301.37 403.421 303.014C403.283 305.161 403.102 307.338 402.894 309.509C394.623 311.498 392.968 313.338 401.798 317.273C400.406 319.783 398.938 322.786 397.611 325.364C394.734 330.913 392.054 336.694 388.767 341.996C386.921 341.97 385.33 342.029 383.514 342.36C378.688 340.394 372.855 338.144 368.206 335.946C362.358 333.184 356.355 329.454 350.461 326.73C343.491 323.51 337.597 321.995 330.923 317.917C332.701 310.095 336.571 301.411 339.624 293.946C342.278 287.328 344.83 280.667 347.276 273.966C361.655 274.343 355.418 261.83 356.921 253.259C358.02 246.999 363.056 237.245 365.854 231.359C366.715 231.277 370.591 230.893 370.726 229.821C371.783 221.493 371.039 215.833 374.373 207.812Z" fill="white"/>
<path d="M384.712 257.855C388.588 258.121 392.716 262.512 394.79 265.589C398.561 271.185 389.232 273.099 385.526 274.399C384.103 274.774 381.858 275.626 380.871 274.805C380.467 274.468 379.811 274.341 379.286 274.266C378.369 274.793 378.19 274.965 377.115 275.084C373.31 273.218 379.26 264.596 380.432 261.859C381.311 259.802 382.535 258.436 384.712 257.855Z" fill="black"/>
<path d="M423.381 237.098C431.654 236.101 442.978 237.675 450.492 241.348C449.256 244.31 448.512 246.722 448.289 249.95C447.645 259.304 456.659 265.173 465.1 265.463C462.105 278.787 456.064 285.409 442.813 288.762C440.771 289.143 438.715 289.435 436.647 289.639C427.594 290.488 416.399 290.384 410.546 282.15C409.072 280.079 407.977 277.147 406.005 275.526C404.821 274.552 402.097 275.077 400.55 275.248C402.709 273.274 405.595 270.122 406.594 267.304C407.347 265.163 406.324 262.726 406.336 260.613C406.368 253.776 406.84 242.134 414.466 239.292C417.129 238.299 420.615 237.565 423.381 237.098Z" fill="white"/>
<path d="M438.914 273.458C440.915 273.318 447.721 273.139 448.365 275.3C445.605 278.735 432.475 278.963 428.162 278.993C425.681 278.99 420.032 279.28 418.45 277.178C418.43 273.907 435.642 273.681 438.914 273.458Z" fill="black"/>
<path d="M432.964 264.093C435.68 263.986 443.534 263.235 445.16 265.331L445.005 265.951C442.427 268.551 435.141 268.64 431.446 268.879C428.751 268.923 420.328 269.41 418.857 267.183L419.013 266.668C421.57 264.172 429.316 264.258 432.964 264.093Z" fill="black"/>
<path d="M420.768 253.227C424.934 252.878 429.41 252.969 433.597 252.996C435.87 253.011 445.913 252.664 445.553 255.871C444.724 256.823 445.023 256.523 443.628 256.929C440.271 257.244 418.755 257.635 418.852 254.565C419.476 253.761 419.859 253.666 420.768 253.227Z" fill="black"/>
<path d="M340.277 273.938C341.361 273.972 342.445 274.018 343.529 274.077C342.231 277.939 340.837 281.769 339.349 285.562C337.324 290.682 326.566 314.597 327.387 319.026C327.715 320.802 329.314 321.959 330.747 322.847C335.798 325.981 341.581 327.455 346.91 330.004C356.344 334.513 371.429 343.715 380.865 346.082C382.617 346.521 384.548 346.615 386.344 346.744C387.387 346.817 388.878 346.996 389.862 346.598C392.725 345.443 399.753 329.734 401.634 326.181C401.681 328.264 401.783 329.11 402.129 331.158C402.686 331.806 403.307 332.356 403.925 332.948C402.779 335.23 401.877 337.237 400.866 339.587C399.158 343.589 394.169 356.096 390.258 357.818C384.809 360.218 361.556 350.312 355.178 347.67C349.295 345.232 343.567 342.525 337.772 339.897C333.211 337.826 327.445 335.84 323.52 332.699C322.187 331.633 321.091 330.185 320.481 328.589C319.673 326.465 320.177 323.931 320.716 321.783C322.148 316.1 324.85 310.548 327.044 305.11C331.254 294.657 335.414 284.111 340.277 273.938Z" fill="white"/>
<path d="M342.841 333.695C348.99 334.469 355.075 338.576 360.973 340.609C363.489 341.477 369.035 343.521 369.287 346.492C368.707 347.345 368.827 347.09 367.644 347.529C362.496 347.327 353.534 342.197 348.753 340.067C346.816 339.206 343.775 338.11 341.915 337.023C341.373 336.704 341.411 336.004 341.373 335.441C341.862 334.337 341.839 334.398 342.841 333.695Z" fill="black"/>
<path d="M375.437 193.161C380.098 192.67 386.104 195.825 390.545 197.205C394.878 198.551 399.261 200.011 403.573 201.425C403.904 203.035 403.975 204.063 405.691 204.497C406.887 204.207 406.957 204.055 407.912 203.198C415.195 206.123 422.44 209.488 429.721 212.928C433.096 214.521 445.664 219.159 446.977 222.659C447.721 224.642 445.951 232.499 444.653 234.464C442.623 234.047 440.719 233.583 438.706 233.082C438.311 232.476 437.024 230.661 436.506 230.386C429.7 226.774 419.396 222.995 412.383 220.041L388.746 210.124C383.666 208.013 377.736 204.712 372.278 204.987C372.395 201.729 372.545 200.253 371.672 197.138C372.838 194.903 373.122 193.97 375.437 193.161Z" fill="white"/>
<path d="M395.399 202.992C401.238 203.029 408.507 206.902 413.566 209.596C415.931 210.856 424.816 213.413 421.028 217.091C415.163 217.089 409.362 212.66 404.276 210.337C401.429 209.036 398.083 208.194 395.329 206.658C394.257 206.061 394.31 205.997 394.052 205.095C394.321 204.026 394.658 203.797 395.399 202.992Z" fill="black"/>
<path d="M435.302 304.078C439.972 304.69 437.144 307.239 439.263 308.783C441.366 308.968 442.972 308.941 443.643 311.341C442.696 314.229 437.83 313.529 437.443 316.143C438.926 317.297 440.188 317.681 441.299 319.081C441.932 321.814 438.366 322.685 436.301 323.235C435.609 325.629 435.117 327.794 432.917 329.139C429.741 329.391 429.609 324.981 429.346 322.749C428.279 323.845 427.157 325.301 426.179 326.499C423.996 326.678 423.536 325.86 422.883 324.015L422.742 323.613C421.207 322.547 417.495 324.281 416.892 321.217C416.156 317.493 421.321 317.684 423.662 317.446C423.75 316.304 423.785 315.744 423.727 314.607C422.077 314.086 420.287 314.019 419.461 312.419C420.035 310.286 422.997 309.967 424.802 309.776C425.42 308.051 426.633 304.084 428.824 304.134C430.087 305.071 430.286 307.342 430.573 308.883C433.931 309.234 432.674 306.439 435.302 304.078Z" fill="white"/>
<path d="M347.766 205.43C355.146 205.126 352.444 213.403 349.406 216.825C345.053 221.725 342.12 221.231 337.679 217.172C335.473 214.951 329.543 208.879 334.937 206.196C336.709 205.314 338.941 205.793 340.699 206.448C342.885 207.263 342.419 208.302 343.465 209.478C344.977 207.683 345.68 206.567 347.766 205.43Z" fill="white"/>
<path d="M320.364 262.874C324.785 262.52 342.132 261.468 344.361 265.501C344.435 268.665 341.399 268.656 338.962 268.989C333.085 269.592 326.306 268.513 320.347 268.457C318.255 268.438 315.331 268.202 313.96 266.452C313.796 263.548 318.296 263.172 320.364 262.874Z" fill="white"/>
<path d="M334.222 255.027C337.304 255.002 344.733 254.236 345.574 257.951C344.092 261.792 328.228 261.34 324.498 261.321C321.659 261.294 315.448 262.492 313.711 260.175C313.635 259.655 313.462 259.022 313.957 258.609C317.684 255.496 329.736 255.217 334.222 255.027Z" fill="white"/>
<path d="M326.309 246.805C328.714 246.644 342.454 246.87 340.969 250.983C338.194 253.664 329.555 253.013 325.638 253.028C322.351 253.017 313.972 253.853 311.587 252.738C307.453 247.361 323.889 247.032 326.309 246.805Z" fill="white"/>
<path d="M418.702 177.979C422.341 177.571 430.063 177.62 433.632 178.142C434.64 178.869 435.337 179.257 435.65 180.429C435.513 181.471 435.296 181.596 434.602 182.374C431.692 181.111 431.786 181.729 428.692 182.079C425.818 182.426 422.936 182.684 420.044 182.852C417.521 183.055 403.087 183.886 402.914 181.033C404.886 178.755 415.359 178.265 418.702 177.979Z" fill="white"/>
<path d="M424.207 160.695C426.981 160.351 432.094 159.723 433.626 162.521C433.547 166.395 417.416 166.591 413.912 166.789C411.8 166.93 404.042 168.063 405.363 164.206C407.912 161.834 420.158 161.065 424.207 160.695Z" fill="white"/>
<path d="M422.238 170.34C425.15 170.125 432.231 169.673 433.693 172.613C433.714 173.647 433.72 173.572 433.151 174.441C431.701 175.142 430.415 174.138 428.604 174.329C424.213 174.792 420.439 175.264 415.998 175.278C414.264 175.271 403.793 175.216 403.037 174.388C403.219 172.466 404.602 172.071 406.4 171.814C411.571 171.078 417.035 170.748 422.238 170.34Z" fill="white"/>
<path d="M464.391 243.374C468.108 243.277 468.249 245.766 470.874 248.064C470.985 250.456 471.062 260.075 468.718 261.069C467.733 260.86 467.745 260.76 467.051 260.058L466.939 259.596C466.512 257.808 466.623 253.284 466.356 252.896C459.829 257.788 458.52 247.99 464.391 243.374Z" fill="white"/>
<path d="M422.062 184.994C423.92 184.843 432.741 184.134 433.348 186.02C431.783 188.257 416.561 189.959 413.306 190.238C410.256 190.549 407.344 190.297 404.32 190.461C403.339 190.515 403.359 190.961 402.545 190.268C402.46 189.496 402.437 189.274 402.923 188.601C404.487 186.437 418.84 185.304 422.062 184.994Z" fill="white"/>
<path d="M456.234 243.773C457.345 243.779 457.556 243.721 458.581 244.216C460.491 246.681 460.33 256.252 458.505 258.156C457.641 258.234 457.289 257.943 456.513 257.537C455.915 255.743 456.152 254.8 455.918 252.999C452.561 252.136 450.65 251.071 452.452 246.871C453.176 245.191 454.482 244.309 456.234 243.773Z" fill="white"/>
<path d="M457.093 246.332L457.591 246.567C457.242 247.817 456.378 248.937 455.648 250.045L455.227 249.776C454.778 248.81 454.854 249.301 454.975 248.247C455.695 247.09 455.88 247.062 457.093 246.332Z" fill="black"/>
<path d="M476.675 241.883C478.146 242.164 480.513 246.057 480.404 247.258C479.93 247.857 479.549 247.946 478.846 248.259L478.564 248.383C477.123 251.052 479.35 252.162 475.893 253.378C474.864 252.02 474.964 250.021 474.882 248.319C473.584 247.946 472.184 247.666 472.231 246.13C472.934 245.181 473.587 245.087 474.75 244.643L476.675 241.883Z" fill="white"/>
<path d="M361.225 230.687C361.559 230.604 361.339 230.638 361.884 230.688C362.033 232.112 357.542 240.897 356.59 242.65C356.024 241.391 355.772 241.132 354.908 240.018C355.755 236.926 357.111 233.968 358.383 231.027L361.225 230.687Z" fill="white"/>
<path d="M417.434 292.172C418.875 292.704 420.158 292.605 421.178 293.413C421.368 294.488 421.043 294.734 420.589 295.95H416.153C416.616 294.773 417.035 293.39 417.434 292.172Z" fill="white"/>
<path d="M481.207 97.0962C490.705 96.7028 512.221 97.7683 517.969 106.285C518.244 109.944 517.333 115.467 516.592 119.046C517.216 118.963 517.843 118.892 518.473 118.831C522.319 118.467 526.828 120.348 526.77 124.779C526.676 131.808 517.034 136.208 510.958 136.309C510.19 137.963 509.531 139.205 508.644 140.797C509.871 141.115 511.474 141.544 512.66 141.86C525.996 145.413 524.52 154.986 512.168 158.385C508.26 159.46 505.77 159.896 501.489 159.966C486.557 160.34 463.061 157.308 448.884 151.274C447.319 150.479 445.307 148.626 445.046 146.809C443.903 138.854 453.97 134.66 460.022 133.636C456.879 126.261 456.571 117.511 456.173 109.558C456.047 107.023 456.706 104.543 457.198 102.065C462.363 98.9244 474.82 97.4712 481.207 97.0962Z" fill="black"/>
<path d="M459.902 107.305C462.779 108.368 466.192 110.929 469.336 111.498C483.193 114.005 500.291 114.194 513.747 110.433C512.118 118.65 509.607 126.668 506.259 134.347C505.031 137.093 503.309 140.686 502.494 143.495C496.104 142.472 491.42 143.467 485.203 143.613C480.466 143.725 473.763 142.599 469.046 141.676C466.374 134.738 461.971 128.85 461.268 121.371C460.825 116.683 460.421 111.984 459.902 107.305Z" fill="white"/>
<path d="M460.271 136.816L461.098 136.801C461.625 137.275 464.836 142.985 465.762 144.327C475.661 148.639 487.324 147.763 497.71 147.234C501.451 147.043 503.625 149.933 506.399 145.087C509.221 146.675 517.646 148.075 517.228 151.149C515.634 153.3 511.6 154.358 509.095 155.037C497.675 157.258 471.782 153.997 460.075 151.021C458.01 150.333 449.839 148.342 449.229 145.892C448.061 141.207 457.125 137.77 460.271 136.816Z" fill="white"/>
<path d="M479.511 100.915C491.707 100.478 501.053 101.42 512.259 106.517C508.187 106.971 503.458 108.045 499.438 108.9C498.65 106.349 497.815 105.623 495.475 104.426C489.768 103.392 476.833 103.494 472.588 107.975C467.417 106.419 466.236 105.946 461.443 103.374C468.806 101.455 471.955 101.204 479.511 100.915Z" fill="white"/>
<path d="M518.786 123.057C520.315 122.973 522.144 123.712 521.798 125.52C520.286 127.524 517.846 128.648 515.643 129.888L512.777 131.334C513.521 128.895 514.16 126.568 515.259 124.258C516.357 123.806 517.644 123.426 518.786 123.057Z" fill="white"/>
<path d="M343.4 130.485C349.4 130.012 380.153 130.119 384.035 133.757C385.617 135.238 385.898 138.192 385.992 140.246C386.23 145.43 386.068 162.766 382.641 166.238C380.517 168.387 376.67 168.71 373.799 168.762C372.856 172.214 372.202 173.901 370.5 177.033C366.475 181.54 362.815 171.826 360.911 168.996C359.32 169.347 357.712 169.594 356.089 169.739C349.151 170.419 340.321 169.183 333.176 169.16C330.422 168.993 329.232 166.62 329.344 164.189C329.707 156.214 329.909 148.28 330.196 140.311C330.29 137.698 330.923 134.986 331.119 132.325C335.443 131.276 339.003 130.934 343.4 130.485Z" fill="black"/>
<path d="M342.059 134.902C350.514 134.632 360.246 135.119 368.725 135.536C372.381 135.716 377.982 136.03 381.445 136.712C382.758 143.217 381.967 156.615 379.746 162.806C375.958 163.786 372.27 164.684 369.255 167.347C368.347 169.038 368.104 169.68 367.48 171.465C366.519 170.017 363.615 165.32 361.893 165.387C352.242 165.758 342.686 165.283 333.044 164.974C332.921 156.387 333.39 143.674 334.321 135.028C336.885 135.017 339.489 134.947 342.059 134.902Z" fill="white"/>
<path d="M355.078 137.594C358.523 138.384 357.885 143.543 357.961 146.489C359.44 146.465 360.911 146.447 362.054 147.471C362.821 149.002 362.162 151.023 362.736 152.313C365.962 159.567 353.558 161.129 348.22 159.199C347.874 158.45 347.848 158.431 347.329 157.782C345.826 158.655 345.012 159.144 343.312 158.74C340.559 156.819 341.109 145.454 346.582 150.384C347.941 148.643 348.943 147.263 350.086 145.393C351.577 142.95 352.608 138.952 355.078 137.594Z" fill="black"/>
<path d="M288.37 275.215C292.19 275.004 313.157 275.278 315.243 277.439C317.001 279.256 316.972 290.594 317.13 293.608C324.949 296.184 326.092 298.873 318.044 302.767C318.126 304.346 318.835 309.704 317.722 310.894C316.365 312.341 301.043 312.194 297.876 312.467C287.445 313.378 275.437 313.492 265.266 310.747C263.963 310.396 263.597 298.106 263.589 296.436C263.563 291.608 261.456 279.881 264.318 276.387C266.455 275.57 284.252 275.484 288.37 275.215Z" fill="black"/>
<path d="M268.263 279.519C272.528 279.315 277.063 279.846 281.382 279.903L311.687 280.055C312.302 284.831 312.067 290.846 313.002 295.638C313.225 296.775 315.237 297.742 316.318 298.38C315.472 299.028 314.722 299.643 313.904 300.323C312.882 302.494 313.436 304.782 313.688 307.231C312.656 307.84 286.608 309.314 283.702 309.118C278.687 308.778 273.765 307.316 268.745 306.961L268.324 306.932C268.37 299.148 265.555 285.517 268.263 279.519Z" fill="white"/>
<path d="M287.98 281.41C292.814 281.725 290.481 284.462 292.451 286.823C292.675 287.091 295.585 287.443 296.411 288.418C297.36 289.215 296.792 290.855 297.246 291.79C298.022 293.386 299.273 294.646 299.285 296.524C299.347 298.073 298.556 299.45 297.214 300.288C293.619 302.532 290.31 303.019 286.298 302.178C284.848 301.533 284.941 301.495 284.008 300.177C283.198 298.756 278.779 303.068 278.115 299.717C277.427 296.239 276.03 287.178 282.208 290.059C283.496 288.841 284.358 288.133 285.743 287.054C285.997 284.374 286.087 283.305 287.98 281.41Z" fill="black"/>
<path d="M259.153 75.6442C260.925 75.4523 262.439 75.2757 263.308 77.0335C263.157 80.4316 256.056 84.4248 253.787 88.2229C255.161 90.6322 258.77 94.0081 259.235 96.2499C261.015 104.839 249.932 111.142 246.493 117.889C249.68 124.852 248.96 129.55 242.093 133.69C240.291 134.039 238.723 134.684 237.901 132.752C238.049 130.22 240.604 127.314 241.638 124.635C236.923 113.755 242.204 111.285 248.868 103.443C250.232 101.839 251.311 100.183 252.36 98.3628C250.424 96.2821 248.673 94.4725 247.57 91.7865C244.375 84.0126 252.778 77.8934 259.153 75.6442Z" fill="black"/>
<path d="M307.852 111.946C308.979 111.777 309.158 111.621 309.879 112.354C309.926 112.953 309.788 113.493 309.457 113.992C304.389 121.602 298.301 126.292 289.557 120.907C287.084 124.121 283.806 132.333 279.541 132.679C275.804 132.983 272.416 129.011 269.88 126.572C266.562 128.029 263.462 130.578 262.104 133.968C261.3 135.972 262.028 135.895 260.231 137.333C252.511 136.697 259.707 125.879 262.938 123.312C269.528 118.076 273.467 119.167 278.647 124.985C284.097 117.317 284.689 110.415 296.2 115.731C300.167 114.948 304.072 113.384 307.852 111.946Z" fill="black"/>
<path d="M198.604 97.7422C204.746 98.5171 198.127 106.267 201.103 108.437C206.782 112.58 214.402 114.051 217.673 121.234C219.35 124.919 218.788 129.65 217.26 133.493C218.669 134.495 220.669 135.615 219.692 137.539C218.822 138.128 218.195 138.01 217.133 138.022C208.102 137.845 209.98 132.969 211.709 126.294C209.152 117.272 200.617 118.394 195.8 112.246C193.143 108.855 194.514 100.393 198.604 97.7422Z" fill="black"/>
<path d="M470.622 345.162C474.773 344.848 479.851 352.518 478.998 356.268C477.577 358.035 476.147 357.109 474.372 356.303C474.384 360.264 474.823 371.886 471.691 375.346C471.103 375.997 469.591 375.519 468.791 375.247C466.72 372.25 467.675 360.323 467.918 356.303C466.887 358.067 466.002 359.919 463.758 360.039C460.078 357.918 464.013 351.326 465.797 348.876C467.253 346.876 468.375 346.082 470.622 345.162Z" fill="black"/>
<path d="M525.867 343.704C531.164 343.159 531.407 345.807 533.918 349.926C533.2 351.664 532.134 353.536 531.202 355.2C527.575 361.695 524.335 368.477 520.143 374.632C518.868 376.501 518.004 377.814 515.707 378.201C514.359 376.411 514.676 374.667 515.514 372.716C518.452 365.873 523.008 358.701 527.417 352.783C527.32 352.794 527.221 352.806 527.124 352.818L526.632 352.865C519.53 353.583 518.956 346.988 525.867 343.704Z" fill="black"/>
<path d="M492.141 348.738C506.927 349.409 498.82 360.489 493.175 366.469C495.601 366.07 500.968 365.467 501.771 368.596C500.833 372.507 494.022 372.677 490.77 372.943C476.317 372.217 488.959 364.438 492.542 360.668C496.699 356.294 496.875 353.988 490.192 353.689C488.953 354.542 488.868 354.841 487.515 354.762C486.979 354.299 486.536 354 486.601 353.215C486.873 349.778 489.765 349.084 492.141 348.738Z" fill="black"/>
<path d="M508.072 216.869C524.077 214.63 520.254 226.354 504.826 228.425C501.943 228.467 490.857 228.269 495.059 222.331C497.347 219.099 504.205 217.509 508.072 216.869Z" fill="black"/>
<path d="M499.646 243.791C504.249 243.423 515.136 245.539 517.368 250.602C518.678 253.571 516.762 255.62 513.952 256.715C508.26 257.538 504.302 255.984 499.74 252.71C495.606 249.742 492.993 245.969 499.646 243.791Z" fill="black"/>
<path d="M508.289 182.822C514.729 182.601 512.634 189.263 508.913 192.032C505.591 194.503 502.881 197.019 498.838 198.626C497.177 199.285 495.486 199.418 494.347 200.519C493.775 201.011 493.116 200.96 492.331 201.036C490.225 199.831 490.764 196.795 491.783 195.066C494.918 189.734 502.6 184.717 508.289 182.822Z" fill="black"/>
<path d="M509.104 352.211C512.273 351.921 515.203 353.656 516.48 356.576C517.31 358.437 517.336 360.558 516.557 362.439C515.399 365.301 513.507 366.857 510.75 367.999C507.176 368.881 504.773 367.053 502.813 364.255C502.055 358.076 502.989 354.429 509.104 352.211Z" fill="black"/>
<path d="M508.948 356.93C510.894 357.319 511.705 358.79 512.854 360.355C512.024 361.761 511.787 362.112 510.689 363.313C509.323 363.853 509.982 363.817 508.649 363.577C506.602 361.816 507.926 358.91 508.948 356.93Z" fill="white"/>
<path d="M91.306 187.367C92.2075 187.653 91.8653 187.393 92.3923 188.139C91.923 190.532 92.5045 191.693 93.6143 193.648C88.6585 198.624 86.5763 206.185 80.078 209.439C79.1493 209.365 79.0204 209.263 78.1664 208.931C74.9153 205.024 88.4021 190.501 91.306 187.367Z" fill="black"/>
<path d="M75.0296 155.945C78.6961 155.959 96.7931 160.959 87.5244 165.165C82.5615 165.609 66.9235 159.152 75.0296 155.945Z" fill="black"/>
<path d="M478.626 67.918C479.147 68.0885 480.996 69.3822 480.645 69.899C479.452 71.6647 476.631 73.4973 476.353 75.7118C475.928 79.1123 480.19 81.2823 479.733 84.6626C479.411 87.0336 476.628 89.3108 474.823 90.7479C473.517 91.0326 474.05 91.1674 473.098 90.6705C472.652 89.1441 474.891 86.2686 475.787 84.8914C475.157 83.9346 474.565 82.9531 474.015 81.9488C470.792 76.0364 472.772 70.8857 478.626 67.918Z" fill="black"/>
<path d="M490.058 71.1523C491.051 71.3258 491.156 71.2525 491.877 71.9691C492.363 73.1305 491.774 73.4018 491.745 74.358C491.569 80.2312 492.82 84.7361 487.172 88.8931C485.95 88.9991 486.208 89.1462 485.218 88.7073C484.412 86.8244 486.366 83.958 486.609 81.8943C487.184 77.0144 484.749 73.7032 490.058 71.1523Z" fill="black"/>
<path d="M530.786 366.176C532.315 366.501 535.289 368.848 535.693 370.477C536.631 374.256 534.319 375.601 531.281 376.614C530.265 376.582 528.946 376.491 528.003 376.093C526.969 375.642 526.16 374.786 525.773 373.726C524.473 370.157 527.722 367.274 530.786 366.176Z" fill="black"/>
<path d="M76.9948 175.543C80.0706 175.372 89.4281 176.579 88.8489 180.803C88.1677 181.834 87.8876 181.889 86.7641 182.519C81.9325 183.964 69.9319 179.37 76.9948 175.543Z" fill="black"/>
<path d="M499.623 71.1328C501.114 71.2884 500.689 71.0373 501.721 71.8805C502.277 73.1039 502.113 74.4398 502.099 75.8259C505.096 80.1226 506.687 83.124 502.277 87.1245C502.049 87.1031 501.568 86.9707 501.325 86.9127C500.748 86.0385 500.927 84.6762 500.938 83.5649C498.138 79.4807 494.194 75.4096 499.623 71.1328Z" fill="black"/>
<path d="M303.267 196.268C306.132 196.031 310.301 198.812 311.25 201.759C311.367 202.126 310.878 202.611 310.626 202.973C306.773 203.866 299.924 201.067 303.267 196.268Z" fill="black"/>
<path d="M319.497 182.688C324.199 182.854 323.493 189.396 321.516 192.226C317.118 191.361 317.522 185.679 319.497 182.688Z" fill="black"/>
<path d="M308.159 187.77C310.597 188.326 312.27 190.409 312.378 192.903C311.842 194.094 312.088 193.696 310.708 194.45C307.315 193.678 303.586 189.727 308.159 187.77Z" fill="black"/>
</svg>
