<svg width="400" height="400" viewBox="0 0 400 400" fill="none" xmlns="http://www.w3.org/2000/svg">
<path d="M223.157 23.3655C249.412 22.8321 277.3 27.8925 297.263 45.7975C317.523 63.654 324.93 90.2053 316.705 115.941C315.63 121.629 311.388 127.082 310.39 132.528C310.078 134.232 315.155 142.596 316.015 144.865C317.773 149.395 318.833 154.166 319.16 159.014C320.225 175.838 315.253 189.189 304.56 202.128C296.995 211.282 289.92 217.983 278.36 221.909C275.797 222.78 272.663 223.084 270.305 224.456C267.798 225.913 265.37 227.825 262.99 229.528C260.137 231.565 257.19 233.465 254.155 235.221C251.51 236.756 243.622 240.071 242.245 241.635C241.428 243.849 244.196 246.574 245.491 248.512C260.398 270.814 252.278 298.701 237.419 318.656C234.351 322.779 230.249 326.039 227.727 330.374C226.329 332.864 226.804 339.416 226.25 342.389C224.96 351.136 220.206 361.216 215.29 368.506C212.626 371.859 210.96 375.026 206.648 376.221C202.83 377.281 197.79 370.304 199.415 368.324C203.418 367.426 204.409 364.769 206.534 361.684C211.628 354.286 214.334 346.959 216.876 338.419C212.699 339.929 209.172 342.339 204.71 343.206C198.166 344.481 192.699 343.856 187.65 339.291C180.578 332.899 177.271 323.646 184.519 315.994C188.649 311.634 195.569 308.444 201.548 308.229C206.763 308.219 210.707 309.274 214.943 312.571C216.354 313.669 217.692 315.234 219.243 316.069C221.235 316.164 224.298 311.811 225.605 310.171C237.539 295.196 247.874 273.116 241.613 253.766C241.17 252.399 240.249 249.314 238.699 249.143C236.869 251.201 235.445 253.566 233.762 255.741C224.709 267.219 212.465 278.136 197.578 280.671C185.67 282.699 174.866 271.449 173.087 260.276C171.494 250.266 176.148 245.43 181.829 238.1C180.044 236.439 178.019 234.896 176.299 233.154C171.865 228.64 168.051 222.408 167.501 216.023C166.851 208.483 170.714 202.115 175.635 196.813C176.124 196.286 176.161 195.912 176.07 195.269C173.909 193.655 169.811 191.962 167.549 190.321C165.711 188.988 163.544 187.526 161.787 186.172C157.211 182.645 150.857 185.004 145.538 185.768C142.474 186.476 137.345 186.605 134.507 187.84C120.573 193.89 106.103 194.977 94.0665 184.152C79.2915 170.864 77.2558 151.202 83.3648 133.171C84.1243 130.929 86.4953 126.78 86.8463 124.699C87.5055 120.789 86.7305 116.05 87.5987 111.976C89.4465 97.8265 97.2872 84.8818 106.682 74.4545C130.761 47.7283 164.965 31.7468 200.049 25.5773C208.064 24.1687 215.152 23.8517 223.157 23.3655ZM262.11 91.7025C266.38 94.8908 269.493 97.304 273.078 101.234C279.155 107.898 278.175 113.079 287.51 115.599C296.683 104.854 305.15 92.5935 304.095 77.6065C303.725 72.364 301.72 67.814 297.585 64.4748C286.45 55.4813 269.068 52.377 255.175 53.361C236.639 53.9458 218.089 60.0323 201.898 68.8843C199.943 69.9533 194.068 72.8768 192.912 74.464C192.985 75.219 194.048 76.2155 194.69 76.617C197.542 78.436 199.141 82.8578 201.673 84.676C202.9 85.5568 209.058 83.621 210.62 83.3753C219.861 81.921 228.83 81.7813 238.103 82.772C239.874 82.9613 242.895 81.6335 244.683 81.332C252.578 79.8228 256.612 87.7238 262.11 91.7025ZM105.991 99.241C114.306 95.8605 120.152 87.5523 126.575 81.7203C129.25 79.291 132.89 76.7058 136.007 74.891C146.606 68.7183 163.053 63.6135 175.188 66.9115C176.044 67.0948 176.976 67.3168 177.831 67.4628C180.5 66.0545 183.204 63.9923 185.736 62.2945C210.57 45.6443 246.536 35.713 276.03 44.89C284.06 47.3045 291.483 51.41 297.795 56.9305C299.005 57.9965 304.558 64.0503 304.668 64.0923L304.945 63.838C304.845 61.4278 299.66 55.995 297.735 54.3018C280.252 38.9285 251.67 34.701 229.354 35.7795C228.834 35.8063 228.315 35.843 227.797 35.89C183.632 37.6358 130.314 61.1293 105.991 99.241ZM107.346 139.943C106.285 143.119 105.293 146.399 105.054 149.76C107.162 151.745 111.216 154.606 113.785 155.977C117.026 157.792 121.011 159.908 124.635 160.635C123.098 146.896 124.426 139.12 133.016 127.563C136.933 122.294 138.981 119.634 140.589 113.081C139.171 113.045 137.595 112.963 136.199 113.106C126.03 115.103 115.4 122.102 111.585 132.062C110.092 135.961 112.891 139.236 107.346 139.943ZM214.148 220.337C207.557 216.149 208.111 214.069 209.867 207.013C203.196 212.292 198.995 218.002 194.986 225.432C194.288 226.844 192.462 229.894 192.882 231.268C193.942 232.024 199.421 229.937 201.074 229.662C203.067 229.331 210.051 228.985 211.137 228.248C218.081 223.527 232.481 213.616 237.003 207.229C235.975 203.877 234.622 196.653 230.239 197.041C226.45 198.093 219.274 198.241 216.749 199.454C216.194 201.003 218.923 204.796 219.225 206.539C219.973 210.867 216.988 217.361 214.148 220.337ZM183.28 268.924C191.965 269.594 197.277 267.681 204.605 263.041C211.411 258.731 217.779 253.241 222.685 246.829L222.709 246.344C222.314 246.303 222.273 246.245 221.925 246.345C218.921 246.678 215.9 246.839 212.877 246.827C207.445 246.759 203.296 246.531 197.827 247.932C195.71 248.474 194.679 248.685 192.465 249.412C187.814 250.939 179.299 265.276 183.28 268.924ZM110.264 181.347C111.612 181.19 113.141 181.049 114.467 180.852C111.53 177.683 108.3 174.991 105.518 171.63C101.605 166.903 99.1072 162.089 97.5957 156.125C96.595 152.177 96.3508 145.125 92.702 142.843C91.1453 146.7 89.7285 151.119 89.362 155.277C87.8107 172.889 91.5445 181.429 110.264 181.347ZM296.513 190.933C297.33 190.241 298.138 189.536 298.935 188.819C307.728 178.394 310.815 162.77 309.95 149.371C309.768 146.528 308.7 140.988 306.75 138.785L306.25 138.588C301.918 143.758 302.42 145.19 301.943 151.631C301.713 154.757 300.84 156.682 301.308 160.279C302.733 171.229 300.44 180.72 296.513 190.933ZM170.29 183.435C172.309 184.488 173.414 185.01 175.563 185.836C183.981 188.708 186.595 189.42 194.63 185.311C197.791 183.694 202.978 183.479 206.275 182.2C209.256 181.19 209.518 174.971 206.167 175.575C197.899 177.07 189.358 178.19 181.072 179.512C178.444 179.931 173.062 182.444 170.29 183.435ZM180.764 229.828L182.851 231.136C184.439 221.895 188.618 214.107 194.22 206.64C195.888 204.416 197.965 202.383 199.628 200.267C198.245 200.198 196.691 200.085 195.324 200.104C191.563 200.891 185.798 206.004 183.097 208.867C177.17 215.149 172.208 223.477 180.764 229.828ZM238.629 110.79C243.321 109.925 247.405 110.16 252.133 109.973C253.085 107.366 253.308 104.84 253.885 102.209C255.24 96.0585 254.615 95.328 248.126 95.3528C242.784 96.1193 238.285 102.782 235.029 106.743C234.212 107.736 232.221 110.202 233.497 111.249C234.759 111.419 237.297 111.024 238.629 110.79ZM263.46 100.571C263.597 103.894 263.668 106.845 263.63 110.168C265.68 110.406 272.005 111.557 273.373 111.317C273 107.524 266.795 101.949 263.46 100.571ZM216.106 95.699C217.501 97.5005 219.516 100.245 221.006 101.826C221.412 101.927 221.831 102.147 222.216 101.823C223.544 100.708 227.074 95.8053 226.754 94.1703C225.754 93.8165 224.245 94.0468 223.127 94.1288C220.839 94.561 218.309 94.9895 216.106 95.699ZM209.097 102.858L208.138 103.17C207.371 104.964 212.422 112.776 213.66 113.192C214.607 110.689 217.228 104.04 213.568 102.933C212.322 102.557 210.402 102.746 209.097 102.858ZM161.546 118.965C163.479 121.767 164.342 123.425 165.786 126.613C166.254 127.664 166.743 128.882 167.349 129.842C176.649 126.285 176.811 126.04 178.301 116.172C178.66 113.801 180.706 110.545 180.98 107.975L180.748 107.49L180.192 107.539C175.099 109.66 165.626 115.234 161.546 118.965ZM252.925 208.047C251.838 208.729 250.84 209.386 250.455 210.679C250.965 213.76 259.043 213.482 261.445 213.011C262.33 212.631 262.952 212.472 263.55 211.733C263.565 211.178 263.692 211.297 263.335 210.94C262.215 209.82 254.078 207.981 252.925 208.047ZM223.952 174.014C226.59 174.797 231.139 176.272 232.367 172.633C232.7 171.646 232.921 169.072 231.599 168.703L231.201 168.815C228.203 169.342 223.589 171.305 220.724 172.528C221.749 173.006 222.92 173.586 223.952 174.014ZM168.626 97.7455C170.607 96.7205 176.283 94.2363 177.334 92.8248C177.249 91.3495 173.57 91.4693 172.377 91.536C170.172 92.6255 166.175 96.3188 165.359 98.524L165.562 98.936C166.556 99.0413 167.639 98.2588 168.626 97.7455ZM196.556 331.296C199.692 330.569 215.326 323.646 214.344 320.331C213.188 319.559 210.385 319.661 209.071 319.846C205.295 320.101 202.106 321.389 198.869 323.346C196.835 324.576 191.364 328.439 191.536 331.094C192.722 332.531 194.932 331.656 196.556 331.296ZM156.358 79.927L156.692 79.89C159.682 79.5728 165.329 80.7998 166.839 76.6545C166.517 75.6938 165.845 76.0198 164.907 76.1368C162.084 76.6265 157.06 77.414 154.805 79.118L154.607 79.6123C155.162 80.123 155.327 79.9248 156.358 79.927ZM229.558 231.452C231.632 231.047 233.891 229.951 233.89 227.476C233.689 227.128 233.758 227.131 233.465 226.923C232.397 227.737 229.129 229.864 228.999 231.115C229.346 231.459 229.145 231.39 229.558 231.452ZM201.566 129.935C200.516 131.147 199.547 132.748 199.37 134.364L199.547 134.888C200.18 135.059 200.216 134.986 200.827 134.77C201.858 133.698 203.507 132.315 203.525 130.875C202.977 129.948 202.607 129.971 201.566 129.935ZM247.659 167.515C249.369 165.976 253.68 161.701 254.633 159.789L254.608 159.328L254.063 159.218C251.313 160.334 248.83 161.308 247.535 164.269C247.213 165.006 246.783 166.467 247.035 167.247L247.659 167.515ZM190.489 120.088C191.863 120.048 192.618 120.184 193.577 119.156C195.318 117.289 196.165 113.833 196.264 111.375C195.964 110.902 196.17 111.025 195.726 110.87C194.087 112.451 190.148 117.251 189.993 119.506C190.274 120 190.092 119.898 190.489 120.088ZM218.955 179.528C218.193 182.317 218.749 183.277 221.751 183.721C222.269 183.793 222.79 183.849 223.312 183.889C224.335 182.046 220.334 179.879 218.955 179.528ZM246.674 217.748C246.644 219.376 246.032 222.877 247.957 223.114C248.936 222.75 249.092 222.648 249.937 222.028C250.728 221.076 250.735 221.378 250.715 220.426C249.971 219.377 247.81 218.058 246.674 217.748ZM187.385 77.9635C185.82 79.1113 182.316 81.3648 181.609 83C181.72 83.5405 181.785 83.9685 182.439 84.27C185.222 85.5543 187.7 86.6568 190.402 88.1175C202.12 87.7855 192.384 79.7123 187.385 77.9635ZM151.405 92.8488C144.928 93.9053 134.109 97.6403 129.044 101.817C130.476 101.781 132.001 101.713 133.424 101.719C139.315 102.296 140.161 103.25 145.058 104.263C146.198 102.548 151.869 94.2795 151.876 92.9685C151.761 92.9338 151.506 92.8393 151.405 92.8488ZM286.753 179.113C282.555 183.98 276.06 189.172 271.068 193.307C269.59 194.532 264.838 197.338 264.32 198.512C264.575 198.942 264.403 198.849 264.76 198.967C268.623 199.019 275.232 199.102 278.05 195.995C280.157 193.673 287.638 181.907 287.163 179.308L286.753 179.113ZM280.668 167.176C275.618 171.273 272.425 173.587 266.943 176.891C262.97 179.287 254.065 182.901 251.33 185.654C252.118 186.851 252.403 187.2 253.398 188.235C254.163 188.771 254.973 189.438 255.97 189.261C260.343 188.485 278.448 172.339 281.138 167.997C281.288 167.757 281.205 167.61 281.172 167.338L280.668 167.176ZM217.808 148.22C222.971 147.817 226.117 143.66 230.119 140.893C233.103 138.831 241.908 133.19 242.081 129.408L241.734 128.962C237.807 130.699 224 136.205 221.393 138.333C220.101 139.399 219.106 140.781 218.505 142.344C217.874 143.943 216.956 146.69 217.808 148.22ZM105.517 158.692C105.284 160.292 106.354 163.257 106.896 164.796C109.628 172.545 123.569 177.885 130.879 174.871C131.48 174.057 131.466 174.338 131.429 173.526C130.711 172.587 129.423 172.339 128.345 171.926C121.296 169.227 114.694 165.317 108.789 160.625C107.822 159.856 106.715 158.958 105.517 158.692ZM133.025 163.632C136.111 164.251 139.215 164.8 142.277 165.511C143.602 165.204 144.841 164.701 145.532 163.407C147.62 159.496 142.672 155.182 140.827 152.144C139.679 150.254 138.744 147.673 137.549 146.23L137.204 146.087C133.816 151.825 132.637 157.036 133.025 163.632ZM177.754 139.965C175.418 140.973 169.493 143.765 168.925 146.146C168.077 149.695 166.318 154.102 165.418 157.553C166.51 158.923 170.973 158.01 172.812 158.059C173.192 158.055 174.403 158.02 174.68 157.876C177.01 156.663 184.133 152.569 184.495 150.084C183.976 148.568 179.858 141.246 178.646 140.173L177.754 139.965ZM156.72 122.64C153.005 125.087 149.392 128.647 146.694 132.224C144.748 134.804 143.271 149.079 146.435 150.065C146.953 149.803 146.967 149.846 147.268 149.363C149.676 144.82 151.316 142.115 155.331 138.579C156.376 137.658 159.227 135.301 159.981 134.436C160.021 131.655 160.039 123.533 156.72 122.64Z" fill="black"/>
</svg>
