<svg width="479" height="152" viewBox="0 0 479 152" fill="none" xmlns="http://www.w3.org/2000/svg">
<g clip-path="url(#clip0_3366_8578)">
<path d="M41.5173 58.576C55.1493 61.936 57.0693 91.12 73.8693 91.408V92.272C72.4293 92.464 71.0853 92.656 69.7413 92.656C48.5253 92.656 46.9893 62.32 39.2133 58.576H35.9493V86.032C35.9493 91.6 39.2133 92.368 40.6533 92.368H42.4773V93.616H21.8373V92.368C21.8373 92.368 22.4133 92.368 23.8533 92.368C25.4853 92.368 28.4613 91.12 28.4613 85.84V31.6C28.2693 28.624 25.1013 27.952 24.1413 27.76C22.7013 27.76 21.9333 27.76 21.9333 27.76V26.512H35.9493C41.3253 26.512 43.9173 26.608 49.3893 27.088C58.0293 27.952 65.2293 31.696 65.2293 41.968C65.2293 52.72 57.3573 57.52 48.0453 58.288L41.5173 58.576ZM42.0933 27.76H35.9493V57.328H42.1893C51.1173 57.328 58.2213 52.624 58.2213 41.872C58.2213 31.12 51.0213 27.76 42.0933 27.76ZM84.4128 42.352C82.0128 42.352 80.0928 40.432 80.0928 38.032C80.0928 35.728 82.0128 33.808 84.4128 33.808C86.7168 33.808 88.6368 35.728 88.6368 38.032C88.6368 40.432 86.7168 42.352 84.4128 42.352ZM93.3408 92.752H94.9728V94H74.5248V92.752H76.2528C78.4608 92.752 81.0528 91.12 81.0528 86.608V55.504C81.0528 50.992 78.3648 49.264 76.0608 49.264V48.112C79.8047 48.112 84.7008 46.96 87.2928 45.328H88.5408V86.608C88.5408 91.12 91.0368 92.752 93.3408 92.752ZM116.647 44.656C143.239 44.656 147.751 94.48 121.063 94.48C113.383 94.48 109.735 86.896 108.199 82.288V102.64C108.199 107.248 110.695 108.88 112.999 108.88H114.631V110.032H94.183V108.88H95.911C98.119 108.88 100.711 107.152 100.711 102.64V55.504C100.711 50.992 98.023 49.264 95.719 49.264V48.112C99.463 48.112 104.359 46.96 106.951 45.328H108.199V47.92C110.023 46.096 112.807 44.656 116.647 44.656ZM120.487 92.56C138.727 92.56 130.087 46.96 115.303 46.48C112.807 46.48 110.311 47.44 108.199 49.936V77.488C110.503 86.992 115.687 92.56 120.487 92.56ZM185.694 92.752H188.478V94H176.67L169.95 68.944C169.566 78.352 167.838 87.28 162.654 91.6C160.062 93.616 157.374 94.672 154.398 94.672C148.446 94.672 144.126 90.832 144.126 84.496C144.126 73.84 164.286 62.608 164.478 51.664C164.094 48.976 161.982 46.192 157.854 46.192C149.79 46.192 149.118 53.872 149.118 58.96C149.022 60.208 148.062 61.264 146.718 61.36C145.278 61.36 144.126 60.208 144.222 58.768C144.99 51.088 148.926 44.752 157.95 44.752C164.478 44.752 170.526 47.248 173.118 56.752L182.718 89.392C183.774 92.848 185.694 92.752 185.694 92.752ZM162.942 86.704C169.854 79.792 168.51 65.008 168.51 65.008L165.438 54.064C164.19 62.608 148.158 73.168 150.27 83.824C150.942 86.992 153.534 89.584 156.606 89.584C158.718 89.584 161.022 88.72 162.942 86.704ZM269.273 86.512C270.809 90.256 272.825 92.752 275.129 92.752H276.857V94H256.313V92.752H258.041C261.497 92.752 263.033 91.024 261.209 86.512L243.065 38.992L236.345 59.344C232.889 69.424 251.321 62.32 251.321 72.304C251.321 79.216 244.025 78.256 237.593 78.256C233.369 78.256 229.529 78.64 228.377 82L226.937 86.512C225.401 91.024 228.377 92.752 230.681 92.752H232.409V94H218.105V92.752H219.833C222.041 92.752 224.153 91.216 225.593 86.512C225.593 86.512 227.033 82.288 227.225 81.712C230.009 72.976 247.001 79.6 247.001 72.496C247.001 65.392 231.353 69.232 234.905 58.768L245.849 26.032L269.273 86.512ZM322.417 85.168C323.857 94 328.753 93.04 328.753 93.04V94.384C328.753 94.384 317.041 95.632 315.025 85.456L309.457 57.904C308.017 51.856 306.769 48.88 301.969 48.88C297.361 48.88 293.041 51.856 291.313 56.176V86.608C291.313 91.12 293.809 92.752 296.113 92.752H297.745V94H277.297V92.752H279.025C281.233 92.752 283.825 91.12 283.825 86.608V34.384C283.825 29.776 281.137 28.144 278.833 28.144V26.896C282.577 26.896 287.473 25.744 290.065 24.208H291.313V53.008C294.385 48.112 300.433 44.752 306.097 44.752C312.913 44.752 315.601 49.264 316.849 55.792C318.289 63.184 322.417 85.168 322.417 85.168ZM356.274 46.576V45.328H369.81V46.576H368.85C365.586 46.576 364.05 49.264 362.61 52.912L346.002 93.712C344.274 97.744 340.338 109.168 325.938 109.168C319.986 109.168 317.202 106.672 317.202 104.368C317.202 102.928 318.258 101.584 320.082 100.528C322.098 99.568 324.882 98.992 328.242 98.992C335.826 98.992 339.474 100.432 340.53 101.008C342.642 98.512 344.274 95.152 344.946 92.944L328.818 53.008C326.994 48.592 325.65 46.768 323.346 46.768H321.714V45.52H341.394V46.768H340.53C338.226 46.768 335.538 48.592 336.69 53.008L348.786 83.824L361.458 52.72C362.802 49.36 361.65 46.576 358.002 46.576H356.274ZM327.57 107.824C332.85 107.44 336.786 105.04 339.666 101.968C338.418 101.392 334.962 100.24 328.242 100.24C320.466 100.24 318.066 107.824 327.57 107.824ZM412.475 92.752H415.259V94H403.451L396.731 68.944C396.347 78.352 394.619 87.28 389.435 91.6C386.843 93.616 384.155 94.672 381.179 94.672C375.227 94.672 370.907 90.832 370.907 84.496C370.907 73.84 391.067 62.608 391.259 51.664C390.875 48.976 388.763 46.192 384.635 46.192C376.571 46.192 375.899 53.872 375.899 58.96C375.803 60.208 374.843 61.264 373.499 61.36C372.059 61.36 370.907 60.208 371.003 58.768C371.771 51.088 375.707 44.752 384.731 44.752C391.259 44.752 397.307 47.248 399.899 56.752L409.499 89.392C410.555 92.848 412.475 92.752 412.475 92.752ZM389.723 86.704C396.635 79.792 395.291 65.008 395.291 65.008L392.219 54.064C390.971 62.608 374.939 73.168 377.051 83.824C377.723 86.992 380.315 89.584 383.387 89.584C385.499 89.584 387.803 88.72 389.723 86.704ZM444.948 44.752C453.876 44.752 458.196 49.648 458.196 49.648L453.492 53.872C453.492 53.872 451.38 46.48 444.948 46.48C436.884 46.48 431.892 51.856 430.26 56.272V86.608C430.26 91.12 432.756 92.752 435.06 92.752H436.692V94H416.244V92.752H417.972C420.18 92.752 422.772 91.12 422.772 86.608V55.504C422.772 50.992 420.084 49.264 417.78 49.264V48.112C421.523 48.112 426.42 46.96 429.012 45.328H430.26V54.16C433.14 48.4 439.284 44.752 444.948 44.752Z" fill="#CC875C"/>
<path d="M109.46 136.924C109.387 136.924 109.33 136.917 109.289 136.903C109.253 136.89 109.203 136.853 109.139 136.794C109.016 136.694 108.934 136.568 108.893 136.418C108.852 136.268 108.831 136.076 108.831 135.844C108.831 134.695 109.13 132.305 109.727 128.673C110.324 125.045 111.19 121.256 112.324 117.305C113.29 113.914 114.172 111.059 114.97 108.739C115.079 108.42 115.134 108.243 115.134 108.206C115.12 108.206 115.056 108.299 114.943 108.486C114.747 108.814 114.175 109.719 113.227 111.2C112.188 112.836 111.242 114.27 110.39 115.5C107.473 119.72 104.616 123.464 101.818 126.731C99.7576 129.133 98.0395 130.917 96.6632 132.084C95.337 133.182 94.1954 133.795 93.2384 133.923C92.9148 133.964 92.6596 133.984 92.4728 133.984C92.3224 133.984 92.1629 133.968 91.9943 133.937C90.7091 133.722 89.6928 132.793 88.9454 131.147C88.3029 129.799 87.9816 128.003 87.9816 125.761C87.9816 125.032 88.0157 124.255 88.0841 123.43C88.3211 120.527 88.8406 117.651 89.6427 114.803C90.1486 113.076 90.8094 111.193 91.6251 109.156C92.4454 107.119 93.2771 105.285 94.1202 103.653C94.5669 102.801 95.0841 101.865 95.672 100.844C96.2644 99.8229 96.7931 98.9548 97.2579 98.2393C99.4545 94.8805 101.225 92.6839 102.569 91.6494C103.358 91.0615 103.98 90.7676 104.436 90.7676C105.074 90.7676 105.393 91.0889 105.393 91.7314C105.393 91.9821 105.29 92.1393 105.085 92.2031C105.053 92.2122 105.021 92.2168 104.989 92.2168C104.907 92.2168 104.828 92.1917 104.75 92.1416C104.636 92.0732 104.561 91.9798 104.525 91.8613C104.506 91.7884 104.49 91.7474 104.477 91.7383C104.463 91.7292 104.447 91.7246 104.429 91.7246C104.265 91.7246 103.955 91.8818 103.499 92.1963C103.125 92.4515 102.784 92.7249 102.474 93.0166C102.237 93.249 101.888 93.6364 101.428 94.1787C99.409 96.5576 97.3354 99.7227 95.2072 103.674C94.3276 105.31 93.3956 107.347 92.4113 109.785C90.7296 113.905 89.6632 117.865 89.212 121.666C89.0161 123.22 88.9181 124.608 88.9181 125.829C88.9181 128.295 89.3396 130.206 90.1827 131.564C90.7661 132.544 91.534 133.034 92.4865 133.034C93.0789 133.034 93.6919 132.866 94.3253 132.528C94.9223 132.209 95.6287 131.692 96.4445 130.977C98.7596 128.885 101.795 125.403 105.55 120.531C107.874 117.492 110.262 114.046 112.714 110.195C114.665 107.133 116.086 104.724 116.98 102.97C117.335 102.268 117.704 101.475 118.087 100.591C118.916 98.6904 119.477 97.4395 119.769 96.8379C119.864 96.6374 120.01 96.5371 120.206 96.5371C120.306 96.5371 120.42 96.5645 120.548 96.6191C120.657 96.765 120.712 96.9336 120.712 97.125C120.712 97.2891 120.671 97.4714 120.589 97.6719C120.302 98.515 119.76 99.709 118.962 101.254C118.757 101.65 118.595 101.972 118.477 102.218C118.317 102.546 118.057 103.175 117.697 104.104C116.604 106.962 115.704 109.503 114.997 111.727C113.475 116.557 112.322 120.745 111.538 124.291C111.16 126.041 110.804 127.941 110.472 129.992C110.144 132.048 109.925 133.72 109.816 135.01C109.784 135.411 109.768 135.666 109.768 135.775C109.768 135.994 109.793 136.129 109.843 136.179C109.898 136.256 109.925 136.356 109.925 136.479C109.925 136.552 109.914 136.618 109.891 136.678C109.813 136.833 109.67 136.915 109.46 136.924ZM126.611 135.461C126.566 135.461 126.52 135.456 126.475 135.447C126.147 135.365 125.983 135.092 125.983 134.627L125.989 134.497C125.998 133.923 126.525 132.2 127.568 129.329C129.505 123.938 131.884 117.936 134.705 111.323C136.104 108.047 137.134 105.565 137.795 103.879C138.46 102.188 138.941 100.832 139.237 99.8115C139.342 99.4469 139.452 99.0072 139.566 98.4922C139.679 97.9772 139.755 97.5739 139.791 97.2822C139.818 97.0133 139.832 96.7673 139.832 96.5439C139.832 96.0062 139.752 95.5869 139.593 95.2861C139.438 95.04 139.162 94.917 138.766 94.917C138.337 94.917 137.829 95.0583 137.241 95.3408C136.038 95.9378 134.687 96.9154 133.188 98.2734C131.688 99.627 130.212 101.201 128.758 102.997C126.192 106.192 124.549 108.963 123.829 111.31C123.583 112.084 123.46 112.802 123.46 113.463C123.46 113.627 123.467 113.786 123.481 113.941C123.585 114.958 123.873 115.593 124.342 115.849C124.588 115.958 124.711 116.106 124.711 116.293C124.711 116.512 124.606 116.648 124.397 116.703C124.328 116.721 124.264 116.73 124.205 116.73C124.105 116.73 123.98 116.687 123.829 116.601C123.469 116.423 123.159 116.031 122.9 115.425C122.672 114.869 122.558 114.238 122.558 113.531C122.558 110.729 124.36 107.064 127.965 102.539C129.51 100.616 131.089 98.9342 132.702 97.4941C134.316 96.054 135.765 95.0309 137.05 94.4248C137.31 94.3109 137.604 94.2129 137.932 94.1309C138.26 94.0488 138.531 94.0078 138.745 94.0078C139.616 94.0215 140.19 94.3519 140.468 94.999C140.532 95.1494 140.591 95.359 140.646 95.6279C140.714 95.9196 140.748 96.2227 140.748 96.5371C140.748 97.0111 140.659 97.6696 140.482 98.5127C140.377 99.0231 140.261 99.5016 140.133 99.9482C139.759 101.256 139.139 102.983 138.274 105.13C137.722 106.497 136.854 108.573 135.669 111.357C132.693 118.335 130.237 124.537 128.3 129.965C127.398 132.494 126.946 133.902 126.946 134.189C126.96 134.212 127.003 134.224 127.076 134.224C127.149 134.224 127.213 134.242 127.268 134.278C127.414 134.379 127.486 134.497 127.486 134.634C127.486 134.734 127.448 134.846 127.37 134.969C127.133 135.297 126.88 135.461 126.611 135.461ZM143.141 122.931C143.082 122.931 143.002 122.908 142.901 122.862C142.665 122.753 142.546 122.562 142.546 122.288C142.546 121.591 143.412 120.087 145.144 117.776C146.37 116.127 147.956 114.247 149.901 112.137C151.847 110.027 154.52 107.29 157.92 103.927C159.647 102.213 160.604 101.249 160.791 101.035C160.905 100.912 160.962 100.83 160.962 100.789C160.985 100.47 161.463 99.9414 162.398 99.2031C162.671 98.9844 162.988 98.7292 163.348 98.4375C163.662 98.1732 163.856 98.0251 163.929 97.9932C163.97 97.9795 164.02 97.9727 164.079 97.9727C164.234 97.9727 164.348 98.0228 164.421 98.123C164.498 98.2188 164.537 98.3167 164.537 98.417C164.537 98.458 164.533 98.499 164.524 98.54C164.524 98.5856 164.141 98.9935 163.375 99.7637C162.646 100.502 161.215 101.933 159.082 104.057C156.612 106.508 154.655 108.484 153.21 109.983C151.793 111.455 150.608 112.718 149.655 113.771C146.948 116.806 145.032 119.299 143.906 121.249C143.797 121.445 143.742 121.548 143.742 121.557L143.941 121.584C144.137 121.593 144.269 121.682 144.337 121.851C144.36 121.905 144.371 121.962 144.371 122.021C144.371 122.249 144.134 122.491 143.66 122.746C143.446 122.865 143.273 122.926 143.141 122.931ZM182.974 136.924C182.901 136.924 182.844 136.917 182.803 136.903C182.766 136.89 182.716 136.853 182.652 136.794C182.529 136.694 182.447 136.568 182.406 136.418C182.365 136.268 182.345 136.076 182.345 135.844C182.345 134.695 182.643 132.305 183.24 128.673C183.837 125.045 184.703 121.256 185.838 117.305C186.804 113.914 187.686 111.059 188.484 108.739C188.593 108.42 188.648 108.243 188.648 108.206C188.634 108.206 188.57 108.299 188.456 108.486C188.26 108.814 187.688 109.719 186.74 111.2C185.701 112.836 184.756 114.27 183.903 115.5C180.987 119.72 178.129 123.464 175.331 126.731C173.271 129.133 171.553 130.917 170.177 132.084C168.851 133.182 167.709 133.795 166.752 133.923C166.429 133.964 166.173 133.984 165.986 133.984C165.836 133.984 165.677 133.968 165.508 133.937C164.223 133.722 163.207 132.793 162.459 131.147C161.817 129.799 161.495 128.003 161.495 125.761C161.495 125.032 161.529 124.255 161.598 123.43C161.835 120.527 162.354 117.651 163.156 114.803C163.662 113.076 164.323 111.193 165.139 109.156C165.959 107.119 166.791 105.285 167.634 103.653C168.081 102.801 168.598 101.865 169.186 100.844C169.778 99.8229 170.307 98.9548 170.772 98.2393C172.968 94.8805 174.739 92.6839 176.083 91.6494C176.872 91.0615 177.494 90.7676 177.949 90.7676C178.587 90.7676 178.906 91.0889 178.906 91.7314C178.906 91.9821 178.804 92.1393 178.599 92.2031C178.567 92.2122 178.535 92.2168 178.503 92.2168C178.421 92.2168 178.341 92.1917 178.264 92.1416C178.15 92.0732 178.075 91.9798 178.038 91.8613C178.02 91.7884 178.004 91.7474 177.99 91.7383C177.977 91.7292 177.961 91.7246 177.943 91.7246C177.778 91.7246 177.469 91.8818 177.013 92.1963C176.639 92.4515 176.297 92.7249 175.987 93.0166C175.75 93.249 175.402 93.6364 174.942 94.1787C172.923 96.5576 170.849 99.7227 168.721 103.674C167.841 105.31 166.909 107.347 165.925 109.785C164.243 113.905 163.177 117.865 162.726 121.666C162.53 123.22 162.432 124.608 162.432 125.829C162.432 128.295 162.853 130.206 163.696 131.564C164.28 132.544 165.048 133.034 166 133.034C166.593 133.034 167.206 132.866 167.839 132.528C168.436 132.209 169.142 131.692 169.958 130.977C172.273 128.885 175.308 125.403 179.064 120.531C181.388 117.492 183.776 114.046 186.228 110.195C188.178 107.133 189.6 104.724 190.493 102.97C190.849 102.268 191.218 101.475 191.601 100.591C192.43 98.6904 192.991 97.4395 193.282 96.8379C193.378 96.6374 193.524 96.5371 193.72 96.5371C193.82 96.5371 193.934 96.5645 194.062 96.6191C194.171 96.765 194.226 96.9336 194.226 97.125C194.226 97.2891 194.185 97.4714 194.103 97.6719C193.816 98.515 193.273 99.709 192.476 101.254C192.271 101.65 192.109 101.972 191.99 102.218C191.831 102.546 191.571 103.175 191.211 104.104C190.117 106.962 189.217 109.503 188.511 111.727C186.989 116.557 185.836 120.745 185.052 124.291C184.674 126.041 184.318 127.941 183.985 129.992C183.657 132.048 183.439 133.72 183.329 135.01C183.297 135.411 183.281 135.666 183.281 135.775C183.281 135.994 183.306 136.129 183.357 136.179C183.411 136.256 183.439 136.356 183.439 136.479C183.439 136.552 183.427 136.618 183.404 136.678C183.327 136.833 183.183 136.915 182.974 136.924ZM196.318 138.154C196.272 138.154 196.231 138.147 196.194 138.134C195.994 138.07 195.882 137.913 195.859 137.662C195.859 137.566 195.896 137.441 195.969 137.286C196.379 136.397 198.213 133.679 201.472 129.131C204.188 125.344 206.685 121.976 208.964 119.027L209.709 118.057L209.586 117.264C209.358 115.896 209.18 114.434 209.053 112.875C208.98 112.055 208.934 111.385 208.916 110.865C208.898 110.341 208.889 109.667 208.889 108.842C208.889 107.456 208.9 106.333 208.923 105.472C208.95 104.638 209.005 103.514 209.087 102.102C209.128 101.222 209.16 100.5 209.183 99.9346C209.192 99.3877 209.21 99.0413 209.237 98.8955C209.306 98.6768 209.443 98.5605 209.648 98.5469C209.853 98.5469 209.994 98.6403 210.071 98.8271C210.09 98.8818 210.099 99.0413 210.099 99.3057C210.099 99.8161 210.065 100.718 209.996 102.013C209.855 104.697 209.784 106.939 209.784 108.739C209.784 109.482 209.796 110.141 209.818 110.715C209.864 111.909 209.983 113.328 210.174 114.974C210.333 116.345 210.436 117.031 210.482 117.031C210.513 117.031 210.577 116.967 210.673 116.84C211.334 115.992 212.197 114.933 213.264 113.661C215.948 110.416 218.486 107.593 220.879 105.191C223.864 102.165 226.69 99.7021 229.356 97.8018C230.891 96.708 232.395 95.7715 233.867 94.9922C236.36 93.6751 238.22 93.0166 239.445 93.0166C239.746 93.0166 239.995 93.0622 240.191 93.1533C240.318 93.2262 240.391 93.306 240.409 93.3926C240.432 93.4792 240.443 93.5407 240.443 93.5771C240.443 93.6683 240.409 93.7594 240.341 93.8506C240.273 93.9372 240.168 93.9805 240.026 93.9805C239.949 93.9805 239.853 93.9714 239.739 93.9531C239.648 93.9395 239.55 93.9326 239.445 93.9326C238.516 93.9326 237.03 94.4316 234.988 95.4297C229.292 98.2188 222.875 103.785 215.738 112.13C215.073 112.909 214.353 113.766 213.578 114.7C212.804 115.634 212.129 116.462 211.555 117.182C210.981 117.897 210.693 118.273 210.693 118.31C210.693 118.424 210.817 118.952 211.063 119.896C211.646 122.147 212.341 123.947 213.148 125.296C213.827 126.44 214.638 127.363 215.581 128.064C216.939 129.09 218.514 129.603 220.305 129.603C220.874 129.603 221.469 129.55 222.089 129.445C226.036 128.748 230.926 125.984 236.759 121.153C238.532 119.649 240.715 117.765 243.308 115.5L243.513 115.35C243.599 115.295 243.681 115.268 243.759 115.268C243.868 115.268 243.969 115.32 244.06 115.425C244.128 115.552 244.162 115.669 244.162 115.773C244.162 115.901 244.112 116.013 244.012 116.108C243.939 116.154 242.323 117.549 239.165 120.292C237.784 121.491 236.613 122.461 235.651 123.204C230.11 127.565 225.382 129.983 221.467 130.457C221.148 130.484 220.763 130.498 220.312 130.498C219.856 130.498 219.48 130.484 219.184 130.457C215.72 129.974 213.159 127.846 211.5 124.072C211.259 123.503 211.01 122.833 210.755 122.062C210.5 121.292 210.286 120.552 210.112 119.841C210.035 119.545 209.987 119.369 209.969 119.314C209.969 119.292 209.962 119.28 209.948 119.28C209.926 119.28 209.725 119.524 209.347 120.012C206.535 123.676 203.5 127.818 200.241 132.439C199.102 134.053 198.088 135.55 197.199 136.931C197.268 137.081 197.302 137.186 197.302 137.245C197.302 137.373 197.211 137.528 197.028 137.71C196.75 138.006 196.513 138.154 196.318 138.154ZM258.962 134.415C258.885 134.415 258.825 134.408 258.784 134.395C258.743 134.381 258.695 134.347 258.641 134.292C258.499 134.192 258.427 134.094 258.422 133.998C258.417 133.902 258.415 133.843 258.415 133.82C258.415 133.638 258.461 133.362 258.552 132.993C258.702 132.387 259.147 130.842 259.885 128.358C260.126 127.538 260.45 126.492 260.856 125.221C260.815 125.18 260.774 125.141 260.733 125.104C260.692 125.073 260.619 125.009 260.514 124.913C260.409 124.817 260.293 124.715 260.165 124.605C258.648 123.261 257.372 122.028 256.337 120.907C255.243 119.727 254.61 118.738 254.437 117.94C254.396 117.754 254.375 117.642 254.375 117.605C254.375 117.564 254.384 117.521 254.402 117.476C254.457 117.362 254.521 117.296 254.594 117.277C254.667 117.259 254.719 117.25 254.751 117.25C254.838 117.25 254.927 117.277 255.018 117.332C255.095 117.373 255.159 117.439 255.209 117.53C255.264 117.621 255.318 117.758 255.373 117.94C255.487 118.323 255.69 118.72 255.982 119.13C256.793 120.265 258.399 121.898 260.801 124.031C260.988 124.2 261.093 124.284 261.115 124.284C261.143 124.284 261.22 124.093 261.348 123.71C261.639 122.812 262.182 121.24 262.975 118.993C263.266 118.177 263.697 116.945 264.267 115.295C265.739 111.079 267.441 106.436 269.373 101.363C269.943 99.873 270.326 98.8864 270.522 98.4033C271.533 95.9606 272.249 94.1605 272.668 93.0029C272.983 92.1234 273.149 91.3714 273.167 90.7471C273.167 90.665 273.165 90.6217 273.16 90.6172C273.156 90.6081 273.151 90.6035 273.147 90.6035C273.06 90.6035 272.787 90.7858 272.326 91.1504C272.112 91.319 271.907 91.4922 271.711 91.6699C270.371 92.9004 269.688 93.7389 269.66 94.1855C269.651 94.3633 269.587 94.4863 269.469 94.5547C269.414 94.582 269.355 94.5957 269.291 94.5957C269.113 94.5957 268.961 94.5137 268.833 94.3496C268.751 94.2357 268.71 94.1035 268.71 93.9531C268.71 93.707 268.819 93.4108 269.038 93.0645C269.394 92.5085 270.066 91.7793 271.055 90.877C271.98 90.043 272.677 89.6077 273.147 89.5713C273.379 89.5758 273.582 89.6579 273.755 89.8174C274.001 90.0544 274.124 90.4144 274.124 90.8975C274.124 91.5036 273.949 92.333 273.598 93.3857C273.16 94.5843 272.534 96.1748 271.718 98.1572C270.624 100.819 268.735 105.845 266.051 113.237L263.986 119.144C262.765 122.589 262.154 124.382 262.154 124.523C262.186 124.496 262.508 123.879 263.118 122.671C263.902 121.131 264.458 120.046 264.786 119.417C265.397 118.25 265.866 117.346 266.194 116.703C268.797 111.686 271.162 107.57 273.29 104.357C275.359 101.231 277.328 98.6654 279.196 96.6602C280.796 94.9557 282.4 93.6318 284.009 92.6885C285.007 92.1234 285.928 91.8408 286.771 91.8408C288.352 91.8408 289.555 92.7614 290.38 94.6025C290.818 95.5915 291.132 96.79 291.323 98.1982C291.506 99.4242 291.597 100.73 291.597 102.115C291.597 103.482 291.508 104.929 291.33 106.456C291.057 109.245 290.471 112.075 289.573 114.946C289.295 115.876 289.036 116.653 288.794 117.277C288.557 117.902 288.247 118.615 287.864 119.417C287.409 120.388 286.985 121.206 286.593 121.871C286.201 122.536 285.738 123.229 285.205 123.949C283.998 125.594 282.662 126.9 281.199 127.866C279.741 128.832 278.075 129.507 276.202 129.89C275.14 130.108 274.095 130.218 273.065 130.218C272.235 130.218 271.417 130.147 270.61 130.006C269.558 129.805 268.466 129.5 267.336 129.09C265.882 128.534 264.392 127.745 262.865 126.725C262.606 126.551 262.453 126.453 262.407 126.431C262.389 126.444 262.211 126.811 261.874 127.531C261.56 128.206 261.304 128.773 261.109 129.233C260.826 129.935 260.543 130.68 260.261 131.469C260.015 132.157 259.889 132.551 259.885 132.651L259.878 132.761C259.878 132.811 259.883 132.863 259.892 132.918C259.905 132.977 259.912 133.032 259.912 133.082C259.912 133.173 259.892 133.251 259.851 133.314C259.787 133.419 259.684 133.472 259.543 133.472C259.493 133.472 259.463 133.488 259.454 133.52C259.445 133.551 259.441 133.588 259.441 133.629L259.454 133.868C259.454 133.946 259.438 134.025 259.406 134.107C259.329 134.312 259.181 134.415 258.962 134.415ZM272.313 129.261C273.488 129.261 274.293 129.231 274.726 129.172C277.291 128.803 279.468 127.937 281.254 126.574C282.106 125.932 282.924 125.132 283.708 124.175C285.116 122.502 286.329 120.49 287.345 118.139C288.562 115.29 289.466 112.125 290.059 108.644C290.442 106.233 290.633 104.013 290.633 101.985C290.633 100.126 290.471 98.4307 290.148 96.8994C289.897 95.7008 289.562 94.7712 289.143 94.1104C288.755 93.4814 288.265 93.0713 287.673 92.8799C287.472 92.8206 287.222 92.791 286.921 92.791C285.636 92.8047 283.952 93.707 281.869 95.498C279.864 97.2708 277.759 99.7249 275.553 102.86C273.912 105.198 272.317 107.714 270.768 110.407C269.346 112.868 267.263 116.785 264.52 122.158C263.362 124.428 262.783 125.578 262.783 125.61C262.806 125.656 263.054 125.831 263.528 126.137C266.245 127.941 269.031 128.98 271.889 129.254C271.939 129.258 272.08 129.261 272.313 129.261ZM296.594 119.28C296.484 119.28 296.387 119.276 296.3 119.267C295.58 119.198 295.063 119.021 294.748 118.733C294.434 118.446 294.276 118.02 294.276 117.455C294.281 116.63 294.559 115.812 295.11 115.001C295.375 114.591 295.799 114.197 296.382 113.818C296.792 113.54 297.129 113.349 297.394 113.244C297.663 113.135 297.927 113.08 298.187 113.08C298.574 113.08 298.847 113.217 299.007 113.49C299.08 113.609 299.119 113.702 299.123 113.771L299.116 113.982C299.112 114.178 299.068 114.354 298.986 114.509C298.909 114.659 298.768 114.837 298.563 115.042C298.184 115.425 297.685 115.769 297.066 116.074C296.756 116.229 296.514 116.334 296.341 116.389C296.168 116.439 295.97 116.466 295.746 116.471L295.336 116.484C295.231 116.835 295.179 117.136 295.179 117.387C295.179 117.669 295.215 117.865 295.288 117.975C295.47 118.225 295.938 118.351 296.69 118.351C297.501 118.351 298.417 118.187 299.438 117.858C300.048 117.662 300.951 117.334 302.145 116.874C303.343 116.409 304.369 115.994 305.221 115.63C305.727 115.407 306.062 115.295 306.226 115.295C306.262 115.295 306.294 115.299 306.321 115.309C306.513 115.391 306.611 115.479 306.615 115.575C306.624 115.671 306.629 115.723 306.629 115.732C306.629 115.906 306.542 116.038 306.369 116.129C306.315 116.156 306.094 116.25 305.706 116.409C302.12 117.895 299.804 118.756 298.761 118.993C297.954 119.185 297.232 119.28 296.594 119.28ZM295.876 115.568C295.94 115.568 296.04 115.539 296.177 115.479C296.582 115.325 296.977 115.119 297.359 114.864C297.742 114.604 298.002 114.372 298.139 114.167C298.184 114.094 298.207 114.042 298.207 114.01C298.207 113.987 298.189 113.976 298.152 113.976C297.943 113.976 297.633 114.101 297.223 114.352C296.58 114.73 296.138 115.09 295.897 115.432C295.846 115.495 295.821 115.536 295.821 115.555C295.821 115.564 295.84 115.568 295.876 115.568ZM305.734 126.246C305.314 126.246 304.918 126.157 304.544 125.979C303.929 125.692 303.621 125.246 303.621 124.64C303.621 123.92 304.177 123.017 305.289 121.933C306.205 121.003 307.308 120.121 308.598 119.287C309.022 119.009 309.238 118.863 309.247 118.85C309.234 118.795 309.097 118.617 308.837 118.316C308.249 117.637 307.54 116.981 306.711 116.348C306.064 115.855 305.724 115.541 305.693 115.404C305.661 115.295 305.615 115.167 305.556 115.021C305.478 114.826 305.44 114.646 305.44 114.481C305.44 114.322 305.476 114.176 305.549 114.044C305.718 113.752 305.948 113.606 306.239 113.606C306.399 113.606 306.545 113.679 306.677 113.825C306.804 113.953 306.868 114.126 306.868 114.345C306.868 114.504 306.834 114.687 306.766 114.892C306.729 115.015 306.711 115.106 306.711 115.165C306.711 115.201 306.882 115.347 307.224 115.603C307.702 115.963 308.183 116.375 308.666 116.84C309.154 117.3 309.523 117.697 309.774 118.029C309.929 118.243 310.011 118.351 310.02 118.351C310.065 118.351 310.216 118.28 310.471 118.139C311.592 117.519 312.759 116.979 313.971 116.519C314.7 116.254 315.498 116.022 316.363 115.821C317.234 115.616 317.892 115.509 318.339 115.5C318.722 115.505 318.913 115.634 318.913 115.89C318.913 116.163 318.806 116.318 318.592 116.354C318.382 116.391 318.23 116.414 318.134 116.423C317.605 116.464 316.922 116.594 316.083 116.812C314.169 117.318 312.294 118.109 310.457 119.185L310.56 119.499C310.71 119.918 310.785 120.354 310.785 120.805C310.785 121.566 310.571 122.368 310.143 123.211C309.728 124.027 309.165 124.703 308.454 125.241C307.743 125.779 306.98 126.103 306.164 126.212C305.991 126.235 305.847 126.246 305.734 126.246ZM305.747 125.33C306.116 125.33 306.474 125.259 306.82 125.118C306.948 125.068 307.071 125.016 307.19 124.961C308.57 124.241 309.452 123.049 309.835 121.386C309.862 121.24 309.876 121.069 309.876 120.873C309.876 120.6 309.856 120.369 309.815 120.183C309.742 119.854 309.687 119.69 309.651 119.69C309.596 119.69 309.22 119.937 308.523 120.429C307.397 121.222 306.49 121.974 305.802 122.685C305.241 123.25 304.872 123.726 304.694 124.113C304.581 124.337 304.524 124.505 304.524 124.619C304.524 124.701 304.546 124.783 304.592 124.865C304.71 125.079 304.895 125.209 305.146 125.255C305.396 125.305 305.597 125.33 305.747 125.33ZM318.934 120.736C318.483 120.736 318.086 120.595 317.744 120.312C317.361 119.998 317.17 119.561 317.17 119C317.17 118.749 317.22 118.412 317.32 117.988C317.393 117.665 317.484 117.343 317.594 117.024C317.772 116.546 317.99 116.031 318.25 115.479C318.642 114.636 318.927 114.165 319.105 114.064C319.168 114.023 319.234 114.003 319.303 114.003C319.585 114.003 319.772 114.144 319.863 114.427C319.882 114.491 319.891 114.552 319.891 114.611C319.891 114.743 319.834 114.844 319.72 114.912C319.606 114.98 319.387 115.361 319.064 116.054C318.421 117.416 318.1 118.471 318.1 119.219C318.1 119.428 318.154 119.579 318.264 119.67C318.378 119.766 318.478 119.816 318.565 119.82C318.656 119.825 318.71 119.827 318.729 119.827C318.879 119.827 319.075 119.793 319.317 119.725C319.722 119.624 320.169 119.453 320.656 119.212C321.149 118.97 321.935 118.533 323.015 117.899C323.817 117.435 324.819 116.819 326.023 116.054C326.301 115.881 326.658 115.662 327.096 115.397C327.192 115.347 327.283 115.322 327.369 115.322C327.492 115.322 327.606 115.37 327.711 115.466C327.779 115.593 327.814 115.714 327.814 115.828C327.814 116.01 327.743 116.149 327.602 116.245C327.401 116.345 326.718 116.771 325.551 117.523C325.164 117.77 324.651 118.079 324.013 118.453C322.805 119.155 321.978 119.627 321.531 119.868C320.374 120.447 319.508 120.736 318.934 120.736ZM320.021 111.303C319.916 111.303 319.816 111.262 319.72 111.18C319.588 111.075 319.522 110.929 319.522 110.742C319.522 110.674 319.56 110.56 319.638 110.4C319.72 110.223 319.8 110.104 319.877 110.045C319.955 109.986 320.05 109.956 320.164 109.956C320.328 109.956 320.488 110.024 320.643 110.161C320.775 110.284 320.841 110.405 320.841 110.523C320.841 110.578 320.83 110.631 320.807 110.681C320.766 110.795 320.693 110.865 320.588 110.893C320.524 110.906 320.467 110.959 320.417 111.05C320.34 111.218 320.207 111.303 320.021 111.303ZM324.102 136.083C324.006 136.083 323.915 136.078 323.828 136.069C323.126 135.965 322.646 135.586 322.386 134.935C322.286 134.661 322.235 134.356 322.235 134.019C322.235 133.093 322.552 132.073 323.186 130.956C324.006 129.479 325.25 127.878 326.918 126.15C329.384 123.607 332.268 121.317 335.572 119.28C336.055 118.984 336.302 118.825 336.311 118.802C336.324 118.779 336.331 118.613 336.331 118.303C336.331 118.048 336.318 117.651 336.29 117.113C336.281 116.885 336.267 116.717 336.249 116.607C336.076 115.477 335.803 114.766 335.429 114.475C335.292 114.37 335.137 114.317 334.964 114.317C334.754 114.317 334.454 114.418 334.062 114.618C333.077 115.092 331.692 116.065 329.905 117.537C329.122 118.18 328.338 118.788 327.554 119.362C326.743 119.959 326.146 120.36 325.763 120.565C325.375 120.771 325.061 120.873 324.819 120.873C324.459 120.873 324.22 120.729 324.102 120.442C324.047 120.333 324.02 120.221 324.02 120.107C324.02 119.447 324.409 118.615 325.189 117.612C325.895 116.715 326.727 115.935 327.684 115.274C327.921 115.115 328.208 114.953 328.545 114.789C329.402 114.374 330.156 114.167 330.808 114.167C331.309 114.167 331.708 114.299 332.004 114.563L332.134 114.693L332.681 114.358C333.688 113.725 334.44 113.408 334.937 113.408C335.123 113.408 335.319 113.445 335.525 113.518C335.784 113.618 336.005 113.757 336.188 113.935C336.803 114.609 337.154 115.84 337.24 117.626C337.249 118.041 337.263 118.248 337.281 118.248C339.164 117.173 340.92 116.323 342.552 115.698C343.327 115.416 343.778 115.258 343.905 115.227C344.01 115.199 344.101 115.186 344.179 115.186C344.53 115.195 344.705 115.352 344.705 115.657C344.705 115.735 344.669 115.814 344.596 115.896C344.523 115.979 344.443 116.031 344.357 116.054C344.161 116.09 343.664 116.254 342.866 116.546C341.066 117.248 339.442 118.029 337.992 118.891L337.22 119.342L337.199 119.533C337.072 120.868 336.869 122.021 336.591 122.992C336.318 123.967 335.891 125.032 335.313 126.185C334.962 126.896 334.606 127.531 334.246 128.092C333.886 128.652 333.442 129.258 332.913 129.91C332.284 130.689 331.685 131.362 331.115 131.927C330.55 132.492 329.887 133.075 329.126 133.677C328.242 134.388 327.408 134.935 326.624 135.317C325.599 135.828 324.758 136.083 324.102 136.083ZM324.129 135.181C324.316 135.181 324.532 135.149 324.778 135.085C325.79 134.802 326.907 134.21 328.128 133.308C328.953 132.692 329.682 132.073 330.316 131.448C330.954 130.824 331.61 130.09 332.284 129.247C332.776 128.636 333.182 128.078 333.501 127.572C333.825 127.071 334.157 126.472 334.499 125.774C335.306 124.179 335.828 122.678 336.065 121.27C336.174 120.686 336.229 120.271 336.229 120.025C336.229 119.998 336.226 119.982 336.222 119.978C336.144 119.978 335.604 120.31 334.602 120.976C332.145 122.603 329.96 124.384 328.046 126.321C326.378 127.966 325.143 129.454 324.341 130.785C323.594 131.956 323.202 132.934 323.165 133.718L323.151 134.025C323.151 134.24 323.172 134.415 323.213 134.552C323.245 134.652 323.3 134.752 323.377 134.853C323.541 135.071 323.792 135.181 324.129 135.181ZM324.977 119.916C325.173 119.916 325.831 119.504 326.952 118.679C327.841 118.032 328.595 117.451 329.215 116.936C329.894 116.37 330.512 115.878 331.068 115.459C331.245 115.322 331.334 115.24 331.334 115.213C331.334 115.126 331.15 115.083 330.78 115.083C330.553 115.083 330.368 115.094 330.227 115.117C330.117 115.14 329.971 115.183 329.789 115.247C328.946 115.516 328.144 115.979 327.383 116.635C326.686 117.214 326.073 117.893 325.544 118.672C325.412 118.868 325.287 119.08 325.168 119.308C325.013 119.604 324.936 119.793 324.936 119.875C324.936 119.902 324.949 119.916 324.977 119.916ZM344.049 119.123C343.985 119.123 343.928 119.116 343.878 119.103C343.605 119.011 343.404 118.815 343.276 118.515C343.235 118.41 343.215 118.209 343.215 117.913C343.215 117.658 343.231 117.478 343.263 117.373C343.34 117.081 343.491 116.708 343.714 116.252C343.873 115.915 344.031 115.616 344.186 115.356C344.395 114.996 344.646 114.721 344.938 114.529C345.17 114.374 345.382 114.297 345.573 114.297C345.742 114.297 345.892 114.358 346.025 114.481C346.125 114.595 346.175 114.712 346.175 114.83C346.175 114.889 346.161 114.949 346.134 115.008C346.056 115.176 345.911 115.261 345.696 115.261L345.614 115.254C345.364 115.254 345.026 115.68 344.603 116.532C344.288 117.147 344.131 117.596 344.131 117.879C344.131 117.961 344.131 118.032 344.131 118.091C344.136 118.146 344.154 118.173 344.186 118.173C344.395 118.173 345.124 117.642 346.373 116.58C346.574 116.407 346.738 116.268 346.865 116.163C347.499 115.616 348.025 115.343 348.444 115.343C348.918 115.343 349.502 115.675 350.194 116.341C350.91 117.024 351.555 117.457 352.129 117.64C352.507 117.758 352.913 117.817 353.346 117.817C354.143 117.817 355.114 117.656 356.258 117.332C356.869 117.159 357.728 116.849 358.835 116.402C359.728 116.047 360.271 115.835 360.462 115.767C360.895 115.589 361.159 115.477 361.255 115.432C361.41 115.363 361.533 115.329 361.624 115.329C361.683 115.329 361.745 115.34 361.809 115.363C361.968 115.441 362.048 115.58 362.048 115.78C362.048 115.885 362.009 115.979 361.932 116.061C361.79 116.211 361.323 116.434 360.53 116.73C359.86 116.99 359.314 117.204 358.89 117.373C357.304 118.02 355.955 118.433 354.843 118.61C354.301 118.697 353.802 118.74 353.346 118.74C352.949 118.74 352.587 118.708 352.259 118.645C351.398 118.462 350.493 117.918 349.545 117.011C349.048 116.532 348.686 116.293 348.458 116.293C348.362 116.293 348.26 116.32 348.151 116.375C347.968 116.462 347.442 116.876 346.571 117.619C345.446 118.567 344.682 119.062 344.281 119.103C344.177 119.116 344.099 119.123 344.049 119.123ZM363.258 119.28C363.149 119.28 363.051 119.276 362.964 119.267C362.244 119.198 361.727 119.021 361.412 118.733C361.098 118.446 360.941 118.02 360.941 117.455C360.945 116.63 361.223 115.812 361.775 115.001C362.039 114.591 362.463 114.197 363.046 113.818C363.456 113.54 363.793 113.349 364.058 113.244C364.327 113.135 364.591 113.08 364.851 113.08C365.238 113.08 365.512 113.217 365.671 113.49C365.744 113.609 365.783 113.702 365.787 113.771L365.78 113.982C365.776 114.178 365.733 114.354 365.651 114.509C365.573 114.659 365.432 114.837 365.227 115.042C364.848 115.425 364.349 115.769 363.73 116.074C363.42 116.229 363.178 116.334 363.005 116.389C362.832 116.439 362.634 116.466 362.41 116.471L362 116.484C361.895 116.835 361.843 117.136 361.843 117.387C361.843 117.669 361.879 117.865 361.952 117.975C362.135 118.225 362.602 118.351 363.354 118.351C364.165 118.351 365.081 118.187 366.102 117.858C366.712 117.662 367.615 117.334 368.809 116.874C370.007 116.409 371.033 115.994 371.885 115.63C372.391 115.407 372.726 115.295 372.89 115.295C372.926 115.295 372.958 115.299 372.985 115.309C373.177 115.391 373.275 115.479 373.279 115.575C373.289 115.671 373.293 115.723 373.293 115.732C373.293 115.906 373.207 116.038 373.033 116.129C372.979 116.156 372.758 116.25 372.37 116.409C368.784 117.895 366.469 118.756 365.425 118.993C364.618 119.185 363.896 119.28 363.258 119.28ZM362.54 115.568C362.604 115.568 362.704 115.539 362.841 115.479C363.247 115.325 363.641 115.119 364.024 114.864C364.406 114.604 364.666 114.372 364.803 114.167C364.848 114.094 364.871 114.042 364.871 114.01C364.871 113.987 364.853 113.976 364.817 113.976C364.607 113.976 364.297 114.101 363.887 114.352C363.244 114.73 362.802 115.09 362.561 115.432C362.511 115.495 362.485 115.536 362.485 115.555C362.485 115.564 362.504 115.568 362.54 115.568ZM379.063 125.597C378.867 125.597 378.696 125.581 378.55 125.549C378.003 125.412 377.577 125.132 377.272 124.708C377.026 124.38 376.902 123.947 376.902 123.409C376.902 123.058 376.955 122.662 377.06 122.22C377.383 120.729 378.402 118.533 380.115 115.63C380.43 115.101 380.74 114.477 381.045 113.757C381.241 113.31 381.375 112.946 381.448 112.663C381.521 112.376 381.558 112.08 381.558 111.774C381.558 111.296 381.462 110.927 381.271 110.667C381.079 110.407 380.765 110.218 380.327 110.1C380.15 110.049 379.78 110.024 379.22 110.024C378.454 110.024 377.661 110.229 376.841 110.64C376.025 111.05 375.303 111.569 374.674 112.198C374.05 112.827 373.637 113.442 373.437 114.044C373.368 114.258 373.334 114.459 373.334 114.646C373.334 114.769 373.348 114.885 373.375 114.994C373.434 115.24 373.464 115.416 373.464 115.521C373.464 115.589 373.425 115.662 373.348 115.739C373.261 115.844 373.15 115.896 373.013 115.896C372.826 115.896 372.68 115.799 372.575 115.603C372.461 115.384 372.404 115.067 372.404 114.652C372.404 113.832 372.755 112.998 373.457 112.15C374.255 111.18 375.248 110.396 376.438 109.799C377.413 109.311 378.413 109.067 379.439 109.067C379.935 109.067 380.393 109.136 380.813 109.272C381.938 109.651 382.501 110.494 382.501 111.802C382.501 112.212 382.442 112.615 382.323 113.012C382.036 113.982 381.462 115.199 380.601 116.662C379.48 118.572 378.687 120.196 378.222 121.536C377.971 122.329 377.846 122.96 377.846 123.43C377.846 123.598 377.862 123.746 377.894 123.874C377.939 124.011 378.019 124.141 378.133 124.264C378.247 124.391 378.37 124.487 378.502 124.551C378.68 124.619 378.901 124.653 379.165 124.653C379.361 124.653 379.555 124.631 379.746 124.585C380.826 124.307 382.016 123.671 383.315 122.678C383.802 122.295 384.415 121.775 385.153 121.119C385.896 120.463 386.6 119.818 387.266 119.185C389.832 116.769 391.237 115.527 391.484 115.459C391.534 115.45 391.582 115.445 391.627 115.445C391.768 115.445 391.887 115.5 391.983 115.609C392.055 115.696 392.092 115.792 392.092 115.896C392.092 116.079 391.998 116.229 391.812 116.348C391.652 116.452 391.285 116.767 390.711 117.291C389.554 118.33 388.581 119.223 387.792 119.971C386.32 121.365 385.106 122.443 384.149 123.204C382.143 124.799 380.448 125.597 379.063 125.597Z" fill="#9C927F"/>
</g>
<defs>
<clipPath id="clip0_3366_8578">
<rect width="479" height="152" fill="white"/>
</clipPath>
</defs>
</svg>
