<svg width="600" height="600" viewBox="0 0 600 600" fill="none" xmlns="http://www.w3.org/2000/svg">
<path d="M240.684 129.651C241.769 122.593 244.155 117.133 249.885 112.709C254.7 108.992 258.133 108.735 261.647 113.72C267.391 111.11 280.057 107.198 279.966 117.462C283.178 116.462 285.398 116.267 288.625 117.349C297.476 120.315 304.906 127.974 301.466 137.982C299.006 145.142 295.516 142.518 289.955 141.406C287.003 140.647 281.121 142.01 278.506 141.002C274.164 139.33 273.728 141.646 269.988 143.821C268.455 144.714 267.528 145.365 265.77 146.113C264.781 148.2 263.899 150.598 262.901 152.713C260.988 156.767 260.682 155.782 257.715 157.515C257.562 159.894 257.613 163.33 258.422 165.582C261.995 175.278 273.542 183.761 284.157 179.998C295.428 176.002 293.953 160.71 293.724 151.136C293.679 149.284 291.768 145.052 292.546 143.491C292.761 143.401 293.066 143.257 293.298 143.245C293.752 143.219 294.198 143.364 294.549 143.652C295.994 144.835 296.559 148.247 296.826 150.099C298.015 158.39 297.459 172.29 292.364 179.303C289.7 182.97 284.389 183.858 280.187 184.435C284.426 187.679 289.697 188.544 294.675 190.233C308.987 195.088 324.491 201.683 333.617 214.308C338.219 220.633 341.987 227.26 344.753 234.582C347.439 241.692 345.119 243.172 339.491 246.903C342.886 251.322 346.619 262.234 348.561 268.014C351.485 276.724 363.52 294.929 364.182 302.921C365.492 303.068 366.306 303.22 367.595 303.504C370.809 290.883 377.117 278.027 381.593 265.749C382.54 263.153 385.745 255.969 388.839 255.571C403.053 253.742 417.585 256.067 431.835 256.152L462.526 256.195C469.61 256.139 479.386 255.08 485.934 257.342C491.474 259.256 485.041 272.429 483.743 276.073L475.9 298.023C473.064 305.986 469.569 318.718 465.555 325.89C459.547 326.508 453.503 326.098 447.497 326.165C422.061 326.446 396.664 325.228 371.255 327.135C367.757 327.399 363.69 326.461 360.163 326.602C356.618 326.742 353.064 327.114 349.513 327.267C337.798 327.809 326.073 328.093 314.345 328.122C310.953 328.122 305.539 328.298 302.334 327.615C296.735 326.423 302.832 318.299 305.794 317.634C306.801 317.408 307.335 317.391 308.038 316.614L307.844 316.286C306.98 316.093 303.069 314.227 303.371 314.168C294.965 315.806 286.642 316.515 278.144 317.991C270.865 319.257 263.975 321.229 256.835 322.6C263.794 326.367 279.804 331.398 287.912 332.206C305.331 333.944 323.747 334.392 341.287 335.039C374.381 336.399 407.509 336.692 440.621 335.921C446.923 335.813 453.271 335.197 459.541 335.153C478.56 335.019 497.454 335.335 516.426 333.674C524.465 332.971 532.827 331.635 540.86 331.251C540.831 325.623 540.702 320.631 540.289 314.857C540.327 310.339 532.639 305.183 528.309 304.368C522.517 303.281 477.784 304.603 475.118 302.643C474.453 299.567 482.193 299.842 484.326 299.71C495.626 299.071 506.952 299.063 518.252 299.681C521.99 299.892 527.055 300.059 530.615 301.014C534.588 302.077 543.312 306.428 544.203 310.808C545.451 317.051 545.216 323.83 545.401 330.15C545.445 333.949 547.188 338.405 543.655 341.279C529.686 352.632 511.581 351.539 494.709 352.515C479.214 353.496 464.161 355.099 448.607 354.566C434.401 354.079 420.007 354.003 405.793 353.977C406.633 354.536 407.465 355.113 408.286 355.708C430.885 372.317 434.366 453.188 430.162 479.675C427.924 493.77 427.045 498.299 412.036 500.537C410.943 503.435 410.419 507.9 409.935 511.064C416.146 512.939 423.415 511.559 429.558 516.346C431.726 517.585 438.681 526.002 438.529 528.15C438.022 535.277 414.309 534.015 410.527 533.751L410.152 534.586C410.36 535.591 410.486 535.796 410.038 536.725C408.734 538.055 406.847 538.146 405.078 538.16C400.411 538.204 395.729 537.522 391.068 537.378C384.716 537.179 364.323 538.357 360.421 534.199C357.93 531.545 358.686 526.652 358.909 523.316C359.202 518.93 359.63 514.468 360.517 510.161C355.332 510.484 354.47 507.235 354.148 502.652C353.58 494.587 353.143 486.106 353.085 478.043C352.938 458.54 351.385 439.415 347.958 420.205C347.061 415.166 346.795 407.262 343.513 403.034C340.918 400.184 332.553 399.56 328.976 399.24C326.014 398.977 318.901 399.574 316.695 398.508C316.009 397.538 316.197 398.066 316.138 396.856C316.393 396.363 316.739 395.54 317.465 395.429C325.947 394.321 336.388 394.336 344.281 397.887C347.26 399.226 349.581 402.733 350.178 405.841C353.184 421.535 355.622 437.634 356.829 453.569C357.459 461.909 357.295 470.057 357.702 478.386C358.168 487.48 357.526 497.148 359.357 506.004C367.241 505.57 375.04 504.609 382.865 503.613C388.557 502.887 392.729 503.35 397.924 500.476C398.55 476.862 398.149 453.235 396.716 429.653C396.262 421.43 396.016 412.152 394.903 404.063C392.483 386.49 384.166 360.293 364.607 355.474L364.133 355.632C363.749 356.783 363.948 356.857 363.16 357.39C362.111 357.246 362.539 357.454 361.777 356.86C361.666 356.004 361.994 355.497 362.337 354.695C361.475 353.329 352.484 353.192 350.638 353.364C349.566 354.068 349.8 354.167 348.798 354.082C347.369 352.679 346.045 353.142 343.962 353.007C338.281 352.611 332.591 352.275 326.902 351.996C320.02 351.659 313.007 350.871 306.122 350.315C300.605 349.866 294.869 349.702 289.391 349.181C280.366 348.264 271.403 346.808 262.551 344.827C259.484 344.162 255.876 343.641 253.06 342.434C252.972 339.809 252.64 321.185 254.018 320.153C258.942 316.462 270.482 314.244 276.533 313.811C273.257 312.938 267.994 312.431 264.567 312.041C240.695 309.328 228.102 305.93 218.026 282.829C218.051 298.081 218.501 346.339 226.425 357.867C236.94 362.458 265.83 362.408 277.649 361.494C282.723 361.099 289.457 359.361 293.925 359.039C293.937 357.009 293.912 349.869 296.84 349.893C297.781 350.871 297.851 352.486 297.837 353.795C297.286 380.669 296.111 407.523 294.315 434.341C293.776 443.212 293.628 451.761 292.911 460.746C291.608 477.07 288.488 492.938 287.195 509.194C286.748 514.822 287.286 521.177 287.335 526.922C287.414 536.356 287.164 545.786 286.584 555.199C286.391 558.319 286.516 564.999 284.233 567.202H282.595C280.46 562.673 281.461 553.67 281.667 548.52C281.919 541.972 282.13 535.421 282.299 528.867C274.561 532.948 265.976 531.891 257.646 531.533L243.02 530.898C249.954 536.08 247.956 541.922 239.925 544.474C234.016 546.352 233.539 541.442 233.267 537.021C233.116 534.563 234.238 532.743 235.919 531.021C231.998 531.097 225.743 531.753 222.535 529.172C221.419 528.276 220.9 527.136 220.834 525.712C220.768 524.294 221.19 522.551 222.241 521.534C226.178 517.717 260.117 518.719 267.255 519.147C265.817 510.935 266.937 500.883 267.024 492.489C267.399 484.562 266.153 476.487 269.065 468.914C270.424 465.381 269.148 459.079 269.172 455.139C269.211 448.647 268.594 441.844 269.804 435.431C259.372 435.489 249.102 434.939 238.694 434.581C230.082 434.285 221.534 434.253 212.954 433.26C204.222 432.249 189.417 430.746 183.796 423.516C180.497 419.277 179.257 413.619 178.43 408.428C177.364 401.748 176.982 394.843 176.388 388.102C174.869 370.849 173.961 353.54 172.306 336.305C170.912 321.777 169.181 307.231 167.565 292.723C167.028 287.901 165.235 282.003 165.913 277.207C166.203 275.159 167.253 273.516 168.939 272.329C171.171 270.759 174.086 270.091 176.745 269.669C182.534 268.743 188.524 269.174 194.365 268.922C198.778 268.732 204.108 267.557 208.4 268.319C209.643 268.541 211.074 269.074 211.742 270.229C212.134 270.905 212.158 271.729 211.963 272.47C210.989 276.17 179.107 275.397 174.462 277.746C173.681 278.139 173.313 278.71 173.067 279.53C171.531 284.649 174.286 293.423 175.219 298.626C175.752 301.664 176.159 304.72 176.44 307.793C177.205 315.941 177.179 324.237 177.701 332.388C179.07 353.801 180.003 374.637 184.187 395.78C186.046 405.173 187.371 414.141 192.016 422.763C197.318 425.183 204.095 425.593 209.842 425.69C231.092 426.044 252.233 425.537 273.429 427.553C280.314 428.206 284.368 427.049 290.799 430.269C290.838 425.736 291.438 420.094 291.702 415.453L292.831 391.398C293.277 382.301 292.956 373.231 293.5 363.987C277.201 368.139 249.626 367.799 233.185 364.603C242.186 382.292 261.551 383.622 279.085 388.111C282.143 388.896 291.401 389.458 292.283 392.816C291.54 394.676 289.655 394.84 287.898 394.503C272.974 391.623 257.671 388.928 243.848 382.365C238.566 379.861 228.841 370.925 230.095 364.532C228.959 363.407 224.141 362.713 223.287 361.257C217.285 351.003 215.185 319.096 214.924 307.732C214.832 301.125 214.809 294.516 214.855 287.906C214.87 285.674 215.214 278.719 214.823 276.996C213.044 269.154 211.719 264.314 211.7 256.165C209.227 256.397 201.787 257.747 201.168 254.236C200.215 248.838 201.09 242.334 201.39 236.904C202.458 217.582 212.859 205.344 229.505 196.798C236.915 192.882 251.833 188.279 255.825 180.173C257.299 177.178 257.225 173.03 255.932 169.843C254.255 170.088 252.647 170.293 250.949 170.049C243.939 169.04 247.755 163.88 246.205 162.436C245.809 162.066 244.909 161.763 244.389 161.507C241.602 160.137 239.594 158.991 237.707 156.451C234.486 152.115 232.691 145.215 233.556 139.867C234.322 135.129 237.039 132.391 240.684 129.651Z" fill="black"/>
<path d="M410.152 534.588C408.397 534.154 407.501 533.926 405.804 533.264L405.552 532.821L405.476 533.103L405.289 532.985L405.254 532.789C407.117 532.789 408.711 533.302 410.527 533.753L410.152 534.588Z" fill="#E3E4E6"/>
<path d="M253.968 190.219C254.274 190.504 254.444 190.697 254.658 191.064C258.948 198.446 264.147 201.098 272.362 197.7C277.078 195.749 278.866 194.893 282.669 191.78C284.8 191.397 303.163 198.349 306.177 199.661C313.232 202.809 324.687 209.074 328.836 215.928C332.58 222.106 338.846 232.036 341.512 238.637C334.921 242.161 328.809 246.386 323.694 251.874C328.097 257.535 330.91 286.546 332.884 295.288C327.183 292.649 317.638 289.743 311.386 290.437C301.253 291.559 294.309 291.456 284.161 289.394C269.163 286.499 263.617 284.405 255.579 271.332C247.479 258.156 246.238 248.536 247.063 233.333C247.217 230.499 247.538 221.302 244.806 219.926L244.129 220.201C240.788 224.574 242.255 244.238 242.681 250.225C235.549 249.523 228.579 250.597 221.457 250.965C216.191 251.238 211.081 251 205.83 251.041C206.192 243.593 206.323 235.01 208.448 227.905C210.147 222.22 214.717 213.967 219.066 209.885C225.097 204.225 233.035 200.55 240.44 197.137C244.937 195.064 249.586 192.539 253.968 190.219Z" fill="white"/>
<path d="M393.91 258.247C407.808 258.149 420.72 259.637 434.474 260.062C444.957 260.16 455.486 260.055 465.963 260.088C469.024 260.098 482.964 259.161 484.496 261.113C484.387 263.591 481.874 270.207 480.995 272.753C478.449 280.15 475.839 287.527 473.167 294.878C469.719 304.628 467.29 312.558 462.936 322.086C459.781 321.924 456.535 322.045 453.368 322.106C434.261 322.446 415.194 321.892 396.113 322.203C385.138 322.381 374.715 323.105 363.629 323.017C364.648 320.744 365.636 318.154 366.418 315.784C371.436 300.579 376.736 285.588 382.795 270.755C384.298 267.075 385.636 262.001 388.54 259.215C390.933 258.588 391.405 258.441 393.91 258.247Z" fill="white"/>
<path d="M424.657 273.786C434.266 272.579 443.02 279.432 444.151 289.053C445.282 298.671 438.359 307.369 428.732 308.424C419.211 309.467 410.63 302.638 409.513 293.125C408.394 283.615 415.153 274.982 424.657 273.786Z" fill="black"/>
<path d="M424.08 281.883C429.239 282.062 429.248 287.909 428.416 291.466C428.313 291.899 432.177 294.94 432.623 295.55C433.086 296.183 433.631 296.994 434.067 297.744C433.469 298.585 432.614 299.426 431.893 300.187C430.622 299.476 430.141 299.08 429.005 298.151C427.294 296.279 425.987 293.396 423.734 294.662C422.753 295.078 421.039 295.471 420.087 294.809C413.044 289.931 417.898 283.69 424.08 281.883Z" fill="white"/>
<path d="M421.455 285.914C425.647 286.131 426.485 289.002 423.435 291.627C421.924 291.996 422.469 292.061 421.054 291.674C419.102 289.96 420.034 287.599 421.455 285.914Z" fill="black"/>
<path d="M369.898 353.414C372.626 353.438 375.717 353.892 378.649 353.897C385.669 353.906 392.644 353.842 399.664 354.029C401.512 355.679 404.073 357.354 406.08 359.051C410.272 362.596 411.907 366.609 414.081 371.52C422.354 390.205 425.009 413.437 426.708 433.57C427.631 444.478 428.515 484.992 421.886 492.791C416.7 494.851 407.805 496.635 401.926 498.372C401.975 486.656 402.38 475.14 402.292 463.386C402.154 452.253 401.729 441.123 401.014 430.011C399.957 411.395 399.831 395.859 392.255 378.416C387.271 366.946 381.772 358.374 369.898 353.414Z" fill="white"/>
<path d="M242.534 251.82C242.88 252.133 243.024 252.234 243.105 252.747C245.07 266.505 253.849 282.513 266.505 288.953C274.369 292.955 305.929 299.403 312.453 293.11C318.031 293.482 323.51 294.794 328.651 296.995C332.389 298.603 336.175 300.619 337.765 304.556C336.778 306.964 336.345 307.726 334.675 309.589L334.502 309.437C332.981 308.072 332.246 307.407 331.297 305.579C330.969 304.949 329.858 304.928 329.222 304.84C326.246 306.039 330.075 310.114 328.604 312.469C326.53 311.778 325.874 308.453 323.726 309.414C322.165 311.333 322.836 313.914 320.568 314.901C319.543 314.769 319.138 314.473 318.236 313.996L318.148 313.521C318.939 312.54 319.177 312.135 319.651 310.966L319.223 310.462C317.354 309.736 312.081 313.102 309.47 313.281C305.41 313.556 304.273 307.275 301.968 307.38C300.676 308.834 301.678 309.138 300.696 310.375C297.336 310.398 291.65 309.973 287.987 309.733C273.276 308.769 248.163 308.423 236.076 299.889C230.576 296.004 221.888 281.561 219.062 274.919C216.891 269.819 215.429 261.786 214.663 256.176C220.73 256.599 234.764 255.82 240.871 254.41C241.8 254.195 242.218 252.726 242.534 251.82Z" fill="white"/>
<path d="M257.467 327.977C262.692 330.511 278.376 334.779 284.221 335.597C299.688 337.756 316.56 337.527 332.161 338.286C344.618 338.893 357.069 339.716 369.547 340C408.617 340.586 447.696 340.387 486.76 339.405C501.233 339.191 515.691 338.397 530.099 337.018C532.182 336.813 539.788 335.395 540.889 336.086L540.807 336.719C539.193 338.77 537.769 339.479 535.554 340.747C523.323 346.73 500.958 346.334 487.464 348.06C460.033 351.566 433.138 349.378 405.634 349.047C379.715 348.736 353.357 349.738 327.453 347.808C313.613 346.776 299.694 345.224 285.824 344.336C276.461 343.647 266.112 340.847 256.849 339.162C257.327 336.15 257.774 330.862 257.467 327.977Z" fill="white"/>
<path d="M289.562 435.223L290.006 435.211C290.412 436.081 290.07 440.982 290.027 442.242C289.63 453.146 288.799 464.03 287.534 474.867C286.452 483.677 284.922 492.524 283.916 501.331C283.108 508.403 282.553 515.766 281.944 522.87C281.25 521.687 279.65 519.65 279.38 518.552C279.662 517.017 279.799 514.819 279.82 513.243C279.978 501.07 280.016 488.854 280.03 476.687C280.033 474.527 278.786 470.651 276.408 470.118C276.25 470.083 275.526 469.931 275.453 469.69C274.783 458.804 276.262 446.508 274.963 435.656C280.547 435.855 284.079 435.671 289.562 435.223Z" fill="white"/>
<path d="M337.358 248.461L337.751 248.696C339.579 257.698 343.557 268.45 346.68 277.104C349.762 285.638 354.564 298.892 362.972 303.234C359.316 303.134 355.657 303.07 352.001 303.04C349.182 303.052 343.475 302.862 341.076 303.82C340.018 301.168 338.896 300.301 337.657 298.183C337.61 298.104 338.82 294.817 338.647 293.677C337.821 288.263 336.365 282.782 335.123 277.45C333.327 269.736 332.386 259.961 329.076 252.869C331.915 251.801 334.783 250.051 337.358 248.461Z" fill="white"/>
<path d="M378.687 508.145C378.869 508.118 379.197 508.165 379.396 508.18C379.446 510.008 379.27 511.939 379.847 513.685C382.294 521.076 395.137 522.225 401.035 525.907L401.05 533C394.994 532.511 391.768 532.367 385.692 532.698C379.569 533.147 368.87 532.851 362.993 530.885C363.046 524.05 363.608 517.23 364.133 510.418C369.163 510.43 373.361 508.496 378.687 508.145Z" fill="white"/>
<path d="M401.688 501.117C403.675 501.642 405.409 501.451 407.407 501.27C406.294 506.183 404.715 510.281 407.466 514.711C411.099 515.722 414.834 516.056 418.563 516.63C427.071 517.939 428.817 521.367 433.18 527.417C425.765 529.154 423.597 528.961 416.009 528.867C413.431 528.826 410.287 528.665 407.779 529.043C406.953 529.169 407.184 529.242 406.144 529.225C405.939 527.991 405.611 525.404 405.072 524.312C401.838 517.764 381.075 518.423 383.577 508.822C386.202 506.279 399.371 508.714 401.688 501.117Z" fill="white"/>
<path d="M343.13 306.009C351.122 305.962 358.176 307.117 366.339 307.035C365.266 309.372 364.106 313.509 363.072 315.273C361.827 315.85 360.175 315.226 358.616 315.179C356.571 315.121 354.746 315.381 352.73 315.633C346.209 316.357 336.429 316.134 329.662 316.216C333.503 312.797 330.403 312.329 335.955 312.888C335.773 312.871 340.317 310.849 341.096 310.615C341.222 308.696 340.622 307.503 341.682 306.129L343.13 306.009Z" fill="white"/>
<path d="M261.476 178.586C268.114 183.56 269.223 183.431 277.071 184.556C277.435 186.904 277.291 186.855 278.992 188.456L279.299 188.74C277.172 190.21 275.936 191.003 273.662 192.205C264.923 196.379 263.237 194.342 257.144 187.714C260.156 184.718 260.489 182.605 261.476 178.586Z" fill="white"/>
<path d="M273.598 472.109C274.92 472.309 275.707 472.941 276.001 474.271L275.624 474.409L274.56 473.542L274.132 473.272C273.547 473.489 272.957 473.694 272.363 473.888L272.035 473.686C272.526 472.646 272.529 472.883 273.598 472.109Z" fill="#E3E4E6"/>
<path d="M452.035 44.3243C457.496 44.0469 464.369 45.0447 468.216 49.2351C474.872 56.491 467.287 64.5459 461.835 69.1558C467.026 68.2979 472.326 67.0851 477.09 64.7861C478.991 63.8688 484.912 59.0278 486.456 59.3149C487.206 59.4544 487.777 59.9217 488.146 60.585C489.101 62.2868 484.469 70.8904 483.649 73.2137C488.799 71.9346 495.47 72.684 498.259 77.8376C499.367 79.857 499.61 82.2368 498.936 84.4382C497.357 89.6094 491.301 93.3714 486.766 95.7169C491.662 105.701 491.539 112.98 490.466 123.807C490.132 127.176 489.886 130.268 487.894 133.224C486.318 135.562 484.001 137.616 482.905 140.276C480.889 146.896 479.354 151.196 474.292 156.099C471.33 158.979 467.858 161.282 464.055 162.893C458.29 165.281 436.094 168.858 429.737 168.772C422.735 168.617 411.113 166.595 404.477 164.598C404.02 164.95 403.551 165.287 403.068 165.605C399.128 168.179 394.305 169.023 389.723 167.938C383.36 166.466 380.887 162.633 382.405 156.376C365.987 146.781 356.902 131.443 358.223 111.912C359.152 99.9017 365.451 91.2468 372.81 82.5277C381.057 72.7558 388.083 67.1454 399.919 62.365C401.082 61.8954 404.709 58.5714 406.343 57.5639C416.583 51.2557 427.229 48.1021 439.267 49.3713C442.554 46.4149 447.769 44.9551 452.035 44.3243Z" fill="black"/>
<path d="M472.566 110.344C473.407 112.477 473.811 114.588 474.485 116.696C476.811 123.977 477.784 128.785 478.358 136.339C469.774 142.796 460.329 148.019 450.295 151.856C448.511 152.505 446.844 152.902 445.007 153.371C446.369 141.047 457.935 132.079 465.119 122.719C468.722 118.021 470.114 115.582 472.566 110.344Z" fill="white"/>
<path d="M365.682 98.6797C366.189 99.2782 365.928 98.922 365.914 99.9251C365.797 107.181 367.247 111.631 372.277 116.889C372.588 118.863 372.98 121.585 373.496 123.462C375.752 131.681 381.93 140.435 389.334 144.742C387.245 145.557 380.571 148.727 383.635 151.759L384.3 151.746C385.138 151.129 385.144 150.577 385.428 149.541L385.537 149.13C385.997 148.904 386.465 148.69 386.937 148.489C391.891 146.347 395.129 147.858 399.983 149.774C401.257 150.568 402.667 151.569 403.926 152.423C396.21 150.614 391.475 149.713 384.388 153.542C375.174 147.56 368.583 142.162 364.546 131.456C360.371 120.389 360.892 109.36 365.682 98.6797Z" fill="white"/>
<path d="M421.291 66.7344C426.327 68.5344 428.621 70.352 432.872 73.5002C431.19 77.0926 431.896 79.9209 434.161 83.019C426.286 87.0014 418.379 90.1689 409.534 91.1187C404.02 91.3912 401.492 91.2427 396.166 89.9108C403.083 86.1137 412.765 80.0334 418.314 74.4676C420.907 71.8657 421.446 70.0877 421.291 66.7344Z" fill="white"/>
<path d="M390.526 73.5547L390.69 73.6136C390.998 74.4157 389.407 77.2481 389.263 78.4865C388.833 82.2687 387.796 87.6966 387.746 91.3824C382.601 95.7028 377.887 99.6936 374.905 105.736C374.334 106.89 373.364 110.086 372.655 110.614L372.289 110.037C368.161 102.572 370.329 95.786 374.348 88.9309C378.585 81.7089 383.633 77.9053 390.526 73.5547Z" fill="white"/>
<path d="M417.825 153.894L418.546 153.766C426.113 157.585 433.798 160.407 442.379 158.947C443.975 161.012 444.998 161.88 447.069 163.305C443.864 164.061 440.551 164.496 437.287 164.917C423.974 165.305 419.764 163.831 407.117 161.586C408.377 159.115 408.424 158.151 409.376 155.605C409.774 155.288 416.369 154.238 417.825 153.894Z" fill="white"/>
<path d="M388.103 95.8008C388.393 96.1128 388.326 95.9777 388.467 96.3442C390.116 100.686 392.246 103.188 395.589 106.204C390.119 110.867 387.957 114.231 388.141 121.73L385.399 120.571C381.221 118.631 379.768 117.737 376.077 114.893C376.625 113.427 377.088 111.227 377.7 109.53C379.915 103.376 383.439 100.027 388.103 95.8008Z" fill="white"/>
<path d="M440.641 92.3242L440.981 92.7874C439.352 100.349 436.355 105.463 430.218 110.357C427.42 112.588 423.939 114.613 420.26 114.145C418.136 111.518 418.929 110.136 419.926 107.141C423.066 97.6987 432.429 96.0291 440.641 92.3242Z" fill="white"/>
<path d="M446.17 99.5156C447.166 100.012 450.506 106.389 451.285 107.79C441.576 112.998 434.498 117.743 429.198 127.795C427.827 126.787 426.763 126.302 425.261 125.552C423.063 124.827 421.575 124.875 419.316 124.879L417.403 123.002C431.562 116.957 437.22 111.418 446.17 99.5156Z" fill="white"/>
<path d="M376.713 120.836C377.395 121.072 379.859 122.416 380.568 122.796C384.23 124.758 386.378 125.565 390.403 126.282C392.471 135.706 397.475 139.3 405.245 144.962C401.732 145.049 398.65 145.047 395.384 143.619C385.812 139.431 379.836 130.278 376.713 120.836Z" fill="white"/>
<path d="M454.777 84.1602C458.735 84.5407 463.786 84.8319 467.395 86.4553C467.89 87.4631 468.482 88.3631 469.077 89.3149C469.056 92.8001 469.071 96.0421 470.017 99.4036L465.538 101.375L462.432 102.983C460.595 96.6146 457.218 93.3037 451.698 89.9888C452.753 88.5298 453.971 85.8274 454.777 84.1602Z" fill="white"/>
<path d="M451.481 49.0005C457.244 48.4785 463.537 49.0899 466.508 54.7524C465.406 60.1574 463.062 61.8129 459.28 65.5342L457.191 67.6741C454.83 59.2834 452.814 54.9659 444.629 51.2069C447.136 50.0423 448.812 49.529 451.481 49.0005Z" fill="white"/>
<path d="M417.424 129.055C421.505 131.334 422.416 131.934 427.308 132.21C426.602 136.121 426.213 138.26 427.218 142.171C424.349 145.786 423.298 147.028 419.137 149.151C417.356 148.167 416 147.304 414.295 146.18C422.811 140.682 416.006 138.38 411.491 134.679C414.459 132.906 415.815 132.158 417.424 129.055Z" fill="white"/>
<path d="M486.552 76.5409C490.478 75.9585 496.165 78.0313 495.049 82.8969C494.199 86.6041 490.856 88.6915 487.941 90.5695C486.802 91.2336 485.656 91.9338 484.519 92.612C483.172 91.0367 482.325 89.9733 481.135 88.2784C481.446 85.1548 481.783 80.5532 482.466 77.6197C483.626 77.211 485.322 76.8456 486.552 76.5409Z" fill="white"/>
<path d="M434.841 53.7518L435.093 53.7188C436.042 54.1699 434.885 55.4768 434.823 57.2651C434.718 60.3973 435.057 61.6365 436.449 64.34C433.294 64.0849 430.352 63.8593 427.232 63.2432C423.517 62.5099 419.952 61.2817 416.199 60.9349C413.363 60.9129 411.476 61.0137 408.646 61.2744C418.771 56.2556 423.655 54.1072 434.841 53.7518Z" fill="white"/>
<path d="M392.003 91.875C394.139 92.6499 395.313 93.5689 397.994 94.3178C406.681 96.7439 414.626 94.713 422.946 92.361C421.141 93.8004 419.337 95.441 417.597 96.9729C416.958 97.6354 401.987 102.563 398.97 104.279C395.568 100.92 391.528 97.0503 392.003 91.875Z" fill="white"/>
<path d="M414.573 67.1978C416.076 67.0226 417.037 66.84 417.453 68.4394C416.228 73.7901 400.311 83.1745 395.099 86.4695L394.42 86.8741C393.465 86.5987 393.848 86.8513 393.21 86.1051C392.923 83.7991 396.002 80.6359 397.469 78.9804C402.579 73.2101 407.34 69.7618 414.573 67.1978Z" fill="white"/>
<path d="M451.713 123.953C451.78 124.139 451.844 124.325 451.909 124.511C449.076 131.711 440.255 142.093 431.879 142.404C431.682 138.474 432.623 137.387 431.943 132.229C439.094 131.6 446.181 128.482 451.713 123.953Z" fill="white"/>
<path d="M478.522 99.9141C478.973 100.426 480.034 104.701 480.473 105.747C485.261 117.097 488.316 120.648 482.518 132.354C481.25 120.548 477.432 112.904 474.863 101.743C476.404 101.15 477.122 100.723 478.522 99.9141Z" fill="white"/>
<path d="M443.914 142.094L444.145 142.293C441.385 147.467 440.975 148.426 441.066 154.342C434.425 154.688 431.882 154.39 425.562 152.303C424.997 152.075 424.405 151.802 423.843 151.555L423.719 151.228C426.708 149.347 427.256 148.738 429.567 146.039C430.675 145.594 431.996 146.363 433.294 146.512C437.351 146.975 440.943 144.394 443.914 142.094Z" fill="white"/>
<path d="M479.381 68.8789L479.559 68.9976C479.764 69.6928 477.948 74.5862 477.576 75.7033C474.101 78.0898 473.079 79.5843 471.078 83.1421C468.702 81.7256 467.811 80.4547 466.001 78.36C463.929 76.2547 462.673 75.0767 460.358 73.238C467.366 73.4231 473.114 71.7942 479.381 68.8789Z" fill="white"/>
<path d="M470.389 103.758L470.732 104.063C469.883 112.175 460.686 122.109 455.606 128.085C455.246 127.534 458.175 118.943 458.7 117.63C460.197 113.883 462.186 111.692 462.301 107.452L470.389 103.758Z" fill="white"/>
<path d="M452.653 111.984C453.245 112.657 453.116 115.862 453.148 117.044C446.709 123.123 442.862 125.387 434.299 127.924C434.164 127.827 434.029 127.73 433.897 127.633C438.485 120.287 445.302 116.004 452.653 111.984Z" fill="white"/>
<path d="M440.43 54.6484C443.917 55.595 447.62 57.451 449.688 60.4935C450.535 61.7354 452.46 65.2079 452.173 66.6868L451.593 66.6766C444.831 65.9998 441.526 65.7197 438.863 58.7509C439.264 57.3109 439.85 56.026 440.43 54.6484Z" fill="white"/>
<path d="M473.372 145.957L473.542 146.31C468.347 152.392 460.721 158.019 453.292 160.992C451.918 160.632 451.147 160.353 449.823 159.83C449.052 159.393 448.068 158.995 447.705 158.263C448.839 157.603 452.076 156.86 453.629 156.281C460.754 153.625 466.95 149.959 473.372 145.957Z" fill="white"/>
<path d="M391.713 154.479C394.361 154.306 402.336 155.217 405.482 155.475C404.873 157.424 404.442 158.885 403.212 160.537C400.408 159.371 390.737 156.879 389.173 155.306C389.767 154.716 390.825 154.653 391.713 154.479Z" fill="white"/>
<path d="M399.831 135.086C402.623 134.971 404.668 135.547 407.797 135.126C409.2 137.844 410.697 139.223 413.442 140.577L413.542 141.039L412.874 141.608L410.266 143.394C406.651 140.7 403.174 138.135 399.831 135.086Z" fill="white"/>
<path d="M385.349 158.133C389.105 158.914 394.824 162.301 398.952 163.286C399.037 163.419 399.125 163.553 399.21 163.687L398.589 163.944C395.949 164.75 394.144 165.126 391.361 164.59C387.992 163.94 384.594 162.077 385.349 158.133Z" fill="white"/>
<path d="M443.885 71.0158C446.811 71.0012 448.528 71.8221 451.361 72.3421C449.082 73.608 446.905 75.1139 444.734 76.5623C443.967 77.1356 443.284 77.7488 442.563 78.3726C441.303 76.3411 440.366 75.0345 438.752 73.2992C440.571 72.3471 441.971 71.7819 443.885 71.0158Z" fill="white"/>
<path d="M398.65 108.965C399.793 109.861 401.246 110.781 402.47 111.602C398.972 113.865 396.517 116.006 393.971 119.251C393.301 120.222 392.565 121.547 391.947 122.583C391.979 122.044 392.011 121.507 392.05 120.969C392.477 114.825 394.188 112.857 398.65 108.965Z" fill="white"/>
<path d="M412.777 124.859L413.553 124.99C413.738 125.744 412.267 126.632 411.599 127.108C409.754 128.425 409.209 129.315 408.192 131.262C406.174 130.996 404.137 131.011 402.098 130.975C401.12 130.96 401.507 131.147 400.824 130.624C400.888 129.431 401.867 128.035 402.497 126.94C406.279 126.448 409.144 125.798 412.777 124.859Z" fill="white"/>
<path d="M448.724 94.5586C452.278 94.754 458.577 101.554 457.736 104.811L457.138 105.092C456.321 105.527 456.195 105.568 455.307 105.843C454.385 104.169 448.83 95.2904 448.724 94.5586Z" fill="white"/>
<path d="M412.894 102.839L413.184 102.809L413.41 103.11C413.094 103.758 411.081 107.868 410.744 107.89C409.472 107.973 406.426 109.571 404.949 108.797L402.227 107.004C405.76 105.565 409.317 104.176 412.894 102.839Z" fill="white"/>
<path d="M405.301 114.219L405.635 114.342L405.711 114.662C404.093 117.173 401.764 120.369 399.93 122.792C399.511 123.349 397.71 123.126 396.834 123.111L396.347 122.905C396.907 120.559 403.197 115.575 405.301 114.219Z" fill="white"/>
<path d="M473.307 88.9609C474.183 89.2472 476.208 90.7322 477.072 91.3234C477.107 92.9128 477.268 94.2394 477.438 95.8114L477.054 96.1817C476.34 96.5427 475.625 96.896 474.904 97.2417L474.579 97.1063C474.046 94.4163 473.691 91.6779 473.307 88.9609Z" fill="white"/>
<path d="M408.998 148.33C409.865 148.162 412.947 150.222 414.441 150.93L410.302 151.646C409.302 151.791 408.585 151.851 407.577 151.913C406.56 150.939 405.377 150.076 404.258 149.212C406.259 148.982 407.055 148.906 408.998 148.33Z" fill="white"/>
<path d="M409.367 117.359C410.202 118.11 410.879 119.889 411.365 120.963C410.263 121.374 409.086 121.715 407.958 122.064C406.921 122.274 406.76 122.515 406.062 122.12C406.288 120.869 408.441 118.526 409.367 117.359Z" fill="white"/>
<path d="M458.723 76.5625C459.64 77.2879 462.046 79.4025 462.479 80.4024L462.116 80.4133C460.549 80.2217 458.931 80.0977 457.355 79.9551C457.927 78.7369 458.266 77.8179 458.723 76.5625Z" fill="white"/>
<path d="M452.504 76.7148C452.413 77.9187 452.055 78.9256 451.719 80.086C450.122 80.369 448.428 80.8062 446.844 81.1794L446.835 80.6761C448.578 79.3258 450.661 77.9705 452.504 76.7148Z" fill="white"/>
<path d="M401.258 68.7969L401.867 68.9475C401.594 69.6374 397.097 73.7047 396.022 74.8139L395.583 74.9788L395.551 74.5197C397.215 71.4699 398.164 70.2567 401.258 68.7969Z" fill="#E3E4E6"/>
<path d="M414.198 113.305C414.52 113.575 417.658 118.751 417.69 119.389C415.01 119.136 413.735 115.718 414.198 113.305Z" fill="white"/>
<path d="M482.955 98.3711C484.912 99.7463 486.576 106.448 486.802 108.756C485.864 107.649 483.476 100.151 482.955 98.3711Z" fill="#E3E4E6"/>
<path d="M432.485 67.3984C433.642 67.4673 438.154 67.9806 438.898 68.5668L438.418 68.7818C437.744 69.1574 437.249 69.4155 436.543 69.7504C434.949 69.5664 433.839 68.4212 432.485 67.3984Z" fill="white"/>
<path d="M436.027 77.5508C437.284 78.1871 437.849 80.0252 438.368 81.3301L437.688 81.1429C436.469 80.019 436.305 79.1879 436.027 77.5508Z" fill="#E3E4E6"/>
<path d="M405.031 175.05C413.726 174.925 423.095 174.784 431.758 175.089C442.408 175.463 452.706 176.302 463.437 175.957C471.391 176.052 479.829 175.691 487.566 177.741C491.436 178.765 491.574 184.276 491.949 187.338C493.812 202.486 495.438 217.614 495.851 232.875C495.895 234.451 495.494 236.739 494.864 238.155C492.608 240.199 487.508 240.408 484.543 240.212C480.233 239.928 476.416 240.377 472.162 240.752C461.299 241.71 450.236 241.416 439.323 241.392C433.765 241.384 428.797 241.813 423.353 241.96C411.239 242.304 399.119 242.465 386.999 242.443C380.422 242.452 367.326 243.501 361.3 239.966C360.008 239.209 359.155 234.922 359.088 233.226C358.809 226.176 358.557 219.314 357.96 212.246C339.148 209.229 359.553 202.733 362.199 199.095C365.293 194.841 356.864 174.757 368.187 175.191C380.77 175.673 392.641 175.467 405.031 175.05Z" fill="black"/>
<path d="M366.183 179.223C373.215 179.063 382.604 180.14 390.494 180.132L446.433 180.104C456.072 180.126 478.54 179.441 486.725 182.007C486.969 183.493 487.185 184.973 487.344 186.47C489.019 202.544 491.079 219.063 491.038 235.239C486.629 235.094 482.225 234.843 477.828 234.485C470.249 234.087 468.207 235.615 461.492 236.012C454.229 236.442 446.041 235.987 438.649 236.235L408.131 237.239C397.836 237.638 373.525 239.008 364.267 236.429C362.759 227.858 364.581 217.446 361.461 210.104C360.775 208.484 358.323 208.041 356.685 207.722C357.599 207.341 358.505 206.945 359.404 206.532C368.228 202.416 367.616 198.996 366.412 190.099C366.257 188.959 365.969 187.856 366.356 186.804C366.901 186.257 367.045 186.133 367.472 185.502C367.367 184.635 366.681 184.164 366.022 183.507L366.183 179.223Z" fill="white"/>
<path d="M468.371 214.719C469.639 215.099 469.71 215.071 470.454 215.966C471.227 219.721 466.144 233.05 462.942 235.397C461.949 235.563 462.365 235.679 461.621 235.161C460.704 233.529 460.956 233.061 461.36 231.183C462.192 228.36 462.989 226.301 464.058 223.579C461.744 222.287 459.57 220.139 460.724 217.294C461.586 216.502 461.094 216.754 462.277 216.549C464.208 217.099 464.486 217.947 465.535 219.705C466.376 217.762 466.962 216.317 468.371 214.719Z" fill="black"/>
<path d="M426.245 214.493C429.406 214.352 432.186 215.875 433.127 219.133C434.108 222.539 428.278 223.07 427.18 224.668L427.364 225.069C429.104 225.46 430.048 225.24 430.739 226.961C423.553 233.991 417.183 219.624 426.245 214.493Z" fill="black"/>
<path d="M440.527 215.984C445.103 216.573 445.888 217.495 446.205 221.82C446.225 222.101 447.494 223.933 447.775 224.406L447.553 224.937C445.598 225.986 444.646 225.944 443.044 224.572L442.771 224.334C442.024 224.448 442.095 224.642 441.441 225.375C433.795 231.794 431.296 219.46 440.527 215.984Z" fill="black"/>
<path d="M396.356 187.312C399.992 188.084 399.025 191.272 398.759 194.124C407.887 194.09 405.283 206.298 400.569 200.866C400.156 199.958 399.804 198.85 399.468 197.897C398.539 199.622 397.177 203.02 394.798 201.832C392.624 198.853 394.361 190.237 396.356 187.312Z" fill="black"/>
<path d="M456.013 213.934C457.177 214.093 458.422 214.576 459.06 215.608C459.005 218.078 456.441 218.18 454.557 218.489C455.788 219.344 457.045 220.225 457.554 221.689C457.927 222.721 457.847 223.861 457.338 224.832C456.268 226.829 454.267 227.554 452.296 228.239C450.799 228.17 449.679 227.63 449.422 226.094C450.271 223.971 451.115 223.844 453.166 222.83C446.553 219.404 450.339 215.071 456.013 213.934Z" fill="black"/>
<path d="M390.79 217.954C398.205 217.888 399.567 225.046 393.529 229.469C386.509 231.926 386.759 225.102 389.401 220.982C390.201 219.731 390.116 219.204 390.79 217.954Z" fill="black"/>
<path d="M450.875 191.683C452.952 191.515 458.187 191.766 456.831 195.153C456.013 195.657 454.909 195.509 453.901 195.496L453.684 195.76C454.584 197.7 455.902 197.721 456.47 199.515C456.444 201.26 455.726 202.062 454.654 203.388C452.51 204.499 449.606 204.646 449.448 201.508C450.084 200.232 450.025 200.556 451.358 199.626C447.514 197.295 445.736 193.834 450.875 191.683Z" fill="black"/>
<path d="M388.721 192.625C390.347 192.682 392.712 193.102 392.527 195.14C391.78 195.902 391.396 195.949 390.418 196.243C389.457 198.471 391.358 206.415 388.382 208.19C387.192 208.105 387.617 208.199 386.545 207.315C385.502 204.023 386.123 200.411 386.682 197.094C384.916 197.412 382.979 197.912 382.1 195.912C382.572 192.874 386.419 192.738 388.721 192.625Z" fill="black"/>
<path d="M418.417 191.947C420.207 191.856 423.218 191.883 423.312 194.32C422.799 195.396 422.398 195.655 421.543 196.292C420.274 197.237 422.797 198.02 422.401 200.51C421.466 202.229 420.092 203.028 418.425 203.94C417.034 204.344 415.891 204.355 415.232 203.028C415.291 201.847 415.874 201.047 416.454 199.986C416.216 197.909 413.612 197.551 414.081 194.765C415.188 193.115 416.615 192.624 418.417 191.947Z" fill="black"/>
<path d="M404.515 215.01C407.65 214.864 407.861 216.29 408.028 219.018C409.944 219.584 411.971 220.526 413.826 221.327C412.593 221.964 409.956 223.026 408.485 223.505C408.429 223.851 408.374 224.197 408.318 224.543C408.142 225.859 407.996 226.594 407.307 227.753C406.528 228.15 406.59 228.134 405.717 228.105C403.625 226.716 404.794 224.876 403.836 223.51C401.58 224.077 400.285 223.995 399.778 221.296C400.455 219.223 401.633 219.774 403.408 218.797C403.883 218.535 404.176 216.129 404.515 215.01Z" fill="black"/>
<path d="M378.306 220.059C383.422 220.034 387.866 228.025 381.983 227.807C380.108 226.733 380.023 224.408 377.753 224.159L376.672 225.082C375.409 226.539 375.386 227.802 373.88 229.119C372.825 229.417 373.314 229.467 372.356 229.023C370.798 227.073 370.083 221.311 373.013 221.014C373.42 221.405 373.839 221.784 374.269 222.151C375.728 221.977 375.734 220.877 378.306 220.059Z" fill="black"/>
<path d="M438.658 193.836C442.965 194.748 443.199 200.616 441.292 203.552C437.442 203.23 436.519 196.113 438.658 193.836Z" fill="black"/>
<path d="M406.551 195.246C410.764 195.361 410.674 200.405 409.396 203.241C405.295 203.283 405.511 197.936 406.551 195.246Z" fill="black"/>
<path d="M372.488 188.668C373.092 188.92 373.13 188.984 373.68 189.349C374.964 191.673 372.365 194.639 370.783 196.122C370.37 196.173 370.519 196.128 370.015 195.862C369.321 193.583 370.824 190.257 372.488 188.668Z" fill="black"/>
<path d="M476.741 210.777C480.271 211.811 477.198 215.631 475.927 217.245C472.323 216.113 475.256 212.47 476.741 210.777Z" fill="black"/>
<path d="M377.472 187.852C378.216 187.928 378.163 187.917 378.79 188.329C380.132 190.627 378.148 193.562 376.578 195.229C375.825 195.356 376.083 195.365 375.368 195.202C374.996 193.799 376.871 189.993 377.472 187.852Z" fill="black"/>
<path d="M410.917 187.25C412.516 187.549 413.609 188.549 413.861 190.139C413.407 191.143 413.565 190.824 412.478 191.515C410.773 191.359 409.812 190.9 409.604 189.062C410.009 187.96 410.067 187.999 410.917 187.25Z" fill="black"/>
<path d="M438.441 188.934C440.574 188.941 442.692 189.685 441.638 192.29C440.038 192.458 439.215 192.763 438.107 191.502C437.867 190.33 438.037 190.121 438.441 188.934Z" fill="black"/>
<path d="M311.518 32.0834C319.689 31.8587 331.314 32.0093 339.298 33.5251C341.058 33.8597 343.566 34.4372 344.551 36.0784C345.96 38.4353 346.487 68.5906 346.3 73.1137C346.218 75.1343 346.03 76.9891 345.432 78.9294C339.681 83.2961 337.188 82.2037 330.488 82.6496L308.111 83.9401C302.562 84.2448 296.931 84.507 291.396 84.9435C269.276 86.689 247.193 86.8238 225.168 89.757C217.471 90.5518 203.747 92.5314 196.475 91.9991C195.252 90.2987 194.64 88.8209 194.255 86.7693C193.28 81.5823 191.409 46.119 194.23 43.0932C195.679 41.5393 199.117 40.8652 201.155 40.4577C213.281 38.0322 226.182 37.5825 238.507 36.5366C251.357 35.4461 264.189 34.615 277.057 33.792C288.525 33.0584 300.025 32.2791 311.518 32.0834Z" fill="black"/>
<path d="M301.176 37.6814C304.701 37.3345 310.144 37.3957 313.8 37.3826C322.502 37.3509 331.745 37.094 340.27 38.8527C339.588 45.0821 340.727 72.2183 342.09 77.7721C338.006 76.1379 328.033 77.7053 323.09 77.9789L284.623 80.2442C268.915 81.2693 249.848 81.6651 234.522 83.5796C222.468 85.2999 210.386 86.4003 198.23 88.3404C198.434 81.7512 197.855 73.5551 197.531 66.8412C197.168 59.8711 197.012 52.8914 197.062 45.912C202.237 44.3997 207.409 44.1387 212.755 43.6521C218.751 43.0864 224.752 42.5816 230.759 42.1374C234.277 41.8758 237.794 41.6007 241.309 41.296C261.234 39.569 281.227 39.0085 301.176 37.6814Z" fill="white"/>
<path d="M309.374 46.943C311.477 46.73 313.314 47.2237 315.362 47.4033C323.791 48.1427 326.445 56.3748 321.497 62.9561C324.16 64.7502 331.261 69.2116 330.881 72.8124C329.586 75.2098 327.148 74.3098 325.299 73.3392C323.313 71.778 319.777 68.7164 318.33 66.7339C299.615 74.4284 295.964 53.3365 309.374 46.943Z" fill="black"/>
<path d="M310.302 51.5508C312.878 52.9207 316.302 52.7622 318.412 55.1713C320.553 57.6161 316.314 61.2856 314.41 62.5459C311.436 63.8441 307.505 63.6958 307.05 59.7149C306.667 56.3355 308.386 54.058 310.302 51.5508Z" fill="white"/>
<path d="M208.546 56.6369C210.268 56.4802 215.967 56.5071 215.102 59.4266C213.461 60.9269 209.915 61.1885 207.214 62.1902C209.818 64.2395 213.709 65.6402 215.264 68.7421C217.295 72.7956 213.823 75.2958 210.612 76.8283C208.675 77.4172 205.218 78.4294 203.769 76.5568C203.608 73.3675 208.452 71.566 210.759 70.5339C208.088 68.7582 204.23 66.7388 203.173 63.5733C201.826 59.5376 205.126 57.5484 208.546 56.6369Z" fill="black"/>
<path d="M271.505 50.5742C274.75 50.9117 274.814 55.073 275.272 57.6866C279.904 53.6228 283.053 56.7975 285.079 61.6215C286.197 64.2816 288.47 70.6845 283.812 70.9121C280.609 68.8619 279.782 65.0609 278.489 61.4668C272.539 71.7406 269.623 60.176 270.009 54.5384C270.152 52.4571 269.976 52.0174 271.505 50.5742Z" fill="black"/>
<path d="M221.471 56.2425C225.853 55.6765 229.328 59.0049 227.793 63.4208C226.87 66.0763 225.131 66.7615 222.773 67.7887C224.134 68.476 226.696 69.64 227.801 70.6249C228.191 70.9733 228.022 71.1262 227.971 71.8284C218.747 77.653 211.275 61.5968 221.471 56.2425Z" fill="black"/>
<path d="M222.671 60.4531C223.603 60.8979 223.67 60.9931 223.971 61.8433C223.653 62.8859 222.997 63.2369 222.132 63.9371C222.006 63.9957 221.553 64.0672 221.394 64.0977L221.19 63.747C221.454 62.3993 221.994 61.6452 222.671 60.4531Z" fill="white"/>
<path d="M232.516 58.0156C238.064 58.0452 237.771 60.887 240.394 64.7117C241.196 65.8818 244.455 66.4177 244.748 68.578C243.011 71.0158 239.99 69.9562 237.787 69.0201C237.403 68.694 236.548 67.8934 236.246 68.1052C234.402 69.401 232.986 71.2921 230.608 71.3524C226.489 70.0036 228.157 63.7962 229.6 61.0209C230.525 59.2411 230.817 59.0855 232.516 58.0156Z" fill="black"/>
<path d="M233.639 62.25C234.241 62.5169 233.997 62.3109 234.284 62.9874C234.082 64.4001 233.525 65.2617 232.879 66.5364C232.58 66.4755 232.77 66.537 232.365 66.2247C232.461 64.7939 233.083 63.5936 233.639 62.25Z" fill="#E3E4E6"/>
<path d="M262.109 54.875C263.645 54.8923 266.278 55.4117 266.105 57.3863C264.68 58.9774 261.81 59.0214 261.173 60.8428C262.344 62.9753 266.57 62.4245 268.087 64.7905C267.764 65.8057 267.821 65.5013 266.631 66.2305C256.261 70.8233 251.804 57.7294 262.109 54.875Z" fill="black"/>
<path d="M245.451 56.6602C246.494 56.7299 246.431 56.6895 247.302 57.2534C248.039 58.2384 248.031 58.9632 248.252 60.2215C250.441 58.9796 252.088 58.1098 254.51 58.6526C255.407 59.3807 255.145 58.9251 255.321 60.0671C254.658 61.9611 253.344 62.676 251.735 63.8763C248.815 65.4 250.153 65.9938 248.102 68.0848C247.197 68.3968 247.262 68.3731 246.329 68.1273C243.578 66.114 243.489 59.3959 245.451 56.6602Z" fill="black"/>
<path d="M132.039 320.35C138.634 319.627 144.873 319.589 146.332 327.408C149.763 345.786 152.097 364.636 155.006 383.104C156.517 391.597 146.826 394.721 140.083 395.971C116.594 400.325 92.5701 402.692 68.9395 406.202C67.4252 406.428 61.1917 406.764 60.1979 406.152C58.1445 403.009 56.2106 379.782 56.1482 374.863C56.0656 368.365 53.45 341.553 56.3999 337.99C59.6436 337.117 58.9505 344.251 59.0219 346.392C59.1468 350.388 59.3334 354.385 59.5821 358.375C60.3151 370.797 61.4205 383.169 62.2051 395.62C64.3563 388.137 66.6134 383.421 69.7745 376.404C75.7282 364.064 79.7574 364.624 90.3429 371.989C92.0908 369.393 93.9848 366.9 96.0157 364.521C99.5621 360.352 108.798 349.595 114.324 349.448C120.058 349.296 127.297 355.568 132.06 358.562C136.706 361.486 142.771 364.258 146.848 367.861C145.378 361.454 142.08 327.83 139.217 325.495C134.808 324.382 111.053 327.44 105.307 328.442C94.2687 330.37 82.2365 333.311 70.9112 334.597C67.4047 334.996 58.2459 337.838 55.5429 335.623C55.2104 334.501 55.245 335.087 55.6903 333.806C59.256 331.132 80.2543 328.504 85.3912 327.179C100.861 323.189 116.163 321.771 132.039 320.35Z" fill="black"/>
<path d="M113.283 354.805C117.925 354.811 125.589 361.994 130.138 364.915C133.374 367.03 136.795 368.85 140.357 370.35C142.704 371.366 144.281 372.277 146.909 371.952C148.033 372.951 149.085 383.732 149.258 385.982C140.787 391.877 122.754 392.536 112.394 394.528C98.2094 397.253 83.5829 397.675 69.2831 400.297C67.2162 400.61 65.1031 400.991 63.0359 401.334C62.8299 400.555 62.3043 399.122 62.711 398.498C64.4489 399.482 66.0974 399.69 66.6716 397.364C65.2548 393.893 75.1689 375.178 78.5746 371.706C84.9365 374.038 91.9589 381.966 98.3785 385.435C106.616 389.885 106.536 381.471 103.425 380.39C102.666 380.882 102.654 380.976 101.784 381.128C100.211 380.164 95.4904 375.972 93.7071 374.521C99.4991 367.32 105.483 359.917 113.283 354.805Z" fill="white"/>
<path d="M123.591 233.946C127.182 233.903 135.817 233.093 138.739 234.754C140.281 235.63 141.105 238.642 141.545 240.298C142.991 245.746 143.712 251.501 144.773 257.045C145.806 262.438 147.415 268.268 147.766 273.737C147.855 275.129 147.943 277.953 147.027 279.049C144.547 282.011 116.493 290.065 110.939 291.33C105.562 292.555 100.03 293.276 94.6049 294.301C89.4633 295.312 84.0293 296.689 78.8505 296.147C78.4342 295.4 78.0624 294.629 77.7375 293.841C74.9297 287.076 73.7095 260.771 72.997 252.525C72.9185 251.615 74.3558 250.388 74.7926 249.321C74.1979 248.71 74.1138 248.741 73.9245 247.936C75.7951 243.358 90.8189 241.396 95.3306 240.094C104.633 237.41 113.859 234.329 123.591 233.946Z" fill="black"/>
<path d="M129.111 238.046C131.29 238.001 133.678 238.072 135.874 238.093C137.754 245.241 138.695 252.158 139.936 259.433C140.911 265.009 142.024 270.558 143.275 276.077C138.25 277.267 129.809 280.627 124.494 282.402C111.816 286.633 103.331 287.983 90.2027 289.697C86.8204 290.101 84.3899 290.333 81.1133 291.314C81.0082 287.553 80.1943 281.087 79.8 277.199C78.8721 267.95 77.8561 258.711 76.7522 249.481C84.6723 246.409 89.3437 246.489 96.7212 244.55C109.331 241.235 115.626 238.364 129.111 238.046Z" fill="white"/>
<path d="M110.93 248.555C124.843 249.144 115.834 267.491 110.152 266.058C107.807 264.227 109.653 261.248 110.685 259.046C110.224 257.606 110.019 256.401 109.74 254.928C108.198 255.57 107.526 255.938 106.111 256.76C103.584 258.84 102.898 259.77 101.348 262.56C101.717 263.439 101.785 263.682 102.015 264.57C101.714 265.185 101.865 265.165 101.141 265.399C93.6918 267.793 95.2994 259.017 98.2747 255.424C101.782 251.188 105.443 249.23 110.93 248.555Z" fill="black"/>
<path d="M111.445 270.455C111.784 270.431 112.124 270.417 112.464 270.408C117.477 270.317 119.049 274.383 114.925 277.849C108.37 279.088 107.504 273.293 111.445 270.455Z" fill="black"/>
<path d="M111.295 102.438C111.184 100.992 110.566 95.8307 111.607 95.0569C117.027 91.0272 125.535 90.9689 131.996 89.4337C133.919 88.977 137.488 88.4731 138.833 89.9042C140.368 92.0244 141.501 96.9021 141.845 99.4017C152.03 97.4508 163.307 92.3824 173.621 94.4496C176.147 96.0718 179.431 108.574 179.647 110.729C182.455 138.728 182.405 166.193 175.743 193.65C174.573 198.476 174.009 206.967 169.709 209.693L169.014 209.699C167.749 208.116 169.162 205.458 168.544 203.654C168.075 203.834 167.833 203.974 167.417 204.218C162.489 207.107 122.09 210.767 113.732 211.254C108.587 211.553 103.421 211.281 98.2792 211.618C94.4709 211.868 90.7209 212.683 86.9354 212.96C84.9819 213.103 82.4782 212.365 80.7263 213.308L80.1796 213.352C80.1746 212.281 80.1061 210.786 81.0474 210.078C83.8476 207.974 88.0927 208.629 91.3048 208.393C94.5356 208.094 97.7123 207.539 100.948 207.26C105.062 206.905 109.438 207.253 113.523 206.827C124.847 205.647 136.193 204.494 147.52 203.346C153.924 202.698 160.275 200.93 166.636 200.057C167.249 199.966 168.481 200.915 169.046 201.329C170.61 192.011 172.908 182.932 174.543 173.633C175.512 168.127 175.848 162.742 176.374 157.213C177.198 148.565 176.614 140.155 176.191 131.515C175.944 126.462 175.962 121.301 175.236 116.279C174.383 110.564 171.884 104.486 170.858 98.6821C161.653 99.4869 155.474 102.087 146.687 103.885C136.117 106.047 124.452 105.48 113.774 107.254C105.521 108.445 98.1588 111.341 89.8385 112.345C90.4104 114.775 91.3417 119.119 91.364 121.539C91.4724 133.362 91.5764 146.499 91.2198 158.197C90.9688 166.433 83.8159 209.623 77.4916 212.677L76.898 212.501C75.7669 210.086 78.6485 200.243 79.3001 197.35C83.0369 180.755 87.563 164.402 87.2879 147.23C87.2419 144.351 87.846 140.939 86.5092 138.366C85.9127 136.358 86.9117 132.64 86.9296 130.543C86.9768 125.034 85.1173 115.488 85.6071 110.715C85.8676 108.176 108.961 102.732 111.295 102.438Z" fill="black"/>
<path d="M134.69 93.8594C135.219 94.2713 136.246 98.7695 136.587 99.9238C129.918 100.931 122.74 100.579 116.303 101.768C115.485 101.966 115.888 102.009 115.075 101.756C114.617 100.822 114.808 99.3206 114.843 98.2202C121.22 96.0364 128.012 95.3898 134.69 93.8594Z" fill="white"/>
<path d="M317.055 352.004C317.633 352.244 318.104 352.473 318.667 352.742C320.073 354.494 317.999 366.62 317.653 369.837L314.937 396.198C314.565 399.647 314.524 403.66 314.234 407.261C313.531 415.584 312.734 423.898 311.846 432.204C317.934 432.081 345.38 427.068 347.635 432.395C346.657 435.928 340.95 434.958 338.047 434.981C329.143 435.055 320.594 436.027 311.644 436.077C311.425 438.172 311.34 440.311 311.149 442.414C308.814 468.025 306.467 493.965 301.976 519.298C302.255 519.228 302.533 519.16 302.814 519.096C306.98 518.152 324.834 516.893 325.458 522.893C326.184 529.854 317.041 529.883 312.38 530.319C313.956 532.188 314.715 534.611 314.486 537.046C314.258 539.442 313.396 540.679 311.606 542.123C310.223 542.653 309.224 543.037 307.736 542.8C305.715 542.463 303.919 541.323 302.753 539.639C298.493 533.407 304.959 530.434 305.193 529.35C304.329 529.101 303.708 528.975 302.838 528.808C302.093 528.075 301.748 525.386 301.522 524.193C299.061 532.927 298.566 554.976 295.329 560.375C294.239 560.434 295.423 560.302 294.063 559.572C292.604 560.768 292.675 563.727 290.854 564.626C288.469 561.887 292.98 548.094 293.628 544.232C298.329 516.228 302.381 488.442 305.149 460.165L311.372 390.477C311.908 384.708 314.304 355.145 317.055 352.004Z" fill="black"/>
<path d="M324.374 115.996C325.241 115.918 325.302 115.971 326.173 116.143C327.951 117.735 326.214 120.27 325.185 121.958C323.843 124.164 322.639 126.22 321.456 128.531C334.138 123.128 334.062 126.772 329.477 138.562C328.56 140.923 324.74 149.991 322.651 150.206C321.954 149.444 322.179 149.445 322.045 148.147C320.937 148.898 320.618 149.195 319.343 148.97C316.358 146.432 322.924 135.724 324.626 132.808C304.604 144.428 315.684 122.406 324.374 115.996Z" fill="black"/>
<path d="M209.806 157.801C210.113 157.866 210.389 157.908 210.678 158.052C211.386 158.406 211.915 159.037 212.141 159.795C212.863 162.255 209.786 167.391 208.572 169.725C209.103 169.436 209.64 169.159 210.184 168.896C216.97 165.57 220.123 168.086 217.321 175.383C215.765 179.067 213.819 182.779 211.824 186.246C210.593 188.386 208.774 192.664 206.451 193.436C205.203 193.116 205.732 193.421 204.835 192.438C205.843 187.082 209.399 178.85 212.014 174.145C190.338 189.406 203.73 162.677 209.806 157.801Z" fill="black"/>
<path d="M201.851 109.828C203.045 109.879 204.916 110.106 204.75 111.627C200.55 114.92 200.998 123.887 208.14 124.173C209.229 123.44 208.885 117.055 211.139 115.25C212.778 113.937 214.945 111.958 217.221 113.938C221.652 117.792 215.041 122.924 215.127 124.639L216.321 125.225C220.23 126.425 222.673 126.299 226.725 126.422C226.65 126.49 226.574 126.559 226.499 126.627L226.117 126.963C222.511 130.167 216.656 131.17 212.724 128.766C208.355 126.096 211.035 127.381 205.947 127.358C197.676 127.319 196.917 114.383 201.851 109.828Z" fill="black"/>
<path d="M214.524 117.008C214.946 117.207 214.729 117.061 215.128 117.509C215.002 118.564 214.21 119.588 213.625 120.521L213.438 120.571L213.132 120.292C213.312 119.04 213.92 118.137 214.524 117.008Z" fill="#E3E4E6"/>
<path d="M155.391 134.011C157.582 133.71 160.76 133.661 162.083 135.779C162.057 136.226 162.135 136.435 161.824 136.794C158.644 140.466 130.989 143.273 124.48 143.829C122.375 144.053 118.807 145.093 117.857 142.968C118.019 140.228 119.903 139.919 122.185 139.467C126.929 138.527 131.772 138.196 136.552 137.386C142.816 136.324 149.089 134.782 155.391 134.011Z" fill="black"/>
<path d="M157.079 186.458C158.8 186.376 159.859 186.659 160.874 188.076C160.884 188.584 160.971 188.714 160.671 189.155C157.532 193.779 130.755 198.489 124.783 199.593C122.761 200.069 121.27 200.758 120.294 198.389C120.402 196.883 121.333 195.965 122.738 195.522C126.962 194.191 131.328 193.24 135.619 192.097C142.608 190.237 149.874 187.247 157.079 186.458Z" fill="black"/>
<path d="M155.953 152.459C157.675 152.267 161.901 152.536 160.284 155.235C152.834 159.958 134.172 162.049 124.797 163.488C123.136 163.849 121.162 164.614 120.465 162.523C119.682 160.171 123.063 159.229 124.713 158.771C129.951 157.319 135.407 156.666 140.723 155.541C145.768 154.555 150.873 153.157 155.953 152.459Z" fill="black"/>
<path d="M152.548 173.584C154.48 173.482 158.858 173.744 158.019 176.699C157.105 177.763 155.602 178.516 154.248 178.767C145.49 180.389 136.114 179.907 127.443 182.104L126.952 182.231C124.907 182.865 122.39 183.675 121.368 181.052C122.276 175.666 147.493 173.92 152.548 173.584Z" fill="black"/>
<path d="M149.589 115.265C151.33 115.026 152.381 114.834 153.665 116.087C154.579 118.673 150.267 119.989 148.318 120.237C138.823 121.445 129.644 123.063 120.223 124.811C118.219 125.081 117.129 125.617 115.755 124.004C115.622 123.319 115.495 123 115.922 122.373C118.659 118.348 143.795 115.923 149.589 115.265Z" fill="black"/>
<path d="M370.188 369.969C379.176 370.599 387.057 394.103 382.628 401.258C379.009 399.397 375.822 380.149 372.107 376.259C371.577 375.705 369.394 372.638 369.063 371.768C368.911 371.369 370.021 370.183 370.188 369.969Z" fill="black"/>
<path d="M340.092 162.484C340.566 162.669 341.372 162.842 341.677 163.26C343.484 165.764 343.303 188.471 342.725 192.396C342.45 194.274 342.213 195.495 340.648 196.653C340.332 196.552 339.866 196.339 339.544 196.204C336.377 192.3 338.243 174.16 338.032 168.778C337.95 166.742 338.595 164.026 340.092 162.484Z" fill="black"/>
<path d="M382.47 407.742C383.199 407.877 383.375 408.023 384.046 408.357C385.616 410.285 389.023 425.109 388.338 428.347C387.889 430.465 388.326 430.506 386.574 431.927C383.984 431.25 383.193 427.072 382.953 424.717C382.499 420.281 378.936 411.161 382.47 407.742Z" fill="black"/>
<path d="M77.5843 341.852C84.0135 342.054 84.8833 349.724 78.7158 352.882C76.3653 353.228 73.9606 352.237 73.9172 349.513C73.8695 346.501 75.6226 343.976 77.5843 341.852Z" fill="black"/>
<path d="M330.435 166.805C335.085 167.548 332.58 181.662 332.996 185.303C333.06 185.876 331.883 186.284 331.434 186.508C331.212 186.405 330.743 186.098 330.517 185.958C328.95 182.609 328.302 170.042 330.435 166.805Z" fill="black"/>
<path d="M321.33 170.43C324.602 170.561 324.681 174.135 324.889 176.832C325.121 179.792 325.185 182.226 323.401 184.728C320.41 185.632 320.088 179.767 320.044 177.827C319.988 175.255 319.648 172.504 321.33 170.43Z" fill="black"/>
<path d="M285.097 165.023C287.601 165.201 290.438 166.352 291.205 168.975C290.422 171.829 285.889 169.126 283.908 168.939C282.264 169.876 280.256 171.437 278.395 170.427C277.421 167.389 282.926 165.58 285.097 165.023Z" fill="black"/>
<path d="M104.244 175.801C109.559 176.463 109.296 181.572 105.123 184.223C100.241 184.468 99.5501 177.997 104.244 175.801Z" fill="black"/>
<path d="M101.314 192.207C107.337 191.815 107.711 197.34 102.694 199.983C97.0208 199.873 97.9205 195.046 101.314 192.207Z" fill="black"/>
<path d="M103.683 120.398C109.134 121.294 108.51 126.128 104.595 128.977L103.499 129.118C99.8807 127.933 99.8485 122.062 103.683 120.398Z" fill="black"/>
<path d="M188.8 213.164C192.806 213.789 191.547 223.072 189.687 225.345C185.069 224.732 186.926 215.856 188.8 213.164Z" fill="black"/>
<path d="M106.574 155.617C111.802 156.487 110.757 161.886 106.373 163.678C102.052 162.907 101.948 157.323 106.574 155.617Z" fill="black"/>
<path d="M195.605 210.789C200.853 211.008 198.434 218.446 197.125 221.322C193.075 221.626 193.578 218.148 193.945 215.154C194.158 213.419 194.621 212.245 195.605 210.789Z" fill="black"/>
<path d="M104.556 138.875C110.381 138.357 109.971 143.116 106.481 146.126C101.064 146.764 101.33 141.835 104.556 138.875Z" fill="black"/>
<path d="M274.508 145.23C275.798 145.417 276.088 145.452 276.303 146.682C275.667 148.897 273.54 150.492 271.643 151.607C270.77 151.779 271.102 151.761 270.207 151.588L269.874 151.01C270.054 148.86 272.93 146.571 274.508 145.23Z" fill="black"/>
<path d="M286.627 142.508C288.327 143.08 290.545 144.115 291.675 145.527C291.91 146.688 291.981 146.133 291.347 147.235C289.233 147.352 286.874 146.809 285.91 144.734C285.868 143.617 286.057 143.455 286.627 142.508Z" fill="black"/>
<path d="M274.202 152.234C278.042 153.407 277.202 155.562 274.984 157.923C272.032 157.479 272.296 154.003 274.202 152.234Z" fill="black"/>
<path d="M282.282 156.923C286.426 156.872 286.568 158.667 284.803 161.84C284.489 162.041 284.142 162.145 283.783 162.286L283.239 162.043C282.614 160.649 282.423 158.471 282.282 156.923Z" fill="black"/>
<path d="M288.425 149.883C289.832 150.419 290.772 150.696 290.93 152.308C290.601 153.409 289.883 153.858 289.007 154.642C288.084 154.681 288.134 154.616 287.343 154.094C286.338 152.347 287.1 151.081 288.425 149.883Z" fill="black"/>
<path d="M538.045 318.883C539.284 318.95 539.436 318.845 539.911 319.899C539.802 321.227 539.064 322.146 538.355 323.318L537.579 323.336C536.422 322.073 537.248 320.143 538.045 318.883Z" fill="black"/>
<path d="M80.6426 218.769C80.7346 218.661 81.1251 218.466 81.2719 218.383C81.4793 219.685 82.2885 223.528 81.7705 224.599C81.0776 223.814 80.8485 220.156 80.6426 218.769Z" fill="#7C7F7F"/>
<path d="M80.1797 213.349L80.7264 213.305C80.9385 214.992 81.1204 216.684 81.2719 218.379C81.1251 218.462 80.7346 218.657 80.6426 218.765C80.5462 218.498 80.3089 214.301 80.1797 213.349Z" fill="#E3E4E6"/>
</svg>
