<svg width="392" height="591" viewBox="0 0 392 591" fill="none" xmlns="http://www.w3.org/2000/svg">
<path d="M143.648 87.2461C151.672 87.7935 147.319 94.1353 146.708 98.9248C145.908 105.206 146.738 111.268 147.354 117.506C147.605 120.051 147.232 122.931 147.578 125.512C148.715 132.562 151.247 138.999 154.707 145.22C156.469 148.664 157.77 152.429 159.817 155.718C168.293 169.317 181.448 177.717 196.465 182.641C201.786 184.385 209.354 182.733 214.121 185.886C215.666 186.908 215.376 191.525 215.413 193.393C207.365 198.403 200.408 199.549 193.678 206.881C186.076 215.163 178.568 223.782 172.41 233.211C170.791 235.689 169.207 240.194 167.894 243.044C155.972 269.363 149.949 297.969 150.244 326.858C150.254 329.989 150.281 332.878 150.545 336.107C150.961 341.443 153.67 347.385 151.864 352.646C151.199 354.582 147.96 357.093 146.019 355.866C143.617 354.351 142.358 349.518 141.426 346.906C137.345 333.6 137.109 317.538 133.806 304.047C130.793 291.742 129.506 277.685 124.24 266.17C114.905 245.761 92.6621 229.163 69.6889 238.853L69.4507 238.728C68.0834 237.992 66.2859 236.989 65.8335 235.489C66.5886 232.914 71.4027 233.304 71.7612 230.36C70.8145 228.951 68.6154 228.636 66.9594 228.228C67.4857 227.008 71.9301 225.841 73.1967 225.01C88.6697 214.81 104.785 203.418 116.115 188.573C122.443 180.282 125.838 170.896 126.69 160.674C126.948 157.577 128.319 153.337 128.822 150.029C130.327 140.119 130.703 130.229 132.074 120.328C132.232 119.23 132.529 118.04 132.009 117.025C131.141 115.33 132.333 113.505 132.393 111.768C132.429 109.752 132.165 107.529 132.249 105.487C132.227 102.128 133.896 88.6152 137.338 87.8242C139.704 89.155 140.171 87.7941 143.648 87.2461ZM142.718 140.326C141.187 143.22 140.431 150.143 139.583 153.877C135.88 171.044 132.993 187.318 119.647 199.985C117.35 202.166 113.039 206.675 110.684 208.837C108.224 211.095 89.8708 225.399 89.8432 226.248C93.9546 227.425 101.616 229.259 105.207 230.912C112.69 234.357 122.298 243.616 127.747 249.806C138.78 262.342 139.613 280.614 144.128 295.63L144.649 295.561C146.15 293.555 146.668 285.855 147.185 282.881C152.243 253.771 163.688 226.297 184.251 204.675C186.357 202.461 188.341 199.961 190.446 197.722C192.481 195.556 194.941 193.942 196.785 191.589C177.109 187.393 161.374 174.635 151.937 158.041C150.426 155.384 143.901 140.904 142.718 140.326Z" fill="#1C1C1C"/>
<path d="M243.8 297.496C248.848 297.006 250.001 302.68 250.997 306.125C254.959 319.823 257.526 334.304 260.468 348.179C263.304 355.269 265.704 362.486 270.474 368.592C273.676 372.69 276.97 374.514 280.116 379.004C281.986 381.67 285.317 383.459 287.915 386.287C292.447 391.225 302.403 393.422 300.709 401.738C299.464 404.405 288.894 407.841 285.413 408.967C272.733 413.065 265.104 422.446 260.057 434.491C251.282 455.877 245.138 478.251 241.76 501.12C240.773 507.682 241.164 513.757 241.099 520.359C241.046 525.836 242.161 530.615 239.038 535.616C237.901 536.845 236.703 537.662 235.366 538.646C234.905 538.456 234.45 538.248 234.003 538.025C232.547 537.301 230.981 536.594 230.437 535.001C231.022 531.714 228.434 528.765 228.897 525.883C229.848 519.964 228.831 514.989 228.758 509.18C228.6 496.696 228.965 482.706 226.417 470.465C224.67 462.07 219.239 451.901 215.475 444.13C212.367 438.165 210.14 434.162 206.141 429.189C199.874 421.393 190.455 424.451 186.777 420.135C186.266 418.692 185.64 411.425 185.83 410.929C186.409 409.411 193.365 406.046 194.809 404.655C201.486 398.235 207.653 392.368 213.655 385.289C217.357 380.923 219.53 379.191 222.852 374.378C231.481 361.871 235.787 352.409 236.327 337.06C236.391 335.242 236.87 332.506 237.331 330.645L236.872 329.773C236.955 325.572 236.877 321.02 236.899 316.848C236.925 311.893 236.842 306.358 237.936 301.582C238.368 299.701 241.964 298.37 243.8 297.496ZM248.626 345.643C248.052 357.347 239.473 373.27 232.674 382.799C229.445 387.324 224.243 392.575 220.463 396.82C217.904 399.697 215.206 403.291 212.429 405.845C209.801 408.263 207.028 410.012 204.483 412.71C214.012 417.67 217.368 421.096 222.883 430.278C226.129 435.683 228.878 440.739 231.144 446.698C232.426 449.771 234.369 452.657 235.513 455.791C236.56 458.703 236.981 465.06 238.571 467.4L239.115 467.651L239.66 467.279L239.772 466.944C240.961 463.34 241.217 459.213 242.446 455.58C244.696 448.926 246.597 441.622 248.945 435.037C250.774 429.909 254.125 424.882 255.961 419.645C256.546 418.202 258.231 416.372 259.043 415.001C262.535 409.189 267.398 404.829 273.345 401.585C276.429 399.9 280.933 398.745 284.41 396.887L284.185 396.59C282.426 394.322 280.926 393.99 278.95 392.068C271.699 385.01 264.628 378.563 259.603 369.603C258.727 368.038 257.006 366.648 256.028 365.115C254.697 362.919 253.759 358.9 252.661 356.796C251.551 354.666 249.838 346.683 248.626 345.643Z" fill="#1C1C1C"/>
<path d="M277.844 172.601C280.634 172.267 281.5 173.15 283.477 174.907C284.893 181.762 281.669 188.817 284.013 195.149C287.122 203.547 292.505 211.713 300.645 215.755C305.035 215.022 307.792 214.542 309.786 219.397C309.616 219.848 308.745 222.14 308.511 222.379C304.848 226.14 299.964 223.5 295.698 227.753C293.362 230.082 291.595 231.941 290.028 234.886C288.911 236.987 288.446 239.423 287.683 241.528C285.448 247.723 284.087 252.189 283.614 258.989C283.428 261.663 284.981 271.795 283.076 274.533C282.789 274.946 279.098 276.28 278.383 276.229C277.551 275.59 276.301 274.621 275.836 273.648C272.476 266.616 273.505 256.47 272.269 248.879C271.516 244.254 266.753 236.453 262.861 233.754C260.928 232.414 256.157 230.18 253.72 230.114C252.923 230.093 249.315 230.792 248.31 230.979C244.435 225.744 246.201 220.781 253.024 221.055C258.056 216.343 262.829 215.647 267.748 211.693C270.363 209.592 274.758 199.293 274.594 195.756C274.45 192.658 273.232 188.094 273.208 184.628C273.185 181.285 273.947 178.218 274.041 174.871C275.555 173.808 276.184 173.369 277.844 172.601ZM280.413 207.688C277.541 212.937 274.574 216.287 269.361 219.428C267.549 220.519 265.163 221.886 263.577 223.246C271.795 227.715 272.801 229.1 277.719 236.982L279.542 239.896C281.575 235.344 284.187 229.353 287.039 225.311C287.678 224.405 290.129 221.99 291.116 220.877C286.459 215.707 284.244 213.396 280.413 207.688Z" fill="#1C1C1C"/>
<path d="M98.1129 395.252C99.6581 395.503 101.105 395.665 102.152 396.986C104.734 400.244 103.829 409.747 103.306 413.712C105.523 410.191 107.678 406.645 110.46 403.537C112.541 401.211 116.556 399.508 118.322 403.15C118.276 403.82 106.13 420.245 104.961 421.706C108.784 421.172 111.865 419.87 115.533 418.785C118.149 418.009 124.159 417.285 124.926 420.999C124.355 425.235 110.585 428.181 106.786 428.487C109.567 431.171 112.875 433.474 115.25 436.498C117.896 439.868 115.792 441.008 115.387 443.614C112.009 446.549 105.713 438.743 103.758 436.55C104.186 440.997 105.619 447.063 101.787 450.367C99.8428 451.313 97.2538 453.013 96.4632 449.625C95.3553 444.878 95.7199 439.271 95.7733 434.357C93.796 437.199 86.9729 446.806 83.143 445.663C78.8212 441.346 91.2846 428.865 94.1325 425.988C91.4289 426.6 77.1455 428.467 75.7902 426.404C76.3468 422.542 85.9268 421.504 88.9612 421.449C86.6609 419.4 77.6027 411.911 78.348 409.028C80.8325 399.425 92.6875 413.871 95.1044 417.253C96.0602 410.434 94.7032 399.783 98.1129 395.252Z" fill="#1C1C1C"/>
<path d="M229.763 66.9453C232.321 66.9667 234.573 67.9299 235.681 70.4858C236.665 72.7575 236.233 73.8647 235.388 76.1099C237.321 74.7094 241.207 70.9297 242.779 70.1967C250.662 69.8544 240.66 80.2878 239.284 81.8153C243.835 82.8515 248.222 81.2877 252.51 82.9225C253.948 83.4708 255.534 85.6493 254.259 86.8907C250.322 90.7253 244.39 88.9823 239.371 90.1496C242.054 93.0393 250.16 99.2457 247.067 103.375C243.924 105.029 237.979 98.0311 235.834 95.8769C235.695 99.4036 235.852 106.469 234.234 109.388C233.784 110.201 232.547 110.367 231.643 110.563C226.77 109.131 229.097 104.095 228.607 100.161C228.426 98.7052 228.381 97.8666 228.012 96.392L227.4 97.1654C225.709 99.2942 223.141 102.888 220.392 102.78C213.702 102.516 217.24 97.8929 219.403 95.0952C221.189 92.7842 222.172 91.3642 224.095 89.3762C221.331 91.2133 219.06 92.3638 215.666 92.6255C213.226 92.8134 211.043 92.4429 211.268 89.4128C211.508 86.2007 213.154 84.8352 215.395 82.8336C217.802 82.7805 221.003 82.1119 223.352 81.5679C220.564 78.5552 217.422 75.2851 215.691 71.5634C217.158 70.5239 217.835 70.2105 219.484 69.4458C221.239 70.9675 226.5 76.8131 227.613 77.2841C229.334 76.5898 228.224 72.5745 228.585 70.637C228.901 68.9437 229.065 68.5492 229.763 66.9453Z" fill="#1C1C1C"/>
<path d="M306.138 458.215C308.317 459.259 312.385 458.247 317.11 460.007C318.697 463.441 319.896 465.807 320.591 469.57C319.312 472.522 318.914 476.306 317.543 479.137C315.583 483.188 310.907 484.755 306.914 486.068C305.835 485.737 305.728 485.756 304.608 486.051L304.407 486.105C301.806 485.211 298.18 482.963 296.272 480.975C288.015 472.384 300.044 463.755 306.138 458.215ZM311.42 466.746C309.648 471.81 306.794 465.151 302.954 469.142C299.75 472.472 299.624 474.238 302.969 477.357C303.901 477.958 304.79 478.567 305.803 479.02C312.015 477.816 311.236 475.017 313.702 470.238C313.023 468.894 312.566 467.724 311.42 466.746Z" fill="#1C1C1C"/>
<path d="M73.0671 107.452C87.199 105.792 87.6666 122.055 80.5359 130.05C77.614 133.325 76.8401 134.453 72.405 135.088C71.0876 134.751 70.3183 134.668 68.9636 134.631C64.7838 134.515 62.4184 130.528 61.4636 126.983C58.7356 116.854 63.1025 110.117 73.0671 107.452ZM76.4675 114.611C75.8785 114.292 75.7681 114.212 75.0407 114.279C72.2454 115.185 69.1657 116.119 67.7507 118.958C65.9503 122.571 67.613 127.53 71.5329 128.841C73.5284 128.385 74.2436 128.263 75.8825 126.886C79.1536 124.136 80.9781 117.059 76.4675 114.611Z" fill="#1C1C1C"/>
<path d="M320.842 290.773C324.125 291.437 330.155 290.86 332.129 293.708C336.179 299.543 331.685 306.33 327.41 309.816C326.148 310.613 325.328 310.584 323.954 310.619C318.017 310.769 314.792 306.368 314.841 300.741C314.89 295.437 317.306 294.28 320.842 290.773Z" fill="#1C1C1C"/>
<path d="M149.365 488.215C154.631 488.63 162.584 489.588 161.526 497.556C160.914 502.162 159.568 504.632 155.864 507.454C144.841 514.351 139.364 493.695 149.365 488.215Z" fill="#1C1C1C"/>
<path d="M58.9879 297.84C66.4688 297.046 71.5925 301.692 69.5231 309.262C68.4721 313.105 65.8903 314.975 62.6291 316.802C61.4813 317.35 60.0447 317.76 58.815 318.153C55.2642 317.316 54.8849 316.816 52.855 313.772C52.9564 309.894 51.722 306.408 53.9133 302.344C55.1635 300.027 56.5588 298.659 58.9879 297.84Z" fill="#1C1C1C"/>
</svg>
