<svg width="800" height="800" viewBox="0 0 800 800" fill="none" xmlns="http://www.w3.org/2000/svg">
<path d="M95.6 426.26L226.57 282.2L200.38 203.62C200.38 203.62 344.45 164.33 436.12 203.62C436.12 203.62 462.31 308.4 318.25 426.27C318.25 426.27 357.54 596.53 580.19 648.92L711.16 413.18C711.16 413.18 580.19 478.66 501.61 465.57C501.61 465.57 842.13 20.28 449.22 20.28C56.31 20.28 -9.18001 203.61 95.6 426.26Z" fill="#2A2321"/>
<path d="M265.859 373.87C265.859 373.87 305.149 570.32 514.699 714.39C514.699 714.39 423.019 858.46 318.249 753.68C213.479 648.9 161.079 570.33 147.989 531.04C134.889 491.75 265.859 373.87 265.859 373.87Z" fill="#2A2321"/>
<path d="M671.86 98.8401C671.86 98.8401 724.25 203.62 658.76 347.68H737.34C737.35 347.68 789.73 164.32 671.86 98.8401Z" fill="#2A2321"/>
</svg>
