<svg width="1153" height="1153" viewBox="0 0 1153 1153" fill="none" xmlns="http://www.w3.org/2000/svg">
<rect width="1153" height="1153" rx="140" fill="white"/>
<path d="M272.6 602.26L403.57 458.2L377.38 379.62C377.38 379.62 521.45 340.33 613.12 379.62C613.12 379.62 639.31 484.4 495.25 602.27C495.25 602.27 534.54 772.53 757.19 824.92L888.16 589.18C888.16 589.18 757.19 654.66 678.61 641.57C678.61 641.57 1019.13 196.28 626.22 196.28C233.31 196.28 167.82 379.61 272.6 602.26Z" fill="#2A2321"/>
<path d="M442.859 549.87C442.859 549.87 482.149 746.32 691.699 890.39C691.699 890.39 600.019 1034.46 495.249 929.68C390.479 824.9 338.079 746.33 324.989 707.04C311.889 667.75 442.859 549.87 442.859 549.87Z" fill="#2A2321"/>
<path d="M848.86 274.84C848.86 274.84 901.25 379.62 835.76 523.68H914.34C914.35 523.68 966.73 340.32 848.86 274.84Z" fill="#2A2321"/>
</svg>
