<svg width="222" height="29" viewBox="0 0 222 29" fill="none" xmlns="http://www.w3.org/2000/svg">
<path d="M186.637 3.13986C175.734 1.48411 164.398 1.57246 153.398 1.58446C113.415 1.62816 73.522 6.66576 33.9595 12.0072C29.7101 12.5809 1.5203 17.1504 0 16.2834L0.379099 15.6069C7.11775 13.8184 32.0432 10.6727 39.2925 9.68796C75.041 4.83191 171.205 -6.84879 202.426 5.45106C193.829 5.75671 185.021 5.19066 176.403 5.19916C167.303 5.20811 158.05 5.47821 148.963 5.83916C107.714 7.49411 66.6895 12.7445 26.3538 21.5305C24.3972 21.8508 23.8303 21.8643 22.121 23.0072L21.9752 23.2781C22.8639 23.2634 23.278 23.3511 24.0082 22.8473C27.7461 22.5151 37.1745 20.5488 41.1685 19.8414C52.135 17.8856 63.128 16.0849 74.145 14.44C110.24 8.86181 146.738 6.31496 183.258 6.82611C188.603 6.88701 214.373 6.76051 216.637 11.7125C215.372 12.5787 213.695 12.7592 212.176 12.7551C187.162 12.6881 162.103 12.3235 137.109 13.624C128.588 14.0674 118.236 14.2529 109.92 15.6569C104.734 15.5698 100.725 16.5671 96.067 16.6803C94.8995 16.7666 92.7915 16.723 92.0135 17.4092C94.074 17.9927 95.9825 17.6017 98.1185 17.355C101.278 16.8114 106.669 16.5677 110.088 16.2473C142.125 13.5623 175.902 14.0905 207.667 19.5639C210.954 20.1303 218.857 21.4067 221.325 22.9839L221.162 23.5475C218.002 24.7681 197.546 21.0126 192.016 20.4144C178.605 18.9938 165.137 18.1691 151.652 17.9428C122.748 17.2946 92.9235 19.8927 64.2105 23.0654C53.082 24.295 42.2055 26.2483 31.0502 27.322L30.2665 26.9413C34.177 23.3121 55.7835 20.4542 62.5545 18.966C70.66 18.2175 81.245 16.3419 89.635 15.2823C101.155 13.5259 117.575 12.5639 129.154 11.9693C156.23 10.6359 183.349 10.3954 210.445 11.2483C196.454 4.79731 105.875 11.2228 89.63 14.4787C85.614 14.7798 66.225 17.1722 62.615 18.1665C42.9275 21.1983 23.2844 24.5146 3.69255 28.1145C9.90385 24.2596 24.1281 20.563 31.6449 18.9339C69.784 10.668 109.625 6.14701 148.6 4.59726C160.569 4.12136 174.727 3.62621 186.632 4.22216C188.061 4.59451 188.243 4.59636 189.702 4.35311C188.94 3.44431 188.002 3.47976 186.637 3.13986Z" fill="black"/>
<path d="M89.6299 14.4799C105.875 11.224 196.454 4.79856 210.445 11.2496C183.349 10.3967 156.23 10.6372 129.153 11.9706C117.574 12.5651 101.155 13.5271 89.6349 15.2835L89.6299 14.4799Z" fill="black" fill-opacity="0.0156863"/>
<path d="M62.6152 18.1683C66.2252 17.174 85.6142 14.7816 89.6302 14.4805L89.6352 15.2841C81.2452 16.3437 70.6602 18.2193 62.5547 18.9678L62.6152 18.1683Z" fill="black" fill-opacity="0.141176"/>
<path d="M96.0664 16.6811C100.724 16.5679 104.733 15.5706 109.919 15.6577L110.087 16.2481C106.668 16.5685 101.277 16.8122 98.1179 17.3558L96.0664 16.6811Z" fill="black" fill-opacity="0.0941176"/>
<path d="M98.1187 17.3583C95.9827 17.605 94.0742 17.996 92.0137 17.4125C92.7917 16.7263 94.8997 16.7699 96.0672 16.6836L98.1187 17.3583Z" fill="black" fill-opacity="0.407843"/>
<path d="M24.0076 22.848C23.2774 23.3518 22.8633 23.2641 21.9746 23.2789L22.1204 23.0079C23.8297 21.865 24.3966 21.8515 26.3531 21.5312L24.0076 22.848Z" fill="black" fill-opacity="0.360784"/>
<path d="M186.636 3.14062C188.001 3.48052 188.94 3.44508 189.701 4.35388C188.243 4.59713 188.06 4.59528 186.631 4.22293L186.636 3.14062Z" fill="black" fill-opacity="0.160784"/>
</svg>
