<svg width="283" height="224" viewBox="0 0 283 224" fill="none" xmlns="http://www.w3.org/2000/svg">
<path d="M160.114 0.0399608C164.127 -0.221018 168.119 0.801296 171.511 2.96076L173.283 4.08889C173.32 4.11255 173.325 4.1646 173.294 4.19562C173.266 4.2239 173.267 4.27058 173.298 4.29682C176.304 6.89235 178.17 10.3846 179.253 12.6139C180.805 15.8074 182.139 19.4869 183.252 22.9361C185.127 28.747 186.848 35.521 187.787 38.985L188.146 40.2767L188.147 40.281L188.164 40.3426L188.52 41.6026C190.315 47.8737 192.298 53.7454 194.401 60.485C195.8 64.9705 197.071 69.4859 198.298 73.8316C199.537 78.22 200.733 82.4441 202.035 86.5948L202.494 88.0364C203.536 91.2782 204.723 94.7825 205.876 98.432C208.123 105.542 212.961 111.995 219.431 115.702L240.267 127.467L240.283 127.476L240.297 127.484L240.315 127.495C246.181 130.844 254.905 135.146 261.782 139.466C262.586 139.971 263.62 140.507 265.183 141.283C266.588 141.981 268.501 142.911 270.331 143.965C273.669 145.886 278.419 149.121 281.163 154.765L281.422 155.319L281.427 155.33L281.432 155.342L281.664 155.879L281.67 155.893L281.676 155.906C282.192 157.155 282.463 158.492 282.473 159.843L282.511 164.613C282.512 164.709 282.505 164.805 282.49 164.9L282.378 165.613C282.378 165.614 282.378 165.614 282.377 165.614C282.377 165.615 282.377 165.615 282.377 165.615C282.024 167.849 281.305 170.74 279.45 173.512C277.479 176.457 274.805 178.416 271.917 179.688C265.038 182.714 256.507 184.76 251.133 186.407L250.936 186.467L216.39 197.335C205.926 200.634 195.303 204.122 184.501 207.35L184.276 207.416C178.616 209.115 172.915 211.049 166.874 213.042C160.87 215.023 154.61 217.034 148.313 218.691L148.297 218.697L148.242 218.712C147.08 219.016 145.689 219.478 143.715 220.133C141.887 220.739 139.648 221.479 137.343 222.091C133.336 223.153 126.886 224.503 120.623 222.401L120.018 222.187C114.792 220.242 109.641 217.368 105.12 214.637C102.826 213.251 100.574 211.827 98.4903 210.51C96.3694 209.169 94.4395 207.95 92.6266 206.863C92.6259 206.862 92.6252 206.862 92.6247 206.861C92.6241 206.861 92.6235 206.86 92.6228 206.86L41.4576 176.153C41.1627 175.976 40.9263 175.716 40.7775 175.406L39.6392 173.025C38.8219 171.314 37.8261 169.099 37.3625 166.443C37.3342 166.28 37.2548 166.131 37.1334 166.019C34.0179 163.151 32.0379 159.723 30.7211 156.742L30.4486 156.109C28.7955 152.177 27.7651 147.829 27.0841 145.211C25.9272 141.735 24.9052 138.117 23.9606 134.731C22.9543 131.124 22.0384 127.797 21.0411 124.667C20.2581 122.21 19.4548 119.767 18.6333 117.269C17.8168 114.787 16.9817 112.249 16.1654 109.68L16.1646 109.676L16.126 109.553L16.1183 109.53L16.1123 109.507L16.0772 109.385C14.1352 102.588 11.9779 95.7171 9.79234 88.6976C7.65456 81.8315 5.49521 74.8377 3.59839 67.9377C2.93451 65.908 2.69049 65.3665 1.90718 63.0281C1.31034 61.2462 0.637622 59.0468 0.275977 56.6271C-0.547063 51.1201 0.41445 45.6491 3.9224 39.9435C4.73852 38.6153 5.83957 37.4851 7.14595 36.6346L9.22575 35.2805C10.4801 34.3801 11.6942 33.8302 12.3922 33.5357C13.3444 33.134 14.29 32.8185 14.9825 32.5961C15.3446 32.4799 15.7021 32.3688 16.0077 32.2741C16.3302 32.1741 16.5879 32.0943 16.8323 32.0162C17.0721 31.9397 17.2497 31.8802 17.3835 31.8329L17.5172 31.7841L17.5378 31.7755C18.342 31.4332 19.1862 31.1933 20.0503 31.0617L20.0647 31.0595C30.2519 29.5064 39.7083 26.7609 50.8982 24.2286L50.9016 24.2277L103.055 12.4409L103.058 12.4401L103.073 12.4366L103.093 12.4324L103.162 12.4169L103.17 12.4152C114.856 9.79227 126.791 7.30752 138.312 4.78775C141.082 4.18194 143.969 3.31664 148.013 2.26696C151.563 1.34541 155.929 0.312755 160.026 0.0459566C160.027 0.0458954 160.028 0.045232 160.03 0.0451001C160.032 0.0449131 160.035 0.0445656 160.039 0.0442435C160.046 0.0436135 160.058 0.0426247 160.072 0.0416739H160.078C160.08 0.0415966 160.082 0.0413475 160.09 0.0408174C160.095 0.0404603 160.104 0.0406223 160.114 0.0399608ZM17.8927 31.6719C17.8855 31.6732 17.8751 31.6745 17.8627 31.677C17.8502 31.6795 17.8342 31.683 17.8155 31.6873C17.8087 31.6889 17.8011 31.6905 17.7932 31.6925C17.8174 31.6866 17.8387 31.6823 17.8558 31.6788C17.8766 31.6745 17.8934 31.6717 17.9021 31.6702L17.9107 31.6685C17.9103 31.6685 17.9093 31.6683 17.9081 31.6685C17.9055 31.6689 17.8998 31.6706 17.8927 31.6719ZM160.033 0.0451319C160.033 0.0453136 160.033 0.0458196 160.033 0.045765C160.035 0.0455382 160.036 0.0452089 160.038 0.0451001C160.036 0.0452593 160.034 0.0449879 160.033 0.0450944C160.033 0.0450979 160.033 0.0451109 160.033 0.0451319Z" fill="white"/>
<path d="M105.416 22.7001C117.119 20.0727 128.847 17.6335 140.565 15.0708C146.59 13.753 154.727 10.9217 160.775 10.5447C162.562 10.4233 164.34 10.8768 165.85 11.8385C171.331 15.3217 175.986 36.122 178.019 43.1752C179.961 50.1214 182.201 56.7478 184.345 63.6194C187.043 72.2683 189.275 81.1133 191.99 89.7619C194.572 97.9587 197.584 106.081 199.344 114.518C199.62 115.842 199.472 116.821 198.767 117.971C206.407 119.112 207.702 121.126 214.24 124.862L235.09 136.634C242.05 140.608 249.355 144.093 256.176 148.378C261.417 151.67 269.405 153.794 271.941 159.927L271.973 163.975C271.506 166.928 270.466 168.827 267.672 170.057C261.538 172.755 254.456 174.381 248.045 176.346L213.22 187.299C202.593 190.649 192.188 194.068 181.483 197.267C169.642 200.808 157.531 205.39 145.567 208.533C139.323 210.171 129.963 214.661 123.698 212.327C115.136 209.139 105.801 202.49 98.0471 197.839L49.1449 168.491C47.6486 165.359 47.3236 163.974 47.8509 160.598C47.3208 160.348 46.8017 160.075 46.2949 159.78C40.4565 156.392 38.8049 148.354 37.1983 142.252C34.9744 135.651 33.2165 128.188 31.078 121.476C29.4768 116.451 27.8005 111.518 26.2051 106.497C22.2375 92.61 17.4006 78.4643 13.6753 64.8638C11.2365 57.3596 8.42218 52.7324 12.897 45.4544L15.2312 43.9347C16.4536 42.9236 19.7955 42.2577 21.6542 41.4656C32.3172 39.84 42.8176 36.8507 53.225 34.4954L105.416 22.7001Z" fill="#95B2B8"/>
<path d="M15.2312 43.9355C15.4287 44.5806 13.6774 49.5763 14.4783 52.2568C16.0918 57.658 18.0133 62.942 19.7242 68.2941L30.5497 103.246C35.3732 118.863 39.8342 135.328 45.0298 150.891C45.8136 153.239 48.9505 155.176 50.9902 156.513C49.6259 157.686 49.4154 158.081 48.4341 159.6C63.0928 169.096 77.4577 177.648 92.1679 186.83L109.234 197.265C112.981 199.554 116.675 202.464 120.881 203.831C131.454 207.269 142.587 201.847 152.54 198.79L190.334 187.274L233.773 173.875C242.141 171.326 250.576 168.905 258.787 165.881C263.089 164.297 268.788 163.497 271.941 159.928L271.973 163.976C271.506 166.929 270.466 168.828 267.672 170.058C261.538 172.756 254.456 174.382 248.045 176.347L213.22 187.3C202.593 190.65 192.188 194.069 181.483 197.268C169.642 200.808 157.531 205.391 145.567 208.534C139.323 210.172 129.963 214.662 123.698 212.328C115.136 209.14 105.801 202.491 98.0471 197.84L49.1449 168.492C47.6486 165.36 47.3236 163.975 47.8509 160.599C47.3208 160.348 46.8017 160.076 46.2949 159.781C40.4565 156.393 38.8049 148.355 37.1983 142.253C34.9744 135.652 33.2165 128.189 31.078 121.477C29.4768 116.452 27.8005 111.519 26.2051 106.498C22.2375 92.6109 17.4006 78.4651 13.6753 64.8647C11.2365 57.3605 8.42218 52.7332 12.897 45.4552L15.2312 43.9355Z" fill="#6A8E96"/>
<path d="M159.198 20.4612C160.298 20.3553 162.246 20.2377 162.904 21.2275C166.054 25.9669 167.305 34.3186 168.97 39.7202L184.241 90.5571C185.211 93.8001 189.418 106.269 188.554 109.524C188.11 110.549 186.381 111.33 185.424 111.585C167.582 116.344 149.595 120.882 131.728 125.561C105.873 132.386 79.9224 138.845 53.8841 144.935C51.483 144.082 50.5878 142.545 49.8341 140.212C46.7925 130.797 44.3091 121.087 41.3738 111.648L30.884 77.4046C28.8343 70.8197 26.4219 64.3797 24.7151 57.6617C23.9567 54.6772 23.1804 51.3917 27.3158 50.32C43.5308 46.1184 59.9107 42.8144 76.2677 39.2331L159.198 20.4612Z" fill="#396371"/>
<path d="M201.911 162.36C202.751 162.229 203.6 162.168 204.45 162.177C207.957 162.226 219.041 167.927 218.947 171.103C216.316 172.858 205.624 175.117 202.151 176.259C193.305 179.167 184.579 181.477 175.531 183.663C167.897 184.692 165.472 181.092 159.134 177.203C158.281 176.68 158.042 176.121 157.921 175.208C160.707 173.4 174.084 170.382 178.115 169.113C185.825 166.685 194.085 164.399 201.911 162.36Z" fill="#6A8E96"/>
<path d="M188.56 150.69C191.791 150.376 198.938 153.816 199.586 156.594C198.011 158.367 163.254 166.599 158.462 168.832C156.752 169.628 143.736 172.907 140.578 173.876C136.249 174.586 133.717 172.005 130.554 169.376C129.903 168.835 129.943 168.178 130.024 167.458C130.894 166.772 133.098 165.937 134.164 165.67C152.419 161.093 170.434 155.699 188.56 150.69Z" fill="#6A8E96"/>
<path d="M88.8666 153.791C92.2463 153.167 100.582 157.658 99.1798 160.631C96.9131 162.355 85.2476 164.818 82.0408 165.29C81.3173 165.383 80.5846 165.375 79.8632 165.268C77.8478 164.976 70.9198 161.743 71.4306 159.21C73.9322 157.272 85.32 154.606 88.8666 153.791Z" fill="#6A8E96"/>
<path d="M209.522 133.212C214.067 132.912 219.452 135.977 222.674 139.026C218.415 140.615 209.623 142.689 205.003 143.71C201.577 144.203 194.432 142.427 193.114 139.309L193.479 138.462C195.755 136.505 206.021 134.158 209.522 133.212Z" fill="#6A8E96"/>
<path d="M96.8103 163.429C101.101 163.112 106.189 167.77 109.219 170.565C105.338 172.251 100.593 173.251 96.4524 174.117C93.0837 174.296 86.2253 172.284 84.8809 168.95C85.055 165.118 93.6703 163.945 96.8103 163.429Z" fill="#6A8E96"/>
<path d="M132.739 153.804C136.488 153.384 142.117 158.053 144.488 160.774C141.447 162.145 135.78 163.215 132.311 163.966C127.615 164.653 123.584 161.59 120.3 158.588C123.745 155.146 127.984 154.817 132.739 153.804Z" fill="#6A8E96"/>
<path d="M150.528 148.986C154.863 148.896 158.354 152.402 161.814 155.079C157.648 157.468 154.915 158.141 150.353 159.12C145.582 159.654 142.053 156.058 138.863 153.015C142.565 150.63 146.295 150.041 150.528 148.986Z" fill="#6A8E96"/>
<path d="M178.204 130.522C182.793 130.053 187.074 133.859 190.266 136.713C186.756 138.048 182.031 139.14 178.314 140.101C175.504 140.527 169.368 138.021 167.706 135.709C166.963 131.816 175.235 131.102 178.204 130.522Z" fill="#6A8E96"/>
<path d="M107.407 149.018C110.5 148.584 115.008 153.035 117.983 155.164C113.515 157.589 110.814 158.182 105.917 159.126C105.102 159.214 103.777 159.407 103.061 159.038C100.25 157.59 97.4919 155.063 95.1953 152.922C98.8884 150.755 103.247 149.864 107.407 149.018Z" fill="#6A8E96"/>
<path d="M168.553 144.215C170.797 144.103 171.026 144.285 172.948 145.225C185.019 151.127 174.18 153.083 167.278 154.077C164.91 153.728 159.304 151.714 157.653 149.84C157.221 149.349 157.449 148.812 157.564 148.254C159.289 146.236 165.962 144.69 168.553 144.215Z" fill="#6A8E96"/>
<path d="M186.018 139.433C188.353 139.112 197.803 143.52 197.129 146.05C195.209 147.748 190.17 148.47 187.518 149.033C184.28 150.119 177.817 147.734 176.65 144.449C176.99 140.542 182.836 140.101 186.018 139.433Z" fill="#6A8E96"/>
<path d="M223.506 140.764C226.557 140.502 235.26 142.659 234.132 146.366C232.621 147.881 225.634 149.407 223.175 150.057C220.578 151.018 214.637 148.053 213.005 146.112C212.681 144.932 212.642 145.42 213.172 144.284C215.347 142.356 220.486 141.484 223.506 140.764Z" fill="#6A8E96"/>
<path d="M143.407 139.769C145.867 139.555 153.55 143.125 153.325 145.812C151.712 147.374 144.666 148.696 142.001 149.394C137.272 149.281 133.991 146.508 130.906 143.222C135.151 141.385 138.889 140.691 143.407 139.769Z" fill="#6A8E96"/>
<path d="M196.893 125.358C199.375 125.149 206.449 128.276 207.54 130.48L207.343 131.058C205.103 132.213 198.758 134.089 196.141 134.842C193.489 134.992 184.875 131.767 185.179 129.045C186.987 127.352 194.195 125.952 196.893 125.358Z" fill="#6A8E96"/>
<path d="M114.486 159.302C118.933 158.882 122.778 162.13 125.681 165.188C123.095 166.631 117.477 168.688 114.556 169.078C113.902 169.124 112.541 169.216 112.027 168.863C110.061 167.512 104.511 164.903 103.867 162.82C105.358 161.113 112.042 159.796 114.486 159.302Z" fill="#6A8E96"/>
<path d="M124.146 144.552C124.748 144.486 125.353 144.444 125.958 144.429C128.372 144.362 135.381 148.185 135.399 150.49C133.693 152.05 127.723 153.079 125.142 153.664L121.74 154.163C119.591 152.942 114.605 150.797 114.566 148.171C115.917 146.305 121.74 145.117 124.146 144.552Z" fill="#6A8E96"/>
<path d="M161.691 135.005C164.872 134.602 169.679 138.941 171.86 141.105C168.482 142.677 162.758 143.911 159.062 144.463C155.876 144.539 151.462 140.768 149.01 138.821C152.772 136.776 157.47 135.686 161.691 135.005Z" fill="#6A8E96"/>
<path d="M206.617 145.58C208.853 145.265 215.136 149.939 217.762 151.477C214.199 152.724 209.696 153.901 206.032 154.81C202.105 154.956 197.755 151.852 195.256 149.062C199.444 147.283 202.164 146.544 206.617 145.58Z" fill="#6A8E96"/>
<path d="M108.28 173.08C110.562 173.28 116.903 177.075 117.634 179.305L117.336 179.844C115.104 180.964 110.57 181.969 108.077 182.322C107.403 182.301 106.733 182.217 106.075 182.07C103.589 181.521 97.5016 179.061 98.6602 175.796C100.774 173.677 105.378 173.347 108.28 173.08Z" fill="#6A8E96"/>
<path d="M121.644 169.199C126.012 168.439 130.667 172.101 133.55 174.988C130.875 176.249 127.73 176.939 124.853 177.66C124.478 177.735 122.958 178.026 122.634 177.991C119.596 177.659 114.476 174.102 112.369 172.116C115.079 170.866 118.706 169.998 121.644 169.199Z" fill="#6A8E96"/>
</svg>
