<svg width="32" height="32" viewBox="0 0 32 32" fill="none" xmlns="http://www.w3.org/2000/svg">
<path d="M19.861 6.92773C20.2611 7.41501 21.0373 8.13012 21.5125 8.60367L23.8702 10.9532C24.1784 11.2619 24.7046 11.8286 25.0158 12.0907C24.2157 12.9606 23.1934 13.9252 22.3483 14.7746L16.4917 20.632L11.6084 25.5183C10.7475 26.3775 9.88659 27.2593 9.00306 28.0952C8.79751 28.2897 8.6588 28.3659 8.39452 28.4625C8.08651 28.3054 7.75646 28.2978 7.43032 28.0062C7.06876 27.683 7.0308 27.1653 6.99205 26.7148C5.692 26.633 5.36605 26.2593 5.27928 24.9853C5.03923 24.9864 4.79982 24.9606 4.56554 24.9081C3.81833 24.7353 3.78428 24.082 3.50363 23.6313L3.48047 23.5947C3.60037 23.3113 3.68543 23.0692 3.89411 22.8382C4.64342 22.0084 5.48083 21.2696 6.27279 20.4747L11.9679 14.7771C13.9193 12.8248 15.8546 10.8457 17.8215 8.91329C18.446 8.29966 19.2118 7.48517 19.861 6.92773Z" fill="#FFC001"/>
<path d="M19.861 6.92773C20.2611 7.41501 21.0373 8.13012 21.5125 8.60367C21.122 9.27294 19.1587 11.1012 18.4939 11.7712L9.00692 21.2635L6.44258 23.8255C6.24567 24.0204 5.38662 24.84 5.27928 24.9853C5.03923 24.9864 4.79982 24.9606 4.56554 24.9081C3.81833 24.7353 3.78428 24.082 3.50363 23.6313L3.48047 23.5947C3.60037 23.3113 3.68543 23.0692 3.89411 22.8382C4.64342 22.0084 5.48083 21.2696 6.27279 20.4747L11.9679 14.7771C13.9193 12.8248 15.8546 10.8457 17.8215 8.91329C18.446 8.29966 19.2118 7.48517 19.861 6.92773Z" fill="#FED600"/>
<path d="M23.0617 3.81597C23.5434 3.2702 24.0928 2.75987 24.5911 2.24264C25.6056 1.18977 26.3513 0.374056 27.6641 1.6553C28.5043 2.47531 29.3325 3.31892 30.1761 4.15178C31.0944 5.05842 31.3569 5.74152 30.3543 6.76879C29.6449 7.47193 28.9267 8.24 28.1804 8.90615C27.8211 9.28266 27.4862 9.64188 27.0949 9.98722C26.7782 10.3153 26.4275 10.696 26.1025 11.0075C25.7607 11.3461 25.3571 11.7724 25.0142 12.0917C24.7029 11.8297 24.1768 11.2629 23.8686 10.9542L21.5109 8.60469C21.0356 8.13114 20.2595 7.41603 19.8594 6.92876C20.155 6.73371 20.6646 6.16557 20.9251 5.88697C21.1241 5.63462 21.7374 4.99304 21.9765 4.7997C22.3112 4.55922 22.7123 4.11137 23.0617 3.81597Z" fill="#F66363"/>
<path d="M23.0617 3.81445C23.6861 4.37404 24.3018 5.02021 24.8977 5.61761L28.1804 8.90464C27.8211 9.28115 27.4862 9.64037 27.0949 9.98571C26.7782 10.3137 26.4275 10.6945 26.1025 11.006C25.7607 11.3445 25.3571 11.7709 25.0142 12.0902C24.7029 11.8281 24.1768 11.2614 23.8686 10.9527L21.5109 8.60318C21.0356 8.12963 20.2595 7.41452 19.8594 6.92725C20.155 6.7322 20.6646 6.16406 20.9251 5.88546C21.1241 5.6331 21.7374 4.99153 21.9765 4.79819C22.3112 4.5577 22.7123 4.10986 23.0617 3.81445Z" fill="#D0C6B3"/>
<path d="M20.9251 5.88672C21.368 6.16307 23.3101 8.17144 23.7678 8.63566C24.2373 9.11174 25.7091 10.5183 26.1025 11.0072C25.7607 11.3458 25.3571 11.7721 25.0142 12.0915C24.7029 11.8294 24.1768 11.2627 23.8686 10.954L21.5109 8.60443C21.0356 8.13089 20.2595 7.41578 19.8594 6.9285C20.155 6.73346 20.6646 6.16532 20.9251 5.88672Z" fill="#D0C6B3"/>
<path d="M21.9752 4.79883C22.173 5.15282 24.1736 7.11301 24.5818 7.49973C25.2254 8.10931 26.4484 9.45123 27.0937 9.98634C26.777 10.3144 26.4262 10.6951 26.1013 11.0066C25.7078 10.5176 24.236 9.11112 23.7666 8.63504C23.3088 8.17082 21.3667 6.16245 20.9238 5.8861C21.1228 5.63374 21.7361 4.99217 21.9752 4.79883Z" fill="#FED600"/>
<path d="M3.4768 23.5938L3.49996 23.6303C3.78061 24.081 3.81467 24.7343 4.56188 24.9072C4.79616 24.9596 5.03557 24.9855 5.27562 24.9843C5.36239 26.2583 5.68833 26.6321 6.98839 26.7139C7.02713 27.1643 7.0651 27.682 7.42666 28.0053C7.7528 28.2968 8.08284 28.3045 8.39085 28.4615C7.70335 28.7798 6.5442 29.1117 5.79138 29.3573C5.15449 29.565 4.44383 29.8382 3.82654 30.0279C2.96402 30.3672 1.97555 30.6018 0.974609 30.9991C1.40658 30.0531 1.60304 29.1106 1.94169 28.1503C2.09721 27.5994 2.40541 26.7767 2.59206 26.2005C2.80181 25.553 3.20036 24.1502 3.4768 23.5938Z" fill="#FEEFBB"/>
<path d="M0.974609 31.0012C1.40658 30.0552 1.60304 29.1126 1.94169 28.1523C2.49541 28.6591 3.30575 29.476 3.82654 30.03C2.96402 30.3693 1.97555 30.6038 0.974609 31.0012Z" fill="#1B1B1B"/>
</svg>
