<svg width="400" height="400" viewBox="0 0 400 400" fill="none" xmlns="http://www.w3.org/2000/svg">
<path d="M162.134 55.5781C162.51 55.6404 162.883 55.7214 163.252 55.8206C170.613 57.7419 174.157 71.9159 177.02 78.1716C183.542 92.4234 188.779 107.116 194.084 121.841C197.451 131.187 202.039 139.921 205.836 149.071C206.637 151.001 207.312 153.042 208.375 154.845C211.746 156.105 215.394 156.833 218.864 157.81C241.803 164.274 265.79 166.03 289.033 171.162C293.093 172.059 297.598 170.972 301.578 171.889C305.13 172.708 308.098 176.674 309.528 179.842C310.093 181.082 311.125 182.13 310.82 183.583C309.038 185.538 298.098 187.201 294.97 187.846C284.038 190.069 273.178 192.626 262.403 195.515C254.945 197.533 245.281 200.61 237.924 202.079C235.352 202.594 232.748 202.938 230.131 203.108C227.018 203.298 222.816 203.207 219.992 204.041L219.635 204.148C217.976 206.879 216.611 211.826 215.716 214.956C210.875 231.879 208.513 249.382 204.981 266.532C200.885 286.424 196.36 304.772 193.812 325.002C192.99 330.944 192.932 336.897 192.336 342.842C192.262 343.579 192.127 343.784 191.573 344.154C190.891 344.164 190.136 343.977 189.559 343.617C181.171 338.392 179.356 325.269 177.884 316.434C175.307 300.969 174.645 285.482 173.154 269.964C171.202 249.645 167.395 229.581 165.141 209.311C164.907 207.207 164.824 201.748 162.272 201.496C156.183 200.897 149.577 201.479 143.426 201.706L105.955 202.714C100.394 202.943 94.831 203.122 89.267 203.249C85.7765 203.345 82.156 203.589 78.677 203.287C77.327 203.17 75.9983 202.715 74.776 202.147C71.5 200.624 68.0288 197.289 66.8458 193.818C66.4828 192.753 66.4133 191.638 66.9398 190.614C70.4493 183.79 113.771 174.965 123.361 172.227C131.163 169.999 138.646 167.019 146.356 164.542C149.514 163.527 152.775 162.982 155.944 162.008C156.864 159.428 157.641 150.624 157.964 147.534C159.37 134.238 160.396 120.904 161.041 107.549C161.571 96.7271 161.948 87.4906 161.02 76.6284C160.66 72.4139 161.002 59.3641 162.134 55.5781ZM108.776 189.745C115.914 190.676 124.836 189.639 132.017 189.429C137.466 189.27 143.087 188.929 148.489 188.786C156.597 188.571 164.82 186.452 170.414 194.067C171.803 195.959 172.635 197.936 173.111 200.279C174.36 207.848 174.915 215.606 175.998 223.205C178.444 240.363 181.253 257.604 182.984 274.852C183.439 279.472 183.836 284.097 184.173 288.727C184.419 292.507 184.599 297.982 185.38 301.529C186.634 297.979 187.486 291.819 188.178 287.944C190.33 276.289 192.953 264.727 195.229 253.097C197.025 243.916 204.918 194.827 209.717 191.592C212.962 189.404 221.86 190.591 226.061 189.832C233.691 188.452 241.19 185.723 248.614 183.505C252.475 182.351 256.548 181.547 260.325 180.172C261.245 179.837 262.533 179.452 263.113 178.635C262.505 177.925 254.52 176.945 252.888 176.728C242.477 175.345 232.509 172.398 222.424 169.599C216.229 167.88 209.073 167.216 204.656 162.069C201.191 158.032 200.254 153.103 198.268 148.337C193.769 138.246 189.181 128.272 185.017 118.024C182.807 112.586 180.914 106.892 178.871 101.446C177.911 98.8861 172.766 83.6414 171.163 82.8071L171.127 83.0766C170.831 85.4259 170.961 89.6111 170.996 92.0929C171.103 96.7614 171.13 101.431 171.077 106.101C170.794 125.715 169.978 145.896 167.069 165.279C165.466 175.965 166.426 172.899 156.692 175.841C147.233 178.701 137.75 182.619 128.099 185.04C122.049 186.67 114.466 187.682 108.776 189.745Z" fill="black"/>
<path d="M230.858 71.8945C238.675 72.4085 238.885 85.168 239.139 90.9663C245.493 91.338 261.468 87.7438 266.075 91.2703C267.77 92.567 269.948 95.3385 270.158 97.52C270.248 98.4443 269.87 99.0755 269.045 99.476C265.418 101.235 242.291 100.991 240.595 103.105C239.342 104.667 240.744 116.416 240.941 118.936C240.996 121.193 241.918 128.676 240.658 130.048C239.093 130.312 237.46 128.569 236.39 127.572C232.671 124.004 232.784 120.87 232.589 116.249C232.505 114.258 232.271 105.959 231.637 104.592C230.115 103.242 222.558 106.416 220.229 106.324C218.927 106.273 218.653 106.165 217.415 105.834C217.238 105.661 217.064 105.486 216.892 105.308C206.799 94.83 225.184 95.786 230.449 92.5168C230.904 92.234 231.19 91.0805 231.178 90.5798C231.028 84.361 231.019 78.115 230.858 71.8945Z" fill="black"/>
</svg>
