<svg width="331" height="200" viewBox="0 0 331 200" fill="none" xmlns="http://www.w3.org/2000/svg">
<path d="M247.461 86.7872C249.958 86.7447 252.664 86.9332 254.639 87.3214C262.16 88.8002 270.466 91.9198 276.752 93.7867C284.959 96.1578 293.137 98.6215 301.288 101.176C304.826 102.268 309.062 103.492 312.993 104.951L313.775 105.246L313.798 105.255L313.821 105.264C317.257 106.61 319.565 108.654 321.467 110.843L321.684 111.103C322.739 112.417 323.318 113.899 323.626 114.801C324.019 115.955 324.312 117.213 324.486 118.434C324.655 119.619 324.754 121.054 324.595 122.498C324.481 123.532 324.067 126.431 321.594 128.521L321.594 128.522C321.438 128.653 321.449 128.897 321.611 129.02C322.521 129.707 323.121 130.436 323.4 130.784C323.961 131.485 324.433 132.227 324.802 132.874C325.022 133.26 325.281 133.745 325.535 134.29C325.984 135.251 326.636 136.114 327.49 136.743C329.251 138.041 330.29 140.098 330.29 142.285V145.453C330.29 147.394 329.47 149.246 328.032 150.551C323.728 154.457 317.127 158.138 313.416 160.545C304.673 166.257 295.899 171.922 287.096 177.54C287.096 177.54 287.096 177.541 287.096 177.541C287.096 177.541 287.096 177.541 287.096 177.541L267.751 189.982L267.741 189.989L267.731 189.995C264.696 191.932 260.57 194.924 256.224 196.966C256.224 196.966 256.223 196.966 256.222 196.966C256.222 196.967 256.221 196.967 256.22 196.967C254.037 197.992 251.305 198.791 248.767 199.302C246.272 199.803 243.307 200.159 240.701 199.926C236 199.505 231.202 198.109 226.928 196.624C222.802 195.191 218.248 193.326 215.042 192.134L215.031 192.13L215.021 192.126L188.309 182.093L188.3 182.09L188.292 182.087C182.407 179.858 175.145 177.512 168.726 174.783L168.725 174.782C166.512 173.841 162.981 172.126 160.427 169.347C158.894 167.679 157.541 165.369 157.505 162.48C157.469 159.663 158.711 157.579 159.614 156.395C159.923 155.991 160.076 155.486 160.017 154.981C159.595 151.379 159.786 147.761 160.053 145.168C160.733 138.566 164.531 134.264 168.277 131.367C170.105 129.954 172.051 128.769 173.752 127.773C175.583 126.701 177.001 125.916 178.405 125.02L180.075 123.962C188.481 118.67 197.702 113.381 205.823 108.376C213.79 103.399 221.812 98.5102 229.889 93.7112C231.746 92.5979 236.341 89.584 239.142 88.2848L239.394 88.1716C242.03 87.0305 245.324 86.8235 247.461 86.7872ZM132.641 1.69758C137.888 -0.535205 143.277 -0.191463 147.625 0.619329C151.587 1.35794 156.08 2.82921 158.869 3.61464L159.403 3.76254L159.411 3.76461L186.901 11.21L225.902 21.572L225.916 21.5756L225.93 21.5798C232.18 23.2687 238.985 24.9765 245.51 27.0593C245.51 27.0594 245.51 27.0595 245.511 27.0597C245.511 27.0599 245.511 27.06 245.512 27.0601C247.434 27.6739 250.696 28.7663 253.348 30.8734C254.768 32.002 256.226 33.5795 257.172 35.7356C257.892 37.3786 258.212 39.1244 258.164 40.904C258.156 41.2274 258.171 41.5515 258.228 41.87C258.333 42.4569 258.45 43.106 258.57 43.7431C258.736 44.6321 259.146 45.4543 259.686 46.1799C260.352 47.0739 261.236 48.387 261.84 50.0238L261.956 50.3558L261.958 50.3584C263.429 54.7501 261.927 58.4968 260.224 60.9051C258.674 63.0955 256.589 64.7378 255.49 65.6044C252.927 67.6277 249.946 69.7399 247.657 71.4605C240.261 77.0596 232.811 82.5872 225.309 88.0423L181.906 120.525L181.885 120.541L181.863 120.557L156.203 139.453L156.189 139.463L147.746 145.647L147.712 145.671C145.853 147.016 142.788 149.312 139.904 150.76C133.342 154.055 124.943 155.359 117.815 154.495C111.356 153.713 104.05 150.995 99.0256 149.234C92.933 147.108 86.8587 144.93 80.8035 142.699L46.3849 130.533L46.3642 130.525L46.344 130.518C36.2855 126.89 24.6632 123.243 14.0933 119.101L13.0734 118.699C11.696 118.151 9.88462 117.288 8.17504 116.288C6.68455 115.415 4.40887 113.952 2.85879 112.018C0.686351 109.318 -0.312543 105.859 0.0858525 102.417L0.0868868 102.407L0.0884382 102.396C0.404824 99.7345 1.57991 97.5217 2.40948 96.1522C2.54083 95.9354 2.6599 95.7119 2.7595 95.4788C2.773 95.4472 2.78711 95.4147 2.8016 95.3813C2.82427 95.329 2.82769 95.2706 2.81276 95.2156C2.42071 93.7712 2.11824 91.7507 2.51489 89.6935L2.51851 89.6754L2.52213 89.6568C3.26136 85.9325 5.62683 82.997 7.44845 81.1296C9.41844 79.1101 11.6493 77.4409 13.4106 76.2943L16.2394 74.4615C22.851 70.1961 29.5377 66.0078 36.1826 61.8509C43.7937 57.0897 51.3468 52.3714 58.7684 47.5668L58.7927 47.5508L58.8176 47.5353L105.905 17.6174C111.979 13.7333 118.117 9.94845 124.315 6.26397L124.338 6.25001L124.361 6.23657C126.328 5.08791 129.367 3.19093 132.134 1.92202L132.641 1.69758Z" fill="white"/>
<path d="M10.6127 95.0577C9.68563 94.0817 9.10541 91.8608 9.36287 90.5229C10.0529 87.0397 14.2743 83.5425 17.2 81.6342C32.035 71.958 47.3816 62.6897 62.2284 53.0597L109.006 23.2809C114.976 19.4562 121.008 15.7291 127.099 12.1008C129.351 10.783 131.878 9.19497 134.22 8.11892C141.214 4.90536 149.827 8.48976 156.671 10.3378L184.002 17.7546L222.732 28.0648C229.105 29.7901 235.597 31.42 241.882 33.4301C245.733 34.6626 250.415 36.5571 249.603 41.4098C249.855 42.7723 250.533 46.8067 250.91 47.9891C251.952 49.2705 253.287 50.6974 253.811 52.2636C254.908 55.5431 251.918 58.077 249.635 59.8811C247.134 61.8594 244.513 63.7037 241.966 65.6231C234.642 71.179 227.263 76.6638 219.833 82.0767L176.701 114.42L151.219 133.221L142.835 139.373C140.773 140.867 138.267 142.735 136.019 143.866C130.776 146.504 123.798 147.611 117.972 146.904C112.474 146.237 106.055 143.866 100.744 142.002C94.7098 139.892 88.6941 137.731 82.6973 135.517L48.4944 123.402C37.7204 119.509 26.3489 115.978 15.6612 111.721C13.5642 110.885 9.70681 108.894 8.31805 107.145C7.30809 105.888 6.84372 104.277 7.02892 102.673C7.20785 101.165 8.00943 99.7997 8.80825 98.534C9.24658 97.5656 9.93487 95.705 10.6127 95.0577Z" fill="#FEF8DC"/>
<path d="M10.6127 95.0581C10.8207 95.152 11.4551 95.6385 11.723 95.8063C15.2874 98.0388 19.1025 99.1347 23.0435 100.527L34.5676 104.66L71.7847 117.592C78.2806 119.864 84.8603 122.07 91.2904 124.484C96.405 126.45 101.565 128.297 106.765 130.022C109.306 130.875 111.87 131.855 114.46 132.432C118.227 133.27 124.256 133.381 127.869 131.981C132.185 130.31 137.056 126.341 140.732 123.565L148.762 117.606L178.298 95.5961L225.041 61.034L238.23 51.5024C241.857 48.9096 247.75 45.4678 249.603 41.4102C249.855 42.7727 250.533 46.8071 250.91 47.9895C251.952 49.2709 253.287 50.6978 253.811 52.264C254.908 55.5435 251.918 58.0774 249.635 59.8815C247.134 61.8598 244.513 63.7041 241.966 65.6234C234.642 71.1794 227.263 76.6642 219.833 82.0771L176.701 114.42L151.219 133.221L142.835 139.374C140.773 140.867 138.267 142.735 136.019 143.866C130.776 146.504 123.798 147.612 117.972 146.905C112.474 146.237 106.055 143.867 100.744 142.002C94.7098 139.893 88.6941 137.731 82.6973 135.517L48.4944 123.403C37.7204 119.51 26.3489 115.979 15.6612 111.721C13.5642 110.886 9.70681 108.894 8.31805 107.146C7.30809 105.888 6.84372 104.277 7.02892 102.674C7.20785 101.166 8.00943 99.8001 8.80825 98.5343C9.24658 97.566 9.93487 95.7053 10.6127 95.0581Z" fill="#FEEDC5"/>
<path d="M250.91 47.9902C251.952 49.2716 253.287 50.6986 253.811 52.2647C254.908 55.5443 251.918 58.0781 249.635 59.8822C247.134 61.8606 244.513 63.7048 241.966 65.6242C234.642 71.1801 227.263 76.6649 219.833 82.0778L176.701 114.421L151.219 133.222L142.835 139.374C140.773 140.868 138.267 142.736 136.019 143.867C130.776 146.505 123.798 147.612 117.972 146.905C112.474 146.238 106.055 143.868 100.744 142.003C94.7098 139.893 88.6941 137.732 82.6973 135.518L48.4944 123.404C37.7204 119.51 26.3489 115.979 15.6612 111.722C13.5642 110.887 9.70681 108.895 8.31805 107.146C7.30809 105.889 6.84372 104.278 7.02892 102.674C7.20785 101.166 8.00943 99.8009 8.80825 98.5351C9.94507 100.757 11.5047 102.928 13.7655 104.12C21.0986 107.985 29.2096 110.38 37.0158 113.121L75.0973 126.362L101.421 135.752C105.921 137.348 111.657 139.707 116.207 140.539C120.771 141.188 128.141 140.608 132.279 138.528C139.435 134.931 146.516 128.775 152.996 124.008L203.556 86.2358C212.082 79.8431 220.657 73.5146 229.278 67.2512C232.804 64.6834 236.309 62.0862 239.791 59.4597C244.483 55.9423 248.654 53.6035 250.91 47.9902Z" fill="#FDDBA4"/>
<path d="M138.673 16.2475C141.925 15.8824 149.356 18.3521 152.778 19.2591C160.588 21.3209 168.383 23.4382 176.163 25.611L211.906 35.5768C217.509 37.1666 223.141 38.6736 228.712 40.3704C234.914 42.2592 232.652 44.6411 228.86 47.5373C219.694 54.537 210.377 61.3263 201.103 68.1798C187.583 78.305 173.993 88.337 160.333 98.2749L141.262 112.206C138.487 114.242 135.705 116.27 132.909 118.278C129.697 120.584 125.567 121.805 121.601 121.318C118.822 120.826 112.873 118.614 109.885 117.588L89.2101 110.479L43.3464 94.4629C24.868 87.9167 20.7201 89.2247 39.5402 76.9866C46.5869 72.4243 53.684 67.9404 60.8301 63.5358L98.6211 39.7999L121.822 25.1988C125.864 22.6568 129.937 20.0276 134.043 17.588C135.51 16.7164 137.004 16.4134 138.673 16.2475Z" fill="#3B6472"/>
<path d="M170.899 47.5876C174.992 45.452 178.738 43.3297 183.506 44.7583C185.904 45.4766 188.088 47.4348 187.099 50.063C185.958 53.102 181.857 56.1005 179.19 57.6309C177.744 58.3826 176.107 59.2808 174.632 59.9287L142.989 77.1864C135.379 81.3563 127.529 85.8557 119.854 89.8243C119.11 90.2652 117.367 91.2055 116.576 91.5225C113.265 93.8676 107.016 94.764 103.101 94.8865C103.036 93.7295 102.99 93.396 102.729 92.2685C101.742 91.0857 101.004 90.7583 99.5713 90.331C102.218 87.8624 106.09 84.1506 108.978 82.0963C109.936 81.2945 111.156 80.432 112.28 79.888C116.595 77.7392 121.79 74.6694 126.097 72.2797L149.761 59.2404C155.646 55.9615 161.654 52.4247 167.656 49.3772C168.545 48.86 170.013 47.9541 170.899 47.5876Z" fill="#5F8C99"/>
<path d="M170.899 47.5876C174.992 45.452 178.738 43.3297 183.506 44.7583C185.904 45.4766 188.088 47.4348 187.099 50.063C185.958 53.102 181.857 56.1005 179.19 57.6309C177.744 58.3826 176.107 59.2808 174.632 59.9287C174.356 58.4758 174.437 57.2163 173.957 55.7021C172.8 52.0493 170.679 51.0286 167.656 49.3772C168.545 48.86 170.013 47.9541 170.899 47.5876Z" fill="#5F8C99"/>
<path d="M167.656 49.3755C168.545 48.8583 170.013 47.9524 170.899 47.5859C176.111 50.0576 176.06 50.4647 178.442 56.1708C178.621 56.5967 178.856 57.3527 179.19 57.6292C177.744 58.3809 176.107 59.2791 174.632 59.927C174.356 58.4741 174.437 57.2146 173.957 55.7004C172.8 52.0476 170.679 51.0269 167.656 49.3755Z" fill="#487E8C"/>
<path d="M112.28 79.8867C116.037 80.8506 118.34 83.6432 119.389 87.3055C119.559 87.8994 119.62 89.4248 119.854 89.823C119.11 90.2639 117.367 91.2042 116.576 91.5212C115.395 87.2449 113.72 83.1993 108.978 82.095C109.936 81.2932 111.156 80.4307 112.28 79.8867Z" fill="#487E8C"/>
<path d="M166.608 157C165.448 153.539 165.524 148.744 165.896 145.125C166.72 137.109 174.835 134.091 180.999 130.15C189.815 124.511 199.156 119.191 208.136 113.646C216.023 108.709 223.966 103.859 231.963 99.0987C234.385 97.6437 238.161 95.1311 240.513 94.0379C242.974 92.894 248.989 93.0515 251.707 93.5868C258.803 94.9847 266.058 97.7908 273.078 99.8769C281.191 102.226 289.277 104.665 297.335 107.196C301.271 108.413 305.467 109.622 309.303 111.096C311.375 111.909 312.807 113.121 314.232 114.764C315.434 116.15 316.443 121.494 315.104 122.629C312.029 125.232 308.116 127.339 304.735 129.656C304.215 129.879 303.237 130.517 302.853 130.9C304.091 131.782 305.409 132.758 306.672 133.585C307.413 134.336 309.729 135.417 310.777 135.658C310.662 135.35 310.363 135.235 310.163 134.786C311.418 134.007 312.672 134.805 314.058 135.084C314.424 134.851 314.422 134.805 314.607 134.389L315.202 133.686C316.148 134.141 317.569 136.872 317.751 137.934C317.803 138.245 317.772 138.93 317.749 139.265C319.075 140.016 320.081 140.644 321.316 141.555V144.707C317.588 148.097 312.069 151.122 307.676 153.975C299.001 159.654 290.295 165.287 281.56 170.873L262.349 183.252C258.816 185.511 255.476 187.981 251.692 189.763C248.659 191.19 243.105 192.383 239.795 192.085C232.135 191.398 223.24 187.4 216.086 184.735L189.56 174.752C183.18 172.331 176.655 170.258 170.384 167.586C168.36 166.723 166.001 165.481 164.501 163.846C161.366 160.43 165.851 158.618 166.608 157Z" fill="#FDAC58"/>
<path d="M173.639 144.182C192.911 150.234 212.055 157.643 231.155 164.268C234.646 165.479 236.569 166.085 240.298 166.172C240.711 166.428 241.711 166.34 242.257 166.334C242.326 168.766 242.814 177.257 242.305 179.934C242.291 180.014 242.053 180.139 241.954 180.188C235.32 180.25 233.199 178.947 227.051 176.764L209.6 170.418C205.155 168.803 200.619 167.339 196.158 165.75C192.442 164.391 188.74 162.99 185.053 161.551C183.146 160.821 176.457 158.507 175.335 157.277C173.204 154.937 173.643 147.528 173.639 144.182Z" fill="#FEEDC5"/>
<path d="M240.298 166.172C242.957 166.125 246.275 166.025 248.685 164.829C254.53 161.932 260.385 157.892 265.863 154.397L294.113 136.419C295.348 135.617 302.257 131.011 302.853 130.9C304.091 131.782 305.409 132.758 306.672 133.585C307.413 134.336 309.73 135.417 310.777 135.658L311.131 135.796C311.312 135.353 310.94 135.184 311.609 134.84C312.221 134.526 313.433 135.049 313.722 135.593C313.91 137.1 310.399 139.331 309.217 140.082C305.08 142.716 300.93 145.334 296.802 147.984L274.113 162.732C266.198 167.836 258.432 173.263 250.321 178.047C248.28 179.252 245.653 179.808 243.317 180.076C242.865 180.127 242.409 180.165 241.954 180.187C242.053 180.138 242.291 180.013 242.305 179.933C242.814 177.256 242.326 168.765 242.257 166.333C241.711 166.339 240.711 166.427 240.298 166.172Z" fill="#FDDBA4"/>
<path d="M166.608 157C167.731 158.231 168.117 161.353 170.284 162.413C173.371 163.923 176.57 165.158 179.782 166.375C185.671 168.605 191.579 170.778 197.51 172.894C208.872 176.974 220.141 181.385 231.576 185.334C238.472 187.715 245.321 188.048 252.012 184.721C256.019 182.728 260.17 179.441 263.964 176.979C268.666 173.928 273.37 170.832 278.074 167.785L304.112 150.885C307.776 148.49 311.763 146.103 315.271 143.498C316.766 142.389 317.168 140.993 317.749 139.266C319.075 140.017 320.081 140.644 321.316 141.556V144.707C317.588 148.097 312.069 151.122 307.676 153.975C299.001 159.654 290.295 165.287 281.56 170.873L262.349 183.252C258.816 185.512 255.476 187.982 251.692 189.763C248.659 191.19 243.105 192.383 239.795 192.085C232.135 191.398 223.24 187.401 216.086 184.735L189.56 174.752C183.18 172.331 176.655 170.259 170.384 167.586C168.36 166.724 166.001 165.481 164.501 163.846C161.366 160.43 165.851 158.619 166.608 157Z" fill="#FDDBA4"/>
<path d="M302.853 130.9C303.237 130.517 304.215 129.878 304.735 129.656L304.857 129.857C305.095 129.846 305.972 129.798 306.13 129.897C308.21 131.186 310.503 132.075 312.815 132.856C313.456 133.073 314.574 133.564 315.202 133.686L314.607 134.389C314.219 134.318 313.612 133.66 313.429 133.627C312.166 133.402 307.162 132.064 306.218 132.299L306.156 132.497L306.753 133.156L306.672 133.585C305.409 132.758 304.091 131.782 302.853 130.9Z" fill="#FDDBA4" fill-opacity="0.243137"/>
<path d="M306.672 133.587L306.753 133.158L306.156 132.499L306.218 132.301C307.162 132.066 312.166 133.404 313.428 133.629C313.611 133.662 314.219 134.319 314.607 134.391C314.422 134.806 314.424 134.853 314.058 135.085C312.672 134.807 311.418 134.009 310.163 134.787C310.363 135.237 310.661 135.351 310.777 135.66C309.729 135.419 307.413 134.337 306.672 133.587Z" fill="#FDDBA4" fill-opacity="0.435294"/>
<path d="M104.267 91.5198C105.192 92.8535 105.435 94.1923 103.992 95.1919C102.55 96.1916 98.2972 97.5849 97.3728 96.2512C96.4484 94.9175 98.8425 91.709 100.285 90.7094C101.727 89.7098 103.343 90.1861 104.267 91.5198Z" fill="#223D46"/>
<path d="M108.978 82.0957C113.72 83.2 115.395 87.2456 116.576 91.5219C113.265 93.867 107.016 94.7634 103.101 94.8859C103.036 93.7289 102.99 93.3955 102.729 92.2679C101.742 91.0852 101.004 90.7577 99.5713 90.3304C102.218 87.8619 106.09 84.15 108.978 82.0957Z" fill="#5F8C99"/>
<path d="M61.7885 104.486C63.4952 104.667 68.561 106.671 70.1225 107.638C71.2231 108.319 72.1595 109.147 73.4528 109.55C72.2938 109.866 71.0024 110.338 69.8599 110.734C65.3808 112.051 60.519 111.044 58.5886 106.411C59.5619 105.356 60.4585 104.932 61.7885 104.486Z" fill="#FEEDC5"/>
</svg>
