<svg width="129" height="129" viewBox="0 0 129 129" fill="none" xmlns="http://www.w3.org/2000/svg">
<g clip-path="url(#clip0_113_110)">
<path d="M102.856 82.6987C105.267 83.5958 107.172 78.0034 111.049 58.8927C115.14 38.6605 115.306 34.0487 112.219 34.0235C107.974 34.041 98.9932 81.1476 102.856 82.6987Z" fill="black"/>
<path d="M12.3526 71.9003C10.1891 79.2888 11.1775 80.6097 25.9855 90.1791C41.2698 100.079 44.4139 101.343 46.5065 98.6328C50.2804 93.7023 47.0731 89.7836 28.7788 76.5957C15.2761 66.8736 13.9494 66.447 12.3526 71.9003Z" fill="black"/>
<path d="M49.7158 38.4907C48.0898 43.7828 48.5787 46.0269 53.0426 54.1336C66.3762 78.1311 73.997 96.3301 76.9555 85.9657C78.1917 81.7437 76.1731 77.027 61.5099 48.4383C53.3294 32.6729 51.9376 31.4249 49.7158 38.4907Z" fill="black"/>
</g>
<defs>
<clipPath id="clip0_113_110">
<rect width="110.58" height="110.58" fill="white" transform="translate(19.6657 128.484) rotate(-100.244)"/>
</clipPath>
</defs>
</svg>
