<svg width="281" height="380" viewBox="0 0 281 380" fill="none" xmlns="http://www.w3.org/2000/svg">
<path d="M82.3602 15.7811C82.5862 13.0779 82.4637 1.66388 83.155 0.609631C86.2805 -0.342119 97.226 0.102631 101.03 0.111131L126.179 0.13963L140.865 0.230634C143.475 0.251884 147.145 0.124381 149.618 0.496381C149.915 5.34338 149.64 10.9624 149.778 15.9639C152.198 15.9981 163.81 15.4249 165.145 16.8191C165.448 17.1351 165.588 17.5804 165.62 18.0066C165.955 22.6211 164.918 27.6069 165.785 32.2154C186.533 32.8411 181.888 28.2796 182.16 49.0816C182.253 66.8516 182.233 84.6219 182.095 102.392L182.14 122.622C182.14 124.371 182.24 130.738 182.015 132.124C182.02 134.754 181.895 146.413 182.21 148.325L182.17 148.533C181.95 153.708 182.01 159.619 181.65 164.642C176.713 165.326 170.713 164.691 165.693 165.003L165.413 165.007C165.373 169.649 165.093 176.49 165.288 180.926C160.123 181.205 153.903 180.996 148.675 180.942L132.194 181.045L131.849 181.272C131.553 186.027 131.778 192.253 131.632 197.329C125.786 197.689 118.745 197.587 112.823 197.599C102.764 197.638 92.7055 197.621 82.647 197.546C77.2182 197.416 71.7882 197.331 66.358 197.289C65.988 192.371 66.1395 186.363 66.11 181.343C61.412 181.035 56.6202 181.428 51.9257 181.252C51.2972 181.229 50.8192 180.917 50.356 180.519C49.285 178.626 49.6952 167.783 49.6532 164.812L49.3957 164.733C47.1067 164.119 35.4557 165.427 33.4627 164.119C32.5545 161.884 32.8245 151.355 32.9362 148.488C29.6367 148.133 20.3482 148.447 16.8772 148.699C16.5015 146.375 16.593 142.707 16.5372 140.261C16.4797 137.746 16.2737 134.531 16.375 132.067L16.1945 131.704C11.038 131.231 5.45648 131.54 0.243234 131.678C-0.131016 128.975 0.0687324 125.394 0.0857324 122.565L0.100488 109.156L0.0932321 82.9141C0.0852321 80.2294 -0.268768 67.6886 0.457482 65.9596C3.24773 64.7626 12.4137 65.9671 16.2832 65.2539L16.6072 65.1199C16.6502 62.7499 16.1927 50.9574 17.2655 49.7986C17.7305 49.2961 18.2517 49.0694 18.918 48.9461C22.0405 48.3684 29.2762 48.9651 32.9712 48.9456L33.0852 48.8886C33.3992 45.5801 32.7387 35.1104 33.4542 33.0321C36.2775 31.8069 60.7562 32.7101 66.2927 32.2721C66.8172 29.6566 65.5027 18.6084 66.759 16.3404C68.6232 15.4299 79.4322 15.7769 82.3602 15.7811Z" fill="#F1ADBF"/>
<path d="M98.9149 114.77C104.739 114.476 110.131 114.661 115.949 114.683C121.314 114.786 126.68 114.817 132.046 114.779C132.143 115.268 132.231 115.718 132.306 116.212C132.555 121.032 132.408 126.933 132.408 131.869L132.403 159.08L132.437 172.201C132.442 173.918 132.537 178.339 132.217 179.832L132.194 181.046L131.849 181.273C131.553 186.028 131.778 192.254 131.632 197.33C125.786 197.69 118.745 197.588 112.823 197.6C102.764 197.64 92.7055 197.622 82.647 197.547C77.2182 197.418 71.7882 197.332 66.358 197.291C65.988 192.372 66.1395 186.364 66.11 181.344C61.412 181.036 56.6202 181.43 51.9257 181.253C51.2972 181.23 50.8192 180.918 50.356 180.52C49.285 178.628 49.6952 167.784 49.6532 164.813L49.3957 164.734C47.1067 164.12 35.4557 165.428 33.4627 164.12C32.5545 161.885 32.8245 151.357 32.9362 148.489C29.6367 148.135 20.3482 148.449 16.8772 148.7C16.5014 146.377 16.593 142.708 16.5372 140.262C16.4797 137.747 16.2737 134.532 16.375 132.069L16.1945 131.705C16.6165 130.156 16.4345 117.827 16.4212 115.522L16.7185 115.546C18.0857 115.644 32.796 115.759 33.405 115.591C33.8575 116.402 33.6884 117.183 33.8517 118.144C33.9164 122.557 33.9942 127.573 33.778 131.978C38.9972 131.915 44.2595 131.94 49.466 131.841C49.473 129.817 49.4482 127.71 49.4957 125.694C49.7504 124.704 49.5752 116.103 49.5555 114.79C55.1522 114.841 60.7497 114.835 66.3465 114.772C66.0857 119.593 66.2807 126.219 66.3002 131.183C77.1217 131.213 88.3087 130.876 99.1082 131.121C99.1477 127.836 99.3762 117.654 98.9149 114.77Z" fill="#F4C4B4"/>
<path d="M115.74 131.71C121.312 131.633 126.604 131.781 132.111 131.758L132.159 164.238C132.158 168.5 131.932 175.805 132.217 179.829L132.194 181.043L131.849 181.27C131.553 186.025 131.778 192.252 131.632 197.327C125.786 197.687 118.745 197.585 112.823 197.597C102.764 197.637 92.7055 197.619 82.647 197.544C77.2182 197.415 71.7882 197.329 66.358 197.288C65.988 192.369 66.1395 186.361 66.11 181.342C61.412 181.034 56.6202 181.427 51.9257 181.251C51.2972 181.227 50.8192 180.916 50.356 180.517C49.285 178.625 49.6952 167.781 49.6532 164.81C51.8755 164.406 63.2845 164.516 65.939 164.61L66.1202 164.799C77.2805 165.013 88.3045 164.926 99.4527 165.041C99.4035 159.359 99.4047 153.677 99.4565 147.995L115.744 147.973C115.865 142.534 115.595 136.944 115.74 131.71Z" fill="#E9E5B4"/>
<path d="M49.6532 164.812C51.8755 164.408 63.2845 164.518 65.939 164.612L66.1202 164.801C66.1977 167.63 66.354 178.794 66.0145 181.291C87.7397 181.24 110.285 181.814 131.849 181.272C131.553 186.027 131.778 192.254 131.632 197.329C125.786 197.689 118.745 197.587 112.823 197.599C102.764 197.639 92.7055 197.621 82.647 197.546C77.2182 197.417 71.7882 197.331 66.358 197.29C65.988 192.371 66.1395 186.363 66.11 181.344C61.412 181.036 56.6202 181.429 51.9257 181.253C51.2972 181.229 50.8192 180.918 50.356 180.519C49.285 178.627 49.6952 167.783 49.6532 164.812Z" fill="#E88486"/>
<path d="M16.375 132.066C21.981 132.207 27.8375 132.36 33.4485 132.181L33.209 148.659C37.6577 148.723 45.3425 148.992 49.509 148.495C49.4877 152.667 49.3797 157.255 49.4842 161.399L49.3957 164.732C47.1067 164.118 35.4557 165.426 33.4627 164.118C32.5545 161.883 32.8245 151.354 32.9362 148.487C29.6367 148.132 20.3482 148.446 16.8772 148.698C16.5015 146.374 16.593 142.706 16.5372 140.26C16.4797 137.745 16.2737 134.53 16.375 132.066Z" fill="#E88486"/>
<path d="M49.756 148.267C53.696 148.246 62.5965 148.421 66.1548 148.051C66.175 150.071 66.5375 163.767 65.939 164.613C63.2845 164.518 51.8755 164.408 49.6532 164.813L49.3958 164.734L49.4843 161.401C49.9515 159.274 49.7492 150.757 49.756 148.267Z" fill="#E9E5B4"/>
<path d="M165.678 98.9356C170.803 99.0654 176.658 98.8459 181.853 98.8281C181.883 100.195 181.923 101.019 182.095 102.391L182.14 122.621C182.14 124.37 182.24 130.737 182.015 132.123C182.02 134.753 181.895 146.412 182.21 148.324L182.17 148.532C181.95 153.707 182.01 159.618 181.65 164.641C176.713 165.325 170.713 164.69 165.693 165.002L165.413 165.006C165.373 169.648 165.093 176.489 165.288 180.925C160.123 181.204 153.903 180.995 148.675 180.941L132.194 181.044L132.217 179.829C132.537 178.336 132.442 173.916 132.437 172.198L132.403 159.078L132.408 131.867C132.408 126.931 132.555 121.03 132.306 116.209L132.453 115.739C133.318 115.416 146.608 115.698 148.458 115.746C149.9 115.298 162.785 115.487 165.25 115.411C165.833 111.138 165.433 103.73 165.678 98.9356Z" fill="#F4C4B4"/>
<path d="M132.306 116.209L132.453 115.739C133.318 115.416 146.608 115.698 148.458 115.746C148.44 126.809 148.293 137.952 148.63 149.012C148.703 151.369 148.63 154.308 148.883 156.611C148.84 159.302 148.845 161.993 148.9 164.684C151.548 164.726 163.868 164.548 165.413 165.006C165.373 169.648 165.093 176.489 165.288 180.925C160.123 181.204 153.903 180.995 148.675 180.941L132.194 181.044L132.217 179.829C132.537 178.336 132.442 173.916 132.437 172.198L132.403 159.078L132.408 131.867C132.408 126.931 132.555 121.03 132.306 116.209Z" fill="#E88486"/>
<path d="M165.385 132.024C170.52 131.926 176.938 131.881 182.015 132.124C182.02 134.753 181.895 146.412 182.21 148.325L182.17 148.532C181.95 153.707 182.01 159.619 181.65 164.642C176.713 165.325 170.713 164.69 165.693 165.003L165.413 165.006C163.868 164.548 151.548 164.726 148.9 164.685C148.845 161.994 148.84 159.302 148.883 156.611C149.105 154.061 148.955 150.648 148.908 148.03C154.413 147.791 159.9 147.892 165.405 148.004C165.025 144.415 165.203 135.812 165.385 132.024Z" fill="#E9E5B4"/>
<path d="M165.635 148.542C171.148 148.591 176.66 148.588 182.17 148.531C181.95 153.706 182.01 159.617 181.65 164.641C176.713 165.324 170.713 164.689 165.693 165.002C165.923 160.623 165.65 153.168 165.635 148.542Z" fill="#E88486"/>
<path d="M82.3602 15.7811C82.5862 13.0779 82.4637 1.66388 83.155 0.609631C86.2805 -0.342119 97.226 0.102631 101.03 0.111131L126.179 0.13963L140.865 0.230634C143.475 0.251884 147.145 0.124381 149.618 0.496381C149.915 5.34338 149.64 10.9624 149.778 15.9639C152.198 15.9981 163.81 15.4249 165.145 16.8191C165.448 17.1351 165.588 17.5804 165.62 18.0066C165.955 22.6211 164.918 27.6069 165.785 32.2154C160.455 32.7724 154.548 32.4659 149.103 32.5966C149.128 26.8119 149.333 21.5406 149.47 15.8046C144.878 15.6684 139.393 15.9266 134.656 15.9424L104.028 15.9571C96.8377 15.9571 89.5355 16.0641 82.3602 15.7811Z" fill="#E88486"/>
<path d="M33.0852 48.8899C33.3992 45.5814 32.7387 35.1117 33.4542 33.0334C36.2775 31.8082 60.7562 32.7114 66.2927 32.2734C65.9062 36.0739 66.1654 45.1462 66.1734 49.4189C70.0157 49.4317 79.1697 49.6897 82.688 49.3069L82.6929 65.0434C71.7822 64.9429 60.8705 64.9327 49.9595 65.0119L49.9435 49.1109C44.6967 49.0709 38.1935 49.2634 33.0852 48.8899Z" fill="#E88486"/>
<path d="M33.6642 65.7979C38.937 65.8914 44.2115 65.8599 49.4827 65.7031L49.4255 104.757C49.4255 110.654 49.1315 120.137 49.4957 125.691C49.4482 127.706 49.473 129.814 49.466 131.838C44.2595 131.936 38.9973 131.912 33.778 131.975C33.9942 127.57 33.9165 122.553 33.8517 118.14L33.9292 84.6874C33.9292 79.5254 34.1815 70.5524 33.6642 65.7979Z" fill="#E88486"/>
<path d="M0.677734 65.3526C5.95048 65.4461 11.225 65.4146 16.4962 65.2578L16.439 104.312C16.439 110.209 16.145 119.692 16.5092 125.246C16.4617 127.261 16.4865 129.369 16.4795 131.392C11.273 131.491 6.01074 131.467 0.791489 131.53C1.00774 127.124 0.929984 122.108 0.865234 117.695L0.942734 84.2421C0.942734 79.0801 1.19498 70.1071 0.677734 65.3526Z" fill="#E88486"/>
<path d="M115.889 82.4648L131.809 82.5308C131.642 88.9523 131.735 95.6339 131.689 102.075C131.67 104.735 131.558 112.523 132.046 114.775C126.68 114.814 121.314 114.782 115.949 114.68C115.874 104.041 116.11 93.0343 115.889 82.4648Z" fill="#E88486"/>
<path d="M165.785 32.2144C186.533 32.8402 181.888 28.2787 182.16 49.0807C177.703 48.8359 170.405 49.0944 165.893 49.2512C165.665 44.3147 166.19 36.1514 165.785 32.2144Z" fill="#E88486"/>
<path d="M16.6072 65.1178C16.6502 62.7478 16.1927 50.9553 17.2655 49.7965C17.7305 49.294 18.2517 49.0673 18.918 48.944C22.0405 48.3663 29.2762 48.963 32.9712 48.9435C33.415 52.223 33.006 61.5365 33.1747 65.4885C27.801 65.3788 21.9407 65.3705 16.6072 65.1178Z" fill="#E88486"/>
<path d="M66.2928 32.2703C66.8173 29.6548 65.5028 18.6066 66.759 16.3386C68.6233 15.4281 79.4322 15.7751 82.3602 15.7793C81.9385 18.8573 82.1643 28.8991 82.169 32.5323C79.6218 32.5561 68.0168 32.7388 66.2928 32.2703Z" fill="#E88486"/>
<path d="M82.848 65.7852C91.9605 66.2339 106.25 66.1349 115.381 65.7734C115.36 71.1134 115.401 76.4532 115.503 81.7919L82.8152 81.8447C82.712 76.4919 82.7227 71.1377 82.848 65.7852Z" fill="#E88486"/>
<path d="M115.666 49.2602C120.609 49.4409 126.865 49.2459 131.905 49.2227L131.96 65.6492L115.639 65.7732C115.704 60.3007 115.661 54.7397 115.666 49.2602Z" fill="#E88486"/>
<path d="M132.568 32.9219C137.873 33.0884 143.443 32.9846 148.768 32.9626C148.568 37.6469 148.68 44.3269 148.823 49.0539L132.345 49.0121C132.598 43.7941 132.328 38.2881 132.568 32.9219Z" fill="#E88486"/>
<path d="M66.358 197.289C71.7882 197.331 77.2183 197.416 82.647 197.546C82.7008 200.485 82.4877 212.053 82.952 214.066C84.0612 214.228 85.0405 214.246 86.1565 214.218C90.5357 214.108 94.6933 214.128 99.059 214.513C99.2243 217.066 99.0963 229.386 99.371 230.451L99.523 230.758C103.808 230.708 111.977 230.303 115.694 231.426C115.716 236.163 115.463 242.793 116.051 247.293C121.322 247.458 126.947 247.241 132.128 247.523C132.48 251.293 132.822 259.423 132.588 263.196L132.921 263.548C132.842 269.208 132.809 274.871 132.82 280.531C135.479 280.026 145.688 280.243 148.968 280.258C149.063 287.313 148.99 294.371 148.753 301.423C148.69 304.038 148.455 310.823 148.698 313.218C149.203 314.653 148.8 327.186 149.04 329.966C154.52 329.876 160.13 330.031 165.57 329.753C165.81 334.081 165.65 339.126 165.63 343.508L165.678 363.026C160.52 363.011 154.003 362.826 148.938 363.193C148.96 367.978 148.97 374.683 148.798 379.366C137.85 379.536 126.9 379.541 115.953 379.383C115.467 369.833 115.844 360.116 115.744 350.543C115.732 349.401 115.67 348.033 115.775 346.916L115.247 346.541C110.029 346.171 104.765 346.548 99.5385 346.286C99.156 342.018 99.311 334.856 99.2515 330.373L98.8685 329.966C96.5092 329.986 84.6095 330.248 83.2787 329.461C82.461 327.363 82.6998 316.796 82.7153 313.943L82.2665 313.463C79.6812 313.526 67.9577 314.023 66.7 313.033C66.2127 312.651 65.9832 312.183 65.89 311.586C65.6615 310.116 65.9067 308.391 65.9657 306.898C66.0932 303.671 66.2985 300.338 66.0355 297.118L66.003 296.743L65.7162 296.671C63.5677 296.588 51.1212 296.776 50.1272 296.158C49.4182 294.263 49.542 287.691 49.5145 285.381C49.4267 277.751 49.4145 270.121 49.4772 262.491C49.5175 257.998 49.73 251.933 49.4827 247.568C47.5577 247.213 35.7675 247.446 33.1962 247.463C33.0072 242.853 32.9502 235.701 33.0977 231.116L32.9998 230.913C30.9203 230.626 24.1485 230.821 21.6845 230.828C19.73 230.923 19.0655 230.951 17.146 230.688C16.7802 230.561 16.9187 230.581 16.609 230.148C16.257 228.043 16.317 200.264 16.8685 198.133C18.312 197.156 29.1815 197.497 31.5325 197.497L57.0643 197.535C58.8203 197.538 65.1 197.736 66.358 197.289Z" fill="#7FBD7A"/>
<path d="M66.358 197.289C71.7882 197.331 77.2183 197.416 82.647 197.546C82.7008 200.485 82.4877 212.053 82.952 214.066C84.0612 214.228 85.0405 214.246 86.1565 214.218C90.5357 214.108 94.6933 214.128 99.059 214.513C99.2243 217.066 99.0963 229.386 99.371 230.451L99.099 230.528C99.6187 233.161 99.1517 243.771 99.2962 247.311C93.8195 247.281 88.3428 247.298 82.8663 247.361C82.6978 250.278 82.7018 253.281 82.7318 256.206C82.8133 264.128 82.6013 272.111 82.7363 280.026L66.1457 280.036C65.8295 284.921 65.617 291.816 65.7162 296.671C63.5677 296.588 51.1212 296.776 50.1272 296.158C49.4182 294.263 49.542 287.691 49.5145 285.381C49.4267 277.751 49.4145 270.121 49.4772 262.491C49.5175 257.998 49.73 251.933 49.4827 247.568C47.5577 247.213 35.7675 247.446 33.1962 247.463C33.0072 242.853 32.9502 235.701 33.0977 231.116L32.9998 230.913C30.9203 230.626 24.1485 230.821 21.6845 230.828C19.73 230.923 19.0655 230.951 17.146 230.688C16.7802 230.561 16.9187 230.581 16.609 230.148C16.257 228.043 16.317 200.264 16.8685 198.133C18.312 197.156 29.1815 197.497 31.5325 197.497L57.0643 197.535C58.8203 197.538 65.1 197.736 66.358 197.289Z" fill="#E9E5B4"/>
<path d="M66.358 197.289C71.7882 197.331 77.2183 197.416 82.647 197.546C82.7008 200.485 82.4877 212.053 82.952 214.066C66.6407 213.626 49.42 214.246 32.9962 214.021C33.0192 217.421 33.3225 227.963 32.9998 230.913C30.9203 230.626 24.1485 230.821 21.6845 230.828C19.73 230.923 19.0655 230.951 17.146 230.688C16.7802 230.561 16.9187 230.581 16.609 230.148C16.257 228.043 16.317 200.264 16.8685 198.133C18.312 197.156 29.1815 197.497 31.5325 197.497L57.0643 197.535C58.8203 197.538 65.1 197.736 66.358 197.289Z" fill="#6BAB67"/>
<path d="M49.4827 247.567L66.203 247.484L66.1787 269.034C66.179 272.087 66.3377 277.112 66.1457 280.034C65.8295 284.919 65.617 291.814 65.7162 296.669C63.5677 296.587 51.1212 296.774 50.1272 296.157C49.4182 294.262 49.542 287.689 49.5145 285.379C49.4267 277.749 49.4145 270.119 49.4772 262.489C49.5175 257.997 49.7299 251.932 49.4827 247.567Z" fill="#6BAB67"/>
<path d="M33.0977 231.114C37.4925 230.724 44.9777 230.917 49.589 230.967C49.5375 236.419 49.4082 242.134 49.4827 247.567C47.5577 247.212 35.7675 247.444 33.1962 247.462C33.0072 242.852 32.9502 235.699 33.0977 231.114Z" fill="#6BAB67"/>
<path d="M82.952 214.066C84.0612 214.229 85.0405 214.246 86.1565 214.219C90.5357 214.109 94.6933 214.129 99.059 214.514C99.2243 217.066 99.0963 229.386 99.371 230.451L99.099 230.529C94.2037 230.896 87.792 230.741 82.7867 230.759C82.9592 225.381 82.8827 219.501 82.952 214.066Z" fill="#6BAB67"/>
<path d="M66.182 230.766C71.616 230.903 77.2607 230.806 82.7107 230.783C82.6847 236.276 82.6895 241.768 82.725 247.261L66.2025 247.281C66.1217 241.833 66.1822 236.226 66.182 230.766Z" fill="#7FBD7A"/>
<path d="M148.698 313.219C149.203 314.654 148.8 327.186 149.04 329.966C154.52 329.876 160.13 330.031 165.57 329.754C165.81 334.081 165.65 339.126 165.63 343.509L165.678 363.026C160.52 363.011 154.003 362.826 148.938 363.194C148.96 367.979 148.97 374.684 148.798 379.366C137.85 379.536 126.9 379.541 115.953 379.384C115.467 369.834 115.844 360.116 115.744 350.544C115.732 349.401 115.67 348.034 115.775 346.916C120.123 347.161 127.806 347.626 132.01 347.161C131.774 341.946 131.901 335.881 131.899 330.591C131.96 324.829 131.914 319.069 131.761 313.309L148.698 313.219Z" fill="#5BA16C"/>
<path d="M131.899 330.589C137.316 330.509 142.718 330.679 148.135 330.531C148.178 335.951 148.065 341.614 148.19 346.996C142.768 347.016 137.455 347.191 132.01 347.159C131.774 341.944 131.901 335.879 131.899 330.589Z" fill="#6BAB67"/>
<path d="M66.003 296.742C70.73 296.522 77.66 296.462 82.4352 296.577L82.3475 308.657C82.3375 309.794 82.1962 312.514 82.2665 313.462C79.6812 313.524 67.9577 314.022 66.7 313.032C66.2127 312.649 65.9832 312.182 65.89 311.584C65.6615 310.114 65.9067 308.389 65.9657 306.897C66.0932 303.669 66.2985 300.337 66.0355 297.117L66.003 296.742Z" fill="#6BAB67"/>
<path d="M99.523 230.756C103.808 230.706 111.977 230.301 115.694 231.424C115.716 236.161 115.463 242.791 116.051 247.291C114.58 247.066 102.045 247.496 99.4993 247.486L99.523 230.756Z" fill="#6BAB67"/>
<path d="M116.051 247.293C121.322 247.458 126.947 247.24 132.128 247.523C132.48 251.293 132.822 259.423 132.588 263.195C127.12 263.458 121.645 263.565 116.171 263.518C116.21 258.95 116.314 251.685 116.051 247.293Z" fill="#6BAB67"/>
<path d="M99.2515 330.375C102.613 330.772 111.412 330.305 115.155 330.18C115.18 334.99 114.985 341.895 115.247 346.542C110.029 346.172 104.765 346.55 99.5385 346.287C99.156 342.02 99.311 334.857 99.2515 330.375Z" fill="#6BAB67"/>
<path d="M82.7152 313.941C87.9255 314.079 93.497 314.349 98.6655 313.979C98.652 316.174 98.357 328.599 98.8685 329.964C96.5092 329.984 84.6095 330.246 83.2787 329.459C82.461 327.361 82.6997 316.794 82.7152 313.941Z" fill="#6BAB67"/>
<path d="M115.954 297.266L131.438 297.286C131.418 301.428 131.202 309.243 131.71 313.053C126.525 313.101 121.12 312.996 115.92 312.956L115.954 297.266Z" fill="#6BAB67"/>
<path d="M99.7435 280.742C104.809 280.8 109.874 280.807 114.94 280.76C114.906 285.88 115.084 291.125 115.08 296.285C109.95 296.295 104.82 296.277 99.6902 296.23C99.808 291.07 99.8257 285.905 99.7435 280.742Z" fill="#6BAB67"/>
<path d="M247.705 148.535C252.425 148.025 259.138 148.284 264.043 148.359C264.56 153.063 264.173 159.55 264.323 164.449C269.708 164.682 275.425 164.411 280.66 164.703C280.753 169.977 280.905 175.838 280.683 181.071C275.278 181.317 269.758 181.18 264.338 181.272C263.778 188.343 264.455 197.708 264.285 204.984C264.21 208.154 264.513 211.059 264.178 214.319C260.113 214.121 252.03 214.099 247.94 214.329L247.838 214.461C247.533 217.296 247.638 221.836 247.638 224.799L247.65 242.059L247.665 266.161C247.673 270.781 247.583 276.206 247.823 280.791C243.825 280.764 235.258 280.994 231.69 280.719L231.368 280.791C230.753 286.626 231.423 293.514 231.243 299.434C231.1 304.161 231.875 308.549 231.158 313.336C227.38 313.304 218.285 313.041 214.9 313.451C214.368 316.629 214.823 325.754 214.763 329.421C211.653 330.016 200.77 329.824 196.903 329.786C186.508 329.689 175.94 329.894 165.57 329.754C160.13 330.031 154.52 329.876 149.04 329.966C148.8 327.186 149.203 314.654 148.698 313.219C148.455 310.824 148.69 304.039 148.753 301.424C148.99 294.371 149.063 287.314 148.968 280.259C145.688 280.244 135.479 280.026 132.82 280.531C132.809 274.871 132.843 269.209 132.922 263.549C137.99 263.436 143.063 263.594 148.15 263.496C147.613 259.394 147.99 248.674 147.998 244.049C148.015 234.311 147.868 224.076 148.12 214.369C153.305 214.666 160.783 214.101 165.523 214.714C165.55 218.181 165.315 245.829 165.898 247.479C169.9 247.371 177.98 247.709 181.278 247.234L181.44 246.981C181.705 236.219 181.33 225.351 181.673 214.601C186.615 213.876 193.25 214.811 198.06 214.109C198.325 211.534 197.445 200.024 198.65 198.609C199.133 198.043 199.723 197.834 200.435 197.728C202.033 197.491 203.798 197.711 205.418 197.726C208.5 197.776 211.585 197.746 214.665 197.635C215.01 192.892 214.61 186.591 214.83 181.491C218.083 181.227 229.115 181.678 230.588 180.768C231.58 179.419 231.153 176.71 231.148 175.001C231.123 171.658 231.163 168.314 231.268 164.972C234.863 164.332 243.523 164.609 247.715 164.478L247.705 148.535Z" fill="#7FBD7A"/>
<path d="M247.705 148.535C252.425 148.025 259.138 148.284 264.043 148.359C264.56 153.063 264.173 159.55 264.323 164.449C269.708 164.682 275.425 164.411 280.66 164.703C280.753 169.977 280.905 175.838 280.683 181.071C275.278 181.317 269.758 181.18 264.338 181.272C263.778 188.343 264.455 197.708 264.285 204.984C264.21 208.154 264.513 211.059 264.178 214.319C260.113 214.121 252.03 214.099 247.94 214.329L247.838 214.461L246.753 214.474C243.45 214.081 238 214.256 234.52 214.274L214.81 214.384C214.838 219.824 214.82 225.264 214.755 230.704L198.13 230.754C198.215 225.804 198.35 218.976 198.06 214.109C198.325 211.534 197.445 200.024 198.65 198.609C199.133 198.043 199.723 197.834 200.435 197.728C202.033 197.491 203.798 197.711 205.418 197.726C208.5 197.776 211.585 197.746 214.665 197.635C215.01 192.892 214.61 186.591 214.83 181.491C218.083 181.227 229.115 181.678 230.588 180.768C231.58 179.419 231.153 176.71 231.148 175.001C231.123 171.658 231.163 168.314 231.268 164.972C234.863 164.332 243.523 164.609 247.715 164.478L247.705 148.535Z" fill="#E9E5B4"/>
<path d="M247.705 148.535C252.425 148.025 259.138 148.284 264.043 148.359C264.56 153.063 264.173 159.55 264.323 164.449C258.773 164.581 253.22 164.599 247.668 164.504L247.693 181.141C242.333 181.133 236.448 181.209 231.12 181.035C231.17 186.615 231.168 192.194 231.115 197.774C228.063 197.781 217.213 198.01 214.665 197.635C215.01 192.892 214.61 186.591 214.83 181.491C218.083 181.227 229.115 181.678 230.588 180.768C231.58 179.419 231.153 176.71 231.148 175.001C231.123 171.658 231.163 168.314 231.268 164.972C234.863 164.332 243.523 164.609 247.715 164.478L247.705 148.535Z" fill="#6BAB67"/>
<path d="M247.753 181.27L264.338 181.27C263.778 188.34 264.455 197.705 264.285 204.982C264.21 208.151 264.513 211.056 264.178 214.316C260.113 214.119 252.03 214.096 247.94 214.326C247.563 210.754 247.705 204.929 247.703 201.208C247.675 194.562 247.693 187.916 247.753 181.27Z" fill="#6BAB67"/>
<path d="M264.323 164.449C269.708 164.683 275.425 164.411 280.66 164.703C280.753 169.978 280.905 175.838 280.683 181.071C275.278 181.318 269.758 181.181 264.338 181.273C264.45 179.741 264.313 176.777 264.31 175.137L264.323 164.449Z" fill="#6BAB67"/>
<path d="M198.06 214.107C198.325 211.532 197.445 200.022 198.65 198.608C199.133 198.042 199.723 197.833 200.435 197.727C202.033 197.49 203.798 197.709 205.418 197.724C208.5 197.774 211.585 197.744 214.665 197.633C214.355 199.678 214.618 211.395 214.635 214.222C209.243 214.212 203.41 214.307 198.06 214.107Z" fill="#6BAB67"/>
<path d="M148.12 214.367C153.305 214.665 160.783 214.1 165.523 214.712C165.55 218.18 165.315 245.827 165.898 247.477C165.883 250.42 165.373 261.077 165.773 263.1L166.103 263.327L165.148 263.477C164.373 265.41 164.565 295.31 165.33 296.492C165.945 299.34 165.823 310.082 165.688 313.235C170.905 313.025 176.383 313.337 181.668 313.22C188.123 313.035 194.955 313.175 201.435 313.192C204.788 313.2 211.828 313.002 214.9 313.45C214.368 316.627 214.823 325.752 214.763 329.42C211.653 330.015 200.77 329.822 196.903 329.785C186.508 329.687 175.94 329.892 165.57 329.752C160.13 330.03 154.52 329.875 149.04 329.965C148.8 327.185 149.203 314.652 148.698 313.217C148.455 310.822 148.69 304.037 148.753 301.422C148.99 294.37 149.063 287.312 148.968 280.257C145.688 280.242 135.479 280.025 132.82 280.53C132.809 274.87 132.843 269.207 132.922 263.547C137.99 263.435 143.063 263.592 148.15 263.495C147.613 259.392 147.99 248.672 147.998 244.047C148.015 234.31 147.868 224.075 148.12 214.367Z" fill="#6BAB67"/>
<path d="M246.753 214.473L247.838 214.461C247.533 217.296 247.638 221.836 247.638 224.798L247.65 242.058L247.665 266.161C247.673 270.781 247.583 276.206 247.823 280.791C243.825 280.763 235.258 280.993 231.69 280.718L232 280.418C232.375 275.163 231.988 267.823 232.093 262.383C232.14 259.881 232.04 248.761 231.628 246.713C231.243 243.521 231.43 236.503 231.493 233.151C232.33 230.026 232.025 218.131 231.973 214.533C236.665 214.541 242.12 214.681 246.753 214.473Z" fill="#6BAB67"/>
<path d="M198.06 214.109C198.35 218.977 198.215 225.804 198.13 230.754C197.663 233.237 197.905 243.752 197.933 246.774C192.435 246.887 186.938 246.957 181.44 246.982C181.705 236.219 181.33 225.352 181.673 214.602C186.615 213.877 193.25 214.812 198.06 214.109Z" fill="#6BAB67"/>
<path d="M214.85 280.859C220.065 281.059 226.058 280.814 231.368 280.789C230.753 286.624 231.423 293.512 231.243 299.432C231.1 304.159 231.875 308.547 231.158 313.334C227.38 313.302 218.285 313.039 214.9 313.449C215.088 309.869 214.948 305.154 214.94 301.509C214.95 294.624 214.92 287.742 214.85 280.859Z" fill="#6BAB67"/>
<path d="M181.848 296.262L181.923 296.744C181.71 302.407 181.675 307.554 181.668 313.222C176.383 313.339 170.905 313.027 165.688 313.237C165.823 310.084 165.945 299.342 165.33 296.494C170.91 296.492 176.273 296.494 181.848 296.262Z" fill="#5BA16C"/>
<path d="M214.873 230.763C217.905 230.745 228.715 230.488 231.165 230.883C231.593 231.445 231.485 232.39 231.493 233.15C231.43 236.503 231.243 243.52 231.628 246.713C227.8 247.045 219.038 246.763 214.903 246.755C214.85 241.425 214.843 236.095 214.873 230.763Z" fill="#E9E5B4"/>
<path d="M181.278 247.234C181.32 252.297 181.453 258.282 181.213 263.294L166.103 263.329L165.773 263.102C165.373 261.079 165.883 250.422 165.898 247.479C169.9 247.372 177.98 247.709 181.278 247.234Z" fill="#5BA16C"/>
<path d="M182.15 280.961C187.26 281.033 192.41 281.158 197.515 280.986C197.525 286.016 197.593 291.046 197.72 296.076C194.42 296.321 183.908 295.783 181.923 296.741L181.848 296.258C182.143 290.893 182.203 286.326 182.15 280.961Z" fill="#6BAB67"/>
<path d="M182.16 49.082C185.285 49.4413 195.71 48.793 197.645 49.6775C198.12 54.3828 197.828 59.2533 197.788 64.0113L197.758 83.873L197.775 125.005C197.78 128.299 198.14 146.037 197.545 147.698C195.575 148.605 185.355 148.168 182.21 148.326C181.895 146.413 182.02 134.754 182.015 132.125C182.24 130.739 182.14 124.371 182.14 122.622L182.095 102.392C182.233 84.6223 182.253 66.852 182.16 49.082Z" fill="#E88486"/>
<path d="M132.194 181.044L148.675 180.941C153.903 180.996 160.123 181.204 165.288 180.926C165.565 184.063 165.423 188.946 165.423 192.197C165.375 199.703 165.41 207.208 165.523 214.713C160.783 214.1 153.305 214.665 148.12 214.368L147.725 214.113C146.808 214.225 143.68 214.118 142.553 214.105L131.833 214.018C131.769 208.585 131.876 202.702 131.632 197.328C131.778 192.253 131.553 186.026 131.849 181.271L132.194 181.044Z" fill="#6BAB67"/>
<path d="M148.675 180.941C153.903 180.996 160.123 181.204 165.288 180.926C165.565 184.063 165.423 188.946 165.423 192.197C165.375 199.703 165.41 207.208 165.523 214.713C160.783 214.1 153.305 214.665 148.12 214.368L147.725 214.113C148.13 213.958 148.045 213.985 148.405 213.735C149.118 211.055 148.938 184.403 148.675 180.941Z" fill="#5BA16C"/>
</svg>
