<svg width="361" height="152" viewBox="0 0 361 152" fill="none" xmlns="http://www.w3.org/2000/svg">
<mask id="path-1-outside-1_3634_53" maskUnits="userSpaceOnUse" x="-0.800781" y="0" width="361" height="152" fill="black">
<rect fill="white" x="-0.800781" width="361" height="152"/>
<path d="M1.19922 146.117C6.40755 144.62 11.3229 141.885 15.9453 137.914C20.5026 134.008 24.7669 129.32 28.7383 123.852C32.7747 118.448 36.4857 112.556 39.8711 106.176C43.3216 99.7956 46.4466 93.3828 49.2461 86.9375C52.1107 80.4922 54.6823 74.2747 56.9609 68.2852C59.2396 62.2956 61.2253 57.0547 62.918 52.5625C64.6758 48.0052 65.8802 44.9779 66.5312 43.4805C67.2474 41.9831 68.4193 40.1927 70.0469 38.1094C68.4193 39.8672 66.3359 41.9505 63.7969 44.3594C61.3229 46.7682 58.6211 49.0469 55.6914 51.1953C52.7617 53.3438 49.7344 55.1667 46.6094 56.6641C43.4844 58.1615 40.5221 58.9102 37.7227 58.9102C35.8997 58.9102 34.4023 58.5195 33.2305 57.7383C32.1237 56.8919 31.2448 55.8503 30.5938 54.6133C29.9427 53.3112 29.487 51.8789 29.2266 50.3164C29.0312 48.6888 28.9336 47.0612 28.9336 45.4336C28.9336 44.0664 29.2917 42.1133 30.0078 39.5742C30.724 36.9701 31.668 34.138 32.8398 31.0781C34.0117 28.0182 35.3138 24.8932 36.7461 21.7031C38.1784 18.513 39.6432 15.6159 41.1406 13.0117C42.638 10.4076 44.0378 8.29167 45.3398 6.66406C46.707 4.97135 47.8464 4.125 48.7578 4.125C49.6042 4.125 50.3529 4.32031 51.0039 4.71094C51.6549 5.10156 51.9805 5.7526 51.9805 6.66406C51.9805 7.90104 51.6549 9.04036 51.0039 10.082C50.3529 11.0586 49.3438 11.6445 47.9766 11.8398C47.0651 12.8815 46.0234 14.4115 44.8516 16.4297C43.7448 18.3828 42.638 20.5964 41.5312 23.0703C40.4245 25.4792 39.3828 28.0182 38.4062 30.6875C37.4297 33.3568 36.681 35.8958 36.1602 38.3047C35.7044 40.7135 35.5091 42.8945 35.5742 44.8477C35.6393 46.8008 36.1602 48.2656 37.1367 49.2422C38.1133 50.2188 39.5781 50.6094 41.5312 50.4141C43.4844 50.2188 46.0885 49.1771 49.3438 47.2891C52.6641 44.8802 55.7891 42.2435 58.7188 39.3789C61.6484 36.5143 64.3503 33.6172 66.8242 30.6875C69.2982 27.7578 71.5117 24.9258 73.4648 22.1914C75.418 19.3919 77.1107 16.8854 78.543 14.6719C79.9753 12.3932 81.1146 10.5052 81.9609 9.00781C82.8073 7.51042 83.3607 6.56641 83.6211 6.17578C84.3372 5.13411 84.9557 4.28776 85.4766 3.63672C85.9974 2.92057 86.5508 2.36719 87.1367 1.97656C87.7878 1.58594 88.5365 1.32552 89.3828 1.19531C90.2292 1.0651 91.3685 1 92.8008 1C92.2799 2.75781 91.5638 4.71094 90.6523 6.85938C89.7409 8.94271 88.4714 11.6771 86.8438 15.0625C85.2812 18.3828 83.2956 22.6471 80.8867 27.8555C78.4779 32.9987 75.5482 39.5417 72.0977 47.4844C68.7122 55.362 64.7083 64.8672 60.0859 76C55.5286 87.1328 50.2552 100.349 44.2656 115.648C42.8984 118.383 40.9453 121.41 38.4062 124.73C35.9323 128.051 33.1979 131.273 30.2031 134.398C27.2734 137.589 24.2461 140.486 21.1211 143.09C17.931 145.694 15.0013 147.68 12.332 149.047C9.59766 150.414 7.22135 150.935 5.20312 150.609C3.1849 150.284 1.85026 148.786 1.19922 146.117Z"/>
<path d="M85.6719 66.7227C86.2578 63.0117 87.3646 59.5938 88.9922 56.4688C90.6198 53.3438 92.4753 50.6419 94.5586 48.3633C96.707 46.0195 99.0182 44.099 101.492 42.6016C103.966 41.1042 106.375 40.1602 108.719 39.7695C111.062 39.3138 113.211 39.4115 115.164 40.0625C117.182 40.7135 118.81 42.0156 120.047 43.9688C120.047 45.4661 119.689 46.8984 118.973 48.2656C118.322 49.6328 117.573 51 116.727 52.3672C115.945 53.7344 115.197 55.1341 114.48 56.5664C113.829 57.9987 113.504 59.5286 113.504 61.1562C113.504 62.849 113.862 64.2161 114.578 65.2578C115.359 66.2344 116.694 66.7227 118.582 66.7227C120.145 66.7227 121.642 66.4948 123.074 66.0391C124.572 65.5833 126.069 65.3555 127.566 65.3555C127.827 65.3555 128.25 65.388 128.836 65.4531C129.487 65.4531 129.91 65.4531 130.105 65.4531C129.324 66.5599 128.315 67.5039 127.078 68.2852C125.841 69.0664 124.539 69.75 123.172 70.3359C121.805 70.8568 120.372 71.2474 118.875 71.5078C117.443 71.7682 116.108 71.8984 114.871 71.8984C113.699 71.8984 112.658 71.638 111.746 71.1172C110.835 70.5964 110.053 69.9128 109.402 69.0664C108.751 68.2201 108.23 67.276 107.84 66.2344C107.514 65.1276 107.352 64.0534 107.352 63.0117C106.375 64.1185 105.301 65.2904 104.129 66.5273C103.022 67.6992 101.818 68.7734 100.516 69.75C99.2786 70.7266 97.9115 71.5404 96.4141 72.1914C94.9818 72.8424 93.4844 73.168 91.9219 73.168C90.2292 73.168 88.7643 72.5495 87.5273 71.3125C86.2904 70.0104 85.6719 68.4805 85.6719 66.7227ZM92.1172 63.6953C92.1172 64.2161 92.1172 64.8021 92.1172 65.4531C92.1823 66.1042 92.6055 66.5273 93.3867 66.7227C95.0143 66.332 96.8698 65.4857 98.9531 64.1836C101.036 62.8164 102.99 61.2539 104.812 59.4961C106.635 57.6732 108.165 55.7526 109.402 53.7344C110.639 51.651 111.258 49.6654 111.258 47.7773C111.258 47.6471 111.225 47.4518 111.16 47.1914C111.16 46.8659 111.16 46.638 111.16 46.5078C108.947 46.5078 106.701 46.9635 104.422 47.875C102.143 48.7865 100.092 50.056 98.2695 51.6836C96.4466 53.2461 94.9492 55.069 93.7773 57.1523C92.6706 59.2357 92.1172 61.4167 92.1172 63.6953Z"/>
<path d="M128.543 68.6758C128.543 68.0898 128.543 67.6341 128.543 67.3086C128.543 66.9831 128.576 66.6901 128.641 66.4297C128.771 66.1042 128.934 65.7786 129.129 65.4531C129.324 65.1276 129.585 64.7044 129.91 64.1836C130.431 63.2721 131.408 61.6771 132.84 59.3984C134.272 57.1198 135.802 54.7109 137.43 52.1719C139.057 49.6328 140.587 47.224 142.02 44.9453C143.517 42.6667 144.559 41.0716 145.145 40.1602C145.21 40.0951 145.372 40.0625 145.633 40.0625C145.958 40.0625 146.186 40.0625 146.316 40.0625C146.447 40.0625 146.674 40.0625 147 40.0625C147.326 40.0625 147.521 40.0951 147.586 40.1602C147.651 40.2253 147.781 40.388 147.977 40.6484C148.237 40.9089 148.497 41.2018 148.758 41.5273C149.083 41.7878 149.344 42.0482 149.539 42.3086C149.799 42.569 149.995 42.6992 150.125 42.6992C150.711 42.6992 151.329 42.5039 151.98 42.1133C152.632 41.7227 153.283 41.2995 153.934 40.8438C154.65 40.3229 155.366 39.8672 156.082 39.4766C156.798 39.0859 157.547 38.8906 158.328 38.8906C159.174 38.8906 159.956 39.0859 160.672 39.4766C161.388 39.8672 162.007 40.3555 162.527 40.9414C163.048 41.5273 163.439 42.1784 163.699 42.8945C164.025 43.6107 164.188 44.3268 164.188 45.043C164.188 46.5404 163.96 47.9727 163.504 49.3398C163.113 50.707 162.658 52.0742 162.137 53.4414C161.616 54.7435 161.128 56.0781 160.672 57.4453C160.281 58.7474 160.086 60.1146 160.086 61.5469C160.086 62.9792 160.249 64.0208 160.574 64.6719C160.9 65.2578 161.811 65.5508 163.309 65.5508C165.066 65.5508 166.727 65.2904 168.289 64.7695C169.917 64.2487 171.577 63.9883 173.27 63.9883C173.27 65.5508 172.781 66.8529 171.805 67.8945C170.893 68.9362 169.721 69.7826 168.289 70.4336C166.922 71.0195 165.424 71.4427 163.797 71.7031C162.234 71.8984 160.802 71.9961 159.5 71.9961C157.026 71.9961 155.203 71.3125 154.031 69.9453C152.924 68.513 152.371 66.625 152.371 64.2812C152.371 62.7188 152.632 61.2539 153.152 59.8867C153.738 58.5195 154.357 57.1849 155.008 55.8828C155.724 54.5807 156.375 53.2786 156.961 51.9766C157.547 50.6745 157.84 49.2747 157.84 47.7773C157.84 47.3867 157.775 46.8659 157.645 46.2148C157.514 45.5638 157.091 45.2383 156.375 45.2383C154.227 45.2383 152.273 45.9219 150.516 47.2891C148.823 48.6562 147.26 50.3815 145.828 52.4648C144.461 54.5482 143.191 56.7943 142.02 59.2031C140.913 61.612 139.839 63.8581 138.797 65.9414C137.82 68.0247 136.876 69.75 135.965 71.1172C135.053 72.4844 134.109 73.168 133.133 73.168C131.766 73.168 130.659 72.7448 129.812 71.8984C128.966 71.0521 128.543 69.9779 128.543 68.6758Z"/>
<path d="M260.965 53.0508C260.053 53.0508 259.142 53.5716 258.23 54.6133C257.319 55.5898 256.31 56.8268 255.203 58.3242C254.161 59.8216 252.99 61.4818 251.688 63.3047C250.385 65.0625 248.888 66.6901 247.195 68.1875C245.568 69.6849 243.712 70.9544 241.629 71.9961C239.546 72.9727 237.169 73.4609 234.5 73.4609C233.263 73.4609 231.831 73.3958 230.203 73.2656C228.641 73.2005 227.143 72.9727 225.711 72.582C224.344 72.1263 223.172 71.4427 222.195 70.5312C221.284 69.5547 220.828 68.2201 220.828 66.5273C220.828 64.2487 221.512 62.1979 222.879 60.375C224.311 58.487 226.134 56.7943 228.348 55.2969C230.626 53.7995 233.133 52.4974 235.867 51.3906C238.667 50.2839 241.434 49.3398 244.168 48.5586C246.902 47.7773 249.474 47.1589 251.883 46.7031C254.292 46.1823 256.245 45.7917 257.742 45.5312L276.785 15.1602C277.632 13.793 278.771 12.3607 280.203 10.8633C281.635 9.36589 283.198 7.9987 284.891 6.76172C286.583 5.45964 288.341 4.38542 290.164 3.53906C292.052 2.69271 293.842 2.26953 295.535 2.26953C295.861 2.26953 296.447 2.33464 297.293 2.46484C298.204 2.59505 299.083 3.05078 299.93 3.83203C300.841 4.61328 301.622 5.88281 302.273 7.64062C302.99 9.39844 303.348 11.9049 303.348 15.1602C302.892 15.2904 302.469 15.5182 302.078 15.8438C301.688 16.1042 301.232 16.3971 300.711 16.7227C300.255 16.9831 299.702 17.2435 299.051 17.5039C298.465 17.6992 297.781 17.7969 297 17.7969C298.042 15.6484 298.4 13.9557 298.074 12.7188C297.814 11.4167 297.163 10.5378 296.121 10.082C295.079 9.6263 293.777 9.52865 292.215 9.78906C290.652 10.0495 289.09 10.6029 287.527 11.4492C285.965 12.2305 284.533 13.2721 283.23 14.5742C281.993 15.8763 281.115 17.3411 280.594 18.9688L264.09 46.8984V48.168C266.759 50.056 268.777 52.1068 270.145 54.3203C271.577 56.5339 272.651 58.7799 273.367 61.0586C274.148 63.2721 274.734 65.4531 275.125 67.6016C275.516 69.75 276.004 71.6706 276.59 73.3633C277.241 75.1211 278.12 76.5534 279.227 77.6602C280.398 78.832 282.124 79.5482 284.402 79.8086C284.402 79.8737 284.402 79.9714 284.402 80.1016C284.467 80.2318 284.5 80.3294 284.5 80.3945C284.5 81.1758 284.174 81.7617 283.523 82.1523C282.938 82.6081 282.221 82.9336 281.375 83.1289C280.529 83.3893 279.65 83.5521 278.738 83.6172C277.892 83.6823 277.208 83.7148 276.688 83.7148C275.32 82.543 274.181 80.9805 273.27 79.0273C272.423 77.0742 271.674 74.9909 271.023 72.7773C270.372 70.4987 269.754 68.2201 269.168 65.9414C268.647 63.5977 268.029 61.5143 267.312 59.6914C266.596 57.8034 265.75 56.2409 264.773 55.0039C263.797 53.7669 262.527 53.1159 260.965 53.0508ZM226.102 65.1602C226.102 65.9414 226.362 66.5599 226.883 67.0156C227.469 67.4714 228.152 67.7969 228.934 67.9922C229.715 68.1875 230.496 68.3177 231.277 68.3828C232.124 68.4479 232.775 68.4805 233.23 68.4805C234.988 68.4805 236.941 68.0247 239.09 67.1133C241.238 66.1367 243.224 64.8997 245.047 63.4023C246.935 61.9049 248.497 60.2448 249.734 58.4219C251.036 56.5339 251.688 54.6458 251.688 52.7578C246.609 52.7578 241.857 53.6693 237.43 55.4922C233.068 57.25 229.324 60.2773 226.199 64.5742C226.199 64.6393 226.167 64.737 226.102 64.8672C226.102 64.9974 226.102 65.0951 226.102 65.1602Z"/>
<path d="M287.332 66.7227C287.332 65.8112 287.43 65.0299 287.625 64.3789C287.82 63.6628 288.178 62.7513 288.699 61.6445C289.155 60.9935 289.969 59.7565 291.141 57.9336C292.378 56.1107 293.647 54.1901 294.949 52.1719C296.316 50.1536 297.586 48.2656 298.758 46.5078C299.995 44.6849 300.841 43.4154 301.297 42.6992C301.883 41.8529 302.339 41.3971 302.664 41.332C302.99 41.2669 303.608 41.2344 304.52 41.2344C305.105 41.2344 305.724 41.2669 306.375 41.332C307.091 41.3971 307.547 41.8529 307.742 42.6992C306.831 44.9128 305.594 47.0286 304.031 49.0469C302.534 51 301.036 52.9531 299.539 54.9062C298.107 56.8594 296.837 58.8776 295.73 60.9609C294.624 62.9792 294.07 65.1602 294.07 67.5039C294.331 67.5039 294.721 67.5365 295.242 67.6016C295.828 67.6667 296.447 67.7318 297.098 67.7969C297.749 67.862 298.335 67.9271 298.855 67.9922C299.441 68.0573 299.865 68.0573 300.125 67.9922C300.516 67.9271 301.167 67.7969 302.078 67.6016C303.055 67.3411 304.064 67.0807 305.105 66.8203C306.212 66.5599 307.254 66.2995 308.23 66.0391C309.207 65.7786 309.891 65.5833 310.281 65.4531C310.281 65.5833 310.281 65.8112 310.281 66.1367C310.346 66.3971 310.379 66.5924 310.379 66.7227C310.379 68.0247 309.76 69.099 308.523 69.9453C307.352 70.7917 305.952 71.4753 304.324 71.9961C302.762 72.4518 301.134 72.7773 299.441 72.9727C297.814 73.1029 296.544 73.168 295.633 73.168C294.656 73.168 293.647 73.0703 292.605 72.875C291.629 72.6146 290.75 72.224 289.969 71.7031C289.188 71.1823 288.536 70.5312 288.016 69.75C287.56 68.9036 287.332 67.8945 287.332 66.7227ZM315.75 9.49609C316.596 9.49609 317.378 9.52865 318.094 9.59375C318.81 9.65885 319.428 9.82161 319.949 10.082C320.47 10.3424 320.893 10.7331 321.219 11.2539C321.544 11.7747 321.707 12.4909 321.707 13.4023C321.707 13.793 321.707 14.2161 321.707 14.6719C321.707 15.1276 321.642 15.5833 321.512 16.0391C321.447 16.4297 321.284 16.7878 321.023 17.1133C320.763 17.3737 320.34 17.5039 319.754 17.5039C318.842 17.5039 318.094 17.1784 317.508 16.5273C316.987 15.8763 316.596 15.1276 316.336 14.2812C316.076 13.3698 315.913 12.4583 315.848 11.5469C315.783 10.6354 315.75 9.95182 315.75 9.49609Z"/>
<path d="M311.746 68.1875C311.746 67.2109 312.039 65.8438 312.625 64.0859C313.211 62.263 313.96 60.3099 314.871 58.2266C315.848 56.1432 316.922 54.0273 318.094 51.8789C319.331 49.7305 320.568 47.7773 321.805 46.0195C323.042 44.2617 324.214 42.8294 325.32 41.7227C326.427 40.6159 327.404 40.0625 328.25 40.0625C330.073 40.0625 330.984 40.9414 330.984 42.6992C330.984 43.4805 330.822 44.1315 330.496 44.6523C330.236 45.1732 329.91 45.6615 329.52 46.1172C329.129 46.5729 328.706 47.0286 328.25 47.4844C327.794 47.875 327.404 48.3633 327.078 48.9492C326.492 49.9258 325.776 51.2604 324.93 52.9531C324.083 54.6458 323.237 56.306 322.391 57.9336C321.609 59.4961 320.926 60.8958 320.34 62.1328C319.754 63.3698 319.461 64.0534 319.461 64.1836V65.4531C322 64.9974 324.441 63.9232 326.785 62.2305C329.129 60.4727 331.342 58.4219 333.426 56.0781C335.574 53.7344 337.592 51.293 339.48 48.7539C341.434 46.1497 343.257 43.7734 344.949 41.625C346.642 39.4115 348.237 37.5885 349.734 36.1562C351.232 34.724 352.632 34.0078 353.934 34.0078C353.934 36.4167 353.445 38.5977 352.469 40.5508C351.492 42.5039 350.418 44.4245 349.246 46.3125C348.139 48.2005 347.098 50.1536 346.121 52.1719C345.145 54.125 344.656 56.3385 344.656 58.8125C344.656 59.8542 345.275 60.7982 346.512 61.6445C347.814 62.4258 349.279 63.1094 350.906 63.6953C352.599 64.2161 354.227 64.6393 355.789 64.9648C357.352 65.2904 358.426 65.4857 359.012 65.5508V68.0898C357.514 68.1549 355.659 68.1875 353.445 68.1875C351.232 68.1224 349.018 67.862 346.805 67.4062C344.591 66.9505 342.573 66.2018 340.75 65.1602C338.992 64.0534 337.82 62.4583 337.234 60.375C335.542 61.4818 333.914 62.7839 332.352 64.2812C330.789 65.7786 329.161 67.1784 327.469 68.4805C325.841 69.7826 324.116 70.8893 322.293 71.8008C320.47 72.7122 318.484 73.168 316.336 73.168C315.034 73.168 313.927 72.6146 313.016 71.5078C312.169 70.401 311.746 69.2943 311.746 68.1875Z"/>
</mask>
<path d="M1.19922 146.117C6.40755 144.62 11.3229 141.885 15.9453 137.914C20.5026 134.008 24.7669 129.32 28.7383 123.852C32.7747 118.448 36.4857 112.556 39.8711 106.176C43.3216 99.7956 46.4466 93.3828 49.2461 86.9375C52.1107 80.4922 54.6823 74.2747 56.9609 68.2852C59.2396 62.2956 61.2253 57.0547 62.918 52.5625C64.6758 48.0052 65.8802 44.9779 66.5312 43.4805C67.2474 41.9831 68.4193 40.1927 70.0469 38.1094C68.4193 39.8672 66.3359 41.9505 63.7969 44.3594C61.3229 46.7682 58.6211 49.0469 55.6914 51.1953C52.7617 53.3438 49.7344 55.1667 46.6094 56.6641C43.4844 58.1615 40.5221 58.9102 37.7227 58.9102C35.8997 58.9102 34.4023 58.5195 33.2305 57.7383C32.1237 56.8919 31.2448 55.8503 30.5938 54.6133C29.9427 53.3112 29.487 51.8789 29.2266 50.3164C29.0312 48.6888 28.9336 47.0612 28.9336 45.4336C28.9336 44.0664 29.2917 42.1133 30.0078 39.5742C30.724 36.9701 31.668 34.138 32.8398 31.0781C34.0117 28.0182 35.3138 24.8932 36.7461 21.7031C38.1784 18.513 39.6432 15.6159 41.1406 13.0117C42.638 10.4076 44.0378 8.29167 45.3398 6.66406C46.707 4.97135 47.8464 4.125 48.7578 4.125C49.6042 4.125 50.3529 4.32031 51.0039 4.71094C51.6549 5.10156 51.9805 5.7526 51.9805 6.66406C51.9805 7.90104 51.6549 9.04036 51.0039 10.082C50.3529 11.0586 49.3438 11.6445 47.9766 11.8398C47.0651 12.8815 46.0234 14.4115 44.8516 16.4297C43.7448 18.3828 42.638 20.5964 41.5312 23.0703C40.4245 25.4792 39.3828 28.0182 38.4062 30.6875C37.4297 33.3568 36.681 35.8958 36.1602 38.3047C35.7044 40.7135 35.5091 42.8945 35.5742 44.8477C35.6393 46.8008 36.1602 48.2656 37.1367 49.2422C38.1133 50.2188 39.5781 50.6094 41.5312 50.4141C43.4844 50.2188 46.0885 49.1771 49.3438 47.2891C52.6641 44.8802 55.7891 42.2435 58.7188 39.3789C61.6484 36.5143 64.3503 33.6172 66.8242 30.6875C69.2982 27.7578 71.5117 24.9258 73.4648 22.1914C75.418 19.3919 77.1107 16.8854 78.543 14.6719C79.9753 12.3932 81.1146 10.5052 81.9609 9.00781C82.8073 7.51042 83.3607 6.56641 83.6211 6.17578C84.3372 5.13411 84.9557 4.28776 85.4766 3.63672C85.9974 2.92057 86.5508 2.36719 87.1367 1.97656C87.7878 1.58594 88.5365 1.32552 89.3828 1.19531C90.2292 1.0651 91.3685 1 92.8008 1C92.2799 2.75781 91.5638 4.71094 90.6523 6.85938C89.7409 8.94271 88.4714 11.6771 86.8438 15.0625C85.2812 18.3828 83.2956 22.6471 80.8867 27.8555C78.4779 32.9987 75.5482 39.5417 72.0977 47.4844C68.7122 55.362 64.7083 64.8672 60.0859 76C55.5286 87.1328 50.2552 100.349 44.2656 115.648C42.8984 118.383 40.9453 121.41 38.4062 124.73C35.9323 128.051 33.1979 131.273 30.2031 134.398C27.2734 137.589 24.2461 140.486 21.1211 143.09C17.931 145.694 15.0013 147.68 12.332 149.047C9.59766 150.414 7.22135 150.935 5.20312 150.609C3.1849 150.284 1.85026 148.786 1.19922 146.117Z" fill="#080808"/>
<path d="M85.6719 66.7227C86.2578 63.0117 87.3646 59.5938 88.9922 56.4688C90.6198 53.3438 92.4753 50.6419 94.5586 48.3633C96.707 46.0195 99.0182 44.099 101.492 42.6016C103.966 41.1042 106.375 40.1602 108.719 39.7695C111.062 39.3138 113.211 39.4115 115.164 40.0625C117.182 40.7135 118.81 42.0156 120.047 43.9688C120.047 45.4661 119.689 46.8984 118.973 48.2656C118.322 49.6328 117.573 51 116.727 52.3672C115.945 53.7344 115.197 55.1341 114.48 56.5664C113.829 57.9987 113.504 59.5286 113.504 61.1562C113.504 62.849 113.862 64.2161 114.578 65.2578C115.359 66.2344 116.694 66.7227 118.582 66.7227C120.145 66.7227 121.642 66.4948 123.074 66.0391C124.572 65.5833 126.069 65.3555 127.566 65.3555C127.827 65.3555 128.25 65.388 128.836 65.4531C129.487 65.4531 129.91 65.4531 130.105 65.4531C129.324 66.5599 128.315 67.5039 127.078 68.2852C125.841 69.0664 124.539 69.75 123.172 70.3359C121.805 70.8568 120.372 71.2474 118.875 71.5078C117.443 71.7682 116.108 71.8984 114.871 71.8984C113.699 71.8984 112.658 71.638 111.746 71.1172C110.835 70.5964 110.053 69.9128 109.402 69.0664C108.751 68.2201 108.23 67.276 107.84 66.2344C107.514 65.1276 107.352 64.0534 107.352 63.0117C106.375 64.1185 105.301 65.2904 104.129 66.5273C103.022 67.6992 101.818 68.7734 100.516 69.75C99.2786 70.7266 97.9115 71.5404 96.4141 72.1914C94.9818 72.8424 93.4844 73.168 91.9219 73.168C90.2292 73.168 88.7643 72.5495 87.5273 71.3125C86.2904 70.0104 85.6719 68.4805 85.6719 66.7227ZM92.1172 63.6953C92.1172 64.2161 92.1172 64.8021 92.1172 65.4531C92.1823 66.1042 92.6055 66.5273 93.3867 66.7227C95.0143 66.332 96.8698 65.4857 98.9531 64.1836C101.036 62.8164 102.99 61.2539 104.812 59.4961C106.635 57.6732 108.165 55.7526 109.402 53.7344C110.639 51.651 111.258 49.6654 111.258 47.7773C111.258 47.6471 111.225 47.4518 111.16 47.1914C111.16 46.8659 111.16 46.638 111.16 46.5078C108.947 46.5078 106.701 46.9635 104.422 47.875C102.143 48.7865 100.092 50.056 98.2695 51.6836C96.4466 53.2461 94.9492 55.069 93.7773 57.1523C92.6706 59.2357 92.1172 61.4167 92.1172 63.6953Z" fill="#080808"/>
<path d="M128.543 68.6758C128.543 68.0898 128.543 67.6341 128.543 67.3086C128.543 66.9831 128.576 66.6901 128.641 66.4297C128.771 66.1042 128.934 65.7786 129.129 65.4531C129.324 65.1276 129.585 64.7044 129.91 64.1836C130.431 63.2721 131.408 61.6771 132.84 59.3984C134.272 57.1198 135.802 54.7109 137.43 52.1719C139.057 49.6328 140.587 47.224 142.02 44.9453C143.517 42.6667 144.559 41.0716 145.145 40.1602C145.21 40.0951 145.372 40.0625 145.633 40.0625C145.958 40.0625 146.186 40.0625 146.316 40.0625C146.447 40.0625 146.674 40.0625 147 40.0625C147.326 40.0625 147.521 40.0951 147.586 40.1602C147.651 40.2253 147.781 40.388 147.977 40.6484C148.237 40.9089 148.497 41.2018 148.758 41.5273C149.083 41.7878 149.344 42.0482 149.539 42.3086C149.799 42.569 149.995 42.6992 150.125 42.6992C150.711 42.6992 151.329 42.5039 151.98 42.1133C152.632 41.7227 153.283 41.2995 153.934 40.8438C154.65 40.3229 155.366 39.8672 156.082 39.4766C156.798 39.0859 157.547 38.8906 158.328 38.8906C159.174 38.8906 159.956 39.0859 160.672 39.4766C161.388 39.8672 162.007 40.3555 162.527 40.9414C163.048 41.5273 163.439 42.1784 163.699 42.8945C164.025 43.6107 164.188 44.3268 164.188 45.043C164.188 46.5404 163.96 47.9727 163.504 49.3398C163.113 50.707 162.658 52.0742 162.137 53.4414C161.616 54.7435 161.128 56.0781 160.672 57.4453C160.281 58.7474 160.086 60.1146 160.086 61.5469C160.086 62.9792 160.249 64.0208 160.574 64.6719C160.9 65.2578 161.811 65.5508 163.309 65.5508C165.066 65.5508 166.727 65.2904 168.289 64.7695C169.917 64.2487 171.577 63.9883 173.27 63.9883C173.27 65.5508 172.781 66.8529 171.805 67.8945C170.893 68.9362 169.721 69.7826 168.289 70.4336C166.922 71.0195 165.424 71.4427 163.797 71.7031C162.234 71.8984 160.802 71.9961 159.5 71.9961C157.026 71.9961 155.203 71.3125 154.031 69.9453C152.924 68.513 152.371 66.625 152.371 64.2812C152.371 62.7188 152.632 61.2539 153.152 59.8867C153.738 58.5195 154.357 57.1849 155.008 55.8828C155.724 54.5807 156.375 53.2786 156.961 51.9766C157.547 50.6745 157.84 49.2747 157.84 47.7773C157.84 47.3867 157.775 46.8659 157.645 46.2148C157.514 45.5638 157.091 45.2383 156.375 45.2383C154.227 45.2383 152.273 45.9219 150.516 47.2891C148.823 48.6562 147.26 50.3815 145.828 52.4648C144.461 54.5482 143.191 56.7943 142.02 59.2031C140.913 61.612 139.839 63.8581 138.797 65.9414C137.82 68.0247 136.876 69.75 135.965 71.1172C135.053 72.4844 134.109 73.168 133.133 73.168C131.766 73.168 130.659 72.7448 129.812 71.8984C128.966 71.0521 128.543 69.9779 128.543 68.6758Z" fill="#080808"/>
<path d="M260.965 53.0508C260.053 53.0508 259.142 53.5716 258.23 54.6133C257.319 55.5898 256.31 56.8268 255.203 58.3242C254.161 59.8216 252.99 61.4818 251.688 63.3047C250.385 65.0625 248.888 66.6901 247.195 68.1875C245.568 69.6849 243.712 70.9544 241.629 71.9961C239.546 72.9727 237.169 73.4609 234.5 73.4609C233.263 73.4609 231.831 73.3958 230.203 73.2656C228.641 73.2005 227.143 72.9727 225.711 72.582C224.344 72.1263 223.172 71.4427 222.195 70.5312C221.284 69.5547 220.828 68.2201 220.828 66.5273C220.828 64.2487 221.512 62.1979 222.879 60.375C224.311 58.487 226.134 56.7943 228.348 55.2969C230.626 53.7995 233.133 52.4974 235.867 51.3906C238.667 50.2839 241.434 49.3398 244.168 48.5586C246.902 47.7773 249.474 47.1589 251.883 46.7031C254.292 46.1823 256.245 45.7917 257.742 45.5312L276.785 15.1602C277.632 13.793 278.771 12.3607 280.203 10.8633C281.635 9.36589 283.198 7.9987 284.891 6.76172C286.583 5.45964 288.341 4.38542 290.164 3.53906C292.052 2.69271 293.842 2.26953 295.535 2.26953C295.861 2.26953 296.447 2.33464 297.293 2.46484C298.204 2.59505 299.083 3.05078 299.93 3.83203C300.841 4.61328 301.622 5.88281 302.273 7.64062C302.99 9.39844 303.348 11.9049 303.348 15.1602C302.892 15.2904 302.469 15.5182 302.078 15.8438C301.688 16.1042 301.232 16.3971 300.711 16.7227C300.255 16.9831 299.702 17.2435 299.051 17.5039C298.465 17.6992 297.781 17.7969 297 17.7969C298.042 15.6484 298.4 13.9557 298.074 12.7188C297.814 11.4167 297.163 10.5378 296.121 10.082C295.079 9.6263 293.777 9.52865 292.215 9.78906C290.652 10.0495 289.09 10.6029 287.527 11.4492C285.965 12.2305 284.533 13.2721 283.23 14.5742C281.993 15.8763 281.115 17.3411 280.594 18.9688L264.09 46.8984V48.168C266.759 50.056 268.777 52.1068 270.145 54.3203C271.577 56.5339 272.651 58.7799 273.367 61.0586C274.148 63.2721 274.734 65.4531 275.125 67.6016C275.516 69.75 276.004 71.6706 276.59 73.3633C277.241 75.1211 278.12 76.5534 279.227 77.6602C280.398 78.832 282.124 79.5482 284.402 79.8086C284.402 79.8737 284.402 79.9714 284.402 80.1016C284.467 80.2318 284.5 80.3294 284.5 80.3945C284.5 81.1758 284.174 81.7617 283.523 82.1523C282.938 82.6081 282.221 82.9336 281.375 83.1289C280.529 83.3893 279.65 83.5521 278.738 83.6172C277.892 83.6823 277.208 83.7148 276.688 83.7148C275.32 82.543 274.181 80.9805 273.27 79.0273C272.423 77.0742 271.674 74.9909 271.023 72.7773C270.372 70.4987 269.754 68.2201 269.168 65.9414C268.647 63.5977 268.029 61.5143 267.312 59.6914C266.596 57.8034 265.75 56.2409 264.773 55.0039C263.797 53.7669 262.527 53.1159 260.965 53.0508ZM226.102 65.1602C226.102 65.9414 226.362 66.5599 226.883 67.0156C227.469 67.4714 228.152 67.7969 228.934 67.9922C229.715 68.1875 230.496 68.3177 231.277 68.3828C232.124 68.4479 232.775 68.4805 233.23 68.4805C234.988 68.4805 236.941 68.0247 239.09 67.1133C241.238 66.1367 243.224 64.8997 245.047 63.4023C246.935 61.9049 248.497 60.2448 249.734 58.4219C251.036 56.5339 251.688 54.6458 251.688 52.7578C246.609 52.7578 241.857 53.6693 237.43 55.4922C233.068 57.25 229.324 60.2773 226.199 64.5742C226.199 64.6393 226.167 64.737 226.102 64.8672C226.102 64.9974 226.102 65.0951 226.102 65.1602Z" fill="#080808"/>
<path d="M287.332 66.7227C287.332 65.8112 287.43 65.0299 287.625 64.3789C287.82 63.6628 288.178 62.7513 288.699 61.6445C289.155 60.9935 289.969 59.7565 291.141 57.9336C292.378 56.1107 293.647 54.1901 294.949 52.1719C296.316 50.1536 297.586 48.2656 298.758 46.5078C299.995 44.6849 300.841 43.4154 301.297 42.6992C301.883 41.8529 302.339 41.3971 302.664 41.332C302.99 41.2669 303.608 41.2344 304.52 41.2344C305.105 41.2344 305.724 41.2669 306.375 41.332C307.091 41.3971 307.547 41.8529 307.742 42.6992C306.831 44.9128 305.594 47.0286 304.031 49.0469C302.534 51 301.036 52.9531 299.539 54.9062C298.107 56.8594 296.837 58.8776 295.73 60.9609C294.624 62.9792 294.07 65.1602 294.07 67.5039C294.331 67.5039 294.721 67.5365 295.242 67.6016C295.828 67.6667 296.447 67.7318 297.098 67.7969C297.749 67.862 298.335 67.9271 298.855 67.9922C299.441 68.0573 299.865 68.0573 300.125 67.9922C300.516 67.9271 301.167 67.7969 302.078 67.6016C303.055 67.3411 304.064 67.0807 305.105 66.8203C306.212 66.5599 307.254 66.2995 308.23 66.0391C309.207 65.7786 309.891 65.5833 310.281 65.4531C310.281 65.5833 310.281 65.8112 310.281 66.1367C310.346 66.3971 310.379 66.5924 310.379 66.7227C310.379 68.0247 309.76 69.099 308.523 69.9453C307.352 70.7917 305.952 71.4753 304.324 71.9961C302.762 72.4518 301.134 72.7773 299.441 72.9727C297.814 73.1029 296.544 73.168 295.633 73.168C294.656 73.168 293.647 73.0703 292.605 72.875C291.629 72.6146 290.75 72.224 289.969 71.7031C289.188 71.1823 288.536 70.5312 288.016 69.75C287.56 68.9036 287.332 67.8945 287.332 66.7227ZM315.75 9.49609C316.596 9.49609 317.378 9.52865 318.094 9.59375C318.81 9.65885 319.428 9.82161 319.949 10.082C320.47 10.3424 320.893 10.7331 321.219 11.2539C321.544 11.7747 321.707 12.4909 321.707 13.4023C321.707 13.793 321.707 14.2161 321.707 14.6719C321.707 15.1276 321.642 15.5833 321.512 16.0391C321.447 16.4297 321.284 16.7878 321.023 17.1133C320.763 17.3737 320.34 17.5039 319.754 17.5039C318.842 17.5039 318.094 17.1784 317.508 16.5273C316.987 15.8763 316.596 15.1276 316.336 14.2812C316.076 13.3698 315.913 12.4583 315.848 11.5469C315.783 10.6354 315.75 9.95182 315.75 9.49609Z" fill="#080808"/>
<path d="M311.746 68.1875C311.746 67.2109 312.039 65.8438 312.625 64.0859C313.211 62.263 313.96 60.3099 314.871 58.2266C315.848 56.1432 316.922 54.0273 318.094 51.8789C319.331 49.7305 320.568 47.7773 321.805 46.0195C323.042 44.2617 324.214 42.8294 325.32 41.7227C326.427 40.6159 327.404 40.0625 328.25 40.0625C330.073 40.0625 330.984 40.9414 330.984 42.6992C330.984 43.4805 330.822 44.1315 330.496 44.6523C330.236 45.1732 329.91 45.6615 329.52 46.1172C329.129 46.5729 328.706 47.0286 328.25 47.4844C327.794 47.875 327.404 48.3633 327.078 48.9492C326.492 49.9258 325.776 51.2604 324.93 52.9531C324.083 54.6458 323.237 56.306 322.391 57.9336C321.609 59.4961 320.926 60.8958 320.34 62.1328C319.754 63.3698 319.461 64.0534 319.461 64.1836V65.4531C322 64.9974 324.441 63.9232 326.785 62.2305C329.129 60.4727 331.342 58.4219 333.426 56.0781C335.574 53.7344 337.592 51.293 339.48 48.7539C341.434 46.1497 343.257 43.7734 344.949 41.625C346.642 39.4115 348.237 37.5885 349.734 36.1562C351.232 34.724 352.632 34.0078 353.934 34.0078C353.934 36.4167 353.445 38.5977 352.469 40.5508C351.492 42.5039 350.418 44.4245 349.246 46.3125C348.139 48.2005 347.098 50.1536 346.121 52.1719C345.145 54.125 344.656 56.3385 344.656 58.8125C344.656 59.8542 345.275 60.7982 346.512 61.6445C347.814 62.4258 349.279 63.1094 350.906 63.6953C352.599 64.2161 354.227 64.6393 355.789 64.9648C357.352 65.2904 358.426 65.4857 359.012 65.5508V68.0898C357.514 68.1549 355.659 68.1875 353.445 68.1875C351.232 68.1224 349.018 67.862 346.805 67.4062C344.591 66.9505 342.573 66.2018 340.75 65.1602C338.992 64.0534 337.82 62.4583 337.234 60.375C335.542 61.4818 333.914 62.7839 332.352 64.2812C330.789 65.7786 329.161 67.1784 327.469 68.4805C325.841 69.7826 324.116 70.8893 322.293 71.8008C320.47 72.7122 318.484 73.168 316.336 73.168C315.034 73.168 313.927 72.6146 313.016 71.5078C312.169 70.401 311.746 69.2943 311.746 68.1875Z" fill="#080808"/>
<path d="M1.19922 146.117C6.40755 144.62 11.3229 141.885 15.9453 137.914C20.5026 134.008 24.7669 129.32 28.7383 123.852C32.7747 118.448 36.4857 112.556 39.8711 106.176C43.3216 99.7956 46.4466 93.3828 49.2461 86.9375C52.1107 80.4922 54.6823 74.2747 56.9609 68.2852C59.2396 62.2956 61.2253 57.0547 62.918 52.5625C64.6758 48.0052 65.8802 44.9779 66.5312 43.4805C67.2474 41.9831 68.4193 40.1927 70.0469 38.1094C68.4193 39.8672 66.3359 41.9505 63.7969 44.3594C61.3229 46.7682 58.6211 49.0469 55.6914 51.1953C52.7617 53.3438 49.7344 55.1667 46.6094 56.6641C43.4844 58.1615 40.5221 58.9102 37.7227 58.9102C35.8997 58.9102 34.4023 58.5195 33.2305 57.7383C32.1237 56.8919 31.2448 55.8503 30.5938 54.6133C29.9427 53.3112 29.487 51.8789 29.2266 50.3164C29.0312 48.6888 28.9336 47.0612 28.9336 45.4336C28.9336 44.0664 29.2917 42.1133 30.0078 39.5742C30.724 36.9701 31.668 34.138 32.8398 31.0781C34.0117 28.0182 35.3138 24.8932 36.7461 21.7031C38.1784 18.513 39.6432 15.6159 41.1406 13.0117C42.638 10.4076 44.0378 8.29167 45.3398 6.66406C46.707 4.97135 47.8464 4.125 48.7578 4.125C49.6042 4.125 50.3529 4.32031 51.0039 4.71094C51.6549 5.10156 51.9805 5.7526 51.9805 6.66406C51.9805 7.90104 51.6549 9.04036 51.0039 10.082C50.3529 11.0586 49.3438 11.6445 47.9766 11.8398C47.0651 12.8815 46.0234 14.4115 44.8516 16.4297C43.7448 18.3828 42.638 20.5964 41.5312 23.0703C40.4245 25.4792 39.3828 28.0182 38.4062 30.6875C37.4297 33.3568 36.681 35.8958 36.1602 38.3047C35.7044 40.7135 35.5091 42.8945 35.5742 44.8477C35.6393 46.8008 36.1602 48.2656 37.1367 49.2422C38.1133 50.2188 39.5781 50.6094 41.5312 50.4141C43.4844 50.2188 46.0885 49.1771 49.3438 47.2891C52.6641 44.8802 55.7891 42.2435 58.7188 39.3789C61.6484 36.5143 64.3503 33.6172 66.8242 30.6875C69.2982 27.7578 71.5117 24.9258 73.4648 22.1914C75.418 19.3919 77.1107 16.8854 78.543 14.6719C79.9753 12.3932 81.1146 10.5052 81.9609 9.00781C82.8073 7.51042 83.3607 6.56641 83.6211 6.17578C84.3372 5.13411 84.9557 4.28776 85.4766 3.63672C85.9974 2.92057 86.5508 2.36719 87.1367 1.97656C87.7878 1.58594 88.5365 1.32552 89.3828 1.19531C90.2292 1.0651 91.3685 1 92.8008 1C92.2799 2.75781 91.5638 4.71094 90.6523 6.85938C89.7409 8.94271 88.4714 11.6771 86.8438 15.0625C85.2812 18.3828 83.2956 22.6471 80.8867 27.8555C78.4779 32.9987 75.5482 39.5417 72.0977 47.4844C68.7122 55.362 64.7083 64.8672 60.0859 76C55.5286 87.1328 50.2552 100.349 44.2656 115.648C42.8984 118.383 40.9453 121.41 38.4062 124.73C35.9323 128.051 33.1979 131.273 30.2031 134.398C27.2734 137.589 24.2461 140.486 21.1211 143.09C17.931 145.694 15.0013 147.68 12.332 149.047C9.59766 150.414 7.22135 150.935 5.20312 150.609C3.1849 150.284 1.85026 148.786 1.19922 146.117Z" stroke="#080808" stroke-width="2" mask="url(#path-1-outside-1_3634_53)"/>
<path d="M85.6719 66.7227C86.2578 63.0117 87.3646 59.5938 88.9922 56.4688C90.6198 53.3438 92.4753 50.6419 94.5586 48.3633C96.707 46.0195 99.0182 44.099 101.492 42.6016C103.966 41.1042 106.375 40.1602 108.719 39.7695C111.062 39.3138 113.211 39.4115 115.164 40.0625C117.182 40.7135 118.81 42.0156 120.047 43.9688C120.047 45.4661 119.689 46.8984 118.973 48.2656C118.322 49.6328 117.573 51 116.727 52.3672C115.945 53.7344 115.197 55.1341 114.48 56.5664C113.829 57.9987 113.504 59.5286 113.504 61.1562C113.504 62.849 113.862 64.2161 114.578 65.2578C115.359 66.2344 116.694 66.7227 118.582 66.7227C120.145 66.7227 121.642 66.4948 123.074 66.0391C124.572 65.5833 126.069 65.3555 127.566 65.3555C127.827 65.3555 128.25 65.388 128.836 65.4531C129.487 65.4531 129.91 65.4531 130.105 65.4531C129.324 66.5599 128.315 67.5039 127.078 68.2852C125.841 69.0664 124.539 69.75 123.172 70.3359C121.805 70.8568 120.372 71.2474 118.875 71.5078C117.443 71.7682 116.108 71.8984 114.871 71.8984C113.699 71.8984 112.658 71.638 111.746 71.1172C110.835 70.5964 110.053 69.9128 109.402 69.0664C108.751 68.2201 108.23 67.276 107.84 66.2344C107.514 65.1276 107.352 64.0534 107.352 63.0117C106.375 64.1185 105.301 65.2904 104.129 66.5273C103.022 67.6992 101.818 68.7734 100.516 69.75C99.2786 70.7266 97.9115 71.5404 96.4141 72.1914C94.9818 72.8424 93.4844 73.168 91.9219 73.168C90.2292 73.168 88.7643 72.5495 87.5273 71.3125C86.2904 70.0104 85.6719 68.4805 85.6719 66.7227ZM92.1172 63.6953C92.1172 64.2161 92.1172 64.8021 92.1172 65.4531C92.1823 66.1042 92.6055 66.5273 93.3867 66.7227C95.0143 66.332 96.8698 65.4857 98.9531 64.1836C101.036 62.8164 102.99 61.2539 104.812 59.4961C106.635 57.6732 108.165 55.7526 109.402 53.7344C110.639 51.651 111.258 49.6654 111.258 47.7773C111.258 47.6471 111.225 47.4518 111.16 47.1914C111.16 46.8659 111.16 46.638 111.16 46.5078C108.947 46.5078 106.701 46.9635 104.422 47.875C102.143 48.7865 100.092 50.056 98.2695 51.6836C96.4466 53.2461 94.9492 55.069 93.7773 57.1523C92.6706 59.2357 92.1172 61.4167 92.1172 63.6953Z" stroke="#080808" stroke-width="2" mask="url(#path-1-outside-1_3634_53)"/>
<path d="M128.543 68.6758C128.543 68.0898 128.543 67.6341 128.543 67.3086C128.543 66.9831 128.576 66.6901 128.641 66.4297C128.771 66.1042 128.934 65.7786 129.129 65.4531C129.324 65.1276 129.585 64.7044 129.91 64.1836C130.431 63.2721 131.408 61.6771 132.84 59.3984C134.272 57.1198 135.802 54.7109 137.43 52.1719C139.057 49.6328 140.587 47.224 142.02 44.9453C143.517 42.6667 144.559 41.0716 145.145 40.1602C145.21 40.0951 145.372 40.0625 145.633 40.0625C145.958 40.0625 146.186 40.0625 146.316 40.0625C146.447 40.0625 146.674 40.0625 147 40.0625C147.326 40.0625 147.521 40.0951 147.586 40.1602C147.651 40.2253 147.781 40.388 147.977 40.6484C148.237 40.9089 148.497 41.2018 148.758 41.5273C149.083 41.7878 149.344 42.0482 149.539 42.3086C149.799 42.569 149.995 42.6992 150.125 42.6992C150.711 42.6992 151.329 42.5039 151.98 42.1133C152.632 41.7227 153.283 41.2995 153.934 40.8438C154.65 40.3229 155.366 39.8672 156.082 39.4766C156.798 39.0859 157.547 38.8906 158.328 38.8906C159.174 38.8906 159.956 39.0859 160.672 39.4766C161.388 39.8672 162.007 40.3555 162.527 40.9414C163.048 41.5273 163.439 42.1784 163.699 42.8945C164.025 43.6107 164.188 44.3268 164.188 45.043C164.188 46.5404 163.96 47.9727 163.504 49.3398C163.113 50.707 162.658 52.0742 162.137 53.4414C161.616 54.7435 161.128 56.0781 160.672 57.4453C160.281 58.7474 160.086 60.1146 160.086 61.5469C160.086 62.9792 160.249 64.0208 160.574 64.6719C160.9 65.2578 161.811 65.5508 163.309 65.5508C165.066 65.5508 166.727 65.2904 168.289 64.7695C169.917 64.2487 171.577 63.9883 173.27 63.9883C173.27 65.5508 172.781 66.8529 171.805 67.8945C170.893 68.9362 169.721 69.7826 168.289 70.4336C166.922 71.0195 165.424 71.4427 163.797 71.7031C162.234 71.8984 160.802 71.9961 159.5 71.9961C157.026 71.9961 155.203 71.3125 154.031 69.9453C152.924 68.513 152.371 66.625 152.371 64.2812C152.371 62.7188 152.632 61.2539 153.152 59.8867C153.738 58.5195 154.357 57.1849 155.008 55.8828C155.724 54.5807 156.375 53.2786 156.961 51.9766C157.547 50.6745 157.84 49.2747 157.84 47.7773C157.84 47.3867 157.775 46.8659 157.645 46.2148C157.514 45.5638 157.091 45.2383 156.375 45.2383C154.227 45.2383 152.273 45.9219 150.516 47.2891C148.823 48.6562 147.26 50.3815 145.828 52.4648C144.461 54.5482 143.191 56.7943 142.02 59.2031C140.913 61.612 139.839 63.8581 138.797 65.9414C137.82 68.0247 136.876 69.75 135.965 71.1172C135.053 72.4844 134.109 73.168 133.133 73.168C131.766 73.168 130.659 72.7448 129.812 71.8984C128.966 71.0521 128.543 69.9779 128.543 68.6758Z" stroke="#080808" stroke-width="2" mask="url(#path-1-outside-1_3634_53)"/>
<path d="M260.965 53.0508C260.053 53.0508 259.142 53.5716 258.23 54.6133C257.319 55.5898 256.31 56.8268 255.203 58.3242C254.161 59.8216 252.99 61.4818 251.688 63.3047C250.385 65.0625 248.888 66.6901 247.195 68.1875C245.568 69.6849 243.712 70.9544 241.629 71.9961C239.546 72.9727 237.169 73.4609 234.5 73.4609C233.263 73.4609 231.831 73.3958 230.203 73.2656C228.641 73.2005 227.143 72.9727 225.711 72.582C224.344 72.1263 223.172 71.4427 222.195 70.5312C221.284 69.5547 220.828 68.2201 220.828 66.5273C220.828 64.2487 221.512 62.1979 222.879 60.375C224.311 58.487 226.134 56.7943 228.348 55.2969C230.626 53.7995 233.133 52.4974 235.867 51.3906C238.667 50.2839 241.434 49.3398 244.168 48.5586C246.902 47.7773 249.474 47.1589 251.883 46.7031C254.292 46.1823 256.245 45.7917 257.742 45.5312L276.785 15.1602C277.632 13.793 278.771 12.3607 280.203 10.8633C281.635 9.36589 283.198 7.9987 284.891 6.76172C286.583 5.45964 288.341 4.38542 290.164 3.53906C292.052 2.69271 293.842 2.26953 295.535 2.26953C295.861 2.26953 296.447 2.33464 297.293 2.46484C298.204 2.59505 299.083 3.05078 299.93 3.83203C300.841 4.61328 301.622 5.88281 302.273 7.64062C302.99 9.39844 303.348 11.9049 303.348 15.1602C302.892 15.2904 302.469 15.5182 302.078 15.8438C301.688 16.1042 301.232 16.3971 300.711 16.7227C300.255 16.9831 299.702 17.2435 299.051 17.5039C298.465 17.6992 297.781 17.7969 297 17.7969C298.042 15.6484 298.4 13.9557 298.074 12.7188C297.814 11.4167 297.163 10.5378 296.121 10.082C295.079 9.6263 293.777 9.52865 292.215 9.78906C290.652 10.0495 289.09 10.6029 287.527 11.4492C285.965 12.2305 284.533 13.2721 283.23 14.5742C281.993 15.8763 281.115 17.3411 280.594 18.9688L264.09 46.8984V48.168C266.759 50.056 268.777 52.1068 270.145 54.3203C271.577 56.5339 272.651 58.7799 273.367 61.0586C274.148 63.2721 274.734 65.4531 275.125 67.6016C275.516 69.75 276.004 71.6706 276.59 73.3633C277.241 75.1211 278.12 76.5534 279.227 77.6602C280.398 78.832 282.124 79.5482 284.402 79.8086C284.402 79.8737 284.402 79.9714 284.402 80.1016C284.467 80.2318 284.5 80.3294 284.5 80.3945C284.5 81.1758 284.174 81.7617 283.523 82.1523C282.938 82.6081 282.221 82.9336 281.375 83.1289C280.529 83.3893 279.65 83.5521 278.738 83.6172C277.892 83.6823 277.208 83.7148 276.688 83.7148C275.32 82.543 274.181 80.9805 273.27 79.0273C272.423 77.0742 271.674 74.9909 271.023 72.7773C270.372 70.4987 269.754 68.2201 269.168 65.9414C268.647 63.5977 268.029 61.5143 267.312 59.6914C266.596 57.8034 265.75 56.2409 264.773 55.0039C263.797 53.7669 262.527 53.1159 260.965 53.0508ZM226.102 65.1602C226.102 65.9414 226.362 66.5599 226.883 67.0156C227.469 67.4714 228.152 67.7969 228.934 67.9922C229.715 68.1875 230.496 68.3177 231.277 68.3828C232.124 68.4479 232.775 68.4805 233.23 68.4805C234.988 68.4805 236.941 68.0247 239.09 67.1133C241.238 66.1367 243.224 64.8997 245.047 63.4023C246.935 61.9049 248.497 60.2448 249.734 58.4219C251.036 56.5339 251.688 54.6458 251.688 52.7578C246.609 52.7578 241.857 53.6693 237.43 55.4922C233.068 57.25 229.324 60.2773 226.199 64.5742C226.199 64.6393 226.167 64.737 226.102 64.8672C226.102 64.9974 226.102 65.0951 226.102 65.1602Z" stroke="#080808" stroke-width="2" mask="url(#path-1-outside-1_3634_53)"/>
<path d="M287.332 66.7227C287.332 65.8112 287.43 65.0299 287.625 64.3789C287.82 63.6628 288.178 62.7513 288.699 61.6445C289.155 60.9935 289.969 59.7565 291.141 57.9336C292.378 56.1107 293.647 54.1901 294.949 52.1719C296.316 50.1536 297.586 48.2656 298.758 46.5078C299.995 44.6849 300.841 43.4154 301.297 42.6992C301.883 41.8529 302.339 41.3971 302.664 41.332C302.99 41.2669 303.608 41.2344 304.52 41.2344C305.105 41.2344 305.724 41.2669 306.375 41.332C307.091 41.3971 307.547 41.8529 307.742 42.6992C306.831 44.9128 305.594 47.0286 304.031 49.0469C302.534 51 301.036 52.9531 299.539 54.9062C298.107 56.8594 296.837 58.8776 295.73 60.9609C294.624 62.9792 294.07 65.1602 294.07 67.5039C294.331 67.5039 294.721 67.5365 295.242 67.6016C295.828 67.6667 296.447 67.7318 297.098 67.7969C297.749 67.862 298.335 67.9271 298.855 67.9922C299.441 68.0573 299.865 68.0573 300.125 67.9922C300.516 67.9271 301.167 67.7969 302.078 67.6016C303.055 67.3411 304.064 67.0807 305.105 66.8203C306.212 66.5599 307.254 66.2995 308.23 66.0391C309.207 65.7786 309.891 65.5833 310.281 65.4531C310.281 65.5833 310.281 65.8112 310.281 66.1367C310.346 66.3971 310.379 66.5924 310.379 66.7227C310.379 68.0247 309.76 69.099 308.523 69.9453C307.352 70.7917 305.952 71.4753 304.324 71.9961C302.762 72.4518 301.134 72.7773 299.441 72.9727C297.814 73.1029 296.544 73.168 295.633 73.168C294.656 73.168 293.647 73.0703 292.605 72.875C291.629 72.6146 290.75 72.224 289.969 71.7031C289.188 71.1823 288.536 70.5312 288.016 69.75C287.56 68.9036 287.332 67.8945 287.332 66.7227ZM315.75 9.49609C316.596 9.49609 317.378 9.52865 318.094 9.59375C318.81 9.65885 319.428 9.82161 319.949 10.082C320.47 10.3424 320.893 10.7331 321.219 11.2539C321.544 11.7747 321.707 12.4909 321.707 13.4023C321.707 13.793 321.707 14.2161 321.707 14.6719C321.707 15.1276 321.642 15.5833 321.512 16.0391C321.447 16.4297 321.284 16.7878 321.023 17.1133C320.763 17.3737 320.34 17.5039 319.754 17.5039C318.842 17.5039 318.094 17.1784 317.508 16.5273C316.987 15.8763 316.596 15.1276 316.336 14.2812C316.076 13.3698 315.913 12.4583 315.848 11.5469C315.783 10.6354 315.75 9.95182 315.75 9.49609Z" stroke="#080808" stroke-width="2" mask="url(#path-1-outside-1_3634_53)"/>
<path d="M311.746 68.1875C311.746 67.2109 312.039 65.8438 312.625 64.0859C313.211 62.263 313.96 60.3099 314.871 58.2266C315.848 56.1432 316.922 54.0273 318.094 51.8789C319.331 49.7305 320.568 47.7773 321.805 46.0195C323.042 44.2617 324.214 42.8294 325.32 41.7227C326.427 40.6159 327.404 40.0625 328.25 40.0625C330.073 40.0625 330.984 40.9414 330.984 42.6992C330.984 43.4805 330.822 44.1315 330.496 44.6523C330.236 45.1732 329.91 45.6615 329.52 46.1172C329.129 46.5729 328.706 47.0286 328.25 47.4844C327.794 47.875 327.404 48.3633 327.078 48.9492C326.492 49.9258 325.776 51.2604 324.93 52.9531C324.083 54.6458 323.237 56.306 322.391 57.9336C321.609 59.4961 320.926 60.8958 320.34 62.1328C319.754 63.3698 319.461 64.0534 319.461 64.1836V65.4531C322 64.9974 324.441 63.9232 326.785 62.2305C329.129 60.4727 331.342 58.4219 333.426 56.0781C335.574 53.7344 337.592 51.293 339.48 48.7539C341.434 46.1497 343.257 43.7734 344.949 41.625C346.642 39.4115 348.237 37.5885 349.734 36.1562C351.232 34.724 352.632 34.0078 353.934 34.0078C353.934 36.4167 353.445 38.5977 352.469 40.5508C351.492 42.5039 350.418 44.4245 349.246 46.3125C348.139 48.2005 347.098 50.1536 346.121 52.1719C345.145 54.125 344.656 56.3385 344.656 58.8125C344.656 59.8542 345.275 60.7982 346.512 61.6445C347.814 62.4258 349.279 63.1094 350.906 63.6953C352.599 64.2161 354.227 64.6393 355.789 64.9648C357.352 65.2904 358.426 65.4857 359.012 65.5508V68.0898C357.514 68.1549 355.659 68.1875 353.445 68.1875C351.232 68.1224 349.018 67.862 346.805 67.4062C344.591 66.9505 342.573 66.2018 340.75 65.1602C338.992 64.0534 337.82 62.4583 337.234 60.375C335.542 61.4818 333.914 62.7839 332.352 64.2812C330.789 65.7786 329.161 67.1784 327.469 68.4805C325.841 69.7826 324.116 70.8893 322.293 71.8008C320.47 72.7122 318.484 73.168 316.336 73.168C315.034 73.168 313.927 72.6146 313.016 71.5078C312.169 70.401 311.746 69.2943 311.746 68.1875Z" stroke="#080808" stroke-width="2" mask="url(#path-1-outside-1_3634_53)"/>
</svg>
