<svg width="600" height="600" viewBox="0 0 600 600" fill="none" xmlns="http://www.w3.org/2000/svg">
<path d="M239.586 162.448C240.671 155.39 243.058 149.93 248.788 145.506C253.602 141.789 257.036 141.532 260.549 146.517C266.294 143.907 278.96 139.995 278.869 150.259C282.08 149.259 284.301 149.064 287.528 150.146C296.379 153.111 303.809 160.771 300.369 170.779C297.908 177.939 294.419 175.315 288.858 174.203C285.906 173.444 280.024 174.807 277.409 173.799C273.066 172.127 272.631 174.443 268.891 176.618C267.357 177.511 266.43 178.162 264.673 178.91C263.684 180.996 262.802 183.395 261.804 185.51C259.891 189.563 259.585 188.579 256.617 190.311C256.465 192.691 256.516 196.127 257.325 198.379C260.898 208.075 272.445 216.558 283.06 212.795C294.331 208.799 292.855 193.507 292.626 183.933C292.582 182.081 290.67 177.849 291.448 176.288C291.664 176.198 291.968 176.054 292.2 176.042C292.654 176.016 293.101 176.161 293.452 176.449C294.896 177.632 295.462 181.044 295.728 182.896C296.918 191.187 296.361 205.087 291.267 212.1C288.603 215.767 283.292 216.655 279.089 217.232C283.329 220.476 288.6 221.341 293.578 223.03C307.89 227.885 323.393 234.48 332.519 247.105C337.122 253.43 340.89 260.057 343.655 267.379C346.342 274.489 344.021 275.969 338.393 279.7C341.789 284.119 345.521 295.03 347.464 300.811C350.388 309.521 362.423 327.726 363.085 335.718C364.394 335.864 365.209 336.017 366.498 336.301C369.712 323.68 376.019 310.824 380.496 298.546C381.442 295.95 384.647 288.766 387.741 288.367C401.956 286.539 416.487 288.864 430.737 288.948L461.429 288.992C468.513 288.936 478.289 287.877 484.837 290.139C490.377 292.053 483.943 305.226 482.645 308.87L474.803 330.819C471.967 338.782 468.472 351.515 464.458 358.687C458.449 359.305 452.405 358.895 446.399 358.962C420.964 359.243 395.566 358.025 370.157 359.932C366.659 360.195 362.593 359.258 359.065 359.399C355.52 359.539 351.967 359.911 348.416 360.064C336.7 360.606 324.975 360.89 313.248 360.919C309.855 360.919 304.441 361.095 301.236 360.412C295.638 359.22 301.734 351.096 304.696 350.431C305.704 350.205 306.237 350.188 306.94 349.411L306.747 349.083C305.883 348.89 301.972 347.024 302.273 346.965C293.868 348.603 285.544 349.312 277.047 350.788C269.768 352.054 262.878 354.026 255.738 355.397C262.696 359.164 278.707 364.195 286.815 365.003C304.233 366.74 322.649 367.189 340.189 367.836C373.283 369.195 406.412 369.488 439.523 368.718C445.825 368.61 452.174 367.994 458.443 367.95C477.463 367.816 496.356 368.132 515.329 366.471C523.368 365.768 531.729 364.432 539.763 364.048C539.733 358.42 539.604 353.428 539.191 347.653C539.229 343.136 531.542 337.98 527.212 337.165C521.42 336.078 476.686 337.4 474.02 335.44C473.355 332.363 481.096 332.639 483.228 332.507C494.528 331.868 505.854 331.86 517.154 332.478C520.892 332.689 525.958 332.856 529.517 333.811C533.49 334.874 542.215 339.225 543.105 343.605C544.353 349.848 544.119 356.627 544.304 362.946C544.348 366.746 546.091 371.202 542.558 374.076C528.589 385.429 510.483 384.336 493.611 385.312C478.116 386.293 463.063 387.896 447.51 387.362C433.304 386.876 418.91 386.8 404.695 386.774C405.536 387.333 406.368 387.91 407.188 388.505C429.788 405.113 433.268 485.985 429.064 512.472C426.826 526.567 425.947 531.096 410.938 533.334C409.846 536.232 409.321 540.696 408.838 543.861C415.049 545.736 422.317 544.356 428.461 549.143C430.629 550.382 437.584 558.799 437.432 560.946C436.925 568.074 413.212 566.812 409.43 566.548L409.055 567.383C409.263 568.388 409.389 568.593 408.94 569.522C407.637 570.852 405.75 570.943 403.98 570.957C399.313 571.001 394.632 570.318 389.971 570.175C383.619 569.976 363.226 571.153 359.323 566.996C356.833 564.342 357.589 559.449 357.811 556.112C358.104 551.727 358.532 547.265 359.42 542.958C354.234 543.28 353.373 540.031 353.051 535.449C352.482 527.384 352.046 518.903 351.987 510.84C351.841 491.337 350.288 472.212 346.86 453.002C345.964 447.963 345.697 440.059 342.416 435.831C339.82 432.981 331.456 432.357 327.879 432.037C324.917 431.774 317.804 432.371 315.598 431.305C314.912 430.335 315.1 430.862 315.041 429.653C315.296 429.16 315.642 428.337 316.368 428.226C324.85 427.118 335.291 427.133 343.184 430.684C346.163 432.023 348.483 435.529 349.081 438.638C352.087 454.332 354.524 470.431 355.731 486.365C356.361 494.706 356.197 502.854 356.604 511.183C357.07 520.277 356.429 529.944 358.26 538.801C366.143 538.367 373.942 537.406 381.767 536.41C387.46 535.684 391.632 536.147 396.826 533.273C397.453 509.659 397.052 486.031 395.619 462.45C395.165 454.227 394.919 444.948 393.806 436.86C391.386 419.287 383.068 393.09 363.51 388.271L363.035 388.429C362.651 389.58 362.851 389.653 362.062 390.187C361.014 390.043 361.441 390.251 360.68 389.656C360.568 388.801 360.896 388.294 361.239 387.491C360.378 386.126 351.387 385.988 349.541 386.161C348.469 386.864 348.703 386.964 347.701 386.879C346.271 385.476 344.947 385.939 342.864 385.804C337.184 385.408 331.494 385.071 325.805 384.793C318.923 384.456 311.909 383.668 305.024 383.111C299.508 382.663 293.771 382.499 288.293 381.978C279.268 381.061 270.306 379.605 261.454 377.624C258.386 376.959 254.779 376.438 251.963 375.231C251.874 372.606 251.543 353.982 252.921 352.95C257.844 349.259 269.385 347.041 275.436 346.608C272.16 345.735 266.896 345.228 263.47 344.838C239.598 342.125 227.004 338.727 216.928 315.626C216.954 330.878 217.403 379.136 225.327 390.664C235.843 395.255 264.733 395.205 276.552 394.291C281.626 393.896 288.36 392.158 292.828 391.836C292.839 389.806 292.815 382.666 295.743 382.69C296.684 383.668 296.754 385.282 296.739 386.592C296.188 413.466 295.014 440.319 293.218 467.138C292.679 476.009 292.531 484.558 291.813 493.543C290.51 509.867 287.39 525.735 286.098 541.991C285.65 547.619 286.189 553.974 286.238 559.719C286.317 569.152 286.066 578.583 285.487 587.996C285.293 591.116 285.418 597.796 283.135 599.999H281.498C279.363 595.47 280.363 586.467 280.569 581.317C280.822 574.769 281.033 568.218 281.201 561.664C273.463 565.745 264.878 564.688 256.549 564.33L241.922 563.694C248.857 568.877 246.859 574.719 238.828 577.271C232.919 579.149 232.442 574.238 232.17 569.818C232.018 567.36 233.141 565.54 234.822 563.818C230.901 563.894 224.646 564.55 221.438 561.969C220.321 561.072 219.803 559.933 219.737 558.509C219.671 557.091 220.093 555.348 221.144 554.331C225.081 550.514 259.019 551.516 266.158 551.943C264.72 543.732 265.84 533.68 265.926 525.286C266.301 517.359 265.055 509.284 267.968 501.711C269.327 498.178 268.051 491.876 268.074 487.936C268.113 481.444 267.496 474.641 268.706 468.228C258.275 468.286 248.004 467.735 237.597 467.378C228.984 467.082 220.436 467.05 211.856 466.057C203.124 465.046 188.32 463.543 182.698 456.313C179.399 452.073 178.16 446.416 177.332 441.225C176.267 434.545 175.884 427.64 175.291 420.899C173.772 403.646 172.863 386.337 171.209 369.102C169.815 354.573 168.083 340.028 166.468 325.52C165.931 320.697 164.138 314.8 164.816 310.004C165.105 307.956 166.155 306.313 167.842 305.126C170.074 303.556 172.988 302.888 175.647 302.466C181.437 301.54 187.427 301.971 193.268 301.719C197.681 301.528 203.011 300.354 207.303 301.115C208.545 301.338 209.977 301.871 210.644 303.026C211.036 303.702 211.061 304.526 210.866 305.267C209.891 308.967 178.01 308.194 173.364 310.543C172.584 310.936 172.216 311.507 171.97 312.327C170.434 317.445 173.189 326.22 174.122 331.423C174.654 334.461 175.062 337.517 175.343 340.59C176.108 348.737 176.082 357.034 176.604 365.185C177.973 386.598 178.905 407.434 183.089 428.577C184.948 437.97 186.274 446.938 190.919 455.56C196.22 457.98 202.997 458.39 208.745 458.486C229.995 458.841 251.136 458.334 272.332 460.35C279.216 461.003 283.271 459.846 289.702 463.066C289.741 458.533 290.341 452.891 290.604 448.25L291.734 424.195C292.18 415.098 291.859 406.028 292.403 396.784C276.103 400.936 248.529 400.596 232.088 397.4C241.089 415.089 260.454 416.419 277.987 420.907C281.046 421.693 290.304 422.255 291.186 425.612C290.443 427.473 288.557 427.637 286.8 427.3C271.877 424.42 256.574 421.725 242.75 415.162C237.469 412.657 227.744 403.722 228.998 397.329C227.862 396.204 223.043 395.51 222.19 394.054C216.187 383.8 214.087 351.893 213.826 340.528C213.734 333.922 213.711 327.313 213.757 320.703C213.772 318.471 214.116 311.516 213.726 309.793C211.946 301.95 210.622 297.111 210.603 288.962C208.13 289.194 200.69 290.544 200.07 287.033C199.118 281.635 199.992 275.131 200.292 269.701C201.36 250.378 211.762 238.141 228.408 229.595C235.818 225.679 250.736 221.075 254.727 212.97C256.201 209.975 256.127 205.827 254.835 202.64C253.157 202.885 251.55 203.09 249.852 202.846C242.842 201.837 246.658 196.677 245.108 195.233C244.711 194.863 243.812 194.56 243.291 194.304C240.505 192.933 238.497 191.788 236.61 189.248C233.389 184.911 231.594 178.012 232.459 172.664C233.224 167.926 235.942 165.188 239.586 162.448Z" fill="black"/>
<path d="M409.055 567.385C407.3 566.951 406.403 566.723 404.707 566.061L404.455 565.618L404.379 565.899L404.191 565.782L404.156 565.586C406.02 565.586 407.613 566.099 409.43 566.55L409.055 567.385Z" fill="#E3E4E6"/>
<path d="M252.87 223.018C253.176 223.302 253.347 223.496 253.561 223.863C257.851 231.244 263.049 233.896 271.265 230.499C275.98 228.548 277.769 227.692 281.572 224.579C283.702 224.196 302.065 231.148 305.08 232.459C312.135 235.608 323.59 241.872 327.738 248.726C331.482 254.905 337.749 264.834 340.415 271.436C333.823 274.959 327.712 279.185 322.597 284.673C327 290.334 329.812 319.345 331.787 328.087C326.086 325.448 316.541 322.541 310.289 323.236C300.155 324.358 293.212 324.255 283.063 322.193C268.065 319.298 262.519 317.204 254.482 304.131C246.381 290.955 245.14 281.335 245.965 266.132C246.119 263.298 246.44 254.101 243.709 252.725L243.032 253C239.691 257.373 241.158 277.037 241.583 283.024C234.452 282.321 227.482 283.396 220.36 283.764C215.094 284.037 209.983 283.798 204.733 283.84C205.094 276.392 205.226 267.809 207.35 260.703C209.05 255.019 213.619 246.766 217.968 242.684C224 237.024 231.937 233.349 239.343 229.936C243.839 227.863 248.488 225.338 252.87 223.018Z" fill="white"/>
<path d="M392.813 291.044C406.711 290.946 419.622 292.434 433.377 292.859C443.859 292.957 454.389 292.852 464.865 292.885C467.927 292.894 481.866 291.958 483.398 293.91C483.29 296.388 480.776 303.004 479.897 305.549C477.352 312.947 474.741 320.324 472.069 327.674C468.621 337.424 466.192 345.355 461.839 354.882C458.684 354.721 455.438 354.841 452.271 354.903C433.163 355.243 414.097 354.689 395.016 355C384.041 355.178 373.617 355.902 362.531 355.814C363.551 353.541 364.538 350.951 365.32 348.581C370.339 333.376 375.639 318.384 381.697 303.551C383.2 299.872 384.539 294.798 387.442 292.012C389.836 291.385 390.308 291.238 392.813 291.044Z" fill="white"/>
<path d="M423.56 306.585C433.169 305.378 441.923 312.231 443.054 321.852C444.185 331.47 437.262 340.168 427.635 341.223C418.113 342.266 409.532 335.437 408.416 325.924C407.297 316.414 414.056 307.78 423.56 306.585Z" fill="black"/>
<path d="M422.982 314.68C428.142 314.858 428.15 320.706 427.318 324.263C427.216 324.696 431.08 327.737 431.525 328.347C431.988 328.979 432.533 329.791 432.97 330.541C432.372 331.382 431.517 332.223 430.796 332.984C429.524 332.272 429.044 331.877 427.907 330.948C426.196 329.076 424.89 326.193 422.637 327.459C421.655 327.875 419.941 328.268 418.989 327.605C411.946 322.728 416.801 316.487 422.982 314.68Z" fill="white"/>
<path d="M420.357 318.715C424.55 318.932 425.388 321.803 422.338 324.428C420.826 324.797 421.371 324.861 419.956 324.475C418.005 322.761 418.937 320.399 420.357 318.715Z" fill="black"/>
<path d="M368.801 386.215C371.528 386.238 374.619 386.692 377.552 386.698C384.571 386.707 391.547 386.643 398.566 386.83C400.415 388.479 402.976 390.155 404.982 391.852C409.175 395.396 410.81 399.41 412.983 404.32C421.257 423.006 423.911 446.238 425.61 466.371C426.533 477.278 427.418 517.793 420.788 525.592C415.603 527.651 406.708 529.436 400.828 531.173C400.878 519.457 401.282 507.94 401.194 496.187C401.057 485.054 400.632 473.924 399.917 462.812C398.859 444.196 398.733 428.66 391.157 411.217C386.174 399.747 380.675 391.175 368.801 386.215Z" fill="white"/>
<path d="M241.436 284.617C241.783 284.93 241.927 285.031 242.007 285.544C243.972 299.302 252.752 315.31 265.407 321.75C273.272 325.751 304.831 332.2 311.356 325.907C316.934 326.279 322.412 327.591 327.554 329.791C331.292 331.4 335.077 333.416 336.668 337.353C335.681 339.761 335.247 340.523 333.577 342.386L333.404 342.234C331.884 340.869 331.148 340.204 330.199 338.375C329.871 337.746 328.761 337.725 328.125 337.637C325.148 338.835 328.978 342.911 327.507 345.266C325.433 344.575 324.776 341.25 322.629 342.21C321.067 344.129 321.738 346.71 319.471 347.698C318.445 347.566 318.041 347.27 317.139 346.792L317.051 346.318C317.842 345.336 318.079 344.932 318.554 343.763L318.126 343.259C316.257 342.533 310.983 345.899 308.373 346.078C304.313 346.353 303.176 340.072 300.87 340.177C299.578 341.63 300.58 341.935 299.599 343.171C296.238 343.195 290.553 342.77 286.889 342.53C272.178 341.566 247.065 341.22 234.979 332.686C229.478 328.801 220.791 314.358 217.965 307.716C215.794 302.616 214.332 294.583 213.565 288.973C219.633 289.396 233.667 288.617 239.774 287.207C240.703 286.992 241.121 285.522 241.436 284.617Z" fill="white"/>
<path d="M256.37 360.777C261.594 363.312 277.279 367.58 283.124 368.397C298.591 370.557 315.463 370.328 331.063 371.087C343.52 371.693 355.972 372.517 368.449 372.801C407.519 373.387 446.599 373.188 485.663 372.206C500.136 371.992 514.594 371.198 529.002 369.818C531.085 369.613 538.69 368.195 539.792 368.887L539.71 369.52C538.096 371.57 536.672 372.279 534.457 373.548C522.226 379.53 499.86 379.135 486.366 380.86C458.935 384.367 432.041 382.179 404.537 381.848C378.618 381.537 352.26 382.539 326.355 380.608C312.516 379.577 298.597 378.024 284.727 377.137C275.364 376.448 265.014 373.647 255.752 371.963C256.23 368.951 256.677 363.663 256.37 360.777Z" fill="white"/>
<path d="M288.464 468.023L288.909 468.012C289.314 468.882 288.973 473.783 288.93 475.043C288.533 485.947 287.701 496.831 286.436 507.668C285.355 516.478 283.824 525.325 282.819 534.132C282.01 541.204 281.455 548.566 280.846 555.671C280.153 554.487 278.553 552.451 278.282 551.353C278.564 549.817 278.702 547.62 278.722 546.044C278.88 533.871 278.919 521.654 278.933 509.487C278.935 507.328 277.688 503.452 275.311 502.919C275.153 502.884 274.429 502.731 274.356 502.491C273.685 491.605 275.165 479.309 273.866 468.457C279.45 468.656 282.981 468.472 288.464 468.023Z" fill="white"/>
<path d="M336.261 281.26L336.653 281.495C338.481 290.497 342.46 301.248 345.583 309.903C348.665 318.437 353.467 331.691 361.875 336.033C358.219 335.933 354.56 335.869 350.903 335.839C348.085 335.851 342.378 335.661 339.979 336.619C338.921 333.967 337.799 333.1 336.56 330.982C336.513 330.903 337.723 327.616 337.55 326.476C336.724 321.062 335.268 315.58 334.025 310.248C332.229 302.535 331.289 292.759 327.979 285.668C330.817 284.6 333.686 282.849 336.261 281.26Z" fill="white"/>
<path d="M377.59 540.943C377.771 540.917 378.1 540.964 378.299 540.979C378.349 542.807 378.173 544.737 378.75 546.483C381.196 553.875 394.04 555.024 399.937 558.706L399.952 565.799C393.896 565.31 390.671 565.166 384.595 565.497C378.472 565.945 367.772 565.649 361.896 563.684C361.948 556.849 362.511 550.028 363.035 543.217C368.065 543.229 372.264 541.295 377.59 540.943Z" fill="white"/>
<path d="M400.591 533.918C402.577 534.442 404.312 534.252 406.31 534.07C405.196 538.983 403.617 543.082 406.368 547.512C410.001 548.522 413.736 548.856 417.466 549.431C425.974 550.74 427.72 554.168 432.082 560.218C424.667 561.955 422.499 561.762 414.911 561.668C412.333 561.627 409.19 561.466 406.682 561.844C405.856 561.97 406.087 562.043 405.047 562.025C404.842 560.792 404.514 558.205 403.975 557.112C400.74 550.564 379.978 551.224 382.48 541.623C385.105 539.08 398.274 541.515 400.591 533.918Z" fill="white"/>
<path d="M342.032 338.806C350.024 338.759 357.079 339.914 365.241 339.831C364.169 342.169 363.009 346.306 361.975 348.07C360.73 348.647 359.077 348.023 357.519 347.976C355.474 347.917 353.648 348.178 351.633 348.43C345.111 349.154 335.332 348.931 328.564 349.013C332.405 345.594 329.306 345.125 334.857 345.685C334.676 345.667 339.22 343.646 339.999 343.412C340.125 341.493 339.524 340.3 340.585 338.926L342.032 338.806Z" fill="white"/>
<path d="M260.378 211.383C267.017 216.357 268.126 216.228 275.973 217.353C276.338 219.701 276.194 219.652 277.895 221.253L278.201 221.537C276.075 223.007 274.838 223.8 272.564 225.001C263.826 229.176 262.139 227.139 256.047 220.511C259.058 217.515 259.392 215.402 260.378 211.383Z" fill="white"/>
<path d="M272.5 504.908C273.823 505.107 274.61 505.74 274.903 507.07L274.526 507.208L273.463 506.341L273.034 506.071C272.449 506.288 271.859 506.493 271.266 506.687L270.938 506.484C271.428 505.444 271.432 505.682 272.5 504.908Z" fill="#E3E4E6"/>
<path d="M450.937 77.1251C456.398 76.8477 463.271 77.8455 467.118 82.0358C473.774 89.2918 466.189 97.3467 460.737 101.957C465.929 101.099 471.228 99.8858 475.992 97.5869C477.893 96.6696 483.814 91.8286 485.358 92.1157C486.108 92.2552 486.68 92.7225 487.049 93.3857C488.004 95.0876 483.372 103.691 482.552 106.014C487.702 104.735 494.373 105.485 497.162 110.638C498.269 112.658 498.513 115.038 497.839 117.239C496.26 122.41 490.204 126.172 485.669 128.518C490.564 138.502 490.441 145.781 489.369 156.608C489.035 159.977 488.789 163.069 486.797 166.024C485.221 168.362 482.903 170.417 481.808 173.077C479.792 179.697 478.257 183.997 473.194 188.9C470.232 191.779 466.761 194.083 462.958 195.693C457.192 198.082 434.997 201.659 428.64 201.573C421.638 201.418 410.016 199.396 403.38 197.398C402.923 197.751 402.454 198.087 401.971 198.406C398.03 200.98 393.208 201.824 388.626 200.739C382.263 199.266 379.79 195.434 381.308 189.177C364.89 179.582 355.805 164.244 357.126 144.713C358.055 132.702 364.353 124.048 371.713 115.329C379.96 105.557 386.985 99.9462 398.821 95.1658C399.984 94.6962 403.611 91.3722 405.246 90.3646C415.485 84.0564 426.132 80.9029 438.17 82.1721C441.457 79.2157 446.672 77.7559 450.937 77.1251Z" fill="black"/>
<path d="M471.469 143.143C472.31 145.276 472.714 147.387 473.388 149.494C475.714 156.776 476.687 161.584 477.261 169.137C468.677 175.595 459.231 180.818 449.197 184.654C447.413 185.303 445.746 185.701 443.909 186.17C445.271 173.845 456.838 164.878 464.021 155.518C467.625 150.82 469.017 148.381 471.469 143.143Z" fill="white"/>
<path d="M364.585 131.48C365.092 132.079 364.831 131.723 364.816 132.726C364.699 139.982 366.149 144.431 371.18 149.69C371.49 151.663 371.883 154.385 372.398 156.263C374.654 164.482 380.833 173.236 388.236 177.542C386.147 178.358 379.474 181.528 382.538 184.56L383.203 184.547C384.041 183.93 384.047 183.378 384.331 182.341L384.439 181.931C384.899 181.705 385.368 181.491 385.84 181.29C390.794 179.148 394.031 180.659 398.886 182.575C400.16 183.368 401.569 184.37 402.829 185.224C395.112 183.415 390.378 182.513 383.291 186.343C374.077 180.361 367.485 174.962 363.448 164.256C359.273 153.19 359.795 142.16 364.585 131.48Z" fill="white"/>
<path d="M420.193 99.5352C425.229 101.335 427.523 103.153 431.774 106.301C430.093 109.893 430.799 112.722 433.063 115.82C425.188 119.802 417.281 122.97 408.437 123.92C402.923 124.192 400.395 124.043 395.068 122.712C401.985 118.914 411.668 112.834 417.217 107.268C419.81 104.667 420.349 102.888 420.193 99.5352Z" fill="white"/>
<path d="M389.429 106.352L389.593 106.41C389.9 107.213 388.31 110.045 388.166 111.283C387.735 115.066 386.698 120.493 386.648 124.179C381.504 128.5 376.79 132.491 373.808 138.533C373.236 139.686 372.267 142.883 371.558 143.411L371.191 142.834C367.063 135.369 369.231 128.583 373.251 121.728C377.487 114.506 382.535 110.702 389.429 106.352Z" fill="white"/>
<path d="M416.728 186.691L417.448 186.562C425.016 190.382 432.7 193.204 441.281 191.744C442.878 193.809 443.9 194.677 445.972 196.102C442.767 196.858 439.453 197.292 436.189 197.713C422.877 198.102 418.667 196.628 406.02 194.383C407.279 191.912 407.326 190.948 408.278 188.401C408.677 188.085 415.271 187.035 416.728 186.691Z" fill="white"/>
<path d="M387.006 128.6C387.296 128.912 387.228 128.777 387.369 129.143C389.019 133.485 391.148 135.987 394.491 139.003C389.021 143.666 386.859 147.03 387.044 154.529L384.302 153.37C380.124 151.43 378.671 150.536 374.979 147.692C375.527 146.225 375.99 144.026 376.603 142.329C378.817 136.175 382.342 132.826 387.006 128.6Z" fill="white"/>
<path d="M439.544 125.123L439.884 125.586C438.255 133.147 435.258 138.262 429.12 143.156C426.322 145.387 422.842 147.412 419.162 146.944C417.038 144.317 417.832 142.934 418.828 139.939C421.969 130.498 431.332 128.828 439.544 125.123Z" fill="white"/>
<path d="M445.072 132.316C446.068 132.813 449.408 139.19 450.188 140.591C440.479 145.799 433.4 150.544 428.101 160.596C426.729 159.587 425.666 159.103 424.163 158.353C421.966 157.627 420.478 157.676 418.219 157.68L416.306 155.803C430.465 149.757 436.122 144.219 445.072 132.316Z" fill="white"/>
<path d="M375.615 153.633C376.298 153.869 378.762 155.213 379.471 155.593C383.133 157.555 385.28 158.362 389.306 159.079C391.374 168.503 396.378 172.097 404.147 177.759C400.635 177.846 397.553 177.844 394.286 176.416C384.715 172.228 378.738 163.075 375.615 153.633Z" fill="white"/>
<path d="M453.68 116.959C457.638 117.34 462.688 117.631 466.298 119.254C466.793 120.262 467.385 121.162 467.979 122.114C467.959 125.599 467.974 128.841 468.92 132.202L464.44 134.174L461.335 135.782C459.498 129.413 456.12 126.103 450.601 122.788C451.655 121.329 452.874 118.626 453.68 116.959Z" fill="white"/>
<path d="M450.384 81.8013C456.146 81.2792 462.439 81.8907 465.41 87.5532C464.309 92.9581 461.965 94.6137 458.183 98.335L456.094 100.475C453.732 92.0842 451.717 87.7667 443.531 84.0076C446.039 82.8431 447.715 82.3298 450.384 81.8013Z" fill="white"/>
<path d="M416.326 161.855C420.407 164.135 421.318 164.735 426.211 165.011C425.505 168.922 425.115 171.061 426.12 174.972C423.252 178.587 422.2 179.829 418.04 181.951C416.259 180.968 414.902 180.105 413.197 178.981C421.714 173.483 414.908 171.181 410.394 167.479C413.361 165.707 414.718 164.958 416.326 161.855Z" fill="white"/>
<path d="M485.455 109.34C489.381 108.757 495.067 110.83 493.951 115.696C493.102 119.403 489.759 121.49 486.844 123.368C485.704 124.032 484.559 124.733 483.422 125.411C482.074 123.836 481.228 122.772 480.038 121.077C480.349 117.954 480.686 113.352 481.368 110.418C482.528 110.01 484.225 109.644 485.455 109.34Z" fill="white"/>
<path d="M433.743 86.5507L433.995 86.5176C434.944 86.9687 433.787 88.2757 433.726 90.064C433.62 93.1961 433.96 94.4354 435.352 97.1389C432.196 96.8837 429.255 96.6581 426.135 96.042C422.42 95.3087 418.855 94.0806 415.102 93.7337C412.266 93.7117 410.379 93.8125 407.549 94.0732C417.674 89.0544 422.558 86.906 433.743 86.5507Z" fill="white"/>
<path d="M390.905 124.672C393.041 125.447 394.216 126.366 396.897 127.115C405.583 129.541 413.528 127.51 421.849 125.158C420.044 126.597 418.239 128.238 416.499 129.77C415.86 130.432 400.89 135.36 397.872 137.076C394.471 133.717 390.431 129.847 390.905 124.672Z" fill="white"/>
<path d="M413.476 99.9946C414.978 99.8194 415.939 99.6369 416.355 101.236C415.131 106.587 399.214 115.971 394.002 119.266L393.322 119.671C392.367 119.396 392.751 119.648 392.112 118.902C391.825 116.596 394.904 113.433 396.372 111.777C401.481 106.007 406.242 102.559 413.476 99.9946Z" fill="white"/>
<path d="M450.615 156.752C450.683 156.938 450.747 157.124 450.811 157.31C447.978 164.509 439.157 174.891 430.781 175.203C430.585 171.272 431.525 170.186 430.846 165.027C437.997 164.399 445.084 161.28 450.615 156.752Z" fill="white"/>
<path d="M477.425 132.715C477.876 133.227 478.937 137.502 479.376 138.548C484.163 149.897 487.219 153.449 481.421 165.155C480.152 153.349 476.335 145.704 473.766 134.544C475.307 133.951 476.024 133.523 477.425 132.715Z" fill="white"/>
<path d="M442.816 174.893L443.048 175.092C440.288 180.266 439.878 181.225 439.969 187.141C433.327 187.487 430.784 187.188 424.465 185.102C423.899 184.874 423.308 184.6 422.745 184.354L422.622 184.026C425.61 182.146 426.158 181.537 428.47 178.838C429.577 178.393 430.898 179.162 432.196 179.311C436.254 179.774 439.846 177.193 442.816 174.893Z" fill="white"/>
<path d="M478.283 101.678L478.462 101.796C478.667 102.492 476.851 107.385 476.479 108.502C473.004 110.889 471.981 112.383 469.98 115.941C467.604 114.524 466.714 113.254 464.903 111.159C462.832 109.054 461.575 107.875 459.261 106.037C466.269 106.222 472.017 104.593 478.283 101.678Z" fill="white"/>
<path d="M469.292 136.555L469.635 136.86C468.785 144.972 459.589 154.906 454.509 160.882C454.148 160.331 457.078 151.74 457.602 150.427C459.1 146.679 461.089 144.489 461.203 140.249L469.292 136.555Z" fill="white"/>
<path d="M451.556 144.781C452.147 145.454 452.019 148.659 452.051 149.841C445.611 155.92 441.765 158.184 433.201 160.721C433.066 160.624 432.932 160.527 432.8 160.43C437.388 153.084 444.205 148.801 451.556 144.781Z" fill="white"/>
<path d="M439.333 87.4453C442.819 88.3919 446.522 90.2479 448.591 93.2903C449.437 94.5322 451.362 98.0048 451.075 99.4837L450.495 99.4734C443.733 98.7967 440.429 98.5166 437.766 91.5478C438.167 90.1078 438.753 88.8229 439.333 87.4453Z" fill="white"/>
<path d="M472.274 178.756L472.444 179.109C467.25 185.19 459.624 190.818 452.194 193.791C450.82 193.431 450.05 193.152 448.726 192.629C447.955 192.191 446.971 191.794 446.607 191.061C447.741 190.402 450.979 189.658 452.531 189.08C459.656 186.424 465.853 182.758 472.274 178.756Z" fill="white"/>
<path d="M390.615 187.277C393.264 187.105 401.238 188.016 404.385 188.274C403.775 190.223 403.345 191.684 402.114 193.336C399.311 192.17 389.64 189.677 388.075 188.105C388.67 187.514 389.728 187.452 390.615 187.277Z" fill="white"/>
<path d="M398.733 167.883C401.525 167.768 403.57 168.344 406.699 167.923C408.103 170.641 409.6 172.02 412.345 173.374L412.444 173.836L411.776 174.405L409.169 176.191C405.554 173.497 402.076 170.932 398.733 167.883Z" fill="white"/>
<path d="M384.252 190.93C388.008 191.711 393.727 195.097 397.855 196.083C397.94 196.216 398.027 196.35 398.112 196.484L397.491 196.741C394.852 197.547 393.047 197.923 390.264 197.386C386.895 196.737 383.496 194.874 384.252 190.93Z" fill="white"/>
<path d="M442.787 103.815C445.714 103.8 447.431 104.621 450.264 105.141C447.984 106.407 445.808 107.913 443.637 109.361C442.869 109.934 442.187 110.548 441.466 111.171C440.206 109.14 439.269 107.833 437.654 106.098C439.474 105.146 440.874 104.581 442.787 103.815Z" fill="white"/>
<path d="M397.553 141.764C398.695 142.66 400.148 143.58 401.373 144.401C397.875 146.664 395.42 148.805 392.874 152.05C392.203 153.021 391.468 154.346 390.85 155.382C390.882 154.843 390.914 154.305 390.952 153.767C391.38 147.623 393.091 145.656 397.553 141.764Z" fill="white"/>
<path d="M411.68 157.656L412.456 157.787C412.641 158.54 411.17 159.428 410.502 159.905C408.656 161.222 408.111 162.112 407.095 164.059C405.076 163.793 403.04 163.808 401.001 163.772C400.022 163.757 400.409 163.944 399.727 163.421C399.791 162.228 400.77 160.831 401.399 159.737C405.182 159.245 408.047 158.595 411.68 157.656Z" fill="white"/>
<path d="M447.627 127.357C451.181 127.553 457.479 134.353 456.639 137.61L456.041 137.891C455.224 138.326 455.098 138.367 454.21 138.641C453.287 136.967 447.732 128.089 447.627 127.357Z" fill="white"/>
<path d="M411.797 135.638L412.087 135.607L412.313 135.909C411.996 136.557 409.983 140.667 409.647 140.689C408.375 140.772 405.328 142.37 403.852 141.596L401.13 139.803C404.663 138.363 408.22 136.975 411.797 135.638Z" fill="white"/>
<path d="M404.203 147.016L404.537 147.139L404.613 147.459C402.996 149.97 400.667 153.166 398.833 155.589C398.414 156.146 396.612 155.923 395.736 155.908L395.25 155.702C395.81 153.356 402.1 148.372 404.203 147.016Z" fill="white"/>
<path d="M472.21 121.76C473.086 122.046 475.11 123.531 475.975 124.122C476.01 125.712 476.171 127.038 476.341 128.61L475.957 128.981C475.242 129.342 474.527 129.695 473.807 130.041L473.481 129.905C472.948 127.215 472.594 124.477 472.21 121.76Z" fill="white"/>
<path d="M407.9 181.131C408.768 180.963 411.85 183.023 413.344 183.73L409.204 184.447C408.205 184.592 407.487 184.652 406.479 184.714C405.463 183.74 404.279 182.877 403.16 182.013C405.161 181.782 405.958 181.707 407.9 181.131Z" fill="white"/>
<path d="M408.27 150.158C409.105 150.909 409.781 152.688 410.268 153.762C409.166 154.173 407.988 154.514 406.86 154.863C405.823 155.073 405.662 155.314 404.965 154.919C405.19 153.667 407.344 151.325 408.27 150.158Z" fill="white"/>
<path d="M457.626 109.361C458.543 110.087 460.948 112.201 461.382 113.201L461.019 113.212C459.451 113.021 457.834 112.897 456.258 112.754C456.829 111.536 457.169 110.617 457.626 109.361Z" fill="white"/>
<path d="M451.406 109.514C451.315 110.717 450.958 111.724 450.621 112.885C449.024 113.168 447.331 113.605 445.746 113.978L445.737 113.475C447.48 112.125 449.564 110.769 451.406 109.514Z" fill="white"/>
<path d="M400.16 101.598L400.77 101.748C400.497 102.438 396 106.505 394.925 107.615L394.485 107.78L394.453 107.321C396.117 104.271 397.066 103.058 400.16 101.598Z" fill="#E3E4E6"/>
<path d="M413.101 146.102C413.423 146.371 416.561 151.548 416.593 152.186C413.912 151.933 412.638 148.515 413.101 146.102Z" fill="white"/>
<path d="M481.857 131.17C483.814 132.545 485.479 139.247 485.704 141.555C484.767 140.448 482.379 132.95 481.857 131.17Z" fill="#E3E4E6"/>
<path d="M431.388 100.199C432.545 100.268 437.057 100.781 437.801 101.368L437.32 101.583C436.646 101.958 436.151 102.216 435.445 102.551C433.852 102.367 432.741 101.222 431.388 100.199Z" fill="white"/>
<path d="M434.93 110.35C436.187 110.986 436.752 112.824 437.271 114.129L436.591 113.942C435.372 112.818 435.208 111.987 434.93 110.35Z" fill="#E3E4E6"/>
<path d="M403.934 207.85C412.629 207.726 421.998 207.585 430.661 207.89C441.31 208.264 451.608 209.103 462.34 208.758C470.294 208.853 478.731 208.491 486.469 210.541C490.339 211.566 490.476 217.077 490.851 220.139C492.715 235.287 494.341 250.414 494.754 265.676C494.798 267.251 494.396 269.54 493.767 270.956C491.511 273 486.41 273.209 483.445 273.013C479.136 272.728 475.318 273.177 471.064 273.553C460.201 274.511 449.139 274.217 438.226 274.193C432.668 274.185 427.699 274.614 422.256 274.761C410.142 275.105 398.021 275.265 385.901 275.244C379.324 275.253 366.228 276.301 360.202 272.766C358.91 272.009 358.058 267.723 357.99 266.027C357.712 258.977 357.46 252.115 356.862 245.047C338.051 242.03 358.456 235.534 361.102 231.896C364.195 227.641 355.767 207.558 367.09 207.992C379.673 208.474 391.544 208.268 403.934 207.85Z" fill="black"/>
<path d="M365.086 212.022C372.117 211.862 381.507 212.939 389.396 212.931L445.336 212.902C454.975 212.925 477.442 212.24 485.628 214.806C485.871 216.292 486.088 217.772 486.246 219.269C487.922 235.343 489.981 251.861 489.94 268.038C485.531 267.893 481.128 267.642 476.73 267.284C469.151 266.886 467.109 268.414 460.395 268.811C453.132 269.24 444.943 268.786 437.552 269.034L407.033 270.038C396.738 270.437 372.428 271.807 363.17 269.227C361.661 260.656 363.483 250.245 360.363 242.902C359.678 241.283 357.226 240.84 355.588 240.521C356.502 240.14 357.407 239.743 358.307 239.331C367.131 235.215 366.519 231.795 365.314 222.898C365.159 221.758 364.872 220.655 365.259 219.602C365.804 219.056 365.947 218.932 366.375 218.301C366.27 217.433 365.584 216.963 364.925 216.306L365.086 212.022Z" fill="white"/>
<path d="M467.273 247.52C468.542 247.9 468.612 247.872 469.356 248.767C470.13 252.521 465.047 265.85 461.845 268.198C460.852 268.364 461.268 268.48 460.524 267.962C459.607 266.329 459.858 265.861 460.263 263.984C461.095 261.161 461.892 259.102 462.961 256.379C460.647 255.088 458.473 252.939 459.627 250.095C460.488 249.303 459.996 249.554 461.18 249.35C463.11 249.9 463.389 250.748 464.438 252.506C465.278 250.562 465.864 249.118 467.273 247.52Z" fill="black"/>
<path d="M425.148 247.292C428.309 247.15 431.089 248.674 432.029 251.932C433.011 255.337 427.181 255.869 426.082 257.466L426.267 257.868C428.007 258.259 428.95 258.039 429.642 259.76C422.455 266.79 416.086 252.423 425.148 247.292Z" fill="black"/>
<path d="M439.43 248.785C444.006 249.374 444.791 250.295 445.107 254.62C445.128 254.902 446.397 256.734 446.678 257.207L446.455 257.738C444.501 258.787 443.549 258.745 441.946 257.373L441.674 257.135C440.927 257.249 440.997 257.443 440.344 258.176C432.697 264.595 430.198 252.261 439.43 248.785Z" fill="black"/>
<path d="M395.259 220.111C398.895 220.883 397.928 224.071 397.661 226.923C406.79 226.889 404.186 239.097 399.472 233.664C399.059 232.757 398.707 231.649 398.37 230.696C397.441 232.42 396.079 235.819 393.7 234.631C391.526 231.651 393.264 223.035 395.259 220.111Z" fill="black"/>
<path d="M454.916 246.732C456.079 246.892 457.324 247.375 457.963 248.407C457.907 250.877 455.344 250.979 453.46 251.288C454.69 252.143 455.947 253.023 456.457 254.488C456.829 255.52 456.75 256.66 456.24 257.631C455.171 259.627 453.17 260.353 451.198 261.038C449.701 260.969 448.582 260.429 448.324 258.893C449.174 256.77 450.018 256.642 452.068 255.629C445.456 252.202 449.241 247.87 454.916 246.732Z" fill="black"/>
<path d="M389.692 250.754C397.107 250.688 398.47 257.847 392.432 262.27C385.412 264.727 385.661 257.903 388.304 253.782C389.103 252.532 389.019 252.004 389.692 250.754Z" fill="black"/>
<path d="M449.777 224.482C451.854 224.314 457.09 224.565 455.733 227.952C454.916 228.456 453.811 228.308 452.804 228.295L452.587 228.559C453.486 230.498 454.805 230.52 455.373 232.314C455.347 234.059 454.629 234.86 453.557 236.187C451.412 237.298 448.509 237.444 448.351 234.307C448.986 233.031 448.928 233.355 450.261 232.425C446.417 230.094 444.639 226.633 449.777 224.482Z" fill="black"/>
<path d="M387.624 225.426C389.25 225.483 391.614 225.902 391.43 227.941C390.683 228.703 390.299 228.75 389.32 229.044C388.359 231.271 390.261 239.216 387.284 240.99C386.095 240.906 386.52 241 385.447 240.116C384.404 236.824 385.025 233.212 385.585 229.894C383.818 230.212 381.882 230.713 381.003 228.713C381.475 225.675 385.321 225.539 387.624 225.426Z" fill="black"/>
<path d="M417.319 224.744C419.109 224.653 422.121 224.68 422.215 227.116C421.702 228.192 421.301 228.452 420.445 229.089C419.177 230.034 421.699 230.817 421.304 233.307C420.369 235.026 418.995 235.825 417.328 236.737C415.936 237.141 414.794 237.151 414.135 235.825C414.193 234.644 414.776 233.844 415.356 232.783C415.119 230.706 412.515 230.348 412.983 227.561C414.091 225.912 415.517 225.42 417.319 224.744Z" fill="black"/>
<path d="M403.418 247.809C406.553 247.663 406.764 249.089 406.931 251.817C408.847 252.383 410.874 253.325 412.729 254.126C411.495 254.763 408.858 255.824 407.388 256.304C407.332 256.65 407.276 256.996 407.221 257.342C407.045 258.658 406.898 259.393 406.21 260.551C405.431 260.949 405.492 260.933 404.619 260.904C402.527 259.515 403.696 257.675 402.738 256.309C400.482 256.876 399.188 256.794 398.681 254.095C399.357 252.022 400.535 252.572 402.311 251.595C402.785 251.334 403.078 248.928 403.418 247.809Z" fill="black"/>
<path d="M377.209 252.857C382.324 252.833 386.769 260.824 380.886 260.606C379.011 259.532 378.926 257.207 376.655 256.958L375.574 257.88C374.312 259.337 374.288 260.601 372.782 261.918C371.728 262.216 372.217 262.266 371.259 261.822C369.7 259.871 368.985 254.11 371.915 253.813C372.322 254.204 372.741 254.583 373.172 254.95C374.631 254.776 374.637 253.675 377.209 252.857Z" fill="black"/>
<path d="M437.561 226.637C441.867 227.549 442.102 233.417 440.194 236.353C436.345 236.031 435.422 228.914 437.561 226.637Z" fill="black"/>
<path d="M405.454 228.045C409.667 228.159 409.576 233.204 408.299 236.04C404.197 236.082 404.414 230.735 405.454 228.045Z" fill="black"/>
<path d="M371.391 221.467C371.994 221.718 372.032 221.783 372.583 222.148C373.866 224.471 371.268 227.438 369.686 228.921C369.273 228.971 369.422 228.927 368.918 228.661C368.224 226.382 369.727 223.056 371.391 221.467Z" fill="black"/>
<path d="M475.644 243.576C479.174 244.61 476.101 248.43 474.829 250.043C471.226 248.912 474.158 245.269 475.644 243.576Z" fill="black"/>
<path d="M376.374 220.65C377.118 220.727 377.065 220.715 377.692 221.127C379.034 223.426 377.051 226.361 375.481 228.027C374.728 228.155 374.985 228.164 374.271 228.001C373.899 226.597 375.774 222.792 376.374 220.65Z" fill="black"/>
<path d="M409.819 220.049C411.419 220.348 412.512 221.348 412.764 222.938C412.31 223.942 412.468 223.623 411.381 224.314C409.676 224.158 408.715 223.699 408.507 221.861C408.911 220.758 408.97 220.798 409.819 220.049Z" fill="black"/>
<path d="M437.344 221.732C439.477 221.74 441.595 222.484 440.54 225.088C438.94 225.257 438.117 225.562 437.01 224.301C436.77 223.129 436.94 222.92 437.344 221.732Z" fill="black"/>
<path d="M310.421 64.8823C318.592 64.6576 330.217 64.8082 338.2 66.324C339.961 66.6585 342.469 67.236 343.453 68.8772C344.862 71.2341 345.39 101.389 345.202 105.913C345.12 107.933 344.933 109.788 344.335 111.728C338.584 116.095 336.091 115.002 329.391 115.448L307.014 116.739C301.465 117.044 295.834 117.306 290.299 117.742C268.179 119.488 246.096 119.623 224.071 122.556C216.374 123.351 202.649 125.33 195.378 124.798C194.155 123.098 193.543 121.62 193.157 119.568C192.182 114.381 190.312 78.9178 193.133 75.892C194.581 74.3381 198.02 73.664 200.058 73.2565C212.184 70.831 225.085 70.3813 237.41 69.3354C250.26 68.245 263.092 67.4138 275.959 66.5909C287.428 65.8573 298.928 65.078 310.421 64.8823Z" fill="black"/>
<path d="M300.079 70.4783C303.603 70.1314 309.047 70.1926 312.703 70.1794C321.404 70.1478 330.647 69.8909 339.173 71.6496C338.49 77.8789 339.63 105.015 340.992 110.569C336.908 108.935 326.935 110.502 321.993 110.776L283.525 113.041C267.817 114.066 248.751 114.462 233.425 116.377C221.371 118.097 209.289 119.197 197.133 121.137C197.337 114.548 196.758 106.352 196.433 99.638C196.071 92.668 195.914 85.6883 195.964 78.7089C201.139 77.1966 206.311 76.9356 211.657 76.449C217.653 75.8832 223.655 75.3785 229.661 74.9343C233.18 74.6727 236.697 74.3976 240.212 74.0929C260.137 72.3659 280.13 71.8054 300.079 70.4783Z" fill="white"/>
<path d="M308.276 79.7399C310.38 79.5269 312.217 80.0205 314.265 80.2001C322.693 80.9396 325.348 89.1717 320.399 95.753C323.062 97.5471 330.164 102.008 329.783 105.609C328.488 108.007 326.051 107.107 324.202 106.136C322.216 104.575 318.68 101.513 317.232 99.5308C298.517 107.225 294.867 86.1333 308.276 79.7399Z" fill="black"/>
<path d="M309.205 84.3496C311.78 85.7195 315.205 85.561 317.314 87.9701C319.456 90.4149 315.217 94.0844 313.312 95.3447C310.339 96.6429 306.407 96.4946 305.953 92.5138C305.569 89.1344 307.289 86.8568 309.205 84.3496Z" fill="white"/>
<path d="M207.448 89.4338C209.171 89.2771 214.869 89.304 214.004 92.2234C212.363 93.7237 208.818 93.9854 206.116 94.987C208.72 97.0363 212.611 98.437 214.166 101.539C216.198 105.592 212.726 108.093 209.515 109.625C207.577 110.214 204.12 111.226 202.671 109.354C202.511 106.164 207.354 104.363 209.662 103.331C206.99 101.555 203.132 99.5357 202.076 96.3701C200.728 92.3345 204.028 90.3452 207.448 89.4338Z" fill="black"/>
<path d="M270.407 83.373C273.653 83.7105 273.717 87.8719 274.175 90.4854C278.807 86.4217 281.955 89.5963 283.982 94.4203C285.099 97.0805 287.373 103.483 282.715 103.711C279.512 101.661 278.685 97.8598 277.392 94.2656C271.442 104.539 268.525 92.9748 268.912 87.3372C269.054 85.2559 268.878 84.8162 270.407 83.373Z" fill="black"/>
<path d="M220.373 89.0433C224.755 88.4773 228.231 91.8057 226.695 96.2216C225.773 98.8771 224.034 99.5623 221.676 100.589C223.037 101.277 225.599 102.441 226.703 103.426C227.094 103.774 226.925 103.927 226.873 104.629C217.649 110.454 210.178 94.3976 220.373 89.0433Z" fill="black"/>
<path d="M221.574 93.25C222.506 93.6947 222.573 93.7899 222.873 94.6401C222.556 95.6828 221.9 96.0338 221.035 96.734C220.908 96.7926 220.456 96.8641 220.297 96.8945L220.093 96.5439C220.356 95.1962 220.897 94.4421 221.574 93.25Z" fill="white"/>
<path d="M231.419 90.8125C236.966 90.8421 236.674 93.6839 239.296 97.5086C240.099 98.6787 243.357 99.2146 243.651 101.375C241.914 103.813 238.892 102.753 236.69 101.817C236.306 101.491 235.45 100.69 235.149 100.902C233.305 102.198 231.888 104.089 229.511 104.149C225.391 102.8 227.059 96.5931 228.503 93.8178C229.428 92.038 229.719 91.8824 231.419 90.8125Z" fill="black"/>
<path d="M232.541 95.0469C233.144 95.3138 232.899 95.1078 233.187 95.7843C232.985 97.197 232.428 98.0586 231.781 99.3333C231.482 99.2724 231.673 99.3339 231.267 99.0216C231.363 97.5907 231.986 96.3904 232.541 95.0469Z" fill="#E3E4E6"/>
<path d="M261.012 87.6719C262.547 87.6892 265.181 88.2086 265.007 90.1832C263.583 91.7743 260.713 91.8183 260.076 93.6396C261.247 95.7722 265.473 95.2214 266.989 97.5874C266.666 98.6025 266.723 98.2981 265.534 99.0273C255.163 103.62 250.706 90.5263 261.012 87.6719Z" fill="black"/>
<path d="M244.354 89.459C245.396 89.5287 245.334 89.4883 246.205 90.0523C246.942 91.0372 246.934 91.762 247.155 93.0203C249.343 91.7784 250.991 90.9086 253.413 91.4515C254.309 92.1795 254.048 91.7239 254.223 92.8659C253.561 94.76 252.247 95.4748 250.638 96.6751C247.717 98.1988 249.056 98.7927 247.004 100.884C246.099 101.196 246.164 101.172 245.232 100.926C242.481 98.9128 242.392 92.1947 244.354 89.459Z" fill="black"/>
<path d="M130.941 353.147C137.537 352.424 143.775 352.386 145.235 360.205C148.665 378.583 150.999 397.432 153.909 415.901C155.419 424.394 145.729 427.517 138.986 428.768C115.497 433.122 91.4727 435.489 67.8421 438.999C66.3278 439.224 60.0943 439.561 59.1005 438.949C57.0471 435.805 55.1132 412.579 55.0508 407.66C54.9682 401.162 52.3526 374.349 55.3025 370.787C58.5462 369.914 57.8531 377.048 57.9245 379.189C58.0493 383.185 58.236 387.181 58.4847 391.172C59.2177 403.594 60.3231 415.966 61.1076 428.417C63.2589 420.934 65.5159 416.218 68.6771 409.201C74.6308 396.861 78.66 397.421 89.2455 404.786C90.9934 402.19 92.8874 399.697 94.9183 397.318C98.4647 393.149 107.7 382.391 113.227 382.245C118.961 382.093 126.2 388.365 130.963 391.359C135.609 394.283 141.673 397.054 145.75 400.658C144.281 394.251 140.983 360.627 138.119 358.292C133.711 357.178 109.955 360.237 104.209 361.239C93.1713 363.167 81.1391 366.108 69.8138 367.394C66.3073 367.793 57.1485 370.635 54.4455 368.42C54.113 367.298 54.1476 367.884 54.5929 366.603C58.1586 363.928 79.1569 361.301 84.2938 359.976C99.7634 355.986 115.066 354.568 130.941 353.147Z" fill="black"/>
<path d="M112.185 387.604C116.828 387.609 124.491 394.793 129.04 397.714C132.277 399.829 135.697 401.648 139.259 403.148C141.606 404.165 143.183 405.076 145.812 404.751C146.936 405.75 147.988 416.531 148.16 418.781C139.69 424.676 121.656 425.335 111.297 427.327C97.112 430.052 82.4855 430.474 68.1857 433.096C66.1188 433.409 64.0057 433.79 61.9385 434.133C61.7325 433.353 61.2069 431.921 61.6136 431.297C63.3514 432.281 65 432.489 65.5742 430.163C64.1574 426.691 74.0715 407.977 77.4772 404.505C83.839 406.837 90.8615 414.765 97.281 418.233C105.519 422.684 105.438 414.27 102.328 413.188C101.569 413.681 101.556 413.774 100.687 413.927C99.1133 412.963 94.393 408.77 92.6097 407.32C98.4016 400.119 104.385 392.716 112.185 387.604Z" fill="white"/>
<path d="M122.493 266.745C126.085 266.702 134.719 265.892 137.641 267.552C139.184 268.429 140.008 271.441 140.448 273.097C141.893 278.545 142.614 284.3 143.676 289.844C144.709 295.236 146.317 301.067 146.668 306.536C146.758 307.928 146.846 310.752 145.93 311.848C143.45 314.81 115.395 322.863 109.842 324.129C104.464 325.354 98.933 326.074 93.5075 327.1C88.3659 328.11 82.9319 329.487 77.7531 328.945C77.3368 328.198 76.965 327.428 76.6401 326.64C73.8323 319.875 72.6121 293.569 71.8996 285.324C71.8211 284.414 73.2584 283.186 73.6952 282.12C73.1005 281.509 73.0164 281.54 72.8271 280.734C74.6977 276.157 89.7214 274.195 94.2332 272.893C103.535 270.209 112.761 267.128 122.493 266.745Z" fill="black"/>
<path d="M128.013 270.843C130.192 270.798 132.581 270.869 134.777 270.89C136.657 278.038 137.598 284.955 138.839 292.23C139.814 297.806 140.927 303.354 142.177 308.874C137.152 310.063 128.711 313.424 123.396 315.199C110.719 319.43 102.234 320.78 89.1053 322.494C85.723 322.898 83.2925 323.13 80.0159 324.111C79.9107 320.35 79.0969 313.884 78.7025 309.996C77.7747 300.747 76.7587 291.508 75.6548 282.278C83.5749 279.206 88.2463 279.286 95.6238 277.347C108.233 274.032 114.529 271.161 128.013 270.843Z" fill="white"/>
<path d="M109.833 281.352C123.745 281.941 114.737 300.288 109.054 298.855C106.709 297.024 108.555 294.045 109.587 291.843C109.126 290.403 108.922 289.198 108.642 287.725C107.1 288.367 106.428 288.735 105.013 289.557C102.487 291.637 101.801 292.567 100.251 295.357C100.619 296.236 100.688 296.479 100.917 297.367C100.616 297.982 100.767 297.962 100.043 298.196C92.5944 300.59 94.2019 291.814 97.1773 288.221C100.685 283.985 104.346 282.027 109.833 281.352Z" fill="black"/>
<path d="M110.347 303.252C110.687 303.228 111.026 303.213 111.366 303.205C116.379 303.114 117.951 307.18 113.827 310.646C107.272 311.885 106.407 306.09 110.347 303.252Z" fill="black"/>
<path d="M110.198 135.235C110.087 133.788 109.469 128.628 110.51 127.854C115.93 123.824 124.438 123.766 130.899 122.231C132.821 121.774 136.391 121.27 137.735 122.701C139.271 124.821 140.404 129.699 140.747 132.199C150.933 130.248 162.21 125.179 172.523 127.246C175.05 128.869 178.334 141.371 178.55 143.526C181.358 171.525 181.308 198.99 174.646 226.447C173.475 231.273 172.912 239.764 168.612 242.49L167.916 242.496C166.651 240.913 168.065 238.255 167.447 236.451C166.978 236.631 166.736 236.771 166.32 237.015C161.392 239.904 120.993 243.564 112.635 244.05C107.49 244.35 102.324 244.078 97.1818 244.415C93.3735 244.665 89.6235 245.48 85.838 245.757C83.8845 245.899 81.3808 245.162 79.6289 246.105L79.0822 246.149C79.0772 245.078 79.0086 243.583 79.95 242.875C82.7501 240.77 86.9953 241.426 90.2074 241.19C93.4382 240.891 96.6149 240.336 99.8501 240.057C103.964 239.702 108.341 240.05 112.425 239.624C123.749 238.444 135.095 237.291 146.423 236.143C152.826 235.495 159.177 233.727 165.538 232.854C166.152 232.763 167.384 233.712 167.948 234.126C169.513 224.808 171.81 215.729 173.446 206.43C174.415 200.924 174.751 195.539 175.277 190.01C176.101 181.362 175.516 172.952 175.094 164.312C174.847 159.259 174.864 154.098 174.138 149.076C173.285 143.361 170.787 137.283 169.761 131.479C160.555 132.284 154.376 134.884 145.59 136.682C135.02 138.844 123.354 138.277 112.677 140.05C104.423 141.242 97.0614 144.138 88.7411 145.142C89.3129 147.572 90.2443 151.916 90.2665 154.336C90.3749 166.159 90.479 179.296 90.1224 190.994C89.8713 199.23 82.7185 242.42 76.3942 245.474L75.8006 245.298C74.6695 242.883 77.5511 233.04 78.2027 230.147C81.9395 213.552 86.4656 197.199 86.1905 180.027C86.1445 177.148 86.7486 173.736 85.4118 171.163C84.8153 169.155 85.8143 165.437 85.8322 163.34C85.8793 157.83 84.0199 148.285 84.5097 143.512C84.7702 140.973 107.863 135.529 110.198 135.235Z" fill="black"/>
<path d="M133.592 126.658C134.121 127.07 135.148 131.568 135.489 132.723C128.82 133.73 121.643 133.378 115.206 134.567C114.388 134.765 114.79 134.807 113.978 134.555C113.52 133.621 113.711 132.119 113.745 131.019C120.122 128.835 126.914 128.189 133.592 126.658Z" fill="white"/>
<path d="M315.958 384.803C316.535 385.043 317.007 385.271 317.569 385.541C318.976 387.293 316.901 399.419 316.556 402.636L313.84 428.997C313.468 432.445 313.427 436.459 313.137 440.06C312.434 448.383 311.637 456.697 310.749 465.003C316.837 464.88 344.282 459.867 346.538 465.193C345.56 468.727 339.852 467.757 336.949 467.78C328.046 467.854 319.497 468.826 310.547 468.876C310.327 470.971 310.242 473.109 310.052 475.213C307.717 500.824 305.37 526.764 300.879 552.097C301.157 552.026 301.435 551.959 301.717 551.895C305.883 550.951 323.736 549.691 324.36 555.691C325.087 562.652 315.943 562.682 311.282 563.118C312.858 564.987 313.617 567.41 313.389 569.845C313.16 572.241 312.299 573.478 310.509 574.922C309.126 575.452 308.127 575.836 306.639 575.599C304.617 575.262 302.821 574.122 301.655 572.438C297.395 566.206 303.861 563.232 304.096 562.148C303.231 561.899 302.61 561.773 301.74 561.606C300.996 560.874 300.65 558.185 300.425 556.992C297.964 565.726 297.469 587.774 294.231 593.174C293.142 593.232 294.325 593.101 292.966 592.371C291.506 593.566 291.577 596.525 289.757 597.425C287.372 594.686 291.883 580.893 292.53 577.031C297.231 549.026 301.283 521.241 304.052 492.964L310.274 423.275C310.81 417.507 313.207 387.943 315.958 384.803Z" fill="black"/>
<path d="M323.276 148.793C324.143 148.715 324.205 148.768 325.075 148.94C326.853 150.532 325.116 153.067 324.088 154.755C322.746 156.961 321.542 159.017 320.358 161.328C333.041 155.925 332.965 159.569 328.38 171.359C327.463 173.72 323.643 182.788 321.554 183.003C320.856 182.241 321.082 182.242 320.947 180.944C319.84 181.695 319.52 181.991 318.246 181.766C315.261 179.228 321.826 168.521 323.528 165.605C303.507 177.224 314.587 155.203 323.276 148.793Z" fill="black"/>
<path d="M208.709 190.6C209.016 190.665 209.292 190.707 209.581 190.851C210.288 191.205 210.818 191.836 211.043 192.594C211.766 195.054 208.689 200.19 207.475 202.524C208.005 202.235 208.543 201.958 209.086 201.695C215.873 198.369 219.026 200.885 216.223 208.182C214.667 211.866 212.722 215.578 210.727 219.045C209.495 221.185 207.677 225.463 205.353 226.235C204.106 225.915 204.635 226.22 203.737 225.237C204.745 219.881 208.302 211.649 210.917 206.943C189.241 222.204 202.633 195.475 208.709 190.6Z" fill="black"/>
<path d="M200.754 142.629C201.948 142.679 203.819 142.906 203.652 144.428C199.453 147.721 199.9 156.687 207.042 156.974C208.132 156.241 207.787 149.856 210.041 148.051C211.681 146.737 213.848 144.759 216.124 146.739C220.555 150.593 213.944 155.725 214.03 157.44L215.223 158.026C219.132 159.226 221.576 159.099 225.627 159.222C225.552 159.291 225.477 159.359 225.402 159.428L225.02 159.763C221.413 162.968 215.559 163.971 211.626 161.567C207.258 158.897 209.937 160.182 204.85 160.158C196.579 160.12 195.82 147.183 200.754 142.629Z" fill="black"/>
<path d="M213.427 149.805C213.848 150.004 213.631 149.858 214.03 150.305C213.904 151.361 213.113 152.385 212.527 153.318L212.34 153.368L212.034 153.089C212.215 151.836 212.823 150.934 213.427 149.805Z" fill="#E3E4E6"/>
<path d="M154.293 166.812C156.485 166.511 159.663 166.462 160.986 168.58C160.959 169.027 161.038 169.236 160.727 169.595C157.547 173.267 129.891 176.074 123.383 176.63C121.278 176.853 117.71 177.893 116.76 175.769C116.922 173.029 118.806 172.72 121.087 172.268C125.832 171.328 130.674 170.997 135.454 170.187C141.719 169.125 147.991 167.582 154.293 166.812Z" fill="black"/>
<path d="M155.982 219.259C157.703 219.177 158.762 219.46 159.777 220.877C159.787 221.385 159.873 221.514 159.574 221.956C156.435 226.58 129.658 231.29 123.686 232.394C121.664 232.869 120.173 233.558 119.197 231.19C119.305 229.684 120.236 228.765 121.64 228.323C125.864 226.992 130.231 226.041 134.522 224.898C141.511 223.037 148.777 220.048 155.982 219.259Z" fill="black"/>
<path d="M154.855 185.258C156.577 185.065 160.804 185.334 159.187 188.034C151.737 192.757 133.075 194.848 123.7 196.287C122.038 196.648 120.064 197.413 119.368 195.322C118.584 192.97 121.965 192.028 123.615 191.57C128.854 190.118 134.309 189.465 139.625 188.34C144.67 187.354 149.775 185.955 154.855 185.258Z" fill="black"/>
<path d="M151.451 206.382C153.383 206.281 157.761 206.542 156.922 209.498C156.008 210.562 154.504 211.315 153.15 211.565C144.393 213.188 135.016 212.705 126.346 214.903L125.855 215.029C123.81 215.664 121.292 216.473 120.271 213.851C121.179 208.465 146.395 206.719 151.451 206.382Z" fill="black"/>
<path d="M148.492 148.064C150.232 147.825 151.284 147.633 152.567 148.886C153.482 151.472 149.17 152.788 147.221 153.035C137.725 154.244 128.547 155.862 119.126 157.61C117.122 157.88 116.031 158.416 114.657 156.803C114.525 156.118 114.398 155.799 114.825 155.171C117.561 151.147 142.698 148.722 148.492 148.064Z" fill="black"/>
<path d="M369.091 402.768C378.079 403.397 385.96 426.902 381.53 434.057C377.912 432.196 374.725 412.948 371.01 409.058C370.479 408.504 368.297 405.437 367.966 404.566C367.813 404.168 368.924 402.981 369.091 402.768Z" fill="black"/>
<path d="M338.994 195.285C339.469 195.47 340.274 195.643 340.579 196.061C342.387 198.564 342.205 221.272 341.628 225.197C341.353 227.075 341.115 228.296 339.551 229.454C339.234 229.353 338.769 229.14 338.446 229.005C335.279 225.1 337.146 206.961 336.935 201.578C336.853 199.543 337.497 196.827 338.994 195.285Z" fill="black"/>
<path d="M381.372 440.543C382.102 440.678 382.277 440.824 382.948 441.158C384.519 443.086 387.926 457.91 387.24 461.147C386.792 463.266 387.229 463.307 385.477 464.728C382.887 464.051 382.096 459.873 381.856 457.518C381.401 453.082 377.839 443.962 381.372 440.543Z" fill="black"/>
<path d="M76.4869 374.652C82.9161 374.854 83.7859 382.524 77.6183 385.683C75.2679 386.028 72.8632 385.038 72.8198 382.313C72.772 379.302 74.5252 376.776 76.4869 374.652Z" fill="black"/>
<path d="M329.338 199.604C333.987 200.347 331.482 214.461 331.898 218.102C331.963 218.675 330.785 219.083 330.337 219.307C330.114 219.204 329.645 218.896 329.42 218.756C327.853 215.408 327.205 202.841 329.338 199.604Z" fill="black"/>
<path d="M320.232 203.229C323.505 203.36 323.584 206.934 323.792 209.631C324.023 212.591 324.088 215.025 322.304 217.527C319.312 218.431 318.99 212.566 318.946 210.626C318.891 208.054 318.551 205.303 320.232 203.229Z" fill="black"/>
<path d="M284 197.824C286.504 198.002 289.341 199.153 290.108 201.775C289.325 204.63 284.792 201.927 282.811 201.74C281.167 202.677 279.158 204.238 277.298 203.228C276.324 200.19 281.829 198.381 284 197.824Z" fill="black"/>
<path d="M103.146 208.6C108.461 209.262 108.199 214.371 104.025 217.022C99.1435 217.267 98.4527 210.795 103.146 208.6Z" fill="black"/>
<path d="M100.217 225.006C106.239 224.613 106.613 230.138 101.597 232.782C95.9233 232.672 96.8231 227.845 100.217 225.006Z" fill="black"/>
<path d="M102.585 153.195C108.037 154.091 107.413 158.925 103.497 161.774L102.402 161.915C98.7833 160.73 98.7511 154.859 102.585 153.195Z" fill="black"/>
<path d="M187.702 245.961C191.709 246.586 190.449 255.869 188.59 258.141C183.971 257.529 185.829 248.653 187.702 245.961Z" fill="black"/>
<path d="M105.477 188.414C110.704 189.284 109.659 194.683 105.276 196.475C100.954 195.704 100.85 190.119 105.477 188.414Z" fill="black"/>
<path d="M194.507 243.588C199.755 243.807 197.336 251.245 196.027 254.121C191.978 254.425 192.481 250.947 192.848 247.953C193.061 246.218 193.524 245.044 194.507 243.588Z" fill="black"/>
<path d="M103.458 171.672C109.284 171.154 108.874 175.913 105.384 178.923C99.9668 179.561 100.233 174.631 103.458 171.672Z" fill="black"/>
<path d="M273.411 178.029C274.7 178.216 274.99 178.251 275.205 179.481C274.57 181.696 272.442 183.291 270.545 184.405C269.673 184.578 270.005 184.56 269.11 184.387L268.777 183.809C268.957 181.659 271.832 179.37 273.411 178.029Z" fill="black"/>
<path d="M285.529 175.307C287.23 175.879 289.448 176.914 290.577 178.326C290.813 179.487 290.884 178.932 290.25 180.033C288.136 180.151 285.776 179.608 284.813 177.533C284.77 176.416 284.96 176.254 285.529 175.307Z" fill="black"/>
<path d="M273.105 185.033C276.945 186.205 276.105 188.361 273.887 190.722C270.934 190.277 271.199 186.802 273.105 185.033Z" fill="black"/>
<path d="M281.185 189.72C285.328 189.669 285.47 191.464 283.705 194.637C283.392 194.838 283.044 194.942 282.686 195.083L282.141 194.839C281.517 193.446 281.325 191.268 281.185 189.72Z" fill="black"/>
<path d="M287.327 182.68C288.734 183.216 289.674 183.493 289.832 185.105C289.504 186.206 288.785 186.655 287.91 187.439C286.986 187.478 287.037 187.413 286.245 186.891C285.241 185.144 286.003 183.878 287.327 182.68Z" fill="black"/>
<path d="M536.947 351.68C538.187 351.747 538.339 351.642 538.813 352.696C538.705 354.023 537.967 354.943 537.258 356.115L536.481 356.133C535.324 354.87 536.15 352.939 536.947 351.68Z" fill="black"/>
<path d="M79.5452 251.566C79.6372 251.458 80.0277 251.263 80.1745 251.18C80.3819 252.482 81.1911 256.325 80.6731 257.396C79.9802 256.611 79.7511 252.953 79.5452 251.566Z" fill="#7C7F7F"/>
<path d="M79.0823 246.15L79.629 246.105C79.8411 247.793 80.023 249.485 80.1745 251.179C80.0277 251.262 79.6372 251.458 79.5452 251.566C79.4488 251.299 79.2115 247.102 79.0823 246.15Z" fill="#E3E4E6"/>
</svg>
